<?xml version="1.0" encoding="utf-8"?>
<!-- Generator: Adobe Illustrator 26.1.0, SVG Export Plug-In . SVG Version: 6.00 Build 0)  -->
<svg version="1.1" id="Layer_1" xmlns="http://www.w3.org/2000/svg" xmlns:xlink="http://www.w3.org/1999/xlink" x="0px" y="0px"
	 viewBox="0 0 1920 1080" style="enable-background:new 0 0 1920 1080;" xml:space="preserve">
<style type="text/css">
	.st0{fill:#FFFFFF;}
	.st1{fill:#DC143C;}
	.st2{fill:#003893;}
	.st3{fill:#DAD6C5;}
	.st4{fill:#484848;}
	.st5{fill:#FEFEFE;}
</style>
<g>
	<path class="st0" d="M1679.08,930.24c-479.36,0-958.72,0-1438.08,0c0-260.08,0-520.16,0-780.24c479.36,0,958.72,0,1438.08,0
		C1679.08,410.08,1679.08,670.16,1679.08,930.24z M868.27,849.45c2.98-2.11,5.65-4.61,8.5-6.88c2.85-2.27,5.94-4.32,8.34-7.15
		c0.2-0.24,0.46-0.47,0.73-0.61c2.04-1.04,3.47-2.79,5.09-4.32c0.81-0.77,1.53-1.69,2.46-2.27c2.35-1.45,4.17-3.47,6.09-5.37
		c3.98-3.93,7.96-7.85,11.86-11.86c3.78-3.88,7.81-7.51,11.1-11.88c2.1-2.78,4.83-5.05,6.93-7.9c1.59-2.16,3.54-4.07,5.24-6.19
		c2.59-3.22,5.12-6.49,7.7-9.73c3.48-4.36,6.61-8.96,9.82-13.51c5.51-7.82,10.6-15.9,15.53-24.1c1.32-2.19,2.44-4.49,3.77-6.66
		c3.18-5.17,5.79-10.64,8.76-15.92c1.73-3.06,2.89-6.4,4.43-9.54c3.09-6.3,5.94-12.71,8.54-19.22c1.95-4.88,3.89-9.77,5.68-14.71
		c3.08-8.54,5.63-17.25,8.34-25.91c0.09-0.3,0.19-0.61,0.26-0.92c1.55-7.3,3.76-14.44,5.17-21.79c0.9-4.67,2.3-9.24,2.72-14.01
		c1.13-2.68,0.57-5.71,1.7-8.39c-0.16-2.27,0.93-4.39,0.94-6.59c0.01-2.27,0.8-4.36,0.91-6.57c0.16-2.07,0.3-4.14,0.49-6.21
		c0.46-5.09,1.05-10.18,1.37-15.28c0.38-6.22,0.54-12.46,0.76-18.69c0.1-2.72,0.25-5.44,0.15-8.15c-0.4-10.38-0.56-20.77-1.44-31.14
		c-0.79-9.4-1.83-18.77-3.29-28.08c-1.67-10.73-3.82-21.39-6.4-31.95c-5.78-23.67-13.71-46.59-23.84-68.74
		c-7.52-16.45-16.16-32.29-25.91-47.53c-21.97-34.35-48.75-64.45-80.11-90.48c-20.61-17.1-42.8-31.86-66.5-44.32
		c-30.14-15.85-61.84-27.5-95.07-34.92c-12.47-2.79-25.05-5.02-37.76-6.43c-3.33-0.37-6.67-0.75-10.01-1.05
		c-5.57-0.5-11.13-1.05-16.71-1.36c-5.1-0.28-10.23-0.34-15.34-0.36c-10.87-0.04-21.73,0-32.58,0.87
		c-5.25,0.42-10.51,0.81-15.75,1.39c-9.84,1.08-19.63,2.56-29.36,4.4c-14.14,2.67-28.08,6.11-41.83,10.34
		c-26.21,8.05-51.23,18.87-75.14,32.28c-17.46,9.79-34.05,20.88-49.77,33.27c-25.61,20.19-48.37,43.22-68.26,69.08
		c-12.5,16.25-23.65,33.38-33.4,51.41c-13.8,25.54-24.68,52.28-32.4,80.29c-3.44,12.49-6.31,25.1-8.46,37.87
		c-1.17,6.94-2.11,13.9-3,20.87c-1.18,9.21-1.81,18.45-2.27,27.71c-0.54,10.86-0.54,21.74-0.09,32.61c0.3,7.34,0.77,14.68,1.45,22
		c0.66,7.16,1.51,14.31,2.56,21.41c1.22,8.21,2.71,16.39,4.49,24.5c0.64,1.58,0.75,3.27,1.13,4.9c0.39,1.66,0.83,3.26,0.74,4.97
		c-0.03,0.65,0.22,1.19,0.7,1.63c0.39,1.38,0.8,2.76,1.17,4.15c4.68,17.96,10.64,35.49,17.86,52.59
		c9.48,22.43,20.99,43.77,34.51,64.03c12.9,19.33,27.41,37.35,43.55,54.06c13.9,14.4,28.77,27.7,44.71,39.82
		c16.05,12.21,32.94,23.13,50.69,32.69c18.17,9.79,37,18.1,56.51,24.85c14.05,4.86,28.33,8.9,42.84,12.11
		c7.49,1.65,15.02,3.08,22.58,4.33c5.04,0.83,10.11,1.51,15.19,2.1c4.92,0.57,9.86,0.87,14.78,1.42c7.79,0.87,15.62,0.93,23.44,1.25
		c10.38,0.42,20.77-0.03,31.14-0.6c9.41-0.51,18.78-1.46,28.13-2.67c12.21-1.58,24.3-3.77,36.29-6.51
		c20.59-4.71,40.65-11.12,60.18-19.17c25.2-10.38,49.04-23.27,71.46-38.76C858.17,856.74,863.2,853.06,868.27,849.45z
		 M1250.87,750.5c14.42,0,24.65-0.04,34.88,0.02c4.79,0.03,9.58,0.19,14.26,1.38c6.79,1.72,12.88,4.69,17.78,9.84
		c1.54,1.62,3.18,3.16,4.88,4.61c4.65,3.98,9.88,7.01,15.54,9.34c9.41,3.88,19.18,5.94,29.35,6.09c2.88,0.04,5.76-0.04,8.63,0.02
		c6.25,0.14,12.43-0.65,18.6-1.48c4.73-0.63,9.44-1.48,14.11-2.51c11.25-2.48,22.26-5.73,32.86-10.27
		c5.3-2.27,10.35-5.01,15.12-8.25c3.07-2.09,5.77-4.56,8.05-7.47c2.72-3.49,3.53-7.44,2.59-11.77c-0.53-2.42-1.78-4.44-3.36-6.27
		c-2.63-3.05-5.74-5.55-9.11-7.74c-4.71-3.06-9.71-5.54-14.89-7.69c-6.79-2.82-13.77-5.11-20.86-7.07
		c-9.24-2.55-18.65-4.23-28.12-5.56c-2.52-0.36-5.06-0.61-7.61-0.76c-3.03-0.18-6.07-0.22-9.11-0.27
		c-7.84-0.12-15.62,0.28-23.31,2.05c-9.13,2.1-17.66,5.49-25.34,10.95c-3.02,2.15-5.64,4.71-8.22,7.33
		c-2.49,2.53-5.3,4.61-8.43,6.26c-3.85,2.03-7.96,3.25-12.23,4.01c-3.47,0.62-6.98,0.75-10.5,0.75
		c-12.31-0.01-24.62-0.07-36.93,0.01c-14.55,0.09-29.09-0.4-43.63-0.81c-0.96-0.03-1.94,0.01-2.86-0.2
		c-2.05-0.48-4.13-0.39-6.2-0.48c-1.59-0.07-3.19-0.16-4.78-0.31c-5.71-0.54-11.44-0.94-17.15-1.51
		c-6.66-0.67-13.31-1.45-19.95-2.27c-6.01-0.75-11.99-1.71-17.98-2.6c-6.14-0.91-12.28-1.82-18.42-2.74
		c-2.36-0.35-4.74-0.63-7.11-0.88c-4.93-0.51-9.89-0.53-14.84-0.51c-6.41,0.02-12.72,0.82-18.95,2.29c-3.43,0.81-6.73,2-9.87,3.62
		c-2.3,1.19-4.31,2.76-6.06,4.64c-4.47,4.78-4.69,12.98,0.22,17.83c1.84,1.81,3.85,3.35,6.15,4.52c3.43,1.74,7.06,2.9,10.78,3.91
		c6.53,1.76,13.25,1.89,19.91,2.48c1.1,0.1,2.23-0.09,3.35-0.16c2.07-0.13,4.14-0.29,6.22-0.41c1.12-0.07,2.25,0,3.35-0.13
		c5.85-0.71,11.7-1.42,17.53-2.29c3.78-0.57,7.58-0.99,11.37-1.5c3.32-0.44,6.64-0.86,9.95-1.38c4.25-0.67,8.51-1.22,12.79-1.7
		c2.85-0.32,5.72-0.51,8.54-0.99c5.2-0.9,10.48-0.87,15.71-1.56c5.06-0.66,10.18-0.84,15.28-1.16c2.39-0.15,4.8-0.06,7.19-0.19
		c2.55-0.14,5.09-0.55,7.63-0.59C1230.12,750.73,1242.59,750.6,1250.87,750.5z M1421.82,808.97c12.63,0,25.26,0,37.89,0
		c1.44,0,2.88-0.07,4.32,0c1.81,0.08,3-0.87,4-2.21c0.6-0.8,0.6-1.85,0.02-2.67c-1.09-1.53-2.52-2.37-4.44-2.4
		c-2.24-0.03-4.51,0.05-6.7-0.31c-2.23-0.36-4.44-0.44-6.67-0.49c-0.96-0.02-1.93-0.01-2.87-0.14c-4.12-0.56-8.31-0.15-12.41-0.97
		c-5.12,0.17-10.17-0.79-15.29-0.93c-6.38-0.18-12.73-0.96-19.12-1.16c-0.32-0.01-0.64,0.01-0.96-0.05
		c-5.21-0.92-10.5-0.8-15.76-1.03c-6.06-0.26-12.15-0.11-18.22-0.05c-5.27,0.05-10.5,0.65-15.7,1.53c-2.2,0.37-4.35,0.96-6.53,1.45
		c-3.77,0.85-7.25,2.49-10.72,4.11c-6.24,2.91-12.67,5.31-19.27,7.23c-7.36,2.15-14.82,3.8-22.5,4.3c-4.57,1.05-9.22,0.7-13.84,0.7
		c-19.18,0.03-38.37-0.09-57.55,0.05c-8.16,0.06-16.27-0.95-24.42-0.91c-0.32,0-0.64-0.03-0.96-0.08c-6-0.9-12.12-0.58-18.1-1.7
		c-4.48-0.1-8.86-1.18-13.33-1.3c-5.95-1.15-12-1.61-17.96-2.65c-4.24-0.74-8.5-1.29-12.74-2c-6.28-1.05-12.57-2.13-18.9-2.78
		c-5.23-0.54-10.47-1.11-15.76-0.96c-3.35,0.09-6.68,0.35-10.02,0.63c-4.48,0.37-8.84,1.25-13.14,2.47
		c-3.38,0.96-6.66,2.26-9.56,4.32c-1.97,1.39-3.78,2.96-5.13,4.97c-1.37,2.04-1.55,4.5-2.28,6.76c-0.14,0.42-0.04,0.96,0.07,1.42
		c0.2,0.77,0.62,1.5,0.74,2.27c0.41,2.51,1.8,4.4,3.56,6.09c2.09,2.01,4.48,3.59,7.12,4.8c5.12,2.35,10.54,3.69,16.07,4.5
		c7.61,1.12,15.26,1.44,22.94,0.62c3.01-0.32,6.07-0.31,9.06-0.8c3.62-0.59,7.25-1.04,10.87-1.58c3.15-0.47,6.3-0.93,9.44-1.42
		c3.3-0.52,6.62-0.92,9.94-1.38c3.47-0.48,6.96-0.86,10.41-1.46c2.83-0.49,5.67-0.88,8.51-1.19c4.28-0.47,8.58-0.82,12.82-1.43
		c5.86-0.85,11.76-0.92,17.63-1.58c3.63-0.41,7.34-0.21,10.99-0.75c0.63-0.09,1.28-0.07,1.92-0.08c7.51-0.12,15.03-0.29,22.54-0.32
		c13.75-0.05,27.5-0.1,41.25,0.02c6.54,0.06,13.08,0.11,19.62,0.87c5.07,0.59,10.11,1.3,15.09,2.38c9.08,1.98,17.82,5,26.05,9.39
		c3.4,1.81,6.97,3.14,10.73,4.02c5.6,1.31,11.24,2.22,17,2.42c1.28,0.04,2.56,0.07,3.83,0.18c6.07,0.52,12.14,0.35,18.21,0.1
		c2.39-0.1,4.79-0.35,7.18-0.26c2.43,0.09,4.75-0.6,7.14-0.7c3.35-0.14,6.7-0.41,10.05-0.49c4.95-0.12,9.86-1.01,14.83-0.83
		c0.47,0.02,0.97-0.05,1.42-0.18c1.88-0.53,3.8-0.42,5.72-0.49c1.28-0.05,2.56-0.02,3.83-0.12c5.89-0.47,11.78-1.06,17.69-1.12
		c0.64-0.01,1.3,0.03,1.91-0.13c2.35-0.63,4.76-0.48,7.15-0.58c1.43-0.06,2.87-0.2,4.29-0.35c1.18-0.12,2.04-0.81,2.83-1.65
		c1.19-1.27,1.17-2.44-0.08-3.78c-0.79-0.85-1.7-1.42-2.92-1.4c-1.6,0.02-3.2-0.02-4.8-0.02c-24.3,0-48.6,0-72.9,0
		c-1.76,0-3.52,0.01-5.28-0.01c-0.8-0.01-1.63,0.07-2.38-0.14c-0.9-0.24-1.83-0.61-2.58-1.15c-0.94-0.68-1.16-1.91-0.08-2.86
		c0.76-0.66,1.63-1.06,2.59-1.12c1.75-0.1,3.51-0.12,5.27-0.12c25.1-0.01,50.2,0,75.3-0.01c1.6,0,3.2-0.05,4.8-0.03
		c1.43,0.01,2.4-0.73,3.21-1.79c0.61-0.8,0.61-1.83,0.03-2.66c-0.77-1.1-1.74-1.88-3.15-1.9c-1.6-0.03-3.2-0.05-4.8-0.05
		c-24.94,0-49.88,0-74.82,0c-1.6,0-3.2,0.02-4.8-0.04c-0.79-0.03-1.58-0.2-2.36-0.37c-1.04-0.23-2.17-1.62-1.95-2.4
		c0.27-0.97,0.91-1.69,1.87-2.02c0.6-0.2,1.24-0.35,1.87-0.38c1.44-0.06,2.88-0.04,4.32-0.04c24.94,0,49.88,0,74.82,0
		c1.76,0,3.52,0,5.28-0.03c0.48-0.01,0.96-0.05,1.43-0.12c1.13-0.18,2.65-1.85,2.74-3.03c0.02-0.3-0.04-0.66-0.18-0.93
		c-0.71-1.34-1.77-2.31-3.33-2.44c-1.43-0.12-2.87-0.11-4.31-0.11c-25.74-0.01-51.48,0-77.22-0.01c-1.44,0-2.88,0.01-4.32-0.05
		c-0.46-0.02-0.93-0.2-1.37-0.38c-0.9-0.36-1.73-1.48-1.6-2.17c0.19-1.04,0.9-1.68,1.83-2.03c0.59-0.22,1.24-0.32,1.87-0.35
		c1.44-0.06,2.88-0.04,4.32-0.04C1396.57,808.97,1409.19,808.97,1421.82,808.97z M1241.45,531.72c0.03-0.56,0.19-1.06,0.05-1.47
		c-0.35-1.06-0.81-2.08-1.26-3.1c-7-15.94-13.98-31.89-21.01-47.82c-1.43-3.23-1.08-3.24,1.79-4.62
		c6.97-3.36,11.68-8.79,14.46-15.93c1.28-3.29,2.13-6.73,2.2-10.27c0.11-4.95,0.14-9.91-0.01-14.86c-0.13-4.19-1.23-8.22-2.99-12.02
		c-1.34-2.91-3.09-5.57-5.34-7.91c-4.12-4.28-9.18-6.82-14.83-8.37c-3.74-1.03-7.56-1.22-11.4-1.22c-12.3,0-24.61-0.01-36.91-0.01
		c-5.15,0-4.82-0.39-4.82,5.04c0,39.17,0,78.33,0,117.5c0,1.28,0.05,2.56,0.09,3.83c0.02,0.66,0.57,1.26,1.15,1.3
		c0.79,0.05,1.59,0.11,2.39,0.11c4,0.01,7.99,0,11.99,0.01c4.73,0.01,4.39,0.19,4.39-4.45c0.01-14.39,0-28.78,0.01-43.16
		c0-1.44,0.03-2.88,0.07-4.31c0.03-0.83,0.7-1.5,1.55-1.5c4.47,0.01,8.94,0.05,13.41,0.09c0.15,0,0.3,0.1,0.66,0.23
		c0.41,0.84,0.95,1.81,1.37,2.83c4.79,11.5,9.55,23.01,14.33,34.52c1.84,4.43,3.75,8.82,5.49,13.28c0.67,1.72,1.6,2.52,3.51,2.5
		c5.91-0.08,11.83-0.02,17.74-0.03C1240.14,531.9,1240.76,531.79,1241.45,531.72z M1481.15,627.72c0.91-1.27,2.21-1.57,3.32-2.15
		c8.16-4.29,13.13-11.07,15.13-19.95c1.78-7.88,1.29-15.88,0.59-23.86c-0.07-0.79-0.28-1.57-0.46-2.35
		c-2.65-11.4-9.51-18.93-20.7-22.42c-4.14-1.29-8.41-1.84-12.75-1.84c-12.78,0.01-25.57-0.01-38.35,0c-0.8,0-1.59,0.06-2.39,0.11
		c-0.55,0.03-1.16,0.67-1.18,1.29c-0.06,1.28-0.12,2.55-0.12,3.83c-0.01,8.79-0.01,17.58-0.01,26.38c0,29.89,0,59.79,0,89.68
		c0,1.6,0.02,3.2,0.06,4.79c0.03,1.05,0.71,1.69,1.87,1.7c5.43,0.02,10.87,0.01,16.3,0c0.32,0,0.67-0.02,0.94-0.16
		c0.27-0.13,0.63-0.41,0.65-0.65c0.12-1.27,0.2-2.54,0.2-3.81c0.01-14.23,0.01-28.45,0.01-42.68c0-1.44,0.02-2.88,0.06-4.31
		c0.02-0.9,0.61-1.57,1.44-1.57c4.47,0,8.94,0.02,13.42,0.06c0.29,0,0.58,0.24,0.99,0.42c0.47,1.07,1.01,2.23,1.5,3.41
		c2.65,6.34,5.29,12.67,7.92,19.02c3.98,9.59,7.95,19.18,11.91,28.78c0.42,1.02,1.17,1.5,2.21,1.51c6.55,0.01,13.1-0.01,19.65-0.03
		c0.15,0,0.3-0.1,0.45-0.13c0.33-0.05,0.76-0.77,0.64-1.11c-0.39-1.05-0.76-2.1-1.21-3.12c-2.63-6-5.28-11.99-7.91-17.98
		c-4.43-10.09-8.85-20.19-13.26-30.29C1481.68,629.41,1481.43,628.51,1481.15,627.72z M1122.11,627.65c1.08-1.26,2.55-1.59,3.8-2.27
		c5.22-2.82,9.22-6.83,11.95-12.09c2.4-4.61,3.65-9.56,3.82-14.73c0.14-3.99,0.07-8,0.03-11.99c-0.04-3.87-0.82-7.63-2.09-11.27
		c-1.39-3.97-3.53-7.5-6.47-10.54c-3.65-3.78-8.07-6.23-13.04-7.76c-3.99-1.23-8.1-1.82-12.28-1.83
		c-9.27-0.03-18.55-0.07-27.82-0.08c-4-0.01-7.99,0.04-11.99,0.08c-0.63,0.01-1.28,0.08-1.89,0.24c-0.26,0.07-0.6,0.42-0.62,0.67
		c-0.12,1.43-0.2,2.87-0.2,4.3c-0.01,27.19-0.01,54.38-0.01,81.57c0,12,0,23.99,0,35.99c0,1.28,0,2.56,0.12,3.83
		c0.04,0.41,0.36,0.88,0.91,0.99c0.31,0.06,0.62,0.18,0.93,0.18c5.44,0.01,10.87,0.01,16.31-0.01c0.32,0,0.67-0.02,0.94-0.16
		c0.26-0.13,0.61-0.41,0.63-0.66c0.12-1.27,0.2-2.54,0.2-3.81c0.01-13.91,0.01-27.83,0.01-41.74c0-1.28,0-2.56,0.01-3.84
		c0-0.48,0.02-0.96,0.05-1.44c0.04-0.91,0.59-1.53,1.46-1.53c4.47,0.01,8.95,0.03,13.42,0.08c0.29,0,0.58,0.25,0.98,0.43
		c0.46,1.09,0.98,2.26,1.47,3.44c6.37,15.35,12.73,30.7,19.12,46.04c0.42,1.01,0.64,2.16,1.88,3.05c0.67,0.05,1.61,0.17,2.55,0.17
		c3.36,0.02,6.72,0.09,10.07-0.01c3.02-0.09,6.07,0.48,9.04-0.39c0.51-0.15-0.04-1.57-3.25-8.84c-6.26-14.18-12.48-28.38-18.7-42.58
		C1122.94,629.98,1122.54,628.78,1122.11,627.65z M1387.61,380.42c0.84,0.09,1.62,0.25,2.41,0.25c5.91,0.02,11.83,0.01,17.74,0.01
		c0.48,0,0.95-0.08,1.43-0.12c0.39-0.04,0.86-0.71,0.72-1.05c-0.35-0.89-0.7-1.78-1.09-2.66c-6.74-15.36-13.49-30.72-20.22-46.08
		c-0.7-1.61-1.33-3.24-1.99-4.87c-0.14-0.35,0.16-1.05,0.51-1.23c1.27-0.66,2.58-1.28,3.83-1.98c5.17-2.91,9.03-7.09,11.61-12.4
		c1.83-3.76,2.99-7.75,3.25-11.96c0.33-5.43,0.32-10.87,0.03-16.3c-0.21-4.04-1.29-7.88-2.93-11.55c-1.32-2.94-3.11-5.56-5.34-7.9
		c-3.75-3.92-8.29-6.46-13.45-7.97c-4.01-1.17-8.12-1.72-12.3-1.73c-10.23-0.03-20.46-0.07-30.69-0.09
		c-2.88-0.01-5.75,0.04-8.63,0.09c-0.63,0.01-1.27,0.06-1.88,0.2c-0.26,0.06-0.61,0.39-0.64,0.63c-0.14,1.1-0.24,2.22-0.24,3.33
		c-0.01,39.97-0.01,79.94,0,119.92c0,0.95,0.06,1.91,0.18,2.85c0.03,0.25,0.36,0.54,0.62,0.68c0.27,0.14,0.62,0.17,0.94,0.17
		c5.43,0.01,10.87,0.01,16.3,0c0.31,0,0.62-0.13,0.93-0.18c0.55-0.1,0.89-0.58,0.92-0.99c0.12-1.43,0.13-2.87,0.13-4.31
		c0.01-13.91,0-27.82,0.01-41.73c0-1.6,0.06-3.19,0.1-4.79c0.02-0.6,0.61-1.17,1.24-1.18c4.63-0.11,9.26-0.16,13.74,0.03
		c1.4,1.02,1.66,2.52,2.2,3.81c6.45,15.48,12.85,30.99,19.28,46.48C1386.69,378.67,1387.16,379.5,1387.61,380.42z M1561.6,462.36
		c1.73-1.76,3.2-3.22,4.62-4.71c4.92-5.17,8.63-11.06,10.62-17.97c1.71-5.93,1.93-11.98,1.2-18.05c-0.46-3.82-1.61-7.48-3.6-10.84
		c-2.62-4.43-6.27-7.63-11.13-9.35c-5.24-1.86-10.6-2.18-16.04-1.04c-7.14,1.5-12.51,5.39-16.04,11.8
		c-2.29,4.16-3.28,8.68-3.45,13.34c-0.33,8.92,1.22,17.51,5.39,25.49c1.33,2.55,2.83,5,4.23,7.51c0.22,0.39,0.31,0.84,0.41,1.13
		c-0.44,1.15-1.39,1.54-2.13,2.1c-2.56,1.93-4.91,4.09-7.09,6.43c-5.13,5.5-8.49,11.9-9.97,19.32c-1.1,5.56-1.05,11.13-0.38,16.7
		c0.49,4.13,1.59,8.15,3.39,11.94c3.57,7.49,9.23,12.59,17.35,14.6c6.64,1.65,13.3,1.38,19.87-0.58c5.62-1.67,10.49-4.62,14.87-8.45
		c1.08-0.94,2.12-1.93,3.22-2.94c0.43,0.33,0.9,0.54,1.15,0.9c0.8,1.19,1.51,2.45,2.27,3.67c1.35,2.16,2.7,4.32,4.04,6.45
		c0.79,0.07,1.42,0.17,2.05,0.17c6.23,0.01,12.46,0.01,18.69,0c0.31,0,0.69-0.01,0.92-0.17c0.2-0.14,0.42-0.59,0.33-0.77
		c-0.33-0.72-0.73-1.41-1.18-2.06c-4.18-6.04-8.37-12.08-12.56-18.11c-0.64-0.92-1.27-1.84-1.86-2.79
		c-0.34-0.56-0.47-1.18-0.16-1.81c0.21-0.43,0.4-0.87,0.63-1.29c5.79-10.66,8.96-22.16,10.84-34.06c0.05-0.31,0.06-0.64,0.09-0.95
		c0.14-1.54-0.3-2.11-1.76-2.11c-5.11-0.02-10.22-0.01-15.34,0c-0.32,0-0.67-0.01-0.95,0.11c-0.42,0.18-0.88,0.41-0.94,0.97
		c-0.07,0.63-0.14,1.26-0.22,1.89c-0.72,5.71-1.62,11.39-3.68,16.8c-0.22,0.59-0.55,1.14-0.83,1.71c-0.19,0.37-0.95,0.43-1.2,0.09
		c-0.37-0.52-0.75-1.03-1.09-1.56c-4.33-6.9-8.65-13.8-12.97-20.71C1562.72,464.36,1562.27,463.52,1561.6,462.36z M1596.64,619.31
		c0,0,0.01,0,0.01,0c0-8.63,0-17.26,0-25.89c0-3.68-0.21-7.34-1.04-10.95c-3.19-13.8-11.35-23-25.13-26.81
		c-9.15-2.53-18.33-2.33-27.39,0.5c-4.93,1.54-9.35,4.05-13.14,7.64c-5.41,5.12-8.54,11.46-10.18,18.63
		c-0.86,3.77-1.04,7.59-1.04,11.43c0.01,16.78,0,33.56,0.01,50.34c0,1.44,0.03,2.88,0.07,4.31c0.11,4.03,0.87,7.95,2.17,11.74
		c3.58,10.46,10.47,17.77,20.96,21.49c8.98,3.19,18.12,3.42,27.36,1.26c3.28-0.77,6.43-1.92,9.37-3.56
		c7.28-4.04,12.32-10.03,15.24-17.81c1.88-4.99,2.73-10.16,2.73-15.49C1596.64,637.21,1596.64,628.26,1596.64,619.31z
		 M1119.13,441.22c0.21,0.14,0.34,0.3,0.48,0.31c6.53,0.59,13.06,0.3,19.6,0.15c0.24-0.01,0.55-0.34,0.68-0.59
		c0.14-0.27,0.16-0.62,0.14-0.94c-0.4-6.95-2-13.6-5.24-19.78c-4.39-8.4-11.3-13.67-20.45-16.12c-3.12-0.83-6.29-1.12-9.48-1.33
		c-5.15-0.33-10.24,0.15-15.18,1.63c-8.96,2.68-15.93,7.97-20.48,16.25c-2.98,5.42-4.5,11.26-4.95,17.39
		c-0.2,2.71-0.19,5.43-0.19,8.15c-0.02,14.55-0.01,29.11-0.01,43.66c0,2.24,0.03,4.48,0.04,6.72c0.02,2.89,0.34,5.74,0.98,8.56
		c2.93,12.92,10.55,21.66,23.2,25.74c8.73,2.82,17.64,2.91,26.5,0.71c5.99-1.49,11.26-4.43,15.67-8.86
		c4.76-4.78,7.69-10.54,9.41-16.99c1.04-3.9,1.37-7.87,1.39-11.88c0.05-9.6,0.04-19.19,0.04-28.79c0-0.64-0.06-1.28-0.2-1.9
		c-0.06-0.26-0.4-0.62-0.65-0.65c-1.11-0.13-2.23-0.22-3.34-0.22c-9.75-0.02-19.5-0.01-29.26-0.01c-0.48,0-0.96,0-1.44,0.01
		c-0.48,0.01-0.96,0.03-1.44,0.06c-0.86,0.05-1.47,0.63-1.47,1.51c-0.02,5.28-0.03,10.55-0.03,15.83c0,0.31,0.06,0.65,0.19,0.93
		c0.13,0.26,0.37,0.6,0.61,0.65c0.77,0.16,1.56,0.26,2.35,0.27c4.16,0.04,8.31,0.03,12.47,0.06c1.25,0.01,1.81,0.52,1.81,1.67
		c0.01,4,0,8-0.01,11.99c-0.01,2.43-0.56,4.77-1.45,7.01c-2.39,6.04-6.9,9.49-13.29,10.31c-2.2,0.28-4.49,0.27-6.69-0.02
		c-7.84-1.03-13.05-6-14.42-13.3c-0.36-1.9-0.49-3.8-0.49-5.72c0-16.31,0-32.63,0-48.94c0-0.96-0.03-1.92,0.04-2.88
		c0.26-3.53,0.89-6.98,2.63-10.13c2.75-4.95,6.87-7.93,12.56-8.48c1.74-0.17,3.52-0.15,5.26,0.02c4.21,0.41,7.53,2.48,10,5.89
		c1.43,1.97,2.39,4.16,2.95,6.51C1118.41,437.55,1118.75,439.42,1119.13,441.22z M1241.87,316.83c0,19.34,0,38.68,0,58.02
		c0,1.44,0.03,2.88,0.07,4.31c0.03,0.8,0.71,1.46,1.58,1.47c5.59,0.1,11.18,0.22,16.77,0.24c3.67,0.02,7.35-0.16,11.02-0.17
		c11.02-0.02,22.05-0.01,33.07-0.01c1.12,0,2.24,0,3.36,0c0.64,0,1.28-0.01,1.92-0.03c1.57-0.05,2.06-0.48,2.07-1.93
		c0.02-4.32,0.03-8.63,0.02-12.95c-0.01-4.6,0.28-4.44-4.44-4.43c-1.12,0-2.24,0-3.36,0c-12.14,0-24.29,0-36.43-0.01
		c-1.43,0-2.87-0.07-4.3-0.13c-0.58-0.03-1.15-0.66-1.16-1.3c-0.04-2.4-0.07-4.79-0.08-7.19c-0.01-7.35-0.01-14.71,0.01-22.06
		c0-0.95,0.1-1.91,0.24-2.85c0.04-0.25,0.4-0.6,0.65-0.64c1.1-0.15,2.21-0.26,3.32-0.26c10.55-0.02,21.09-0.01,31.64-0.01
		c1.28,0,2.56,0.01,3.83-0.01c2.86-0.04,3.08-0.24,3.1-2.9c0.02-3.36,0.03-6.71,0-10.07c-0.07-7.25,0.9-6.3-6.38-6.33
		c-10.55-0.04-21.09-0.01-31.64-0.01c-0.96,0-1.92,0-2.88-0.03c-1.23-0.04-1.81-0.58-1.86-1.68c-0.03-0.64-0.04-1.28-0.04-1.92
		c0-9.27,0-18.54,0-27.81c0-0.64,0.01-1.28,0.03-1.92c0.04-1.17,0.62-1.85,1.69-1.89c1.44-0.05,2.87-0.06,4.31-0.06
		c12.14,0,24.29,0,36.43,0c1.28,0,2.56,0,3.83-0.01c0.64-0.01,1.28-0.03,1.92-0.06c0.88-0.04,1.48-0.61,1.49-1.48
		c0.03-4.47,0.06-8.95,0.06-13.42c0.01-4.57,0.24-4.38-4.49-4.38c-20.29,0-40.58,0-60.88,0c-0.8,0-1.6,0-2.4,0.03
		c-1.49,0.05-2.04,0.57-2.08,2.01c-0.04,1.44-0.03,2.88-0.03,4.32C1241.87,278.47,1241.87,297.65,1241.87,316.83z M1065.3,316.72
		c0,19.34,0,38.68,0,58.02c0,1.44,0.02,2.88,0.06,4.31c0.02,0.84,0.68,1.56,1.47,1.58c5.59,0.1,11.18,0.23,16.77,0.25
		c4.15,0.02,8.3-0.16,12.46-0.17c11.18-0.03,22.37,0,33.55-0.01c1.44,0,2.87-0.07,4.31-0.12c0.61-0.02,1.14-0.6,1.18-1.24
		c0.03-0.48,0.07-0.96,0.07-1.44c0.01-4.48,0-8.95,0-13.43c0-0.48-0.01-0.96-0.03-1.44c-0.05-1.07-0.66-1.61-1.89-1.64
		c-0.48-0.02-0.96-0.02-1.44-0.02c-5.11,0-10.22,0-15.34-0.01c-8.79,0-17.57,0-26.36,0c-1.12,0-2.23-0.05-3.35-0.1
		c-0.63-0.03-1.24-0.61-1.26-1.2c-0.04-0.96-0.08-1.92-0.08-2.87c-0.01-8.63,0-17.26-0.01-25.89c0-4.33-0.15-4.39,4.57-4.38
		c10.86,0.02,21.73,0.01,32.59,0c1.43,0,2.87-0.06,4.3-0.12c0.56-0.02,1.24-0.69,1.24-1.24c0.02-5.43,0.04-10.86,0.03-16.3
		c0-0.87-0.65-1.55-1.46-1.57c-1.44-0.05-2.87-0.08-4.31-0.08c-10.7-0.01-21.41,0-32.11-0.01c-1.27,0-2.54-0.1-3.81-0.19
		c-0.55-0.04-0.85-0.53-0.91-0.96c-0.12-0.95-0.12-1.91-0.12-2.87c-0.01-8.95-0.01-17.9,0-26.85c0-4.34-0.3-4.45,4.5-4.44
		c12.94,0.02,25.88,0.01,38.82,0c1.6,0,3.2-0.02,4.79-0.06c0.9-0.02,1.57-0.6,1.57-1.41c0.02-5.43,0.03-10.87,0.03-16.3
		c0-0.86-0.64-1.47-1.49-1.52c-0.64-0.03-1.28-0.06-1.91-0.06c-21.09,0-42.18,0-63.27-0.01c-2.64,0-3.17,0.34-3.15,2.9
		c0.01,1.28,0,2.56,0,3.84C1065.3,278.69,1065.3,297.71,1065.3,316.72z M1428.87,316.93c0,19.35,0,38.71,0,58.06
		c0,1.44,0.04,2.88,0.08,4.32c0.02,0.53,0.71,1.22,1.23,1.28c0.16,0.02,0.31,0.06,0.47,0.06c5.59,0.08,11.19,0.2,16.78,0.22
		c3.36,0.02,6.71-0.16,10.07-0.17c11.83-0.02,23.66-0.01,35.5-0.01c1.44,0,2.88-0.04,4.31-0.09c0.85-0.03,1.34-0.61,1.38-1.59
		c0.03-0.64,0.04-1.28,0.04-1.92c0-4,0.01-8,0-12c0-0.8-0.05-1.6-0.09-2.39c-0.04-0.64-0.6-1.21-1.21-1.25
		c-0.8-0.04-1.6-0.09-2.39-0.09c-2.56-0.01-5.12-0.01-7.67-0.01c-10.87,0-21.74,0-32.62,0c-1.44,0-2.88-0.03-4.31-0.08
		c-0.84-0.03-1.36-0.65-1.41-1.6c-0.01-0.16-0.03-0.32-0.03-0.48c0-10.08,0-20.15,0.01-30.23c0-0.31,0-0.69,0.16-0.93
		c0.24-0.37,0.6-0.87,0.96-0.91c1.26-0.16,2.54-0.21,3.82-0.21c10.71-0.01,21.43-0.01,32.14-0.01c1.28,0,2.56,0,3.84-0.04
		c1.18-0.04,1.8-0.62,1.8-1.76c0.02-5.28,0.02-10.55,0-15.83c0-0.86-0.66-1.56-1.46-1.59c-1.44-0.05-2.87-0.09-4.31-0.09
		c-10.71-0.01-21.43,0-32.14-0.01c-1.27,0-2.55-0.09-3.82-0.19c-0.53-0.04-0.85-0.53-0.89-0.97c-0.11-1.11-0.12-2.23-0.12-3.35
		c-0.01-8.8-0.01-17.59,0-26.39c0-4.32-0.28-4.41,4.54-4.4c12.63,0.02,25.26,0.01,37.89,0.01c1.28,0,2.56,0,3.84-0.01
		c0.64,0,1.28-0.03,1.92-0.06c0.86-0.04,1.5-0.64,1.5-1.49c0.01-5.44,0.01-10.87,0-16.31c0-0.16-0.03-0.36-0.12-0.46
		c-0.3-0.32-0.62-0.83-0.98-0.87c-1.1-0.15-2.23-0.15-3.35-0.15c-20.31-0.01-40.61,0-60.92-0.01c-4.57,0-4.44-0.02-4.44,4.5
		C1428.88,277.27,1428.87,297.1,1428.87,316.93z M1164.66,618.98c0,19.35,0,38.7,0,58.06c0,1.44,0.02,2.88,0.05,4.32
		c0.02,0.96,0.53,1.5,1.43,1.53c1.12,0.05,2.24,0.08,3.35,0.08c8.63,0.01,17.27,0,25.9,0c11.35,0,22.7,0,34.05-0.01
		c1.27,0,2.55-0.02,3.81-0.18c0.37-0.04,0.87-0.53,0.96-0.9c0.2-0.76,0.22-1.57,0.22-2.36c0.02-3.52,0.01-7.04,0.01-10.56
		c0.01-6.03,0.28-5.3-5.53-5.32c-12.95-0.03-25.9-0.01-38.85-0.01c-1.44,0-2.88-0.02-4.31-0.16c-0.33-0.03-0.71-0.58-0.86-0.97
		c-0.17-0.43-0.14-0.94-0.14-1.42c-0.01-9.76-0.01-19.51-0.01-29.27c0-0.16,0.01-0.32,0.01-0.48c0.06-1.52,0.57-2.09,1.94-2.13
		c1.28-0.03,2.56-0.03,3.84-0.03c10.39,0,20.78,0,31.18-0.01c1.44,0,2.87-0.05,4.31-0.1c0.63-0.02,1.22-0.59,1.22-1.2
		c0.02-5.44,0.04-10.87,0.04-16.31c0-0.31-0.06-0.66-0.22-0.92c-0.15-0.26-0.44-0.59-0.69-0.61c-1.27-0.1-2.55-0.16-3.82-0.16
		c-11.03-0.01-22.06,0-33.1-0.01c-1.28,0-2.56-0.05-3.83-0.15c-0.25-0.02-0.59-0.35-0.68-0.62c-0.15-0.44-0.19-0.94-0.19-1.41
		c-0.01-10.24-0.02-20.47-0.01-30.71c0-0.47,0.13-0.94,0.2-1.41c0.09-0.58,0.59-0.85,1.01-0.88c1.43-0.12,2.87-0.13,4.31-0.13
		c12.79-0.01,25.58,0,38.37-0.01c1.28,0,2.56,0,3.84-0.03c1.19-0.03,1.88-0.62,1.89-1.67c0.03-5.28,0.03-10.55,0.02-15.83
		c0-0.31-0.1-0.64-0.25-0.91c-0.15-0.26-0.39-0.6-0.64-0.65c-0.78-0.14-1.58-0.23-2.37-0.23c-6.4-0.02-12.79-0.01-19.19-0.01
		c-14.07,0-28.14,0-42.21,0c-1.28,0-2.56,0.05-3.83,0.09c-0.54,0.02-1.17,0.7-1.19,1.29c-0.05,1.44-0.09,2.87-0.09,4.31
		C1164.66,580.27,1164.66,599.63,1164.66,618.98z M1530.89,346.49c-0.72,0.17-1.36,0.23-1.91,0.48c-4.98,2.16-9.95,4.36-14.93,6.54
		c-0.29,0.13-0.57,0.28-0.86,0.43c-0.52,0.27-0.95,1.09-0.78,1.61c0.6,1.82,1.11,3.68,1.85,5.43c3.12,7.35,8.3,12.83,15.39,16.46
		c3.87,1.98,7.99,3.2,12.28,3.91c6.69,1.1,13.38,1,20.05-0.11c4.76-0.8,9.3-2.26,13.53-4.65c6.56-3.7,11.04-9.1,13.41-16.24
		c1.06-3.2,1.76-6.48,1.82-9.87c0.07-3.52,0.05-7.04,0.04-10.55c0-2.25-0.33-4.45-0.78-6.66c-1.73-8.55-6.56-14.79-14.13-18.93
		c-2.1-1.15-4.33-2.06-6.54-2.98c-4.72-1.98-9.66-3.34-14.52-4.92c-3.19-1.04-6.35-2.15-9.48-3.35c-2.56-0.99-4.76-2.56-6.71-4.52
		c-2.13-2.16-3.23-4.75-3.38-7.72c-0.12-2.39-0.11-4.8,0-7.19c0.15-3.35,1.56-6.14,4.05-8.41c1.82-1.66,3.97-2.67,6.31-3.29
		c2.64-0.71,5.33-0.98,8.07-0.92c4.01,0.09,7.48,1.49,10.47,4.12c2.07,1.82,3.66,4.01,4.83,6.5c0.62,1.3,1.17,2.63,1.76,3.94
		c0.24,0.54,1.01,0.8,1.63,0.53c1.02-0.45,2.04-0.91,3.06-1.38c3.19-1.47,6.38-2.95,9.57-4.42c4.86-2.25,4.45-1.7,2.77-6.68
		c-0.41-1.21-1.01-2.35-1.57-3.5c-4.64-9.61-12.35-15.28-22.68-17.46c-7.63-1.61-15.26-1.22-22.84,0.4
		c-3.45,0.74-6.74,1.97-9.85,3.66c-6.62,3.59-11.17,8.97-13.63,16.07c-1.26,3.64-2,7.41-2.05,11.28c-0.03,2.56,0,5.12,0,7.68
		c-0.01,2.74,0.5,5.42,1.11,8.06c0.88,3.78,2.55,7.22,4.99,10.27c3.05,3.81,6.72,6.8,11.21,8.78c5.28,2.32,10.75,4.08,16.24,5.8
		c3.35,1.05,6.71,2.09,10,3.33c2.08,0.78,4.15,1.73,6.01,2.94c3.84,2.49,6.17,5.97,6.12,10.75c-0.03,2.4,0.06,4.8-0.04,7.2
		c-0.05,1.26-0.25,2.56-0.63,3.76c-1.35,4.28-4.38,7.01-8.5,8.48c-4.28,1.52-8.7,1.92-13.23,1.24c-6.82-1.02-11.81-4.57-15.08-10.59
		c-0.61-1.12-1.06-2.33-1.59-3.49C1531.52,347.71,1531.22,347.15,1530.89,346.49z M1324.76,580.2c-0.75-3.26-1.97-6.19-3.48-9.01
		c-4.03-7.57-10.13-12.63-18.28-15.25c-7.16-2.3-14.47-2.32-21.83-1.44c-4.14,0.49-8.15,1.55-11.99,3.22
		c-7.38,3.2-12.7,8.46-15.75,15.93c-1.21,2.97-2.02,6.07-2.28,9.28c-0.39,4.79-0.47,9.6,0,14.37c1.06,10.71,6.48,18.51,16.08,23.36
		c1.56,0.79,3.18,1.51,4.83,2.1c3.91,1.39,7.86,2.68,11.79,4.01c3.93,1.33,7.88,2.62,11.8,3.98c1.97,0.68,3.8,1.65,5.48,2.92
		c3.54,2.67,5.49,6.16,5.51,10.65c0.01,2.24,0.11,4.49-0.04,6.71c-0.38,5.58-3.09,9.64-8.25,11.95c-3.89,1.74-8.02,2.09-12.2,1.86
		c-1.74-0.09-3.51-0.4-5.18-0.89c-5.16-1.49-9-4.72-11.62-9.38c-0.63-1.11-1.14-2.29-1.68-3.44c-0.2-0.43-0.31-0.91-0.5-1.35
		c-0.33-0.76-1.17-1.09-1.99-0.73c-4.39,1.91-8.78,3.84-13.16,5.77c-1.02,0.45-2.04,0.91-3.06,1.38c-0.48,0.23-0.9,1.11-0.8,1.61
		c0.03,0.16,0.03,0.32,0.08,0.47c2.48,9.06,7.6,16.09,15.86,20.73c4.37,2.46,9.08,3.9,14.01,4.67c6.05,0.94,12.08,0.89,18.14,0.05
		c3.99-0.56,7.85-1.53,11.52-3.13c9.22-4.03,15.27-10.82,17.61-20.72c0.37-1.55,0.66-3.13,0.82-4.71
		c0.56-5.42,0.48-10.85,0.02-16.28c-0.64-7.54-3.84-13.77-9.47-18.78c-2.17-1.93-4.66-3.35-7.28-4.56
		c-4.21-1.94-8.54-3.58-12.97-4.94c-3.2-0.99-6.42-1.95-9.59-3.03c-2.27-0.77-4.49-1.67-6.7-2.59c-2.39-1-4.4-2.57-6.17-4.46
		c-1.46-1.56-2.43-3.36-2.78-5.47c-0.6-3.66-0.59-7.33,0-10.98c0.37-2.27,1.43-4.2,3.03-5.87c1.95-2.03,4.37-3.21,7.01-3.95
		c2.47-0.69,5-0.95,7.58-0.94c4.74,0.02,8.69,1.75,11.99,5.11c1.7,1.74,2.98,3.74,4.03,5.91c0.56,1.15,1.03,2.33,1.56,3.5
		c0.27,0.61,0.99,0.87,1.6,0.59c5.07-2.35,10.15-4.69,15.21-7.07C1323.8,581.09,1324.24,580.6,1324.76,580.2z M1185.55,344.26
		c-0.85-1.32-1.1-2.69-1.42-4.04c-2.25-9.65-4.51-19.29-6.75-28.94c-4.21-18.05-8.41-36.11-12.62-54.16
		c-0.22-0.93-0.47-1.86-0.74-2.78c-0.28-0.98-0.7-1.34-1.7-1.34c-6.07-0.01-12.15-0.01-18.22,0.01c-0.3,0-0.6,0.18-0.9,0.28
		c-0.54,0.95-0.1,1.85,0.14,2.77c9.57,36.64,19.13,73.29,28.7,109.93c1.17,4.48,2.37,8.96,3.55,13.44c0.19,0.71,0.72,1.04,1.38,1.14
		c0.63,0.1,1.27,0.13,1.9,0.13c4,0.01,7.99-0.01,11.99,0.01c5.04,0.03,4.17,0.01,5.31-4.27c3.75-14.05,7.33-28.14,11.01-42.21
		c5.66-21.64,11.35-43.28,17.01-64.92c1.29-4.95,2.54-9.9,3.8-14.86c0.17-0.68-0.28-1.35-0.89-1.4c-0.32-0.03-0.63-0.08-0.95-0.08
		c-5.6-0.01-11.19-0.02-16.79,0c-0.62,0-1.25,0.17-1.97,0.28c-0.38,1.26-0.8,2.46-1.09,3.69c-6.46,27.54-12.91,55.07-19.34,82.62
		C1186.61,341.1,1186.25,342.65,1185.55,344.26z M1626.35,326.24c0,16.15,0,32.29,0,48.44c0,1.44,0.01,2.88,0.05,4.31
		c0.02,0.97,0.54,1.56,1.37,1.61c0.96,0.05,1.91,0.09,2.87,0.09c3.52,0.01,7.03,0.03,10.55,0c5.86-0.05,5.25,0.58,5.25-5.52
		c0.01-32.13,0.01-64.26,0.01-96.4c0-1.44-0.01-2.88,0.02-4.32c0.01-0.47,0.07-0.96,0.22-1.41c0.09-0.26,0.38-0.6,0.63-0.64
		c0.77-0.15,1.57-0.23,2.36-0.23c6.55-0.02,13.1-0.01,19.66-0.02c1.44,0,2.87-0.03,4.31-0.08c0.84-0.03,1.41-0.66,1.41-1.59
		c0.02-5.27,0.02-10.55,0.02-15.82c0-0.16-0.07-0.31-0.08-0.47c-0.06-0.56-0.67-1.14-1.3-1.17c-0.96-0.04-1.91-0.09-2.87-0.09
		c-23.01,0-46.02-0.01-69.04,0.01c-1.11,0-2.22,0.09-3.33,0.23c-0.24,0.03-0.56,0.39-0.62,0.65c-0.15,0.61-0.21,1.26-0.22,1.89
		c-0.02,4.48-0.02,8.95-0.01,13.43c0.01,2.84,0.15,2.96,2.96,3c1.44,0.02,2.88,0.01,4.31,0.01c6.07,0,12.15,0,18.22,0.02
		c0.79,0,1.59,0.08,2.36,0.22c0.25,0.05,0.6,0.39,0.63,0.63c0.13,1.26,0.24,2.54,0.24,3.81
		C1626.36,293.31,1626.35,309.78,1626.35,326.24z M1382.08,628.93c0-16.3,0-32.6,0.01-48.91c0-1.43,0.08-2.87,0.16-4.3
		c0.03-0.57,0.69-1.15,1.31-1.18c0.8-0.04,1.59-0.08,2.39-0.08c6.39-0.01,12.78,0,19.17-0.01c1.44,0,2.87-0.06,4.31-0.1
		c0.59-0.02,1.18-0.62,1.18-1.24c0.02-5.43,0.03-10.86,0.03-16.3c0-0.83-0.69-1.49-1.51-1.52c-0.96-0.03-1.92-0.06-2.87-0.06
		c-22.85,0-45.69,0-68.54,0c-0.96,0-1.92,0.03-2.87,0.07c-0.63,0.03-1.26,0.59-1.32,1.16c-0.06,0.63-0.14,1.27-0.14,1.9
		c-0.01,3.52-0.02,7.03,0,10.55c0.01,1.44,0.06,2.87,0.12,4.31c0.02,0.56,0.65,1.12,1.28,1.15c0.8,0.04,1.59,0.08,2.39,0.08
		c6.55,0.01,13.1,0,19.65,0.01c1.28,0,2.55,0.04,3.83,0.09c0.61,0.02,1.25,0.62,1.28,1.2c0.07,1.59,0.15,3.19,0.15,4.78
		c0.01,31.97,0,63.93,0.01,95.9c0,1.76,0.07,3.51,0.13,5.27c0.02,0.57,0.66,1.17,1.26,1.17c5.75,0.01,11.5,0.01,17.24,0
		c0.59,0,1.22-0.62,1.24-1.2c0.05-1.6,0.12-3.19,0.12-4.79C1382.09,660.89,1382.08,644.91,1382.08,628.93z M1302.3,468.17
		c0,19.17,0,38.35,0,57.52c0,1.6,0.04,3.19,0.08,4.79c0.02,0.64,0.58,1.26,1.15,1.3c0.63,0.05,1.27,0.12,1.91,0.12
		c4.31,0.04,8.63,0.08,12.94,0.08c15.65-0.01,31.31-0.05,46.96-0.07c1.28,0,2.56,0,3.83-0.02c1.6-0.03,2.07-0.44,2.07-1.91
		c0.02-5.11,0.01-10.23,0-15.34c0-0.32,0.03-0.7-0.12-0.94c-0.23-0.36-0.59-0.85-0.94-0.89c-1.27-0.14-2.55-0.14-3.82-0.14
		c-11.02-0.01-22.04,0-33.06,0c-2.72,0-5.43,0.01-8.15-0.01c-0.63-0.01-1.28-0.07-1.89-0.22c-0.26-0.06-0.62-0.41-0.63-0.65
		c-0.11-1.59-0.2-3.18-0.2-4.78c-0.01-31.96-0.01-63.92-0.01-95.87c0-1.76-0.01-3.52-0.04-5.27c-0.02-1.11-0.6-1.63-1.84-1.64
		c-4.63-0.02-9.26-0.02-13.9-0.02c-4.55,0-4.34-0.2-4.34,4.53C1302.3,428.54,1302.3,448.35,1302.3,468.17z M1407.21,458.64
		c0-16.3,0-32.6,0-48.91c0-1.44-0.06-2.87-0.1-4.31c-0.02-0.48-0.78-1.15-1.31-1.18c-0.32-0.02-0.64-0.05-0.96-0.05
		c-5.11,0-10.23,0-15.34,0c-0.32,0-0.64,0.04-0.96,0.05c-0.81,0.05-1.37,0.66-1.39,1.58c-0.03,1.12-0.05,2.24-0.05,3.36
		c0,39.16,0,78.32,0,117.47c0,1.12,0.01,2.24,0.05,3.36c0.04,1.29,0.51,1.79,1.66,1.85c0.32,0.02,0.64,0.03,0.96,0.04
		c3.83,0.03,7.67,0.08,11.5,0.08c16.62-0.01,33.23-0.04,49.85-0.08c1.27,0,2.55-0.06,3.82-0.17c0.26-0.02,0.56-0.32,0.71-0.57
		c0.16-0.26,0.22-0.61,0.22-0.92c0.02-5.27,0.02-10.55,0.02-15.82c0-0.32-0.03-0.67-0.17-0.93c-0.14-0.26-0.42-0.59-0.66-0.61
		c-1.1-0.12-2.22-0.2-3.32-0.2c-9.43-0.01-18.85-0.01-28.28-0.01c-4.15,0-8.31,0-12.46,0c-0.8,0-1.6-0.03-2.39-0.07
		c-0.63-0.03-1.22-0.59-1.24-1.21c-0.06-1.59-0.13-3.19-0.13-4.78C1407.21,490.61,1407.21,474.63,1407.21,458.64z M1259.82,468.16
		c0,19.17,0,38.33,0,57.5c0,1.6,0.03,3.19,0.08,4.79c0.03,0.87,0.61,1.42,1.55,1.42c5.75,0,11.49-0.01,17.24-0.04
		c0.64,0,1.24-0.57,1.26-1.16c0.05-1.43,0.11-2.87,0.11-4.3c0.01-38.97,0.01-77.94,0-116.91c0-1.44-0.04-2.87-0.14-4.3
		c-0.02-0.25-0.32-0.55-0.58-0.71c-0.25-0.15-0.6-0.2-0.91-0.2c-5.59-0.02-11.17-0.03-16.76-0.02c-1.26,0-1.8,0.52-1.83,1.65
		c-0.03,1.44-0.03,2.87-0.03,4.31C1259.82,429.51,1259.82,448.84,1259.82,468.16z"/>
	<path class="st1" d="M255.45,623.08c-1.78-8.12-3.27-16.29-4.49-24.51c-1.05-7.11-1.9-14.25-2.56-21.41
		c-0.68-7.32-1.14-14.66-1.45-22c-0.45-10.87-0.45-21.75,0.09-32.61c0.46-9.25,1.09-18.5,2.27-27.71c0.89-6.97,1.83-13.94,3-20.87
		c2.16-12.78,5.02-25.38,8.46-37.87c7.73-28.01,18.6-54.75,32.4-80.29c9.75-18.03,20.9-35.16,33.4-51.41
		c19.89-25.86,42.65-48.88,68.26-69.08c15.71-12.39,32.31-23.48,49.77-33.27c23.91-13.41,48.93-24.23,75.14-32.28
		c13.75-4.22,27.69-7.67,41.83-10.34c9.74-1.84,19.52-3.32,29.36-4.4c5.23-0.58,10.49-0.97,15.75-1.39
		c10.85-0.87,21.71-0.91,32.58-0.87c5.11,0.02,10.24,0.08,15.34,0.36c5.58,0.31,11.14,0.86,16.71,1.36
		c3.34,0.3,6.67,0.68,10.01,1.05c12.71,1.41,25.28,3.64,37.76,6.43c33.24,7.42,64.93,19.08,95.07,34.92
		c23.71,12.46,45.89,27.22,66.5,44.32c31.36,26.03,58.14,56.12,80.11,90.48c9.75,15.24,18.39,31.08,25.91,47.53
		c10.12,22.15,18.06,45.07,23.84,68.74c2.58,10.56,4.72,21.22,6.4,31.95c1.45,9.31,2.49,18.68,3.29,28.08
		c0.87,10.37,1.04,20.76,1.44,31.14c0.1,2.71-0.05,5.44-0.15,8.15c-0.22,6.23-0.38,12.47-0.76,18.69
		c-0.31,5.1-0.91,10.18-1.37,15.28c-0.18,2.07-0.33,4.14-0.49,6.21c-0.61,0.14-1.25,0.43-1.83-0.02c-1.77-1.37-3.51-2.78-5.28-4.14
		c-5.45-4.18-10.8-8.5-16.62-12.19c-3.39-2.15-6.96-3.9-10.65-5.43c-4.52-1.88-9.21-2.52-14.07-2.26c-1.79,0.09-3.5,0.42-5.08,1.23
		c-2.99,1.53-6.01,3-8.91,4.67c-6.09,3.51-12.12,7.12-18.15,10.73c-11.52,6.88-23.34,13.23-35.24,19.43
		c-9.5,4.95-19.18,9.5-29.1,13.53c-3.85,1.56-7.79,2.83-11.83,3.82c-2.86,0.7-5.67,0.77-8.54,0.57c-0.62-0.6-1.21-1.13-1.76-1.7
		c-5.04-5.14-10.07-10.28-15.09-15.42c-1-1.03-2-2.07-2.94-3.16c-7.4-8.63-15.23-16.84-23.61-24.51c-7.43-6.79-15-13.44-22.46-20.21
		c-3.78-3.44-7.69-6.79-11.11-10.57c-6.97-7.7-13.68-15.65-19.86-24.01c-6.18-8.35-12.26-16.77-17.94-25.47
		c-7.29-11.16-15.82-21.28-25.54-30.4c-4.7-4.41-9.78-8.22-15.77-10.71c-1.47-0.61-2.93-1.29-4.35-2.02
		c-2.84-1.47-5.73-2.85-8.44-4.53c-6.53-4.02-12.94-8.24-19.11-12.8c-3.47-2.57-6.98-5.09-10.78-7.14
		c-3.8-2.05-7.43-4.38-11.03-6.75c-1.47-0.97-2.9-2.01-4.45-2.83c-4.4-2.31-8.46-5.15-12.67-7.74c-3.26-2.01-6.62-3.87-10.04-5.6
		c-4.43-2.24-9.09-3.84-14-4.79c-4.63-0.9-8.89-0.44-12.72,2.49c-2.03,1.55-4.14,3-6.09,4.65c-9.5,8.08-19.06,16.07-28.39,24.35
		c-11.96,10.61-24.14,20.96-35.92,31.77c-6.83,6.27-13.68,12.54-20.1,19.22c-4.76,4.95-9.49,9.97-13.79,15.32
		c-8.51,10.59-16.73,21.41-25.06,32.15c-5.78,7.45-11.52,14.93-17.32,22.37c-4.42,5.67-8.91,11.3-13.36,16.95
		c-2.97,3.77-5.82,7.64-8.93,11.27c-3.01,3.52-6.24,6.86-9.5,10.15c-3.05,3.08-6.54,5.64-10.42,7.59
		c-3.23,1.63-6.56,2.47-10.09,0.72c-1.14-0.56-2.38-0.91-3.59-1.34c-5.12-1.8-10.24-3.59-15.38-5.37
		c-4.68-1.62-9.34-3.27-13.86-5.32c-3.2-1.45-6.44-2.81-9.73-4.04c-7.25-2.7-14.73-4.2-22.52-3.68c-1.91,0.13-3.8,0.47-5.7,0.7
		c-6.17,0.74-11.72,3.05-16.64,6.82c-3.42,2.62-6.83,5.28-10.14,8.04c-5.15,4.3-10.22,8.7-15.33,13.06
		c-5.59,4.78-11.17,9.56-16.76,14.34c-1.34,1.14-2.69,2.27-4.03,3.41C256.72,623.09,256.1,623.14,255.45,623.08z M775.16,453.25
		c-0.04,0.38-0.19,0.75-0.07,0.97c0.3,0.56,0.7,1.06,1.1,1.56c4.93,6.08,9.88,12.15,14.81,18.23c0.6,0.74,1.14,1.53,1.65,2.34
		c0.44,0.69,0.07,2.25-0.61,2.6c-0.85,0.44-1.72,0.85-2.61,1.21c-6.97,2.78-13.95,5.54-20.92,8.31c-1.19,0.47-2.38,0.94-3.54,1.46
		c-0.24,0.11-0.43,0.42-0.55,0.68c-0.15,0.34,0.02,0.62,0.37,0.78c0.29,0.13,0.58,0.25,0.88,0.37c5.64,2.24,11.28,4.47,16.92,6.7
		c2.82,1.12,5.66,2.2,8.45,3.39c2.09,0.89,2.41,2.38,1.01,4.18c-0.39,0.5-0.82,0.98-1.23,1.47c-4.64,5.69-9.29,11.39-13.93,17.09
		c-0.7,0.87-1.36,1.77-1.97,2.7c-0.09,0.13,0.15,0.67,0.34,0.74c0.43,0.16,0.94,0.23,1.4,0.18c4.92-0.51,9.84-1.03,14.76-1.58
		c3.64-0.41,7.28-0.88,10.92-1.3c0.79-0.09,1.59-0.11,2.39-0.13c0.32-0.01,0.63,0.06,0.95,0.08c0.72,0.06,1.55,0.89,1.54,1.6
		c-0.04,3.04-0.56,6.03-1.01,9.03c-0.7,4.73-1.3,9.49-1.87,14.24c-0.19,1.57-0.58,3.16-0.18,4.75c0.05,0.2,0.52,0.48,0.68,0.42
		c0.58-0.22,1.15-0.51,1.66-0.87c6.55-4.58,13.08-9.18,19.63-13.76c1.04-0.73,2.13-1.39,3.24-2.02c0.75-0.42,2.1,0.04,2.52,0.81
		c0.46,0.84,0.89,1.7,1.29,2.57c2.86,6.24,5.7,12.5,8.57,18.74c0.67,1.45,1.42,2.85,2.15,4.27c0.19,0.37,1.01,0.37,1.21,0.02
		c0.46-0.84,0.94-1.66,1.34-2.53c2.73-5.95,5.43-11.92,8.15-17.88c0.66-1.45,1.3-2.92,2.01-4.35c1.03-2.06,2.23-2.32,4.27-0.99
		c0.67,0.44,1.32,0.9,1.97,1.36c6.41,4.49,12.82,8.99,19.24,13.48c0.65,0.46,1.33,0.88,2.04,1.24c0.24,0.13,0.68,0.14,0.89,0
		c0.2-0.14,0.35-0.56,0.31-0.82c-0.44-3.32-0.93-6.63-1.39-9.94c-0.63-4.59-1.26-9.17-1.85-13.76c-0.16-1.26-0.22-2.55-0.28-3.82
		c-0.04-0.91,0.9-1.83,1.87-1.8c1.59,0.05,3.2,0.07,4.77,0.3c4.58,0.67,9.15,1.36,13.77,1.65c1.12,0.07,2.25,0.1,3.33,0.35
		c2.51,0.59,5.07,0.57,7.61,0.82c0.3,0.03,0.63-0.05,0.92-0.14c0.1-0.03,0.22-0.3,0.18-0.4c-0.17-0.42-0.34-0.86-0.61-1.2
		c-5.02-6.21-10.06-12.42-15.09-18.62c-0.6-0.74-1.24-1.47-1.82-2.23c-1.03-1.36-0.67-2.91,0.82-3.56c1.32-0.58,2.65-1.12,3.99-1.65
		c6.84-2.68,13.68-5.34,20.52-8.03c0.88-0.35,1.72-0.83,2.53-1.32c0.1-0.06,0.06-0.66-0.1-0.8c-0.34-0.31-0.79-0.53-1.23-0.7
		c-5.63-2.26-11.27-4.5-16.91-6.74c-2.67-1.06-5.36-2.07-8.01-3.19c-2.61-1.11-2.85-2.46-0.97-4.77
		c5.25-6.44,10.5-12.88,15.74-19.33c0.4-0.49,0.76-1.02,1.03-1.58c0.07-0.15-0.2-0.68-0.39-0.72c-1.75-0.38-3.52-0.12-5.23,0.18
		c-4.41,0.77-8.89,0.86-13.31,1.53c-2.05,0.31-4.12,0.41-6.17,0.79c-1.56,0.29-3.18,0.26-4.77,0.32c-0.47,0.02-0.99-0.04-1.39-0.25
		c-0.38-0.2-0.74-0.6-0.92-1c-0.18-0.41-0.23-0.94-0.17-1.4c0.26-2.22,0.58-4.43,0.87-6.64c0.8-6.17,1.58-12.35,2.41-18.52
		c0.11-0.8,0.54-1.85-0.07-2.26c-0.93-0.63-1.72,0.4-2.48,0.91c-1.59,1.07-3.15,2.19-4.72,3.29c-5.36,3.77-10.71,7.54-16.08,11.3
		c-0.65,0.45-1.35,0.83-2.07,1.16c-0.82,0.37-2.11-0.08-2.54-0.83c-0.32-0.55-0.62-1.12-0.89-1.7c-2.11-4.65-4.17-9.34-6.33-13.97
		c-1.62-3.47-3.04-7.03-5.03-10.45c-0.46,0.28-1,0.42-1.19,0.76c-0.69,1.26-1.29,2.57-1.88,3.88c-3.09,6.85-6.15,13.7-9.24,20.54
		c-0.2,0.43-0.44,0.88-0.77,1.21c-0.46,0.46-1.08,0.72-1.74,0.6c-0.46-0.09-0.94-0.23-1.32-0.48c-1.99-1.34-3.94-2.73-5.91-4.1
		c-5.38-3.74-10.75-7.49-16.13-11.22c-0.52-0.36-1.07-0.69-1.61-1.03c-0.33-0.2-1.04,0.23-1.03,0.63c0.05,4.64,1.03,9.19,1.53,13.78
		c0.48,4.44,1.15,8.86,1.68,13.29c0.19,1.59-0.67,2.51-2.16,2.45c-1.28-0.05-2.57-0.06-3.82-0.26c-5.05-0.79-10.12-1.33-15.2-1.79
		c-1.27-0.12-2.53-0.36-3.79-0.51C779.92,453.33,777.55,452.96,775.16,453.25z M835.07,295.98c-0.4,1.14-0.81,2.17-1.13,3.23
		c-0.64,2.14-1.2,4.31-1.85,6.44c-0.18,0.59-0.54,1.13-0.86,1.68c-0.29,0.49-1.23,0.86-1.67,0.67c-0.88-0.38-1.78-0.73-2.62-1.18
		c-2.53-1.35-5.04-2.76-7.58-4.11c-0.23-0.12-0.66-0.09-0.89,0.05c-0.22,0.13-0.45,0.51-0.42,0.75c0.31,2.21,0.7,4.41,1,6.63
		c0.17,1.26,0.24,2.54,0.28,3.81c0.03,0.92-0.93,1.85-1.86,1.84c-0.79-0.01-1.58-0.11-2.37-0.21c-3-0.38-6-0.78-9-1.17
		c-0.39-0.05-0.86,0.68-0.65,1.02c1.07,1.78,2.16,3.54,3.23,5.31c0.74,1.23,1.51,2.44,2.19,3.7c0.53,0.99-0.06,2.48-1.1,2.8
		c-1.53,0.46-3.08,0.84-4.62,1.25c-2,0.53-4,1.05-5.99,1.59c-0.37,0.1-0.53,1-0.23,1.22c1.8,1.33,3.6,2.64,5.4,3.96
		c1.03,0.76,2.08,1.48,3.08,2.28c0.85,0.69,0.86,2.29,0.08,3c-0.24,0.21-0.47,0.43-0.73,0.62c-6.19,4.45-4.72,4.66-11.15,0.6
		c-10.27-6.49-18.69-14.92-25.23-25.2c-0.43-0.67-0.82-1.37-1.28-2.03c-0.26-0.36-0.45-0.84-1.04-0.84c-0.35,0-0.53,0.36-0.46,1.12
		c0.11,1.11,0.15,2.24,0.39,3.33c2.71,12.43,8.19,23.48,16.72,32.95c7.93,8.81,17.43,15.38,28.39,19.92
		c6.09,2.52,12.37,4.32,18.85,5.27c4.09,0.6,8.21,1.33,12.38,1.02c2.38-0.18,4.76-0.51,7.15-0.58c3.53-0.11,7-0.72,10.42-1.47
		c9.43-2.07,18.3-5.57,26.48-10.77c13.49-8.58,23.37-20.18,29.36-35.04c2.04-5.06,3.26-10.34,4.14-15.7
		c0.05-0.27-0.12-0.58-0.19-0.88c-0.29,0.12-0.69,0.15-0.84,0.36c-0.74,1.04-1.42,2.12-2.11,3.19c-6.85,10.66-15.7,19.29-26.43,26
		c-1.35,0.84-2.66,1.77-4.33,2.09c-0.41-0.16-0.89-0.28-1.28-0.53c-1.34-0.87-2.63-1.81-3.97-2.68c-2.78-1.81-1.95-3.38,0.03-4.78
		c1.83-1.29,3.67-2.56,5.5-3.85c0.52-0.37,1.04-0.75,1.54-1.13c0.48-0.36,0.68-0.91,0.43-1.22c-0.19-0.23-0.4-0.53-0.65-0.59
		c-3.1-0.77-6.21-1.49-9.31-2.24c-2.3-0.56-2.82-1.81-1.62-3.84c0.49-0.82,1.02-1.62,1.52-2.44c1.09-1.77,2.2-3.52,3.24-5.32
		c0.21-0.36,0.08-0.91,0.12-1.56c-1.2,0.07-2.31,0.09-3.4,0.22c-2.85,0.35-5.69,0.77-8.53,1.14c-0.85,0.11-1.91-0.84-1.94-1.74
		c-0.02-0.64-0.06-1.29,0.05-1.91c0.42-2.35,0.89-4.7,1.34-7.04c0.03-0.16,0.03-0.32,0.03-0.48c0-0.6,0.23-1.35-0.43-1.67
		c-0.35-0.17-0.97-0.04-1.36,0.16c-2.4,1.26-4.78,2.59-7.16,3.88c-0.7,0.38-1.41,0.75-2.13,1.08c-0.77,0.36-2.11-0.12-2.5-0.88
		c-0.21-0.42-0.43-0.86-0.55-1.31c-0.68-2.46-1.33-4.93-2.02-7.39c-0.17-0.61-0.44-1.19-0.69-1.78c-0.16-0.39-0.92-0.55-1.21-0.24
		c-0.55,0.57-1.13,1.13-1.64,1.75c-1.42,1.73-2.78,3.5-4.22,5.22c-0.51,0.6-1.14,1.11-1.74,1.62c-0.43,0.37-1.42,0.37-1.79,0
		c-0.79-0.79-1.59-1.57-2.31-2.42c-1.65-1.95-3.24-3.96-4.9-5.9C836.17,296.31,835.63,296.23,835.07,295.98z"/>
	<path class="st2" d="M868.27,849.45c-5.07,3.61-10.1,7.29-15.23,10.83c-22.43,15.49-46.26,28.38-71.46,38.76
		c-19.54,8.05-39.59,14.45-60.18,19.17c-11.99,2.74-24.08,4.93-36.29,6.51c-9.35,1.21-18.72,2.16-28.13,2.67
		c-10.37,0.56-20.76,1.02-31.14,0.6c-7.81-0.31-15.65-0.38-23.44-1.25c-4.92-0.55-9.86-0.84-14.78-1.42
		c-5.07-0.59-10.14-1.27-15.19-2.1c-7.56-1.24-15.09-2.67-22.58-4.33c-14.52-3.21-28.8-7.25-42.84-12.11
		c-19.51-6.75-38.34-15.06-56.51-24.85c-17.75-9.57-34.64-20.48-50.69-32.69c-15.93-12.12-30.81-25.43-44.71-39.82
		c-16.14-16.71-30.65-34.74-43.55-54.06c-13.52-20.26-25.03-41.59-34.51-64.03c-7.22-17.1-13.18-34.63-17.86-52.59
		c-0.36-1.39-0.78-2.77-1.17-4.15c0.18-0.94,0.31-1.88,1.15-2.54c1-0.8,1.93-1.68,2.9-2.51c7.29-6.23,14.57-12.46,21.87-18.68
		c5.47-4.66,10.94-9.34,16.46-13.93c2.82-2.35,5.75-4.58,8.68-6.8c1.26-0.95,2.46-2.17,4.15-2.25c1.31-0.06,2.36,0.89,3.57,1.25
		c0.61,0.18,1.22,0.4,1.81,0.64c4.45,1.82,8.69,4.05,12.71,6.68c1.74,1.14,3.43,2.37,4.74,4.01c0.39,0.48,0.73,1.07,0.88,1.66
		c0.33,1.26,0.3,2.58-0.34,3.74c-0.61,1.12-1.29,2.23-2.12,3.18c-2.64,3-5.36,5.95-8.54,8.39c-3.72,2.85-6.63,6.46-9.56,10.05
		c-1.43,1.75-2.38,3.78-3.13,5.9c-0.28,0.78-0.17,1.58,0.17,2.33c0.2,0.43,0.42,0.87,0.71,1.25c0.69,0.92,1.53,1.64,2.77,1.63
		c1.76-0.02,3.52,0.01,5.27-0.08c4.46-0.25,8.92-0.6,13.39-0.83c8.31-0.42,16.52-1.63,24.67-3.25c2.5-0.5,4.96-1.22,7.32-2.24
		c10.58-4.56,19.68-11.2,27.58-19.54c1.87-1.97,3.7-3.98,5.6-5.93c2.24-2.3,4.75-4.24,7.49-5.94c2.3-1.42,4.47-3.09,6.54-4.84
		c5.27-4.45,9.84-9.59,14.15-14.95c5.01-6.23,9.91-12.54,14.85-18.82c1.48-1.88,2.99-3.75,4.46-5.65
		c6.66-8.59,13.31-17.18,19.97-25.77c5.68-7.33,11.4-14.63,17.01-22c6.21-8.15,12.81-15.96,20-23.24
		c9.21-9.33,18.87-18.2,28.66-26.91c6.21-5.52,12.51-10.94,18.75-16.42c8.16-7.17,16.22-14.46,24.55-21.45
		c4.41-3.7,8.77-7.45,13.18-11.14c0.85-0.71,1.83-1.25,2.77-1.85c0.29-0.19,1.12,0.04,1.29,0.35c0.46,0.83,0.96,1.65,1.32,2.52
		c1.7,4.14,3.31,8.31,5.05,12.43c3.12,7.36,6.44,14.6,10.39,21.57c4.17,7.37,8.61,14.58,12.85,21.91
		c3.39,5.87,7.66,10.97,12.63,15.57c5.63,5.21,11.07,10.63,16.59,15.95c2.08,2,3.84,4.27,5.54,6.6c2.62,3.6,2.5,4.83,0.2,8.69
		c-0.33,0.55-0.72,1.06-1.07,1.59c-2.24,3.33-4.87,6.34-7.73,9.13c-3.54,3.46-7.08,6.94-10.77,10.24
		c-4.57,4.08-8.31,8.82-11.83,13.79c-1.61,2.28-2.01,4.7-1.54,7.27c0.46,2.5,1.07,4.99,2.15,7.34c2.55,5.55,5.72,10.71,9.63,15.4
		c2.87,3.44,5.82,6.8,8.74,10.19c1.04,1.21,2.07,2.44,3.17,3.59c3.21,3.35,6.66,6.41,10.4,9.19c5.01,3.73,10.13,7.25,15.74,10
		c0.43,0.21,0.85,0.44,1.27,0.67c4.72,2.54,7.89,6.39,9.73,11.4c2.31,6.3,4.58,12.61,6.94,18.89c1.23,3.29,2.49,6.58,3.92,9.78
		c3.94,8.84,9.1,16.87,16.24,23.5c2.34,2.17,4.72,4.32,7.15,6.39c3.43,2.93,6.47,6.12,8.57,10.2c2.91,5.65,7.27,10.05,12.4,13.76
		c7.03,5.09,14.52,9.29,22.59,12.48c4.3,1.7,8.65,3.27,12.9,5.14c4.02,1.76,7.46,4.3,10.85,6.96c1.13,0.88,2.07,1.98,2.82,3.24
		c2.05,3.44,3.83,7,4.99,10.85c1.61,5.35,3.33,10.67,4.94,16.03c1.06,3.52,2.26,6.99,3.67,10.39c2.4,5.76,4.46,11.63,6.19,17.62
		c0.75,2.6,1.54,5.21,2.77,7.65c2.01,4,4.2,7.9,6.68,11.63c3.11,4.67,6.7,8.95,10.41,13.14c4.47,5.05,9.4,9.6,14.91,13.47
		c4.57,3.21,9.29,6.21,13.99,9.24c2.28,1.47,4.65,2.81,7,4.16C867.54,848.09,868.04,848.64,868.27,849.45z"/>
	<path class="st3" d="M868.27,849.45c-0.23-0.81-0.73-1.36-1.47-1.78c-2.35-1.35-4.72-2.69-7-4.16c-4.7-3.03-9.42-6.03-13.99-9.24
		c-5.51-3.87-10.45-8.42-14.91-13.47c-3.71-4.19-7.3-8.47-10.41-13.14c-2.48-3.73-4.67-7.63-6.68-11.63
		c-1.23-2.45-2.02-5.05-2.77-7.65c-1.73-6-3.79-11.87-6.19-17.62c-1.42-3.39-2.61-6.86-3.67-10.39c-1.61-5.35-3.33-10.67-4.94-16.03
		c-1.16-3.86-2.94-7.41-4.99-10.85c-0.75-1.26-1.69-2.36-2.82-3.24c-3.39-2.66-6.83-5.2-10.85-6.96c-4.25-1.86-8.6-3.43-12.9-5.14
		c-8.07-3.19-15.57-7.39-22.59-12.48c-5.12-3.71-9.49-8.11-12.4-13.76c-2.1-4.08-5.14-7.27-8.57-10.2c-2.43-2.07-4.8-4.22-7.15-6.39
		c-7.15-6.63-12.31-14.66-16.24-23.5c-1.43-3.21-2.69-6.49-3.92-9.78c-2.35-6.28-4.63-12.59-6.94-18.89c-1.83-5-5.01-8.86-9.73-11.4
		c-0.42-0.23-0.84-0.46-1.27-0.67c-5.62-2.75-10.73-6.28-15.74-10c-3.74-2.78-7.19-5.84-10.4-9.19c-1.11-1.15-2.13-2.38-3.17-3.59
		c-2.92-3.39-5.87-6.76-8.74-10.19c-3.91-4.69-7.07-9.85-9.63-15.4c-1.08-2.35-1.69-4.83-2.15-7.34c-0.47-2.57-0.07-4.99,1.54-7.27
		c3.52-4.98,7.26-9.71,11.83-13.79c3.69-3.3,7.23-6.78,10.77-10.24c2.86-2.8,5.49-5.81,7.73-9.13c0.36-0.53,0.75-1.04,1.07-1.59
		c2.3-3.86,2.42-5.09-0.2-8.69c-1.7-2.33-3.45-4.6-5.54-6.6c-5.53-5.32-10.97-10.74-16.59-15.95c-4.97-4.6-9.23-9.71-12.63-15.57
		c-4.24-7.33-8.68-14.54-12.85-21.91c-3.95-6.97-7.27-14.22-10.39-21.57c-1.75-4.12-3.35-8.29-5.05-12.43
		c-0.36-0.87-0.86-1.69-1.32-2.52c-0.17-0.31-0.99-0.54-1.29-0.35c-0.93,0.6-1.92,1.14-2.77,1.85c-4.41,3.69-8.78,7.44-13.18,11.14
		c-8.32,6.99-16.39,14.27-24.55,21.45c-6.24,5.49-12.54,10.9-18.75,16.42c-9.79,8.71-19.45,17.58-28.66,26.91
		c-7.2,7.29-13.79,15.1-20,23.24c-5.62,7.37-11.34,14.67-17.01,22c-6.65,8.59-13.31,17.18-19.97,25.77
		c-1.47,1.89-2.97,3.76-4.46,5.65c-4.95,6.28-9.85,12.59-14.85,18.82c-4.31,5.36-8.88,10.5-14.15,14.95
		c-2.07,1.75-4.24,3.42-6.54,4.84c-2.74,1.7-5.25,3.64-7.49,5.94c-1.9,1.94-3.73,3.95-5.6,5.93c-7.9,8.33-17,14.98-27.58,19.54
		c-2.36,1.02-4.82,1.74-7.32,2.24c-8.15,1.62-16.36,2.83-24.67,3.25c-4.47,0.22-8.92,0.58-13.39,0.83c-1.75,0.1-3.51,0.06-5.27,0.08
		c-1.25,0.01-2.08-0.71-2.77-1.63c-0.29-0.38-0.51-0.82-0.71-1.25c-0.35-0.75-0.45-1.55-0.17-2.33c0.75-2.12,1.7-4.15,3.13-5.9
		c2.93-3.59,5.84-7.2,9.56-10.05c3.18-2.44,5.9-5.38,8.54-8.39c0.83-0.95,1.51-2.06,2.12-3.18c0.63-1.16,0.66-2.47,0.34-3.74
		c-0.15-0.59-0.5-1.18-0.88-1.66c-1.31-1.64-3-2.87-4.74-4.01c-4.02-2.63-8.26-4.86-12.71-6.68c-0.59-0.24-1.2-0.46-1.81-0.64
		c-1.22-0.36-2.27-1.32-3.57-1.25c-1.69,0.08-2.89,1.3-4.15,2.25c-2.93,2.22-5.85,4.45-8.68,6.8c-5.53,4.6-10.99,9.27-16.46,13.93
		c-7.3,6.22-14.58,12.45-21.87,18.68c-0.97,0.83-1.9,1.71-2.9,2.51c-0.84,0.67-0.96,1.61-1.15,2.54c-0.48-0.44-0.73-0.98-0.7-1.63
		c0.08-1.71-0.36-3.32-0.74-4.97c-0.38-1.62-0.49-3.32-1.13-4.89c0.65,0.06,1.26,0,1.79-0.45c1.34-1.14,2.69-2.27,4.03-3.41
		c5.59-4.78,11.17-9.56,16.76-14.34c5.1-4.36,10.17-8.76,15.33-13.06c3.31-2.76,6.72-5.42,10.14-8.04
		c4.92-3.77,10.47-6.07,16.64-6.82c1.9-0.23,3.79-0.57,5.7-0.7c7.78-0.52,15.26,0.98,22.52,3.68c3.29,1.23,6.53,2.59,9.73,4.04
		c4.52,2.05,9.18,3.7,13.86,5.32c5.13,1.77,10.25,3.57,15.38,5.37c1.21,0.42,2.45,0.77,3.59,1.34c3.53,1.75,6.85,0.91,10.09-0.72
		c3.88-1.96,7.37-4.51,10.42-7.59c3.26-3.29,6.48-6.64,9.5-10.15c3.12-3.64,5.96-7.51,8.93-11.27c4.45-5.65,8.94-11.27,13.36-16.95
		c5.8-7.44,11.54-14.92,17.32-22.37c8.33-10.74,16.54-21.56,25.06-32.15c4.3-5.35,9.03-10.37,13.79-15.32
		c6.42-6.69,13.27-12.95,20.1-19.22c11.78-10.81,23.96-21.16,35.92-31.77c9.33-8.28,18.89-16.27,28.39-24.35
		c1.94-1.65,4.06-3.1,6.09-4.65c3.83-2.92,8.09-3.39,12.72-2.49c4.9,0.95,9.57,2.55,14,4.79c3.42,1.73,6.78,3.6,10.04,5.6
		c4.22,2.59,8.28,5.44,12.67,7.74c1.55,0.81,2.98,1.86,4.45,2.83c3.61,2.37,7.23,4.7,11.03,6.75c3.8,2.05,7.31,4.57,10.78,7.14
		c6.17,4.57,12.58,8.78,19.11,12.8c2.71,1.67,5.61,3.06,8.44,4.53c1.42,0.73,2.87,1.41,4.35,2.02c6,2.49,11.08,6.3,15.77,10.71
		c9.72,9.12,18.26,19.25,25.54,30.4c5.68,8.7,11.77,17.12,17.94,25.47c6.18,8.36,12.89,16.31,19.86,24.01
		c3.42,3.78,7.33,7.13,11.11,10.57c7.45,6.77,15.02,13.42,22.46,20.21c8.39,7.67,16.21,15.88,23.61,24.51
		c0.94,1.09,1.94,2.13,2.94,3.16c5.02,5.15,10.06,10.29,15.09,15.42c0.56,0.57,1.14,1.1,1.76,1.7c2.88,0.21,5.69,0.13,8.54-0.57
		c4.05-0.99,7.99-2.26,11.83-3.82c9.92-4.03,19.61-8.58,29.1-13.53c11.9-6.2,23.71-12.55,35.24-19.43
		c6.03-3.6,12.07-7.21,18.15-10.73c2.9-1.67,5.92-3.15,8.91-4.67c1.59-0.81,3.29-1.14,5.08-1.23c4.86-0.25,9.55,0.38,14.07,2.26
		c3.69,1.54,7.26,3.29,10.65,5.43c5.82,3.69,11.16,8.01,16.62,12.19c1.78,1.36,3.51,2.77,5.28,4.14c0.58,0.45,1.22,0.16,1.83,0.02
		c-0.11,2.21-0.9,4.31-0.91,6.57c-0.01,2.19-1.1,4.31-0.94,6.59c-1.13,2.68-0.57,5.71-1.7,8.39c-0.42,4.77-1.83,9.34-2.72,14.01
		c-1.41,7.35-3.62,14.49-5.17,21.79c-0.07,0.31-0.16,0.62-0.26,0.92c-2.7,8.66-5.25,17.37-8.34,25.91
		c-1.78,4.94-3.73,9.83-5.68,14.71c-2.6,6.52-5.45,12.92-8.54,19.22c-1.54,3.14-2.7,6.48-4.43,9.54
		c-2.98,5.28-5.59,10.75-8.76,15.92c-1.33,2.17-2.45,4.46-3.77,6.66c-4.93,8.19-10.02,16.28-15.53,24.1
		c-3.21,4.55-6.34,9.15-9.82,13.51c-2.58,3.23-5.11,6.51-7.7,9.73c-1.7,2.11-3.65,4.03-5.24,6.19c-2.1,2.85-4.83,5.12-6.93,7.9
		c-3.29,4.37-7.32,8-11.1,11.88c-3.9,4-7.89,7.93-11.86,11.86c-1.93,1.9-3.74,3.92-6.09,5.37c-0.93,0.57-1.65,1.5-2.46,2.27
		c-1.62,1.54-3.05,3.28-5.09,4.32c-0.28,0.14-0.53,0.37-0.73,0.61c-2.4,2.83-5.48,4.88-8.34,7.15
		C873.92,844.84,871.25,847.34,868.27,849.45z M970.29,580.94c0.33-2.5-0.7-4.75-2.57-6.69c-0.42-0.44-1.23-0.69-1.75-0.44
		c-1.58,0.77-3.18,1.5-4.7,2.37c-4.56,2.63-9.08,5.34-13.63,8c-7.17,4.18-14.29,8.46-21.55,12.48c-6.98,3.87-14.08,7.53-21.16,11.2
		c-9.07,4.7-18.29,9.11-27.79,12.89c-4.6,1.83-9.25,3.52-14.14,4.45c-0.93,0.18-1.88,0.43-2.74,0.82c-0.31,0.14-0.61,0.8-0.56,1.18
		c0.09,0.6,0.36,1.24,0.74,1.72c1.77,2.26,3.46,4.61,5.44,6.68c4.51,4.75,9.19,9.33,13.77,14.02c3.93,4.03,8.38,7.35,13.29,10.11
		c8.1,4.56,16.4,8.57,25.43,10.96c9.57,2.52,19.06,5.34,28.4,8.62c0.15,0.05,0.29,0.12,0.45,0.17c0.15,0.05,0.31,0.08,0.46,0.13
		c1.4,0.41,2.22-0.08,2.31-1.45c0.28-3.98,0.56-7.96,0.77-11.95c0.23-4.35,1.13-8.55,2.78-12.57c1.58-3.84,3.37-7.6,5.52-11.16
		c3.01-4.97,6.67-9.37,11.74-12.41c1.64-0.98,3.28-2,5.01-2.81c1.72-0.81,2.14-2.1,2.2-3.85c0.08-2.64-0.56-5.06-1.72-7.38
		c-0.86-1.73-1.94-3.3-3.35-4.64c-1.39-1.32-2.86-2.58-4.1-4.03c-2.59-3.07-3.76-6.57-3.02-10.66c0.49-2.71,1.5-5.21,2.61-7.68
		C969.57,586.53,970.36,583.96,970.29,580.94z"/>
	<path class="st4" d="M1250.87,750.5c-8.28,0.1-20.75,0.23-33.22,0.44c-2.55,0.04-5.08,0.45-7.63,0.59
		c-2.39,0.13-4.8,0.04-7.19,0.19c-5.1,0.32-10.22,0.49-15.28,1.16c-5.23,0.69-10.51,0.66-15.71,1.56c-2.82,0.49-5.69,0.68-8.54,0.99
		c-4.27,0.47-8.54,1.03-12.79,1.7c-3.31,0.52-6.63,0.94-9.95,1.38c-3.79,0.51-7.59,0.93-11.37,1.5c-5.83,0.88-11.68,1.58-17.53,2.29
		c-1.11,0.13-2.23,0.06-3.35,0.13c-2.07,0.12-4.14,0.28-6.22,0.41c-1.12,0.07-2.24,0.26-3.35,0.16c-6.66-0.59-13.37-0.72-19.91-2.48
		c-3.72-1-7.34-2.16-10.78-3.91c-2.3-1.17-4.31-2.71-6.15-4.52c-4.91-4.84-4.69-13.05-0.22-17.83c1.76-1.88,3.76-3.45,6.06-4.64
		c3.14-1.62,6.44-2.81,9.87-3.62c6.23-1.47,12.54-2.27,18.95-2.29c4.96-0.02,9.91,0,14.84,0.51c2.37,0.25,4.75,0.53,7.11,0.88
		c6.14,0.91,12.28,1.83,18.42,2.74c5.99,0.89,11.97,1.85,17.98,2.6c6.64,0.83,13.29,1.6,19.95,2.27c5.71,0.58,11.44,0.97,17.15,1.51
		c1.59,0.15,3.18,0.24,4.78,0.31c2.07,0.09,4.15,0,6.2,0.48c0.92,0.22,1.91,0.18,2.86,0.2c14.54,0.41,29.08,0.9,43.63,0.81
		c12.31-0.08,24.62-0.03,36.93-0.01c3.52,0,7.03-0.13,10.5-0.75c4.26-0.76,8.38-1.98,12.23-4.01c3.13-1.65,5.94-3.74,8.43-6.26
		c2.58-2.62,5.2-5.18,8.22-7.33c7.68-5.46,16.21-8.85,25.34-10.95c7.69-1.77,15.47-2.16,23.31-2.05c3.04,0.04,6.08,0.09,9.11,0.27
		c2.54,0.15,5.08,0.41,7.61,0.76c9.48,1.33,18.88,3.01,28.12,5.56c7.09,1.96,14.07,4.25,20.86,7.07c5.17,2.15,10.18,4.63,14.89,7.69
		c3.36,2.19,6.47,4.69,9.11,7.74c1.58,1.83,2.84,3.85,3.36,6.27c0.94,4.33,0.13,8.28-2.59,11.77c-2.28,2.91-4.98,5.39-8.05,7.47
		c-4.78,3.24-9.82,5.98-15.12,8.25c-10.6,4.54-21.61,7.8-32.86,10.27c-4.67,1.03-9.38,1.87-14.11,2.51
		c-6.16,0.82-12.34,1.62-18.6,1.48c-2.88-0.07-5.76,0.02-8.63-0.02c-10.17-0.15-19.94-2.21-29.35-6.09
		c-5.66-2.33-10.89-5.36-15.54-9.34c-1.7-1.45-3.34-2.99-4.88-4.61c-4.91-5.15-10.99-8.12-17.78-9.84
		c-4.68-1.19-9.47-1.35-14.26-1.38C1275.52,750.46,1265.29,750.5,1250.87,750.5z"/>
	<path class="st4" d="M1421.82,808.97c-12.63,0-25.26,0-37.89,0c-1.44,0-2.88-0.02-4.32,0.04c-0.63,0.02-1.28,0.13-1.87,0.35
		c-0.93,0.35-1.64,0.99-1.83,2.03c-0.13,0.69,0.7,1.81,1.6,2.17c0.44,0.17,0.91,0.36,1.37,0.38c1.44,0.06,2.88,0.05,4.32,0.05
		c25.74,0,51.48,0,77.22,0.01c1.44,0,2.88-0.01,4.31,0.11c1.56,0.13,2.62,1.09,3.33,2.44c0.14,0.27,0.2,0.62,0.18,0.93
		c-0.09,1.19-1.61,2.86-2.74,3.03c-0.47,0.07-0.95,0.12-1.43,0.12c-1.76,0.02-3.52,0.03-5.28,0.03c-24.94,0-49.88,0-74.82,0
		c-1.44,0-2.88-0.02-4.32,0.04c-0.63,0.03-1.27,0.17-1.87,0.38c-0.97,0.33-1.6,1.04-1.87,2.02c-0.22,0.78,0.92,2.17,1.95,2.4
		c0.78,0.17,1.57,0.34,2.36,0.37c1.6,0.06,3.2,0.04,4.8,0.04c24.94,0,49.88,0,74.82,0c1.6,0,3.2,0.02,4.8,0.05
		c1.41,0.02,2.37,0.8,3.15,1.9c0.59,0.83,0.59,1.86-0.03,2.66c-0.81,1.06-1.78,1.8-3.21,1.79c-1.6-0.02-3.2,0.03-4.8,0.03
		c-25.1,0-50.2,0-75.3,0.01c-1.76,0-3.52,0.02-5.27,0.12c-0.96,0.06-1.84,0.45-2.59,1.12c-1.08,0.95-0.86,2.18,0.08,2.86
		c0.75,0.54,1.68,0.91,2.58,1.15c0.75,0.2,1.59,0.13,2.38,0.14c1.76,0.02,3.52,0.01,5.28,0.01c24.3,0,48.6,0,72.9,0
		c1.6,0,3.2,0.04,4.8,0.02c1.22-0.02,2.12,0.55,2.92,1.4c1.25,1.33,1.27,2.5,0.08,3.78c-0.78,0.84-1.65,1.53-2.83,1.65
		c-1.43,0.14-2.86,0.29-4.29,0.35c-2.39,0.1-4.79-0.06-7.15,0.58c-0.6,0.16-1.27,0.13-1.91,0.13c-5.92,0.05-11.8,0.64-17.69,1.12
		c-1.27,0.1-2.56,0.07-3.83,0.12c-1.91,0.07-3.84-0.03-5.72,0.49c-0.46,0.13-0.95,0.19-1.42,0.18c-4.97-0.18-9.88,0.71-14.83,0.83
		c-3.35,0.08-6.7,0.35-10.05,0.49c-2.39,0.1-4.71,0.79-7.14,0.7c-2.39-0.09-4.79,0.16-7.18,0.26c-6.07,0.25-12.14,0.42-18.21-0.1
		c-1.27-0.11-2.55-0.13-3.83-0.18c-5.75-0.2-11.4-1.12-17-2.42c-3.76-0.88-7.33-2.2-10.73-4.02c-8.23-4.39-16.96-7.41-26.05-9.39
		c-4.97-1.09-10.01-1.79-15.09-2.38c-6.54-0.76-13.08-0.82-19.62-0.87c-13.75-0.12-27.5-0.07-41.25-0.02
		c-7.51,0.03-15.03,0.21-22.54,0.32c-0.64,0.01-1.29-0.02-1.92,0.08c-3.65,0.54-7.35,0.34-10.99,0.75
		c-5.86,0.66-11.77,0.73-17.63,1.58c-4.24,0.61-8.55,0.96-12.82,1.43c-2.84,0.31-5.68,0.7-8.51,1.19
		c-3.45,0.59-6.94,0.98-10.41,1.46c-3.31,0.45-6.63,0.86-9.94,1.38c-3.14,0.49-6.29,0.95-9.44,1.42c-3.62,0.54-7.26,1-10.87,1.58
		c-2.98,0.48-6.04,0.48-9.06,0.8c-7.68,0.82-15.33,0.5-22.94-0.62c-5.53-0.82-10.95-2.16-16.07-4.5c-2.64-1.21-5.02-2.79-7.12-4.8
		c-1.76-1.69-3.16-3.59-3.56-6.09c-0.13-0.78-0.54-1.5-0.74-2.27c-0.12-0.45-0.21-0.99-0.07-1.42c0.73-2.27,0.92-4.73,2.28-6.76
		c1.35-2.02,3.16-3.58,5.13-4.97c2.91-2.06,6.18-3.36,9.56-4.32c4.29-1.22,8.66-2.09,13.14-2.47c3.34-0.28,6.67-0.53,10.02-0.63
		c5.29-0.15,10.52,0.42,15.76,0.96c6.34,0.65,12.62,1.73,18.9,2.78c4.24,0.71,8.5,1.26,12.74,2c5.96,1.04,12.01,1.51,17.96,2.65
		c4.47,0.12,8.85,1.2,13.33,1.3c5.98,1.12,12.1,0.8,18.1,1.7c0.32,0.05,0.64,0.08,0.96,0.08c8.15-0.04,16.26,0.97,24.42,0.91
		c19.18-0.14,38.37-0.02,57.55-0.05c4.62-0.01,9.27,0.35,13.84-0.7c7.68-0.5,15.15-2.15,22.5-4.3c6.6-1.93,13.03-4.33,19.27-7.23
		c3.47-1.62,6.95-3.26,10.72-4.11c2.18-0.49,4.34-1.08,6.53-1.45c5.19-0.88,10.43-1.48,15.7-1.53c6.07-0.06,12.16-0.21,18.22,0.05
		c5.25,0.22,10.54,0.11,15.76,1.03c0.31,0.06,0.64,0.04,0.96,0.05c6.39,0.2,12.74,0.98,19.12,1.16c5.11,0.14,10.16,1.1,15.29,0.93
		c4.1,0.82,8.29,0.41,12.41,0.97c0.95,0.13,1.91,0.11,2.87,0.14c2.23,0.06,4.45,0.13,6.67,0.49c2.19,0.36,4.46,0.27,6.7,0.31
		c1.92,0.03,3.35,0.87,4.44,2.4c0.59,0.82,0.58,1.87-0.02,2.67c-1,1.34-2.19,2.29-4,2.21c-1.44-0.06-2.88,0-4.32,0
		C1447.08,808.97,1434.45,808.97,1421.82,808.97z"/>
	<path class="st4" d="M1241.45,531.72c-0.69,0.07-1.31,0.18-1.93,0.18c-5.91,0.01-11.83-0.05-17.74,0.03
		c-1.91,0.03-2.84-0.77-3.51-2.5c-1.74-4.46-3.65-8.86-5.49-13.28c-4.78-11.51-9.54-23.02-14.33-34.52
		c-0.42-1.02-0.96-1.98-1.37-2.83c-0.36-0.13-0.51-0.23-0.66-0.23c-4.47-0.04-8.94-0.08-13.41-0.09c-0.85,0-1.52,0.67-1.55,1.5
		c-0.05,1.44-0.07,2.87-0.07,4.31c-0.01,14.39,0.01,28.78-0.01,43.16c0,4.64,0.33,4.46-4.39,4.45c-4-0.01-7.99,0-11.99-0.01
		c-0.8,0-1.59-0.06-2.39-0.11c-0.58-0.04-1.12-0.64-1.15-1.3c-0.04-1.28-0.09-2.55-0.09-3.83c0-39.17,0-78.33,0-117.5
		c0-5.43-0.33-5.04,4.82-5.04c12.3,0,24.61,0.01,36.91,0.01c3.84,0,7.66,0.2,11.4,1.22c5.65,1.55,10.71,4.09,14.83,8.37
		c2.25,2.34,3.99,4.99,5.34,7.91c1.76,3.8,2.86,7.83,2.99,12.02c0.15,4.95,0.12,9.91,0.01,14.86c-0.08,3.54-0.92,6.98-2.2,10.27
		c-2.78,7.14-7.48,12.57-14.46,15.93c-2.87,1.38-3.21,1.39-1.79,4.62c7.03,15.93,14.02,31.88,21.01,47.82
		c0.45,1.02,0.91,2.05,1.26,3.1C1241.64,530.66,1241.48,531.16,1241.45,531.72z M1194.4,423.37c0,0,0-0.01,0-0.01
		c-3.19,0-6.38-0.01-9.57,0.01c-0.79,0-1.58,0.1-2.37,0.17c-0.57,0.05-0.77,0.52-0.94,0.95c-0.12,0.28-0.1,0.63-0.1,0.95
		c-0.01,10.53-0.01,21.05,0,31.58c0,0.32,0.05,0.64,0.08,0.95c0.05,0.52,0.72,1.14,1.33,1.14c7.65,0.01,15.31,0.18,22.95-0.07
		c4.68-0.15,8.02-2.8,9.99-7.07c0.68-1.46,1.13-3,1.15-4.61c0.04-3.98,0.02-7.97-0.01-11.95c0-0.63-0.11-1.28-0.27-1.89
		c-1.2-4.6-3.7-8.06-8.42-9.6c-1.39-0.45-2.81-0.54-4.25-0.54C1200.77,423.37,1197.59,423.37,1194.4,423.37z"/>
	<path class="st4" d="M1481.15,627.72c0.27,0.79,0.53,1.69,0.9,2.55c4.41,10.1,8.83,20.19,13.26,30.29c2.63,6,5.29,11.98,7.91,17.98
		c0.45,1.02,0.81,2.08,1.21,3.12c0.13,0.34-0.31,1.06-0.64,1.11c-0.15,0.02-0.3,0.13-0.45,0.13c-6.55,0.02-13.1,0.04-19.65,0.03
		c-1.03,0-1.78-0.48-2.21-1.51c-3.96-9.6-7.93-19.19-11.91-28.78c-2.63-6.34-5.28-12.68-7.92-19.02c-0.49-1.18-1.03-2.34-1.5-3.41
		c-0.42-0.18-0.7-0.42-0.99-0.42c-4.47-0.04-8.94-0.06-13.42-0.06c-0.83,0-1.42,0.67-1.44,1.57c-0.04,1.44-0.05,2.88-0.06,4.31
		c0,14.23,0,28.45-0.01,42.68c0,1.27-0.08,2.55-0.2,3.81c-0.02,0.24-0.38,0.52-0.65,0.65c-0.27,0.14-0.62,0.16-0.94,0.16
		c-5.43,0.01-10.87,0.02-16.3,0c-1.16,0-1.84-0.64-1.87-1.7c-0.04-1.6-0.06-3.2-0.06-4.79c0-29.89,0-59.79,0-89.68
		c0-8.79-0.01-17.58,0.01-26.38c0-1.28,0.06-2.55,0.12-3.83c0.03-0.62,0.63-1.26,1.18-1.29c0.79-0.05,1.59-0.11,2.39-0.11
		c12.78,0,25.57,0.01,38.35,0c4.34,0,8.61,0.55,12.75,1.84c11.19,3.49,18.05,11.01,20.7,22.42c0.18,0.78,0.39,1.56,0.46,2.35
		c0.7,7.97,1.19,15.98-0.59,23.86c-2.01,8.88-6.97,15.66-15.13,19.95C1483.36,626.15,1482.06,626.45,1481.15,627.72z M1444.26,592.1
		c0,4.95-0.01,9.9,0.01,14.85c0,0.79,0.01,1.61,0.2,2.37c0.09,0.37,0.56,0.7,0.93,0.94c0.24,0.16,0.62,0.16,0.93,0.16
		c6.86,0.01,13.72,0.04,20.58-0.02c1.41-0.01,2.85-0.32,4.23-0.68c3.09-0.81,5.34-2.75,6.9-5.52c1.12-1.99,1.75-4.12,1.78-6.39
		c0.06-3.51,0.03-7.02,0-10.53c-0.01-0.79-0.14-1.59-0.29-2.37c-1.04-5.36-4.74-9.1-10.11-10.2c-0.93-0.19-1.89-0.28-2.84-0.28
		c-6.54-0.03-13.08-0.02-19.63-0.02c-0.47,0-0.95,0.08-1.42,0.13c-0.55,0.05-1.14,0.7-1.18,1.3c-0.04,0.64-0.09,1.27-0.09,1.91
		C1444.25,582.52,1444.26,587.31,1444.26,592.1z"/>
	<path class="st4" d="M1122.11,627.65c0.43,1.13,0.84,2.33,1.34,3.48c6.22,14.2,12.44,28.4,18.7,42.58
		c3.21,7.27,3.76,8.69,3.25,8.84c-2.97,0.87-6.02,0.3-9.04,0.39c-3.35,0.1-6.71,0.04-10.07,0.01c-0.94-0.01-1.88-0.13-2.55-0.17
		c-1.24-0.89-1.46-2.05-1.88-3.05c-6.39-15.34-12.75-30.7-19.12-46.04c-0.49-1.18-1-2.35-1.47-3.44c-0.4-0.18-0.69-0.43-0.98-0.43
		c-4.47-0.05-8.95-0.07-13.42-0.08c-0.87,0-1.42,0.62-1.46,1.53c-0.02,0.48-0.04,0.96-0.05,1.44c-0.01,1.28-0.01,2.56-0.01,3.84
		c0,13.91,0,27.83-0.01,41.74c0,1.27-0.08,2.55-0.2,3.81c-0.02,0.24-0.37,0.52-0.63,0.66c-0.27,0.14-0.62,0.16-0.94,0.16
		c-5.44,0.01-10.87,0.01-16.31,0.01c-0.31,0-0.62-0.12-0.93-0.18c-0.55-0.1-0.87-0.57-0.91-0.99c-0.12-1.27-0.12-2.55-0.12-3.83
		c-0.01-12,0-23.99,0-35.99c0-27.19,0-54.38,0.01-81.57c0-1.43,0.09-2.87,0.2-4.3c0.02-0.25,0.36-0.6,0.62-0.67
		c0.61-0.16,1.26-0.23,1.89-0.24c4-0.04,7.99-0.09,11.99-0.08c9.27,0.01,18.55,0.05,27.82,0.08c4.18,0.01,8.29,0.6,12.28,1.83
		c4.97,1.53,9.39,3.98,13.04,7.76c2.94,3.05,5.08,6.57,6.47,10.54c1.27,3.64,2.05,7.4,2.09,11.27c0.04,4,0.11,8-0.03,11.99
		c-0.18,5.17-1.42,10.12-3.82,14.73c-2.74,5.25-6.73,9.27-11.95,12.09C1124.65,626.06,1123.19,626.38,1122.11,627.65z
		 M1085.35,592.18c0,4.95-0.01,9.9,0.01,14.85c0,0.79,0.01,1.61,0.2,2.37c0.09,0.36,0.58,0.72,0.96,0.89
		c0.42,0.18,0.94,0.16,1.41,0.16c6.38,0.01,12.77,0,19.15,0c0.64,0,1.28,0.03,1.91-0.05c3.24-0.41,6.22-1.37,8.48-3.93
		c2.09-2.36,3.28-5.12,3.38-8.25c0.12-3.67,0.06-7.34,0.03-11.01c-0.02-1.94-0.54-3.8-1.38-5.54c-1.6-3.32-4.07-5.65-7.72-6.65
		c-1.55-0.42-3.11-0.63-4.72-0.62c-6.22,0.02-12.45,0-18.67,0.01c-0.63,0-1.3-0.02-1.89,0.16c-0.39,0.12-0.86,0.52-0.96,0.89
		c-0.19,0.76-0.2,1.58-0.2,2.37C1085.34,582.6,1085.35,587.39,1085.35,592.18z"/>
	<path class="st4" d="M1387.61,380.42c-0.45-0.92-0.93-1.75-1.29-2.63c-6.43-15.49-12.83-31-19.28-46.48
		c-0.54-1.3-0.8-2.79-2.2-3.81c-4.48-0.19-9.11-0.14-13.74-0.03c-0.62,0.02-1.22,0.58-1.24,1.18c-0.05,1.6-0.1,3.19-0.1,4.79
		c-0.01,13.91,0,27.82-0.01,41.73c0,1.44-0.01,2.88-0.13,4.31c-0.03,0.41-0.37,0.88-0.92,0.99c-0.31,0.06-0.62,0.18-0.93,0.18
		c-5.43,0.01-10.87,0.01-16.3,0c-0.32,0-0.67-0.03-0.94-0.17c-0.26-0.14-0.58-0.42-0.62-0.68c-0.12-0.94-0.18-1.9-0.18-2.85
		c-0.01-39.97-0.01-79.94,0-119.92c0-1.11,0.1-2.23,0.24-3.33c0.03-0.24,0.38-0.57,0.64-0.63c0.61-0.14,1.25-0.19,1.88-0.2
		c2.88-0.04,5.75-0.09,8.63-0.09c10.23,0.02,20.46,0.06,30.69,0.09c4.18,0.01,8.29,0.56,12.3,1.73c5.15,1.5,9.7,4.05,13.45,7.97
		c2.24,2.34,4.03,4.96,5.34,7.9c1.65,3.67,2.72,7.51,2.93,11.55c0.29,5.43,0.3,10.87-0.03,16.3c-0.26,4.2-1.42,8.19-3.25,11.96
		c-2.58,5.31-6.44,9.49-11.61,12.4c-1.25,0.7-2.55,1.32-3.83,1.98c-0.36,0.18-0.66,0.88-0.51,1.23c0.65,1.63,1.28,3.26,1.99,4.87
		c6.73,15.36,13.48,30.72,20.22,46.08c0.38,0.88,0.73,1.77,1.09,2.66c0.14,0.34-0.33,1.01-0.72,1.05c-0.47,0.04-0.95,0.12-1.43,0.12
		c-5.91,0.01-11.83,0.01-17.74-0.01C1389.23,380.67,1388.45,380.52,1387.61,380.42z M1349.76,290.12
		C1349.76,290.12,1349.76,290.12,1349.76,290.12c0,4.62-0.01,9.25,0,13.87c0,0.95,0.06,1.91,0.12,2.86
		c0.04,0.61,0.64,1.18,1.25,1.22c0.48,0.03,0.95,0.07,1.43,0.07c6.37,0,12.75,0,19.12-0.01c0.64,0,1.28,0.02,1.91-0.06
		c5.18-0.64,8.95-3.19,10.77-8.21c0.59-1.64,1.01-3.35,1-5.14c-0.02-2.87-0.02-5.74,0-8.61c0.01-2.11-0.48-4.13-1.25-6.05
		c-1.59-3.94-4.39-6.59-8.64-7.49c-1.08-0.23-2.2-0.44-3.3-0.45c-6.85-0.04-13.71-0.01-20.56,0c-0.31,0-0.65,0.05-0.91,0.19
		c-0.26,0.13-0.6,0.38-0.65,0.62c-0.16,0.77-0.28,1.56-0.29,2.35C1349.75,280.24,1349.76,285.18,1349.76,290.12z"/>
	<path class="st4" d="M1561.6,462.36c0.67,1.16,1.11,2,1.62,2.81c4.32,6.91,8.64,13.81,12.97,20.71c0.34,0.54,0.72,1.05,1.09,1.56
		c0.25,0.34,1.02,0.28,1.2-0.09c0.28-0.57,0.6-1.12,0.83-1.71c2.06-5.42,2.96-11.09,3.68-16.8c0.08-0.63,0.14-1.26,0.22-1.89
		c0.07-0.56,0.52-0.78,0.94-0.97c0.28-0.12,0.63-0.11,0.95-0.11c5.11-0.01,10.22-0.01,15.34,0c1.46,0.01,1.9,0.57,1.76,2.11
		c-0.03,0.32-0.04,0.64-0.09,0.95c-1.88,11.91-5.05,23.4-10.84,34.06c-0.23,0.42-0.42,0.86-0.63,1.29
		c-0.31,0.64-0.19,1.26,0.16,1.81c0.59,0.95,1.22,1.87,1.86,2.79c4.18,6.04,8.38,12.07,12.56,18.11c0.45,0.65,0.85,1.35,1.18,2.06
		c0.08,0.18-0.13,0.63-0.33,0.77c-0.23,0.16-0.61,0.17-0.92,0.17c-6.23,0.01-12.46,0.01-18.69,0c-0.63,0-1.26-0.1-2.05-0.17
		c-1.33-2.13-2.69-4.28-4.04-6.45c-0.76-1.22-1.47-2.48-2.27-3.67c-0.24-0.37-0.72-0.58-1.15-0.9c-1.1,1-2.14,1.99-3.22,2.94
		c-4.38,3.84-9.26,6.79-14.87,8.45c-6.58,1.95-13.23,2.23-19.87,0.58c-8.11-2.02-13.78-7.11-17.35-14.6
		c-1.8-3.78-2.9-7.8-3.39-11.94c-0.66-5.56-0.72-11.13,0.38-16.7c1.47-7.42,4.84-13.82,9.97-19.32c2.18-2.34,4.53-4.5,7.09-6.43
		c0.75-0.56,1.69-0.95,2.13-2.1c-0.1-0.29-0.19-0.74-0.41-1.13c-1.4-2.51-2.9-4.96-4.23-7.51c-4.17-7.99-5.72-16.57-5.39-25.49
		c0.17-4.66,1.16-9.18,3.45-13.34c3.53-6.41,8.9-10.31,16.04-11.8c5.44-1.14,10.8-0.82,16.04,1.04c4.87,1.72,8.51,4.92,11.13,9.35
		c1.99,3.36,3.14,7.02,3.6,10.84c0.73,6.07,0.51,12.12-1.2,18.05c-1.99,6.91-5.7,12.8-10.62,17.97
		C1564.8,459.15,1563.33,460.6,1561.6,462.36z M1536.72,494.6c0.14,2.25,0.12,4.18,0.39,6.07c0.61,4.36,2.14,8.32,5.46,11.4
		c1.44,1.33,3.09,2.29,5.02,2.59c3.88,0.6,7.64,0.24,11.08-1.82c3.34-2,5.98-4.73,8.06-8c0.22-0.34,0.23-0.97,0.06-1.35
		c-0.39-0.87-0.93-1.67-1.43-2.47c-5.52-8.76-11.04-17.52-16.56-26.27c-0.34-0.54-0.68-1.08-1.04-1.6
		c-0.49-0.72-1.29-0.73-2.01-0.05c-4.31,4.04-7.2,8.92-8.32,14.73C1536.98,490.14,1536.92,492.55,1536.72,494.6z M1561.24,428.14
		c0-3.34-0.04-6.05-1.04-8.64c-0.53-1.36-1.21-2.58-2.28-3.59c-2.87-2.72-7.26-2.49-9.73,0.58c-0.59,0.73-1.09,1.58-1.47,2.44
		c-0.71,1.62-1.03,3.34-1.17,5.1c-0.72,8.54,1.31,16.45,5.45,23.87c0.23,0.41,0.55,0.78,0.83,1.16c0.26,0.35,0.93,0.43,1.28,0.15
		c2.69-2.16,4.41-5.02,5.67-8.15C1560.53,436.73,1561.36,432.21,1561.24,428.14z"/>
	<path class="st4" d="M1596.64,619.31c0,8.95,0,17.9,0,26.85c0,5.32-0.85,10.5-2.73,15.49c-2.93,7.78-7.97,13.76-15.24,17.81
		c-2.94,1.64-6.09,2.79-9.37,3.56c-9.24,2.16-18.38,1.93-27.36-1.26c-10.49-3.72-17.38-11.03-20.96-21.49
		c-1.3-3.79-2.06-7.71-2.17-11.74c-0.04-1.44-0.07-2.88-0.07-4.31c0-16.78,0-33.56-0.01-50.34c0-3.84,0.18-7.66,1.04-11.43
		c1.64-7.17,4.76-13.52,10.18-18.63c3.79-3.58,8.22-6.1,13.14-7.64c9.06-2.83,18.24-3.04,27.39-0.5
		c13.78,3.82,21.93,13.01,25.13,26.81c0.83,3.61,1.04,7.27,1.04,10.95c0,8.63,0,17.26,0,25.89
		C1596.65,619.31,1596.65,619.31,1596.64,619.31z M1539.21,618.9C1539.2,618.9,1539.2,618.9,1539.21,618.9
		c-0.01,0.8-0.01,1.6-0.01,2.4c0,7.68,0.03,15.35-0.01,23.03c-0.01,2.26,0.21,4.47,0.76,6.65c1.68,6.58,5.59,10.98,12.28,12.76
		c3.16,0.84,6.35,0.87,9.5,0.32c3.52-0.6,6.68-2.09,9.23-4.73c2.3-2.37,3.68-5.2,4.47-8.35c0.66-2.65,0.77-5.37,0.77-8.09
		c-0.02-13.91-0.01-27.82-0.01-41.73c0-2.72-0.05-5.44-0.01-8.15c0.03-2.1-0.32-4.16-0.85-6.16c-1.61-5.98-5.25-10.09-11.26-12.02
		c-2.81-0.9-5.67-0.88-8.54-0.75c-5.83,0.26-13.1,3.53-15.49,12.77c-0.6,2.32-0.87,4.69-0.86,7.12
		C1539.24,602.27,1539.21,610.59,1539.21,618.9z"/>
	<path class="st4" d="M1119.13,441.22c-0.38-1.79-0.73-3.67-1.17-5.52c-0.57-2.35-1.53-4.54-2.95-6.51c-2.48-3.42-5.79-5.48-10-5.89
		c-1.74-0.17-3.52-0.18-5.26-0.02c-5.69,0.55-9.81,3.53-12.56,8.48c-1.75,3.14-2.37,6.59-2.63,10.13c-0.07,0.96-0.04,1.92-0.04,2.88
		c0,16.31,0,32.63,0,48.94c0,1.92,0.13,3.82,0.49,5.72c1.37,7.3,6.58,12.27,14.42,13.3c2.2,0.29,4.49,0.3,6.69,0.02
		c6.4-0.82,10.9-4.28,13.29-10.31c0.89-2.24,1.44-4.58,1.45-7.01c0.01-4,0.03-8,0.01-11.99c0-1.15-0.56-1.66-1.81-1.67
		c-4.16-0.03-8.31-0.02-12.47-0.06c-0.78-0.01-1.58-0.11-2.35-0.27c-0.24-0.05-0.48-0.39-0.61-0.65c-0.14-0.27-0.19-0.61-0.19-0.93
		c0-5.28,0.01-10.55,0.03-15.83c0-0.87,0.61-1.46,1.47-1.51c0.48-0.03,0.96-0.05,1.44-0.06c0.48-0.01,0.96-0.01,1.44-0.01
		c9.75,0,19.5-0.01,29.26,0.01c1.11,0,2.23,0.09,3.34,0.22c0.25,0.03,0.59,0.39,0.65,0.65c0.15,0.61,0.2,1.26,0.2,1.9
		c0,9.6,0.01,19.19-0.04,28.79c-0.02,4.01-0.35,7.98-1.39,11.88c-1.72,6.45-4.64,12.2-9.41,16.99c-4.41,4.43-9.68,7.37-15.67,8.86
		c-8.86,2.2-17.77,2.11-26.5-0.71c-12.65-4.08-20.27-12.83-23.2-25.74c-0.64-2.82-0.96-5.67-0.98-8.56
		c-0.01-2.24-0.04-4.48-0.04-6.72c0-14.55-0.01-29.11,0.01-43.66c0-2.72-0.01-5.44,0.19-8.15c0.45-6.12,1.97-11.97,4.95-17.39
		c4.55-8.28,11.52-13.57,20.48-16.25c4.94-1.48,10.04-1.95,15.18-1.63c3.19,0.2,6.36,0.49,9.48,1.33
		c9.15,2.44,16.06,7.72,20.45,16.12c3.23,6.18,4.84,12.83,5.24,19.78c0.02,0.31,0,0.67-0.14,0.94c-0.13,0.25-0.44,0.59-0.68,0.59
		c-6.53,0.15-13.07,0.44-19.6-0.15C1119.47,441.52,1119.34,441.36,1119.13,441.22z"/>
	<path class="st4" d="M1241.87,316.83c0-19.18,0-38.36,0-57.54c0-1.44-0.01-2.88,0.03-4.32c0.04-1.43,0.59-1.96,2.08-2.01
		c0.8-0.03,1.6-0.03,2.4-0.03c20.29,0,40.58,0,60.88,0c4.74,0,4.5-0.19,4.49,4.38c-0.01,4.47-0.03,8.95-0.06,13.42
		c-0.01,0.87-0.61,1.44-1.49,1.48c-0.64,0.03-1.28,0.06-1.92,0.06c-1.28,0.01-2.56,0.01-3.83,0.01c-12.14,0-24.29,0-36.43,0
		c-1.44,0-2.88,0.01-4.31,0.06c-1.06,0.04-1.65,0.72-1.69,1.89c-0.02,0.64-0.03,1.28-0.03,1.92c0,9.27,0,18.54,0,27.81
		c0,0.64,0.02,1.28,0.04,1.92c0.05,1.1,0.63,1.64,1.86,1.68c0.96,0.03,1.92,0.03,2.88,0.03c10.55,0,21.09-0.03,31.64,0.01
		c7.28,0.03,6.31-0.92,6.38,6.33c0.03,3.36,0.02,6.71,0,10.07c-0.02,2.67-0.24,2.86-3.1,2.9c-1.28,0.02-2.56,0.01-3.83,0.01
		c-10.55,0-21.09-0.01-31.64,0.01c-1.11,0-2.22,0.12-3.32,0.26c-0.25,0.03-0.61,0.39-0.65,0.64c-0.14,0.94-0.24,1.9-0.24,2.85
		c-0.02,7.35-0.02,14.71-0.01,22.06c0,2.4,0.04,4.79,0.08,7.19c0.01,0.63,0.58,1.27,1.16,1.3c1.43,0.06,2.87,0.13,4.3,0.13
		c12.14,0.01,24.29,0.01,36.43,0.01c1.12,0,2.24,0,3.36,0c4.72-0.01,4.43-0.17,4.44,4.43c0.01,4.32,0,8.63-0.02,12.95
		c-0.01,1.45-0.5,1.88-2.07,1.93c-0.64,0.02-1.28,0.03-1.92,0.03c-1.12,0.01-2.24,0-3.36,0c-11.02,0-22.05-0.02-33.07,0.01
		c-3.67,0.01-7.35,0.18-11.02,0.17c-5.59-0.02-11.18-0.14-16.77-0.24c-0.87-0.01-1.55-0.67-1.58-1.47
		c-0.05-1.44-0.07-2.88-0.07-4.31C1241.87,355.51,1241.87,336.17,1241.87,316.83z"/>
	<path class="st4" d="M1065.3,316.72c0-19.02,0-38.04,0-57.06c0-1.28,0.01-2.56,0-3.84c-0.02-2.56,0.51-2.9,3.15-2.9
		c21.09,0.01,42.18,0.01,63.27,0.01c0.64,0,1.28,0.03,1.91,0.06c0.85,0.04,1.49,0.66,1.49,1.52c0,5.43-0.01,10.87-0.03,16.3
		c0,0.8-0.67,1.38-1.57,1.41c-1.6,0.04-3.19,0.06-4.79,0.06c-12.94,0-25.88,0.01-38.82,0c-4.8-0.01-4.5,0.1-4.5,4.44
		c0,8.95,0,17.9,0,26.85c0,0.96,0,1.92,0.12,2.87c0.06,0.43,0.36,0.92,0.91,0.96c1.27,0.09,2.54,0.19,3.81,0.19
		c10.7,0.01,21.41,0.01,32.11,0.01c1.44,0,2.87,0.03,4.31,0.08c0.81,0.03,1.46,0.7,1.46,1.57c0,5.43-0.01,10.86-0.03,16.3
		c0,0.55-0.68,1.22-1.24,1.24c-1.43,0.06-2.87,0.12-4.3,0.12c-10.86,0.01-21.73,0.02-32.59,0c-4.72-0.01-4.57,0.05-4.57,4.38
		c0.01,8.63,0,17.26,0.01,25.89c0,0.96,0.04,1.92,0.08,2.87c0.03,0.59,0.63,1.17,1.26,1.2c1.11,0.05,2.23,0.1,3.35,0.1
		c8.79,0.01,17.57,0,26.36,0c5.11,0,10.22,0,15.34,0.01c0.48,0,0.96,0.01,1.44,0.02c1.22,0.04,1.84,0.57,1.89,1.64
		c0.02,0.48,0.03,0.96,0.03,1.44c0,4.48,0,8.95,0,13.43c0,0.48-0.04,0.96-0.07,1.44c-0.04,0.64-0.57,1.22-1.18,1.24
		c-1.43,0.06-2.87,0.12-4.31,0.12c-11.18,0.01-22.37-0.01-33.55,0.01c-4.15,0.01-8.3,0.19-12.46,0.17
		c-5.59-0.02-11.18-0.15-16.77-0.25c-0.79-0.01-1.45-0.74-1.47-1.58c-0.03-1.44-0.06-2.88-0.06-4.31
		C1065.3,355.4,1065.3,336.06,1065.3,316.72z"/>
	<path class="st4" d="M1428.87,316.93c0-19.83,0-39.67,0-59.5c0-4.52-0.13-4.51,4.44-4.5c20.31,0.02,40.61,0.01,60.92,0.01
		c1.12,0,2.24,0,3.35,0.15c0.36,0.05,0.68,0.55,0.98,0.87c0.1,0.1,0.12,0.3,0.12,0.46c0.01,5.44,0.01,10.87,0,16.31
		c0,0.85-0.64,1.45-1.5,1.49c-0.64,0.03-1.28,0.05-1.92,0.06c-1.28,0.01-2.56,0.01-3.84,0.01c-12.63,0-25.26,0.01-37.89-0.01
		c-4.82-0.01-4.54,0.08-4.54,4.4c0,8.8,0,17.59,0,26.39c0,1.12,0.01,2.24,0.12,3.35c0.04,0.44,0.36,0.93,0.89,0.97
		c1.27,0.1,2.54,0.19,3.82,0.19c10.71,0.01,21.43,0.01,32.14,0.01c1.44,0,2.88,0.04,4.31,0.09c0.8,0.03,1.45,0.73,1.46,1.59
		c0.01,5.28,0.02,10.55,0,15.83c0,1.14-0.63,1.72-1.8,1.76c-1.28,0.04-2.56,0.04-3.84,0.04c-10.71,0-21.43,0-32.14,0.01
		c-1.27,0-2.56,0.05-3.82,0.21c-0.36,0.05-0.71,0.55-0.96,0.91c-0.16,0.24-0.16,0.61-0.16,0.93c-0.01,10.08-0.01,20.15-0.01,30.23
		c0,0.16,0.02,0.32,0.03,0.48c0.05,0.95,0.56,1.57,1.41,1.6c1.44,0.05,2.88,0.08,4.31,0.08c10.87,0.01,21.74,0,32.62,0
		c2.56,0,5.12-0.01,7.67,0.01c0.8,0,1.6,0.05,2.39,0.09c0.61,0.03,1.17,0.61,1.21,1.25c0.05,0.8,0.09,1.59,0.09,2.39
		c0.01,4,0.01,8,0,12c0,0.64-0.02,1.28-0.04,1.92c-0.04,0.98-0.53,1.56-1.38,1.59c-1.44,0.05-2.87,0.09-4.31,0.09
		c-11.83,0.01-23.66-0.01-35.5,0.01c-3.36,0.01-6.71,0.18-10.07,0.17c-5.59-0.03-11.19-0.14-16.78-0.22c-0.16,0-0.31-0.04-0.47-0.06
		c-0.52-0.06-1.22-0.75-1.23-1.28c-0.04-1.44-0.08-2.88-0.08-4.32C1428.87,355.64,1428.87,336.29,1428.87,316.93z"/>
	<path class="st4" d="M1164.66,618.98c0-19.35,0-38.7,0-58.06c0-1.44,0.04-2.87,0.09-4.31c0.02-0.59,0.65-1.27,1.19-1.29
		c1.28-0.05,2.56-0.09,3.83-0.09c14.07-0.01,28.14,0,42.21,0c6.4,0,12.79-0.01,19.19,0.01c0.79,0,1.59,0.08,2.37,0.23
		c0.25,0.05,0.49,0.38,0.64,0.65c0.15,0.27,0.25,0.6,0.25,0.91c0.01,5.28,0,10.55-0.02,15.83c-0.01,1.06-0.7,1.64-1.89,1.67
		c-1.28,0.03-2.56,0.03-3.84,0.03c-12.79,0-25.58,0-38.37,0.01c-1.44,0-2.88,0.02-4.31,0.13c-0.41,0.03-0.92,0.3-1.01,0.88
		c-0.07,0.47-0.2,0.94-0.2,1.41c-0.01,10.24,0,20.47,0.01,30.71c0,0.47,0.03,0.97,0.19,1.41c0.09,0.26,0.43,0.6,0.68,0.62
		c1.27,0.1,2.55,0.15,3.83,0.15c11.03,0.01,22.06,0,33.1,0.01c1.28,0,2.55,0.06,3.82,0.16c0.25,0.02,0.54,0.35,0.69,0.61
		c0.15,0.26,0.22,0.61,0.22,0.92c0,5.44-0.02,10.87-0.04,16.31c0,0.61-0.59,1.18-1.22,1.2c-1.44,0.05-2.87,0.1-4.31,0.1
		c-10.39,0.01-20.78,0-31.18,0.01c-1.28,0-2.56,0-3.84,0.03c-1.38,0.03-1.89,0.61-1.94,2.13c-0.01,0.16-0.01,0.32-0.01,0.48
		c0,9.76,0,19.51,0.01,29.27c0,0.48-0.03,1,0.14,1.42c0.16,0.39,0.54,0.93,0.86,0.97c1.43,0.14,2.87,0.16,4.31,0.16
		c12.95,0.01,25.9-0.02,38.85,0.01c5.81,0.01,5.54-0.71,5.53,5.32c-0.01,3.52,0.01,7.04-0.01,10.56c0,0.79-0.02,1.61-0.22,2.36
		c-0.1,0.37-0.6,0.85-0.96,0.9c-1.26,0.15-2.54,0.17-3.81,0.18c-11.35,0.01-22.7,0.01-34.05,0.01c-8.63,0-17.27,0-25.9,0
		c-1.12,0-2.24-0.03-3.35-0.08c-0.9-0.04-1.41-0.57-1.43-1.53c-0.04-1.44-0.05-2.88-0.05-4.32
		C1164.66,657.68,1164.66,638.33,1164.66,618.98z"/>
	<path class="st4" d="M1530.89,346.49c0.33,0.66,0.62,1.21,0.88,1.78c0.54,1.16,0.98,2.37,1.59,3.49
		c3.27,6.02,8.26,9.57,15.08,10.59c4.53,0.67,8.95,0.28,13.23-1.24c4.13-1.47,7.15-4.2,8.5-8.48c0.38-1.2,0.58-2.5,0.63-3.76
		c0.1-2.4,0.02-4.8,0.04-7.2c0.05-4.78-2.28-8.26-6.12-10.75c-1.86-1.21-3.93-2.15-6.01-2.94c-3.28-1.24-6.65-2.28-10-3.33
		c-5.49-1.72-10.96-3.47-16.24-5.8c-4.49-1.98-8.16-4.97-11.21-8.78c-2.44-3.05-4.11-6.49-4.99-10.27
		c-0.61-2.64-1.12-5.32-1.11-8.06c0.01-2.56-0.03-5.12,0-7.68c0.05-3.87,0.79-7.64,2.05-11.28c2.45-7.1,7-12.48,13.63-16.07
		c3.11-1.69,6.41-2.92,9.85-3.66c7.58-1.62,15.21-2.01,22.84-0.4c10.33,2.18,18.04,7.85,22.68,17.46c0.56,1.15,1.16,2.29,1.57,3.5
		c1.68,4.97,2.09,4.43-2.77,6.68c-3.19,1.48-6.38,2.95-9.57,4.42c-1.02,0.47-2.03,0.93-3.06,1.38c-0.62,0.27-1.39,0.02-1.63-0.53
		c-0.59-1.31-1.14-2.64-1.76-3.94c-1.18-2.48-2.76-4.68-4.83-6.5c-3-2.63-6.46-4.03-10.47-4.12c-2.74-0.06-5.43,0.21-8.07,0.92
		c-2.34,0.63-4.49,1.64-6.31,3.29c-2.49,2.26-3.9,5.06-4.05,8.41c-0.11,2.39-0.12,4.8,0,7.19c0.15,2.97,1.24,5.56,3.38,7.72
		c1.95,1.97,4.15,3.54,6.71,4.52c3.13,1.2,6.3,2.32,9.48,3.35c4.86,1.58,9.8,2.94,14.52,4.92c2.21,0.93,4.44,1.84,6.54,2.98
		c7.57,4.15,12.4,10.38,14.13,18.93c0.44,2.2,0.78,4.41,0.78,6.66c0,3.52,0.02,7.04-0.04,10.55c-0.06,3.38-0.76,6.66-1.82,9.87
		c-2.37,7.15-6.85,12.54-13.41,16.24c-4.23,2.39-8.77,3.85-13.53,4.65c-6.67,1.12-13.35,1.21-20.05,0.11
		c-4.29-0.71-8.42-1.93-12.28-3.91c-7.09-3.63-12.27-9.11-15.39-16.46c-0.75-1.76-1.25-3.62-1.85-5.43
		c-0.17-0.51,0.26-1.33,0.78-1.61c0.28-0.15,0.57-0.3,0.86-0.43c4.97-2.19,9.94-4.38,14.93-6.54
		C1529.54,346.73,1530.17,346.66,1530.89,346.49z"/>
	<path class="st4" d="M1324.76,580.2c-0.52,0.41-0.96,0.9-1.5,1.15c-5.06,2.38-10.13,4.72-15.21,7.07c-0.61,0.28-1.32,0.01-1.6-0.59
		c-0.53-1.16-1-2.35-1.56-3.5c-1.05-2.17-2.33-4.17-4.03-5.91c-3.3-3.36-7.25-5.09-11.99-5.11c-2.58-0.01-5.11,0.25-7.58,0.94
		c-2.64,0.74-5.06,1.92-7.01,3.95c-1.6,1.67-2.67,3.59-3.03,5.87c-0.59,3.66-0.6,7.32,0,10.98c0.35,2.11,1.32,3.91,2.78,5.47
		c1.77,1.89,3.78,3.46,6.17,4.46c2.21,0.92,4.43,1.82,6.7,2.59c3.18,1.08,6.39,2.04,9.59,3.03c4.43,1.37,8.76,3,12.97,4.94
		c2.62,1.21,5.11,2.63,7.28,4.56c5.63,5.01,8.83,11.24,9.47,18.78c0.46,5.43,0.55,10.86-0.02,16.28c-0.16,1.58-0.45,3.16-0.82,4.71
		c-2.34,9.9-8.39,16.69-17.61,20.72c-3.67,1.6-7.54,2.58-11.52,3.13c-6.06,0.85-12.09,0.89-18.14-0.05
		c-4.94-0.77-9.64-2.21-14.01-4.67c-8.25-4.64-13.37-11.68-15.86-20.73c-0.04-0.15-0.05-0.32-0.08-0.47c-0.1-0.5,0.32-1.39,0.8-1.61
		c1.01-0.47,2.03-0.93,3.06-1.38c4.39-1.93,8.77-3.86,13.16-5.77c0.81-0.35,1.66-0.02,1.99,0.73c0.19,0.44,0.29,0.92,0.5,1.35
		c0.54,1.16,1.06,2.33,1.68,3.44c2.63,4.66,6.46,7.89,11.62,9.38c1.68,0.48,3.44,0.79,5.18,0.89c4.18,0.22,8.31-0.13,12.2-1.86
		c5.16-2.31,7.86-6.37,8.25-11.95c0.15-2.23,0.05-4.48,0.04-6.71c-0.02-4.49-1.97-7.98-5.51-10.65c-1.67-1.26-3.5-2.24-5.48-2.92
		c-3.92-1.36-7.87-2.65-11.8-3.98c-3.93-1.33-7.88-2.62-11.79-4.01c-1.65-0.59-3.27-1.31-4.83-2.1
		c-9.6-4.86-15.02-12.65-16.08-23.36c-0.47-4.78-0.39-9.59,0-14.37c0.26-3.21,1.06-6.31,2.28-9.28c3.05-7.47,8.37-12.73,15.75-15.93
		c3.84-1.67,7.86-2.73,11.99-3.22c7.35-0.88,14.67-0.86,21.83,1.44c8.15,2.62,14.26,7.68,18.28,15.25
		C1322.78,574.01,1324.01,576.94,1324.76,580.2z"/>
	<path class="st4" d="M1185.55,344.26c0.7-1.61,1.06-3.15,1.42-4.71c6.43-27.54,12.88-55.08,19.34-82.62
		c0.29-1.23,0.71-2.43,1.09-3.69c0.73-0.11,1.35-0.28,1.97-0.28c5.6-0.02,11.19-0.01,16.79,0c0.32,0,0.63,0.06,0.95,0.08
		c0.62,0.05,1.07,0.72,0.89,1.4c-1.26,4.95-2.51,9.91-3.8,14.86c-5.66,21.64-11.35,43.28-17.01,64.92
		c-3.68,14.07-7.27,28.16-11.01,42.21c-1.14,4.28-0.27,4.3-5.31,4.27c-4-0.02-7.99,0-11.99-0.01c-0.64,0-1.28-0.03-1.9-0.13
		c-0.65-0.1-1.19-0.44-1.38-1.14c-1.19-4.48-2.38-8.96-3.55-13.44c-9.57-36.64-19.13-73.29-28.7-109.93
		c-0.24-0.92-0.68-1.82-0.14-2.77c0.3-0.1,0.6-0.28,0.9-0.28c6.07-0.02,12.15-0.02,18.22-0.01c1,0,1.42,0.37,1.7,1.34
		c0.26,0.92,0.52,1.85,0.74,2.78c4.21,18.05,8.41,36.1,12.62,54.16c2.25,9.65,4.5,19.3,6.75,28.94
		C1184.45,341.57,1184.7,342.94,1185.55,344.26z"/>
	<path class="st4" d="M1626.35,326.24c0-16.47,0-32.93-0.01-49.4c0-1.27-0.11-2.54-0.24-3.81c-0.03-0.24-0.38-0.59-0.63-0.63
		c-0.77-0.14-1.57-0.22-2.36-0.22c-6.07-0.02-12.15-0.01-18.22-0.02c-1.44,0-2.88,0.01-4.31-0.01c-2.81-0.04-2.95-0.17-2.96-3
		c-0.02-4.48-0.01-8.95,0.01-13.43c0-0.63,0.07-1.28,0.22-1.89c0.06-0.26,0.39-0.62,0.62-0.65c1.1-0.13,2.22-0.23,3.33-0.23
		c23.01-0.01,46.02-0.01,69.04-0.01c0.96,0,1.91,0.05,2.87,0.09c0.63,0.03,1.24,0.6,1.3,1.17c0.02,0.16,0.08,0.31,0.08,0.47
		c0,5.27,0,10.55-0.02,15.82c0,0.93-0.57,1.56-1.41,1.59c-1.44,0.05-2.87,0.08-4.31,0.08c-6.55,0.01-13.1,0-19.66,0.02
		c-0.79,0-1.58,0.09-2.36,0.23c-0.25,0.05-0.54,0.38-0.63,0.64c-0.15,0.44-0.21,0.93-0.22,1.41c-0.03,1.44-0.02,2.88-0.02,4.32
		c0,32.13,0.01,64.26-0.01,96.4c0,6.1,0.61,5.47-5.25,5.52c-3.52,0.03-7.03,0.01-10.55,0c-0.96,0-1.91-0.04-2.87-0.09
		c-0.84-0.04-1.35-0.64-1.37-1.61c-0.04-1.44-0.05-2.88-0.05-4.31C1626.35,358.53,1626.35,342.39,1626.35,326.24z"/>
	<path class="st4" d="M1382.08,628.93c0,15.98,0,31.97-0.01,47.95c0,1.6-0.07,3.19-0.12,4.79c-0.02,0.58-0.65,1.2-1.24,1.2
		c-5.75,0.01-11.5,0.01-17.24,0c-0.6,0-1.25-0.61-1.26-1.17c-0.06-1.76-0.13-3.51-0.13-5.27c-0.01-31.97,0-63.93-0.01-95.9
		c0-1.59-0.08-3.19-0.15-4.78c-0.03-0.59-0.67-1.18-1.28-1.2c-1.28-0.05-2.55-0.09-3.83-0.09c-6.55-0.01-13.1,0-19.65-0.01
		c-0.8,0-1.6-0.04-2.39-0.08c-0.63-0.03-1.26-0.58-1.28-1.15c-0.05-1.44-0.11-2.87-0.12-4.31c-0.02-3.52-0.01-7.03,0-10.55
		c0-0.63,0.08-1.27,0.14-1.9c0.06-0.57,0.7-1.14,1.32-1.16c0.96-0.04,1.92-0.07,2.87-0.07c22.85,0,45.69,0,68.54,0
		c0.96,0,1.92,0.03,2.87,0.06c0.81,0.03,1.51,0.69,1.51,1.52c0,5.43-0.01,10.86-0.03,16.3c0,0.62-0.59,1.22-1.18,1.24
		c-1.44,0.05-2.87,0.1-4.31,0.1c-6.39,0.01-12.78,0-19.17,0.01c-0.8,0-1.59,0.04-2.39,0.08c-0.61,0.03-1.28,0.61-1.31,1.18
		c-0.08,1.43-0.15,2.87-0.16,4.3C1382.08,596.32,1382.08,612.63,1382.08,628.93z"/>
	<path class="st4" d="M1302.3,468.17c0-19.81,0-39.63,0-59.44c0-4.73-0.21-4.54,4.34-4.53c4.63,0,9.26,0,13.9,0.02
		c1.24,0.01,1.81,0.53,1.84,1.64c0.03,1.76,0.04,3.51,0.04,5.27c0,31.96,0,63.92,0.01,95.87c0,1.59,0.09,3.19,0.2,4.78
		c0.02,0.24,0.38,0.59,0.63,0.65c0.61,0.15,1.26,0.22,1.89,0.22c2.72,0.02,5.43,0.01,8.15,0.01c11.02,0,22.04,0,33.06,0
		c1.28,0,2.56,0,3.82,0.14c0.35,0.04,0.71,0.53,0.94,0.89c0.15,0.24,0.12,0.62,0.12,0.94c0.01,5.11,0.02,10.23,0,15.34
		c-0.01,1.48-0.48,1.88-2.07,1.91c-1.28,0.03-2.56,0.02-3.83,0.02c-15.65,0.03-31.31,0.06-46.96,0.07c-4.31,0-8.63-0.04-12.94-0.08
		c-0.64-0.01-1.27-0.07-1.91-0.12c-0.57-0.04-1.13-0.66-1.15-1.3c-0.04-1.6-0.08-3.19-0.08-4.79
		C1302.3,506.52,1302.3,487.34,1302.3,468.17z"/>
	<path class="st4" d="M1407.21,458.64c0,15.98,0,31.97,0.01,47.95c0,1.59,0.07,3.19,0.13,4.78c0.02,0.62,0.62,1.18,1.24,1.21
		c0.8,0.04,1.6,0.07,2.39,0.07c4.15,0.01,8.31,0,12.46,0c9.43,0,18.85-0.01,28.28,0.01c1.11,0,2.22,0.08,3.32,0.2
		c0.25,0.03,0.53,0.36,0.66,0.61c0.14,0.27,0.17,0.62,0.17,0.93c0,5.27,0,10.55-0.02,15.82c0,0.31-0.07,0.66-0.22,0.92
		c-0.15,0.25-0.46,0.55-0.71,0.57c-1.27,0.1-2.54,0.17-3.82,0.17c-16.62,0.03-33.23,0.06-49.85,0.08c-3.83,0-7.67-0.05-11.5-0.08
		c-0.32,0-0.64-0.02-0.96-0.04c-1.15-0.06-1.62-0.56-1.66-1.85c-0.04-1.12-0.04-2.24-0.05-3.36c0-39.16,0-78.32,0-117.47
		c0-1.12,0.02-2.24,0.05-3.36c0.02-0.91,0.59-1.53,1.39-1.58c0.32-0.02,0.64-0.05,0.96-0.05c5.11,0,10.23-0.01,15.34,0
		c0.32,0,0.64,0.03,0.96,0.05c0.53,0.04,1.3,0.7,1.31,1.18c0.05,1.44,0.1,2.87,0.1,4.31
		C1407.21,426.04,1407.21,442.34,1407.21,458.64z"/>
	<path class="st4" d="M1259.82,468.16c0-19.33,0-38.65,0-57.98c0-1.44,0-2.87,0.03-4.31c0.02-1.13,0.56-1.65,1.83-1.65
		c5.59-0.01,11.17,0,16.76,0.02c0.31,0,0.66,0.05,0.91,0.2c0.25,0.15,0.56,0.45,0.58,0.71c0.09,1.43,0.14,2.87,0.14,4.3
		c0.01,38.97,0.01,77.94,0,116.91c0,1.44-0.06,2.87-0.11,4.3c-0.02,0.59-0.62,1.16-1.26,1.16c-5.75,0.02-11.49,0.04-17.24,0.04
		c-0.94,0-1.53-0.55-1.55-1.42c-0.05-1.6-0.08-3.19-0.08-4.79C1259.82,506.5,1259.82,487.33,1259.82,468.16z"/>
	<path class="st3" d="M775.16,453.25c2.39-0.29,4.76,0.08,7.13,0.35c1.27,0.15,2.52,0.39,3.79,0.51c5.08,0.47,10.16,1,15.2,1.79
		c1.26,0.2,2.55,0.21,3.82,0.26c1.48,0.06,2.35-0.86,2.16-2.45c-0.52-4.44-1.2-8.85-1.68-13.29c-0.49-4.6-1.48-9.14-1.53-13.78
		c0-0.39,0.71-0.83,1.03-0.63c0.54,0.33,1.09,0.67,1.61,1.03c5.38,3.74,10.76,7.48,16.13,11.22c1.97,1.37,3.92,2.75,5.91,4.1
		c0.38,0.26,0.86,0.4,1.32,0.48c0.67,0.12,1.28-0.14,1.74-0.6c0.33-0.33,0.58-0.77,0.77-1.21c3.09-6.84,6.16-13.7,9.24-20.54
		c0.59-1.31,1.19-2.62,1.88-3.88c0.19-0.34,0.73-0.48,1.19-0.76c1.99,3.41,3.41,6.98,5.03,10.45c2.16,4.63,4.22,9.31,6.33,13.97
		c0.26,0.58,0.57,1.15,0.89,1.7c0.43,0.76,1.72,1.21,2.54,0.83c0.72-0.33,1.42-0.71,2.07-1.16c5.37-3.75,10.72-7.53,16.08-11.3
		c1.57-1.1,3.13-2.22,4.72-3.29c0.76-0.51,1.54-1.54,2.48-0.91c0.61,0.41,0.18,1.47,0.07,2.26c-0.83,6.17-1.61,12.34-2.41,18.52
		c-0.29,2.22-0.61,4.43-0.87,6.64c-0.05,0.46-0.01,0.98,0.17,1.4c0.18,0.4,0.53,0.8,0.92,1c0.4,0.21,0.93,0.27,1.39,0.25
		c1.6-0.06,3.22-0.03,4.77-0.32c2.05-0.38,4.12-0.48,6.17-0.79c4.42-0.68,8.9-0.76,13.31-1.53c1.71-0.3,3.48-0.56,5.23-0.18
		c0.18,0.04,0.46,0.57,0.39,0.72c-0.27,0.56-0.64,1.09-1.03,1.58c-5.24,6.45-10.49,12.89-15.74,19.33
		c-1.88,2.31-1.64,3.67,0.97,4.77c2.65,1.12,5.34,2.13,8.01,3.19c5.64,2.24,11.28,4.49,16.91,6.74c0.44,0.17,0.88,0.39,1.23,0.7
		c0.16,0.14,0.2,0.74,0.1,0.8c-0.82,0.49-1.65,0.97-2.53,1.32c-6.83,2.69-13.68,5.35-20.52,8.03c-1.34,0.52-2.67,1.07-3.99,1.65
		c-1.5,0.66-1.85,2.21-0.82,3.56c0.58,0.76,1.21,1.48,1.82,2.23c5.03,6.2,10.07,12.4,15.09,18.62c0.28,0.34,0.44,0.78,0.61,1.2
		c0.04,0.1-0.08,0.37-0.18,0.4c-0.29,0.09-0.62,0.17-0.92,0.14c-2.54-0.25-5.1-0.23-7.61-0.82c-1.08-0.25-2.22-0.28-3.33-0.35
		c-4.62-0.29-9.19-0.98-13.77-1.65c-1.57-0.23-3.18-0.25-4.77-0.3c-0.97-0.03-1.91,0.88-1.87,1.8c0.06,1.28,0.11,2.56,0.28,3.82
		c0.59,4.59,1.22,9.18,1.85,13.76c0.46,3.31,0.95,6.62,1.39,9.94c0.04,0.27-0.11,0.69-0.31,0.82c-0.21,0.14-0.65,0.13-0.89,0
		c-0.71-0.36-1.39-0.79-2.04-1.24c-6.42-4.49-12.83-8.98-19.24-13.48c-0.65-0.46-1.3-0.93-1.97-1.36c-2.03-1.33-3.24-1.07-4.27,0.99
		c-0.71,1.43-1.35,2.89-2.01,4.35c-2.72,5.96-5.42,11.92-8.15,17.88c-0.4,0.87-0.89,1.69-1.34,2.53c-0.19,0.35-1.02,0.35-1.21-0.02
		c-0.73-1.42-1.49-2.82-2.15-4.27c-2.87-6.24-5.71-12.49-8.57-18.74c-0.4-0.87-0.83-1.73-1.29-2.57c-0.42-0.77-1.77-1.23-2.52-0.81
		c-1.11,0.62-2.2,1.29-3.24,2.02c-6.55,4.58-13.08,9.18-19.63,13.76c-0.51,0.36-1.08,0.65-1.66,0.87c-0.16,0.06-0.63-0.23-0.68-0.42
		c-0.4-1.59,0-3.18,0.18-4.75c0.57-4.75,1.17-9.5,1.87-14.24c0.45-3,0.96-5.99,1.01-9.03c0.01-0.71-0.82-1.53-1.54-1.6
		c-0.32-0.03-0.63-0.09-0.95-0.08c-0.8,0.02-1.6,0.04-2.39,0.13c-3.64,0.42-7.28,0.89-10.92,1.3c-4.92,0.55-9.83,1.07-14.76,1.58
		c-0.46,0.05-0.97-0.02-1.4-0.18c-0.19-0.07-0.43-0.61-0.34-0.74c0.61-0.93,1.27-1.84,1.97-2.7c4.63-5.7,9.28-11.4,13.93-17.09
		c0.4-0.5,0.84-0.97,1.23-1.47c1.4-1.8,1.08-3.29-1.01-4.18c-2.79-1.19-5.63-2.27-8.45-3.39c-5.64-2.24-11.28-4.47-16.92-6.7
		c-0.29-0.12-0.59-0.24-0.88-0.37c-0.35-0.16-0.53-0.44-0.37-0.78c0.12-0.26,0.31-0.57,0.55-0.68c1.17-0.52,2.36-0.99,3.54-1.46
		c6.97-2.77,13.95-5.53,20.92-8.31c0.89-0.35,1.76-0.77,2.61-1.21c0.68-0.35,1.05-1.9,0.61-2.6c-0.51-0.81-1.05-1.6-1.65-2.34
		c-4.93-6.08-9.87-12.15-14.81-18.23c-0.4-0.49-0.8-1-1.1-1.56C774.97,454,775.12,453.63,775.16,453.25z"/>
	<path class="st3" d="M835.07,295.98c0.56,0.25,1.1,0.33,1.37,0.65c1.67,1.94,3.25,3.95,4.9,5.9c0.72,0.85,1.52,1.63,2.31,2.42
		c0.37,0.37,1.35,0.37,1.79,0c0.6-0.52,1.24-1.02,1.74-1.62c1.43-1.71,2.8-3.49,4.22-5.22c0.5-0.62,1.08-1.17,1.64-1.75
		c0.29-0.3,1.05-0.15,1.21,0.24c0.24,0.59,0.52,1.17,0.69,1.78c0.69,2.46,1.33,4.93,2.02,7.39c0.13,0.45,0.34,0.89,0.55,1.31
		c0.39,0.76,1.73,1.24,2.5,0.88c0.72-0.34,1.43-0.7,2.13-1.08c2.39-1.29,4.76-2.62,7.16-3.88c0.39-0.2,1.01-0.33,1.36-0.16
		c0.66,0.32,0.43,1.07,0.43,1.67c0,0.16,0,0.32-0.03,0.48c-0.45,2.35-0.92,4.69-1.34,7.04c-0.11,0.62-0.07,1.27-0.05,1.91
		c0.03,0.9,1.09,1.85,1.94,1.74c2.85-0.37,5.68-0.79,8.53-1.14c1.09-0.13,2.19-0.15,3.4-0.22c-0.04,0.65,0.09,1.2-0.12,1.56
		c-1.03,1.8-2.15,3.55-3.24,5.32c-0.5,0.82-1.04,1.61-1.52,2.44c-1.2,2.04-0.68,3.29,1.62,3.84c3.1,0.75,6.21,1.47,9.31,2.24
		c0.25,0.06,0.47,0.36,0.65,0.59c0.25,0.31,0.05,0.86-0.43,1.22c-0.51,0.39-1.02,0.76-1.54,1.13c-1.83,1.29-3.67,2.56-5.5,3.85
		c-1.97,1.4-2.81,2.97-0.03,4.78c1.34,0.87,2.63,1.81,3.97,2.68c0.39,0.25,0.87,0.37,1.28,0.53c1.66-0.32,2.98-1.25,4.33-2.09
		c10.73-6.71,19.58-15.34,26.43-26c0.69-1.07,1.37-2.15,2.11-3.19c0.15-0.21,0.55-0.25,0.84-0.36c0.07,0.29,0.23,0.6,0.19,0.88
		c-0.88,5.36-2.1,10.64-4.14,15.7c-5.99,14.86-15.87,26.46-29.36,35.04c-8.17,5.2-17.05,8.7-26.48,10.77
		c-3.42,0.75-6.88,1.36-10.42,1.47c-2.39,0.07-4.76,0.4-7.15,0.58c-4.18,0.31-8.3-0.41-12.38-1.02c-6.48-0.96-12.76-2.75-18.85-5.27
		c-10.96-4.54-20.46-11.11-28.39-19.92c-8.53-9.47-14.01-20.52-16.72-32.95c-0.24-1.09-0.28-2.22-0.39-3.33
		c-0.08-0.76,0.11-1.12,0.46-1.12c0.6,0,0.79,0.47,1.04,0.84c0.46,0.65,0.85,1.35,1.28,2.03c6.54,10.28,14.95,18.71,25.23,25.2
		c6.43,4.06,4.96,3.86,11.15-0.6c0.26-0.19,0.49-0.4,0.73-0.62c0.78-0.71,0.77-2.31-0.08-3c-0.99-0.8-2.05-1.53-3.08-2.28
		c-1.8-1.32-3.6-2.63-5.4-3.96c-0.3-0.22-0.13-1.12,0.23-1.22c1.99-0.54,4-1.06,5.99-1.59c1.54-0.41,3.09-0.79,4.62-1.25
		c1.04-0.31,1.63-1.81,1.1-2.8c-0.68-1.26-1.45-2.47-2.19-3.7c-1.07-1.77-2.16-3.54-3.23-5.31c-0.21-0.34,0.27-1.07,0.65-1.02
		c3,0.39,6,0.79,9,1.17c0.79,0.1,1.58,0.2,2.37,0.21c0.92,0.01,1.88-0.92,1.86-1.84c-0.04-1.27-0.11-2.55-0.28-3.81
		c-0.3-2.21-0.69-4.41-1-6.63c-0.03-0.24,0.2-0.62,0.42-0.75c0.23-0.14,0.66-0.17,0.89-0.05c2.54,1.35,5.04,2.76,7.58,4.11
		c0.84,0.45,1.74,0.8,2.62,1.18c0.44,0.19,1.38-0.18,1.67-0.67c0.32-0.54,0.68-1.08,0.86-1.68c0.65-2.14,1.21-4.3,1.85-6.44
		C834.26,298.15,834.67,297.12,835.07,295.98z"/>
	<path class="st2" d="M970.29,580.94c0.07,3.02-0.73,5.6-1.85,8.1c-1.11,2.48-2.12,4.97-2.61,7.68c-0.74,4.09,0.43,7.59,3.02,10.66
		c1.23,1.46,2.7,2.71,4.1,4.03c1.41,1.34,2.49,2.91,3.35,4.64c1.16,2.32,1.8,4.74,1.72,7.38c-0.05,1.75-0.47,3.05-2.2,3.85
		c-1.73,0.81-3.37,1.83-5.01,2.81c-5.07,3.03-8.73,7.43-11.74,12.41c-2.15,3.56-3.94,7.31-5.52,11.16
		c-1.65,4.02-2.55,8.22-2.78,12.57c-0.21,3.99-0.49,7.97-0.77,11.95c-0.1,1.37-0.92,1.86-2.31,1.45c-0.15-0.04-0.31-0.08-0.46-0.13
		c-0.15-0.05-0.29-0.12-0.45-0.17c-9.34-3.28-18.83-6.1-28.4-8.62c-9.04-2.38-17.34-6.4-25.43-10.96
		c-4.91-2.76-9.36-6.08-13.29-10.11c-4.57-4.69-9.26-9.28-13.77-14.02c-1.97-2.08-3.67-4.42-5.44-6.68
		c-0.38-0.48-0.66-1.12-0.74-1.72c-0.05-0.37,0.24-1.04,0.56-1.18c0.86-0.39,1.8-0.64,2.74-0.82c4.89-0.93,9.53-2.62,14.14-4.45
		c9.5-3.78,18.72-8.19,27.79-12.89c7.09-3.67,14.19-7.33,21.16-11.2c7.26-4.03,14.38-8.3,21.55-12.48c4.55-2.66,9.07-5.37,13.63-8
		c1.52-0.88,3.12-1.6,4.7-2.37c0.52-0.25,1.33,0,1.75,0.44C969.59,576.19,970.62,578.43,970.29,580.94z"/>
	<path class="st0" d="M1194.4,423.37c3.19,0,6.38-0.01,9.57,0c1.44,0,2.86,0.09,4.25,0.54c4.71,1.54,7.22,4.99,8.42,9.6
		c0.16,0.61,0.26,1.26,0.27,1.89c0.03,3.98,0.06,7.97,0.01,11.95c-0.02,1.61-0.47,3.15-1.15,4.61c-1.98,4.27-5.32,6.92-9.99,7.07
		c-7.64,0.24-15.3,0.07-22.95,0.07c-0.6,0-1.28-0.63-1.33-1.14c-0.03-0.32-0.08-0.64-0.08-0.95c0-10.53,0-21.05,0-31.58
		c0-0.32-0.02-0.66,0.1-0.95c0.18-0.42,0.38-0.9,0.94-0.95c0.79-0.07,1.58-0.16,2.37-0.17c3.19-0.02,6.38-0.01,9.57-0.01
		C1194.4,423.37,1194.4,423.37,1194.4,423.37z"/>
	<path class="st5" d="M1444.26,592.1c0-4.79,0-9.58,0-14.37c0-0.64,0.05-1.27,0.09-1.91c0.04-0.6,0.63-1.25,1.18-1.3
		c0.47-0.05,0.95-0.12,1.42-0.13c6.54-0.01,13.08-0.01,19.63,0.02c0.95,0,1.91,0.09,2.84,0.28c5.37,1.1,9.07,4.85,10.11,10.2
		c0.15,0.78,0.28,1.58,0.29,2.37c0.03,3.51,0.06,7.02,0,10.53c-0.04,2.27-0.66,4.4-1.78,6.39c-1.56,2.77-3.8,4.71-6.9,5.52
		c-1.38,0.36-2.82,0.66-4.23,0.68c-6.86,0.07-13.72,0.03-20.58,0.02c-0.31,0-0.69,0-0.93-0.16c-0.37-0.24-0.84-0.57-0.93-0.94
		c-0.19-0.76-0.2-1.58-0.2-2.37C1444.25,602,1444.26,597.05,1444.26,592.1z"/>
	<path class="st0" d="M1085.35,592.18c0-4.79-0.01-9.58,0.01-14.37c0-0.79,0.01-1.61,0.2-2.37c0.09-0.36,0.57-0.77,0.96-0.89
		c0.59-0.18,1.26-0.16,1.89-0.16c6.22-0.01,12.45,0.01,18.67-0.01c1.61,0,3.17,0.2,4.72,0.62c3.64,0.99,6.12,3.33,7.72,6.65
		c0.84,1.73,1.36,3.59,1.38,5.54c0.03,3.67,0.09,7.34-0.03,11.01c-0.1,3.13-1.29,5.88-3.38,8.25c-2.26,2.55-5.24,3.52-8.48,3.93
		c-0.63,0.08-1.28,0.05-1.91,0.05c-6.38,0.01-12.77,0.01-19.15,0c-0.48,0-0.99,0.02-1.41-0.16c-0.39-0.16-0.87-0.52-0.96-0.89
		c-0.19-0.76-0.2-1.57-0.2-2.37C1085.34,602.07,1085.35,597.13,1085.35,592.18z"/>
	<path class="st5" d="M1349.76,290.12c0-4.94-0.01-9.88,0.01-14.83c0-0.79,0.12-1.58,0.29-2.35c0.05-0.25,0.39-0.49,0.65-0.62
		c0.27-0.14,0.61-0.18,0.91-0.19c6.85-0.02,13.71-0.04,20.56,0c1.1,0.01,2.21,0.22,3.3,0.45c4.25,0.9,7.05,3.55,8.64,7.49
		c0.78,1.92,1.26,3.94,1.25,6.05c-0.02,2.87-0.02,5.74,0,8.61c0.01,1.78-0.41,3.5-1,5.14c-1.82,5.01-5.59,7.57-10.77,8.21
		c-0.63,0.08-1.27,0.06-1.91,0.06c-6.38,0.01-12.75,0.01-19.12,0.01c-0.48,0-0.95-0.04-1.43-0.07c-0.61-0.04-1.21-0.62-1.25-1.22
		c-0.06-0.95-0.12-1.9-0.12-2.86C1349.75,299.37,1349.76,294.75,1349.76,290.12C1349.76,290.12,1349.76,290.12,1349.76,290.12z"/>
	<path class="st0" d="M1536.72,494.6c0.2-2.05,0.26-4.46,0.71-6.79c1.13-5.81,4.02-10.68,8.32-14.73c0.72-0.68,1.53-0.67,2.01,0.05
		c0.36,0.53,0.7,1.07,1.04,1.6c5.52,8.76,11.05,17.51,16.56,26.27c0.51,0.81,1.05,1.61,1.43,2.47c0.17,0.37,0.15,1.01-0.06,1.35
		c-2.08,3.27-4.73,6-8.06,8c-3.44,2.06-7.21,2.43-11.08,1.82c-1.93-0.3-3.59-1.26-5.02-2.59c-3.33-3.08-4.85-7.04-5.46-11.4
		C1536.84,498.78,1536.85,496.85,1536.72,494.6z"/>
	<path class="st5" d="M1561.24,428.14c0.12,4.06-0.71,8.59-2.46,12.93c-1.26,3.13-2.99,5.99-5.67,8.15
		c-0.34,0.27-1.02,0.2-1.28-0.15c-0.28-0.39-0.6-0.75-0.83-1.16c-4.15-7.42-6.17-15.33-5.45-23.87c0.15-1.77,0.47-3.49,1.17-5.1
		c0.38-0.86,0.87-1.71,1.47-2.44c2.47-3.06,6.85-3.29,9.73-0.58c1.07,1.01,1.76,2.23,2.28,3.59
		C1561.2,422.1,1561.24,424.8,1561.24,428.14z"/>
	<path class="st0" d="M1539.21,618.9c0-8.32,0.04-16.63-0.02-24.94c-0.02-2.43,0.26-4.8,0.86-7.12c2.4-9.24,9.67-12.51,15.49-12.77
		c2.87-0.13,5.73-0.15,8.54,0.75c6.01,1.93,9.65,6.04,11.26,12.02c0.54,2,0.88,4.06,0.85,6.16c-0.04,2.72,0.01,5.44,0.01,8.15
		c0,13.91-0.01,27.82,0.01,41.73c0,2.73-0.1,5.44-0.77,8.09c-0.79,3.15-2.17,5.98-4.47,8.35c-2.56,2.63-5.71,4.13-9.23,4.73
		c-3.16,0.54-6.34,0.52-9.5-0.32c-6.69-1.79-10.61-6.19-12.28-12.76c-0.56-2.18-0.77-4.39-0.76-6.65
		c0.04-7.68,0.01-15.35,0.01-23.03C1539.2,620.5,1539.2,619.7,1539.21,618.9C1539.2,618.9,1539.2,618.9,1539.21,618.9z"/>
</g>
</svg>
