<?xml version="1.0" encoding="utf-8"?>
<!-- Generator: Adobe Illustrator 26.1.0, SVG Export Plug-In . SVG Version: 6.00 Build 0)  -->
<svg version="1.1" id="Layer_1" xmlns="http://www.w3.org/2000/svg" xmlns:xlink="http://www.w3.org/1999/xlink" x="0px" y="0px"
	 viewBox="0 0 1920 1080" style="enable-background:new 0 0 1920 1080;" xml:space="preserve">
<style type="text/css">
	.st0{fill:#FFFFFF;}
	.st1{fill:#484848;}
	.st2{fill:#D2D2D2;}
	.st3{fill:#FEFEFE;}
</style>
<g>
	<path class="st0" d="M1679.08,930.24c-479.36,0-958.72,0-1438.08,0c0-260.08,0-520.16,0-780.24c479.36,0,958.72,0,1438.08,0
		C1679.08,410.08,1679.08,670.16,1679.08,930.24z M258.07,634.66c0.42,1.54,0.86,3.08,1.26,4.63c4.7,17.81,10.61,35.2,17.78,52.16
		c8.3,19.63,18.17,38.43,29.59,56.42c12.11,19.08,25.77,36.98,41.03,53.65c15.9,17.38,33.18,33.27,51.92,47.56
		c23.24,17.72,48.17,32.59,74.76,44.67c19.69,8.95,40.01,16.12,60.93,21.62c12.68,3.33,25.51,6.01,38.46,8.02
		c9.32,1.44,18.68,2.49,28.08,3.32c8.13,0.71,16.27,0.94,24.41,1.25c10.39,0.4,20.78-0.05,31.15-0.64
		c13.73-0.78,27.37-2.34,40.95-4.6c18.32-3.04,36.32-7.38,54-13.04c23.36-7.47,45.8-17.1,67.31-28.88
		c16.01-8.76,31.31-18.64,45.95-29.53c1.01-0.75,2.16-1.4,2.77-2.6c1.09-0.66,2.24-1.24,3.26-1.99c1.67-1.23,3.26-2.56,4.87-3.87
		c1.98-1.61,4.03-3.14,5.9-4.88c3.38-3.16,7.19-5.83,10.38-9.21c0.33-0.34,0.76-0.58,1.12-0.9c1.56-1.36,3.19-2.66,4.66-4.12
		c6.24-6.18,12.44-12.41,18.64-18.63c1.01-1.02,2.11-1.99,2.94-3.15c2.81-3.9,6.34-7.16,9.38-10.87c2.93-3.58,5.88-7.14,8.8-10.73
		c6.25-7.69,12-15.75,17.47-23.99c3.36-5.05,6.69-10.13,9.84-15.31c3.07-5.04,5.92-10.22,8.82-15.37c1.72-3.06,3.38-6.16,5.01-9.27
		c1.19-2.26,2.32-4.55,3.42-6.86c1.5-3.17,2.94-6.38,4.41-9.57c0.47-1.02,0.98-2.01,1.41-3.04c2.96-7.07,5.88-14.15,8.58-21.33
		c3.78-10.02,7-20.23,9.93-30.52c2.62-9.21,4.71-18.57,6.74-27.94c0.44-2.03,0.81-4.07,1.14-6.12c1.26-7.88,2.49-15.76,3.73-23.64
		c0.14-1.91,0.22-3.83,0.44-5.74c0.73-6.35,1.32-12.72,1.56-19.11c0.37-9.9,1.05-19.8,0.58-29.72c-0.13-2.71-0.24-5.43-0.3-8.15
		c-0.16-7.52-0.73-15.01-1.46-22.49c-1.21-12.25-2.99-24.42-5.33-36.52c-3.93-20.3-9.48-40.13-16.61-59.52
		c-8.08-21.96-18.11-43-30.04-63.14c-10.53-17.78-22.4-34.62-35.63-50.49c-16.74-20.07-35.28-38.33-55.65-54.71
		c-13.72-11.03-28.14-21.07-43.22-30.16c-20.18-12.16-41.32-22.34-63.38-30.59c-18.89-7.07-38.22-12.63-58-16.61
		c-10.34-2.08-20.75-3.73-31.22-5.02c-8.73-1.07-17.49-1.88-26.26-2.25c-15.65-0.66-31.31-0.76-46.96,0.44
		c-6.85,0.52-13.69,1.13-20.52,1.92c-11.59,1.35-23.08,3.32-34.49,5.75c-29.52,6.29-57.88,15.97-85.11,28.99
		c-26.94,12.88-52.05,28.66-75.33,47.36c-24.54,19.72-46.4,42.06-65.58,67.03c-12.59,16.39-23.79,33.68-33.59,51.87
		c-12.78,23.72-22.99,48.52-30.55,74.39c-4.13,14.13-7.47,28.44-9.92,42.96c-1.17,6.94-2.15,13.9-3,20.88
		c-1.23,10.01-1.97,20.05-2.34,30.11c-0.48,13.27-0.4,26.53,0.45,39.79c0.56,8.78,1.36,17.53,2.46,26.25
		c1.36,10.78,3.24,21.49,5.53,32.12c0.89,2.91,1.47,5.88,1.87,8.89C257.44,632.87,257.54,633.82,258.07,634.66z M1099.48,723.73
		c-5.36-0.09-11.09,0.15-16.77,1.21c-5.04,0.94-9.99,2.13-14.59,4.51c-2.45,1.26-4.63,2.86-6.47,4.88
		c-4.42,4.87-4.61,12.93,0.36,17.83c1.95,1.93,4.13,3.51,6.59,4.72c3.17,1.56,6.5,2.65,9.9,3.56c6.69,1.79,13.56,2.05,20.4,2.54
		c0.95,0.07,1.91-0.07,2.87-0.13c2.39-0.15,4.78-0.3,7.17-0.45c0.96-0.06,1.92-0.05,2.87-0.16c8.56-0.95,17.09-2.2,25.62-3.42
		c5.53-0.79,11.06-1.5,16.6-2.21c3.8-0.49,7.61-0.93,11.41-1.38c3.64-0.44,7.27-0.97,10.93-1.29c5.09-0.44,10.17-0.93,15.26-1.34
		c5.89-0.48,11.78-0.98,17.69-1.06c1.12-0.02,2.26,0.03,3.35-0.17c3.17-0.56,6.37-0.47,9.56-0.5c3.68-0.04,7.35-0.03,11.03-0.13
		c17.9-0.49,35.8-0.23,53.7-0.23c4.14,0,8.3,0.24,12.37,1.2c7.16,1.68,13.55,4.73,18.65,10.17c0.66,0.7,1.34,1.38,2.03,2.04
		c3.03,2.86,6.29,5.42,9.88,7.55c9.22,5.48,19.26,8.44,29.84,9.75c7.49,0.93,15.01,0.71,22.5,0.36c7.65-0.35,15.24-1.55,22.76-3.03
		c12.26-2.4,24.23-5.79,35.77-10.63c5.62-2.35,10.97-5.18,16.02-8.6c2.8-1.9,5.28-4.13,7.48-6.69c1.47-1.72,2.66-3.61,3.19-5.84
		c0.97-4.09,0.43-7.93-2.02-11.43c-1.48-2.11-3.29-3.91-5.24-5.57c-3.19-2.69-6.68-4.93-10.35-6.9c-7.49-4.03-15.39-7.06-23.48-9.61
		c-11.45-3.61-23.17-6.03-35.06-7.58c-2.69-0.35-5.39-0.62-8.09-0.79c-2.87-0.18-5.75-0.25-8.63-0.25c-5.59,0-11.17,0-16.73,0.83
		c-7.31,1.09-14.4,2.92-21.15,5.95c-6.47,2.9-12.37,6.67-17.34,11.79c-0.78,0.8-1.59,1.57-2.39,2.36c-2.63,2.62-5.68,4.64-9.03,6.23
		c-3.63,1.74-7.46,2.8-11.42,3.46c-3.64,0.61-7.31,0.69-10.99,0.69c-14.06,0-28.13,0.1-42.19-0.03
		c-12.46-0.12-24.92-0.49-37.38-0.76c-0.96-0.02-1.91-0.13-2.87-0.2c-2.07-0.16-4.13-0.32-6.2-0.47c-1.59-0.11-3.19-0.16-4.78-0.31
		c-5.72-0.56-11.45-0.89-17.17-1.52c-7.14-0.78-14.28-1.51-21.39-2.53c-5.84-0.84-11.69-1.66-17.54-2.49
		c-5.37-0.76-10.75-1.45-16.11-2.28C1113.26,724.36,1106.6,723.66,1099.48,723.73z M1421.71,820.63c7.35,0,14.71,0,22.06,0
		c5.92,0,11.83,0.01,17.75-0.01c1.28,0,2.56-0.06,3.82-0.2c1.27-0.14,2.71-1.71,2.75-2.97c0.05-1.25-0.72-2.12-1.72-2.69
		c-0.67-0.38-1.48-0.64-2.25-0.7c-1.59-0.12-3.19-0.08-4.79-0.08c-25.26,0-50.52,0-75.78-0.01c-1.6,0-3.2-0.03-4.79-0.12
		c-1.01-0.05-1.77-0.65-2.4-1.42c-0.34-0.42-0.35-1.34-0.04-1.8c0.57-0.85,1.35-1.42,2.35-1.49c1.75-0.13,3.51-0.19,5.26-0.19
		c25.1-0.01,50.2-0.01,75.3-0.01c1.76,0,3.52-0.04,5.27-0.09c1.38-0.04,2.4-0.79,3.25-1.81c0.88-1.05,0.79-2.39-0.15-3.48
		c-1-1.16-2.24-1.77-3.76-1.84c-2.39-0.12-4.81-0.09-7.18-0.4c-1.91-0.25-3.81-0.38-5.72-0.44c-1.44-0.05-2.87-0.14-4.31-0.25
		c-3.98-0.28-7.96-0.75-11.95-0.82c-5.12-0.09-10.18-0.84-15.3-0.98c-6.22-0.17-12.43-0.75-18.65-1.15
		c-0.48-0.03-0.96-0.03-1.43-0.1c-5.39-0.79-10.83-0.79-16.25-1.01c-4.79-0.19-9.59-0.06-14.39-0.07
		c-5.92-0.01-11.81,0.46-17.65,1.39c-4.43,0.7-8.79,1.67-12.96,3.38c-1.92,0.79-3.82,1.63-5.71,2.5
		c-8.45,3.89-17.18,6.96-26.26,8.99c-8.9,2-17.89,3.2-27.05,3.16c-17.75-0.08-35.49,0-53.24-0.03c-7.51-0.01-15.03,0.28-22.51-0.67
		c-5.12,0.1-10.21-0.45-15.31-0.84c-5.09-0.39-10.19-0.75-15.26-1.33c-6.34-0.72-12.67-1.59-18.98-2.51
		c-7.74-1.13-15.45-2.41-23.18-3.57c-5.84-0.87-11.68-1.8-17.54-2.44c-4.12-0.45-8.24-0.97-12.41-0.97c-5.12,0-10.22,0.14-15.3,0.8
		c-5.56,0.72-11.01,1.91-16.2,4.13c-2.82,1.21-5.28,2.93-7.56,4.99c-2.8,2.54-3.59,5.94-4.31,9.39c-0.06,0.3-0.03,0.64,0.03,0.95
		c0.76,4.27,2.64,7.86,6.29,10.36c1.45,0.99,2.9,2.04,4.49,2.75c2.47,1.11,5.01,2.12,7.61,2.88c7.41,2.17,15.05,3.07,22.73,3.04
		c6.06-0.02,12.13-0.59,18.17-1.23c6.02-0.64,12.01-1.65,18.01-2.52c4.74-0.69,9.47-1.42,14.21-2.1c5.68-0.83,11.36-1.72,17.06-2.42
		c6.81-0.83,13.64-1.51,20.47-2.21c2.22-0.23,4.48-0.16,6.69-0.43c5.56-0.68,11.16-0.58,16.72-1.21c0.16-0.02,0.32-0.01,0.48-0.01
		c11.35-0.11,22.7-0.24,34.05-0.31c8.15-0.05,16.31-0.03,24.46,0c8.31,0.03,16.62-0.09,24.89,1.03c3.48,0.47,6.98,0.83,10.42,1.48
		c10.57,2.01,20.73,5.27,30.25,10.39c2.68,1.44,5.53,2.51,8.45,3.36c5.24,1.51,10.63,2.27,16.02,2.75
		c5.25,0.46,10.54,0.57,15.81,0.56c6.07-0.01,12.14-0.32,18.21-0.52c0.79-0.03,1.59-0.18,2.38-0.27c1.11-0.12,2.22-0.29,3.33-0.35
		c7.98-0.45,15.95-0.87,23.93-1.32c0.64-0.04,1.27-0.15,1.9-0.21c1.75-0.16,3.49-0.33,5.25-0.45c1.28-0.08,2.56-0.01,3.83-0.12
		c6.05-0.53,12.1-1.04,18.18-1.14c0.64-0.01,1.29-0.02,1.91-0.16c2.2-0.51,4.44-0.45,6.68-0.53c1.43-0.05,2.88-0.13,4.29-0.35
		c0.76-0.12,1.55-0.43,2.21-0.84c2.29-1.43,2.24-4.06-0.09-5.38c-0.54-0.3-1.19-0.51-1.81-0.54c-1.75-0.1-3.51-0.1-5.27-0.1
		c-24.62-0.01-49.24,0-73.86-0.01c-1.6,0-3.2,0.02-4.8-0.04c-0.79-0.03-1.6-0.13-2.36-0.36c-0.59-0.17-1.15-0.53-1.66-0.89
		c-0.95-0.69-0.91-2.16-0.02-2.9c0.77-0.63,1.65-1.02,2.62-1.07c1.75-0.09,3.51-0.13,5.27-0.13c24.94-0.01,49.88,0,74.82-0.01
		c1.76,0,3.52-0.04,5.27-0.09c1.21-0.04,2.09-0.68,2.82-1.6c0.62-0.79,0.69-1.85,0.19-2.68c-0.72-1.17-1.73-1.9-3.11-1.96
		c-1.76-0.08-3.51-0.1-5.27-0.1c-24.78-0.01-49.56,0-74.34-0.01c-1.76,0-3.52,0.01-5.27-0.09c-0.78-0.05-1.59-0.26-2.31-0.58
		c-0.74-0.33-1.29-1-1.37-1.85c-0.08-0.87,0.5-1.52,1.17-1.95c0.52-0.33,1.17-0.57,1.78-0.62c1.59-0.12,3.19-0.15,4.79-0.15
		C1396.45,820.63,1409.08,820.63,1421.71,820.63z M1161.38,468.17c0,18.86,0,37.72,0,56.58c0,1.6,0.02,3.2,0.09,4.79
		c0.02,0.46,0.17,0.94,0.35,1.37c0.11,0.26,0.38,0.58,0.64,0.64c0.77,0.17,1.57,0.32,2.35,0.32c4.31,0.03,8.63,0.04,12.94,0
		c3.25-0.03,3.59-0.35,3.61-3.57c0.05-5.91,0.02-11.83,0.02-17.74c0-8.95-0.01-17.9,0.01-26.85c0-1.27,0.12-2.54,0.22-3.81
		c0.04-0.52,0.75-1.19,1.28-1.27c0.47-0.07,0.94-0.18,1.42-0.19c2.88-0.03,5.75-0.04,8.63-0.03c4.22,0.01,4.15-0.11,5.88,4.08
		c5.43,13.14,10.89,26.27,16.35,39.4c1.1,2.66,2.24,5.3,3.33,7.96c0.55,1.34,1.47,2,2.93,2c6.07-0.01,12.14,0,18.21-0.01
		c0.31,0,0.63-0.1,0.94-0.14c0.56-0.07,1.04-0.86,0.82-1.46c-0.44-1.2-0.87-2.4-1.38-3.56c-6.6-15.08-13.21-30.15-19.81-45.22
		c-0.51-1.17-1.02-2.34-1.49-3.53c-0.41-1.03-0.09-1.95,0.82-2.45c0.98-0.54,1.99-1.02,2.97-1.57c5.17-2.89,9.06-7,11.7-12.32
		c2.09-4.22,3.31-8.68,3.48-13.35c0.17-4.79,0.11-9.59,0.01-14.38c-0.06-3.21-0.82-6.34-1.87-9.37c-1.54-4.44-3.92-8.36-7.34-11.64
		c-3.91-3.75-8.59-6.04-13.75-7.45c-3.57-0.98-7.22-1.28-10.91-1.28c-12.14,0-24.28-0.03-36.42-0.02c-6.22,0-5.99-0.33-6,6.05
		c0,0.8,0,1.6,0,2.4C1161.38,431.09,1161.38,449.63,1161.38,468.17z M1424.24,618.95c0,18.87,0,37.75,0,56.62
		c0,1.6,0.02,3.2,0.07,4.8c0.02,0.47,0.09,0.98,0.31,1.38c0.22,0.38,0.61,0.77,1.01,0.91c0.59,0.21,1.25,0.26,1.88,0.26
		c4.48,0.02,8.95,0.01,13.43-0.01c0.63,0,1.26-0.14,1.9-0.23c0.54-0.08,1.17-0.73,1.21-1.31c0.09-1.59,0.2-3.19,0.2-4.78
		c0.02-13.43,0-26.87,0.01-40.3c0-1.6,0.06-3.19,0.14-4.79c0.04-0.85,0.71-1.65,1.45-1.65c4.31-0.03,8.62-0.04,12.93-0.02
		c0.88,0,1.45,0.6,1.79,1.37c0.59,1.31,1.18,2.62,1.73,3.95c5.76,13.88,11.5,27.77,17.26,41.65c0.55,1.33,1.22,2.62,1.68,3.97
		c0.57,1.65,1.77,2.14,3.34,2.15c0.32,0,0.64,0.02,0.96,0.02c5.12,0,10.23,0.01,15.35-0.01c0.8,0,1.59-0.1,2.39-0.18
		c0.56-0.05,1.14-0.88,0.94-1.39c-0.69-1.79-1.35-3.59-2.12-5.34c-6.22-14.21-12.47-28.4-18.71-42.6c-0.51-1.17-1.03-2.34-1.52-3.52
		c-0.18-0.44-0.31-0.9-0.46-1.36c-0.19-0.6,0.08-1.33,0.65-1.66c1.11-0.63,2.24-1.23,3.35-1.85c4.57-2.56,8.16-6.12,10.78-10.66
		c2.69-4.67,4.11-9.73,4.33-15.07c0.19-4.63,0.11-9.27,0.03-13.91c-0.06-3.38-0.82-6.66-1.94-9.85c-2.93-8.32-8.47-14.17-16.64-17.5
		c-4.65-1.89-9.51-2.82-14.5-2.84c-13.11-0.06-26.22-0.04-39.33-0.03c-0.79,0-1.59,0.1-2.38,0.18c-0.55,0.06-1.23,0.69-1.27,1.27
		c-0.12,1.75-0.25,3.5-0.26,5.25C1424.23,580.89,1424.24,599.92,1424.24,618.95z M1065.3,618.81c0,18.86,0,37.73,0,56.59
		c0,1.6,0.01,3.2,0.05,4.8c0.01,0.47,0.03,1,0.22,1.41c0.19,0.39,0.57,0.84,0.96,0.96c0.74,0.24,1.56,0.35,2.34,0.36
		c3.2,0.04,6.39,0.05,9.59,0.03c7.61-0.05,6.86,0.57,6.88-7.07c0.03-13.27,0.01-26.54,0.01-39.81c0-1.44,0.03-2.88,0.08-4.31
		c0.05-1.54,0.96-1.97,2.18-1.99c3.19-0.07,6.39-0.1,9.59-0.08c3.89,0.02,3.89,0.05,5.34,3.45c0.25,0.59,0.48,1.19,0.72,1.78
		c5.94,14.32,11.89,28.64,17.83,42.95c0.49,1.18,1.02,2.34,1.52,3.52c0.43,1.01,1.26,1.38,2.27,1.48c0.48,0.05,0.96,0.07,1.44,0.07
		c5.43,0,10.87,0.01,16.3-0.01c0.63,0,1.27-0.11,1.9-0.19c0.61-0.07,1.03-0.83,0.8-1.45c-0.45-1.19-0.9-2.39-1.41-3.56
		c-4.17-9.52-8.35-19.03-12.53-28.54c-2.64-6-5.28-11.99-7.89-18c-0.44-1.02-0.76-2.09-1.05-3.16c-0.07-0.24,0.09-0.72,0.3-0.84
		c1.22-0.75,2.49-1.43,3.74-2.13c4.87-2.73,8.62-6.57,11.24-11.49c2.52-4.74,3.79-9.83,3.98-15.18c0.12-3.51,0.03-7.03,0.06-10.55
		c0.03-2.57-0.28-5.1-0.8-7.62c-2.45-11.86-9.4-19.68-21-23.26c-4.15-1.28-8.42-1.8-12.77-1.8c-11.99,0.01-23.97-0.01-35.96-0.01
		c-6.24,0-5.92-0.22-5.92,6.11C1065.3,580.44,1065.3,599.62,1065.3,618.81z M1329.73,316.42c0,18.71,0,37.42,0,56.14
		c0,1.44-0.01,2.88,0.01,4.32c0.01,0.64,0.05,1.28,0.11,1.91c0.09,1.02,0.79,1.75,1.9,1.76c5.27,0.04,10.55,0.03,15.82,0.03
		c0.16,0,0.32-0.05,0.47-0.07c0.74-0.1,1.5-0.84,1.54-1.6c0.09-1.59,0.17-3.19,0.17-4.79c0.01-13.43,0-26.87,0.02-40.3
		c0-1.6,0.09-3.19,0.18-4.79c0.05-0.81,0.74-1.48,1.58-1.5c2.71-0.07,5.43-0.16,8.15-0.13c6.27,0.06,5.44-0.71,7.93,5.31
		c6.06,14.62,12.13,29.24,18.21,43.86c0.43,1.03,0.88,2.06,1.43,3.03c0.21,0.37,0.7,0.7,1.12,0.8c0.77,0.19,1.58,0.26,2.37,0.26
		c5.44,0.02,10.87,0.02,16.31,0c0.63,0,1.26-0.14,1.89-0.23c0.33-0.05,0.83-0.79,0.74-1.11c-0.24-0.76-0.44-1.54-0.76-2.26
		c-1.97-4.55-3.97-9.08-5.96-13.62c-5.01-11.42-10.03-22.84-15.03-34.26c-0.45-1.02-0.88-2.06-1.17-3.13
		c-0.1-0.36,0.15-1.02,0.46-1.25c0.76-0.56,1.65-0.95,2.49-1.42c2.24-1.25,4.4-2.59,6.3-4.34c5.67-5.22,8.76-11.79,9.62-19.33
		c0.74-6.52,0.76-13.12-0.02-19.64c-0.88-7.37-3.88-13.81-9.47-18.88c-4.52-4.1-9.9-6.39-15.83-7.48c-3.15-0.58-6.32-0.86-9.54-0.85
		c-9.27,0.02-18.55-0.05-27.82-0.06c-3.36,0-6.71,0.04-10.07,0.1c-2.65,0.05-3.05,0.47-3.12,3.08c-0.04,1.44-0.03,2.88-0.03,4.32
		C1329.73,278.99,1329.73,297.7,1329.73,316.42z M1584.73,529.74c0.6,0.07,1.38,0.23,2.17,0.23c5.75,0.02,11.5,0.02,17.25,0.01
		c0.47,0,0.94-0.11,1.42-0.17c0.4-0.05,0.78-0.76,0.57-1.12c-0.64-1.1-1.25-2.22-1.97-3.26c-3.81-5.52-7.66-11.02-11.49-16.53
		c-0.64-0.92-1.26-1.85-1.81-2.82c-0.32-0.56-0.4-1.22-0.13-1.84c0.25-0.59,0.51-1.17,0.81-1.73c5.43-10.29,8.6-21.3,10.4-32.74
		c0.15-0.93,0.08-1.9,0.02-2.84c-0.01-0.25-0.3-0.6-0.54-0.68c-0.59-0.2-1.22-0.37-1.84-0.37c-4.47-0.03-8.95-0.04-13.42-0.02
		c-2.51,0.01-2.93,0.45-3.19,3.09c-0.19,1.91-0.49,3.8-0.81,5.69c-0.6,3.63-1.46,7.2-2.75,10.66c-0.22,0.59-0.55,1.14-0.84,1.71
		c-0.2,0.38-1,0.56-1.24,0.27c-0.4-0.49-0.85-0.95-1.19-1.48c-4.42-7.04-8.83-14.08-13.22-21.13c-0.41-0.66-0.69-1.41-1.07-2.22
		c0.53-0.68,0.98-1.34,1.51-1.91c1.09-1.16,2.27-2.25,3.36-3.42c5.88-6.38,9.87-13.71,11.19-22.37c0.65-4.29,0.68-8.61,0.14-12.9
		c-0.48-3.82-1.57-7.5-3.53-10.87c-2.67-4.61-6.44-7.9-11.5-9.61c-6.59-2.22-13.19-2.19-19.73,0.21
		c-5.15,1.89-9.03,5.34-11.76,10.08c-1.61,2.8-2.62,5.81-3.2,8.98c-1.14,6.24-0.62,12.42,0.6,18.57c1.09,5.55,3.35,10.65,6.18,15.51
		c0.8,1.38,1.61,2.76,2.4,4.15c0.29,0.52,0.12,1.3-0.39,1.72c-0.86,0.71-1.78,1.36-2.61,2.11c-2.01,1.82-4.09,3.58-5.95,5.55
		c-5.17,5.47-8.53,11.9-9.96,19.32c-1.14,5.88-1.07,11.76-0.21,17.64c0.56,3.81,1.59,7.51,3.25,10.99
		c3.58,7.49,9.26,12.55,17.38,14.57c6.49,1.61,12.99,1.35,19.42-0.47c5.64-1.6,10.55-4.51,14.97-8.31c0.97-0.83,1.9-1.71,2.86-2.55
		c0.5-0.44,1.31-0.35,1.67,0.21c1.3,2.01,2.55,4.05,3.85,6.07C1582.67,527.04,1583.3,528.55,1584.73,529.74z M1596.65,619.79
		C1596.65,619.79,1596.66,619.79,1596.65,619.79c0-8.79,0-17.57,0.01-26.36c0-3.85-0.24-7.67-1.14-11.42
		c-3.29-13.58-11.45-22.6-25.01-26.37c-9.15-2.54-18.33-2.33-27.39,0.51c-5.09,1.6-9.63,4.21-13.49,7.96
		c-5.1,4.95-8.09,11.02-9.73,17.83c-0.91,3.75-1.14,7.57-1.14,11.42c0,11.82,0,23.64,0,35.46c0,5.59,0.01,11.18,0.01,16.77
		c0,3.69,0.29,7.34,1.18,10.93c3.36,13.57,11.63,22.42,25.18,26.22c2.48,0.69,5,1.09,7.53,1.35c7.75,0.79,15.3-0.07,22.55-3.03
		c3.89-1.59,7.35-3.82,10.4-6.72c5.27-5.02,8.34-11.21,9.96-18.22c0.84-3.6,1.09-7.26,1.1-10.94
		C1596.66,636.72,1596.65,628.25,1596.65,619.79z M1064.06,468.92c0,0-0.01,0-0.01,0c0,3.84,0,7.68,0,11.51
		c0.01,5.12,0.01,10.23,0.02,15.35c0.01,3.21,0.29,6.38,1.01,9.52c2.94,12.92,10.59,21.65,23.24,25.72
		c8.57,2.76,17.32,2.87,26.04,0.79c6.68-1.6,12.45-4.91,17.12-10.04c4.19-4.6,6.8-10.01,8.37-15.98c1.11-4.22,1.38-8.52,1.4-12.84
		c0.04-8.32,0.03-16.63,0.03-24.95c0-5.66,0-5.59-5.57-5.62c-8.95-0.06-17.9-0.02-26.86-0.01c-0.96,0-1.92,0.04-2.87,0.11
		c-0.47,0.03-0.98,0.08-1.39,0.3c-0.38,0.2-0.76,0.57-0.94,0.96c-0.19,0.41-0.21,0.93-0.21,1.41c-0.01,4.64-0.02,9.27,0,13.91
		c0,0.47,0.15,0.94,0.23,1.41c0.09,0.56,0.56,0.84,0.99,0.92c0.93,0.18,1.9,0.28,2.85,0.29c2.88,0.04,5.76,0,8.63,0.04
		c1.11,0.02,2.22,0.15,3.33,0.26c0.55,0.05,1.15,0.72,1.23,1.29c0.02,0.16,0.1,0.31,0.1,0.47c-0.01,4.32,0,8.63-0.07,12.95
		c-0.03,1.94-0.6,3.8-1.3,5.59c-2.43,6.25-7.07,9.72-13.67,10.51c-1.89,0.22-3.85,0.21-5.74,0.01c-8.07-0.84-13.73-5.84-15.1-13.72
		c-0.39-2.23-0.42-4.45-0.42-6.69c0-15.51,0-31.02,0-46.54c0-1.28-0.02-2.56,0.06-3.84c0.19-3.05,0.68-6.04,1.94-8.85
		c1.84-4.11,4.7-7.25,8.98-8.84c4.34-1.61,8.76-1.67,13.14-0.1c2.8,1.01,4.94,2.89,6.61,5.33c1.28,1.87,2.16,3.92,2.71,6.11
		c0.35,1.39,0.6,2.81,0.9,4.22c0.29,1.37,0.83,1.81,2.31,1.91c0.16,0.01,0.32,0.03,0.48,0.03c5.28,0,10.55,0,15.83-0.01
		c0.47,0,0.98-0.05,1.41-0.2c0.43-0.15,0.89-0.4,0.94-0.97c0.06-0.63,0.18-1.27,0.13-1.9c-0.58-6.26-2.05-12.3-4.92-17.93
		c-4.39-8.61-11.35-14.1-20.69-16.52c-6.92-1.8-13.94-1.92-20.93-0.61c-7.58,1.42-14.2,4.79-19.47,10.55
		c-4.67,5.09-7.36,11.15-8.81,17.84c-0.82,3.77-1.05,7.6-1.06,11.44C1064.05,451.97,1064.06,460.44,1064.06,468.92z M1241.87,316.76
		c0,18.7,0,37.4,0,56.1c0,1.44-0.01,2.88,0.02,4.32c0.01,0.64,0.1,1.27,0.18,1.9c0.06,0.53,0.73,1.26,1.22,1.34
		c0.47,0.08,0.94,0.19,1.42,0.2c4.79,0.09,9.58,0.24,14.37,0.23c7.67-0.01,15.34-0.14,23-0.18c7.99-0.03,15.98,0,23.97-0.02
		c1.43,0,2.86-0.15,4.29-0.27c0.55-0.04,1.14-0.72,1.22-1.29c0.02-0.16,0.1-0.31,0.1-0.47c0-5.11,0-10.23-0.01-15.34
		c0-0.16-0.06-0.31-0.09-0.47c-0.09-0.59-0.68-1.19-1.26-1.27c-0.47-0.07-0.95-0.16-1.42-0.18c-1.44-0.03-2.88-0.04-4.31-0.04
		c-11.98,0-23.97,0-35.95-0.01c-1.6,0-3.19-0.05-4.79-0.13c-0.99-0.05-1.67-0.84-1.75-1.92c-0.04-0.48-0.07-0.96-0.07-1.44
		c-0.01-9.11-0.03-18.22,0.01-27.33c0.01-3.11,0.51-3.55,3.64-3.62c1.28-0.03,2.56-0.01,3.83-0.01c9.75,0,19.49,0.01,29.24-0.01
		c1.44,0,2.87-0.07,4.31-0.16c0.78-0.04,1.51-0.8,1.6-1.53c0.04-0.32,0.1-0.63,0.11-0.95c0.03-0.8,0.04-1.6,0.05-2.4
		c0-3.04,0-6.07,0-9.11c0-5.04,0.02-5.2-4.93-5.17c-1.12,0.01-2.24,0-3.36,0c-9.59,0-19.17,0.01-28.76-0.01
		c-1.43,0-2.86-0.11-4.29-0.21c-0.58-0.04-1.21-0.69-1.25-1.28c-0.09-1.43-0.2-2.87-0.2-4.3c-0.02-7.83-0.01-15.66-0.01-23.5
		c0-6.09-0.3-6.03,6.06-6.03c11.98,0.01,23.97,0,35.95,0c1.44,0,2.88,0,4.31-0.03c0.63-0.02,1.27-0.12,1.9-0.2
		c0.61-0.08,1.26-0.66,1.32-1.21c0.09-0.79,0.2-1.59,0.21-2.38c0.03-3.2,0.03-6.39,0.02-9.59c-0.02-6.19,0.39-5.92-6.09-5.92
		c-17.58-0.01-35.15-0.02-52.73-0.02c-2.4,0-4.79,0-7.19,0.04c-0.79,0.01-1.58,0.13-2.37,0.23c-0.52,0.06-1.23,0.76-1.26,1.28
		c-0.1,1.59-0.22,3.18-0.22,4.77C1241.87,278.4,1241.87,297.58,1241.87,316.76z M1065.3,316.5c0,18.86,0,37.72,0,56.58
		c0,1.6,0.01,3.2,0.04,4.79c0.01,0.48,0.02,0.99,0.21,1.41c0.18,0.4,0.55,0.78,0.93,1c0.4,0.22,0.91,0.32,1.37,0.33
		c5.43,0.09,10.86,0.19,16.29,0.22c3.03,0.02,6.07-0.14,9.1-0.14c11.82-0.02,23.64,0,35.47-0.02c1.59,0,3.19-0.09,4.78-0.19
		c0.79-0.05,1.51-0.77,1.51-1.58c0.03-5.27,0.04-10.54,0.03-15.81c0-0.79-0.74-1.53-1.52-1.57c-1.59-0.08-3.19-0.17-4.78-0.17
		c-12.14-0.01-24.28-0.01-36.43-0.01c-1.44,0-2.88-0.01-4.31-0.05c-0.47-0.02-0.98-0.08-1.39-0.29c-0.38-0.2-0.8-0.58-0.94-0.97
		c-0.21-0.59-0.24-1.25-0.24-1.89c-0.02-9.27-0.02-18.54-0.01-27.81c0-0.63,0.11-1.27,0.19-1.9c0.07-0.54,0.72-1.23,1.27-1.28
		c1.43-0.11,2.86-0.25,4.29-0.25c9.91-0.02,19.81-0.01,29.72-0.01c1.44,0,2.88-0.01,4.31-0.04c0.48-0.01,0.95-0.1,1.43-0.15
		c0.49-0.06,1.28-0.78,1.35-1.22c0.05-0.32,0.15-0.63,0.15-0.94c0.02-4.79,0.02-9.59,0.02-14.38c0-0.32-0.08-0.63-0.13-0.95
		c-0.1-0.71-0.88-1.43-1.65-1.5c-0.64-0.06-1.27-0.11-1.91-0.11c-3.2-0.01-6.39-0.01-9.59-0.01c-8.15,0-16.3,0.01-24.44-0.02
		c-1.27,0-2.54-0.12-3.79-0.33c-0.37-0.06-0.76-0.55-0.95-0.94c-0.2-0.41-0.23-0.93-0.23-1.41c-0.02-9.91-0.02-19.82-0.01-29.72
		c0-0.47,0.11-0.95,0.18-1.42c0.08-0.52,0.74-1.18,1.31-1.23c1.11-0.11,2.22-0.23,3.33-0.24c4.95-0.03,9.91-0.01,14.86-0.01
		c8.15,0,16.3,0.01,24.44-0.02c1.43-0.01,2.86-0.14,4.28-0.33c0.38-0.05,0.82-0.5,1.02-0.88c0.21-0.4,0.24-0.93,0.24-1.4
		c0.02-4.63,0.03-9.27,0.02-13.9c0-0.47-0.11-0.95-0.18-1.42c-0.08-0.54-0.72-1.12-1.33-1.19c-0.47-0.06-0.95-0.16-1.42-0.16
		c-2.88-0.02-5.75-0.03-8.63-0.03c-17.41,0-34.83-0.01-52.24,0c-1.43,0-2.87,0.07-4.3,0.16c-0.73,0.04-1.53,0.85-1.57,1.58
		c-0.08,1.59-0.15,3.19-0.15,4.79C1065.3,278.47,1065.3,297.49,1065.3,316.5z M1428.87,316.9c0,18.71,0,37.43,0,56.14
		c0,1.28-0.01,2.56,0.01,3.84c0.01,0.64,0.06,1.28,0.12,1.91c0.12,1.2,0.86,1.62,1.92,1.77c0.16,0.02,0.32,0.05,0.48,0.06
		c5.27,0.08,10.55,0.2,15.82,0.23c3.84,0.02,7.67-0.15,11.51-0.16c11.03-0.02,22.06-0.01,33.1-0.01c1.44,0,2.88-0.02,4.32-0.07
		c0.47-0.02,0.98-0.09,1.39-0.3c0.38-0.2,0.83-0.58,0.93-0.97c0.2-0.76,0.25-1.58,0.26-2.37c0.03-3.68,0.04-7.36,0.01-11.04
		c-0.03-4.51-0.06-4.52-4.55-4.58c-1.12-0.01-2.24,0-3.36,0c-11.35,0-22.7,0-34.06,0c-1.28,0-2.56,0-3.84-0.01
		c-0.64-0.01-1.28-0.04-1.91-0.09c-1.12-0.09-1.82-0.73-1.91-1.75c-0.04-0.48-0.1-0.96-0.1-1.43c-0.01-9.28-0.01-18.55,0-27.83
		c0-0.48,0.05-0.96,0.09-1.44c0.08-0.94,0.89-1.7,1.93-1.78c0.8-0.06,1.6-0.1,2.39-0.11c1.92-0.02,3.84-0.01,5.76-0.01
		c8.95,0,17.91,0.01,26.86-0.01c1.43,0,2.86-0.14,4.29-0.25c0.55-0.04,1.16-0.74,1.24-1.31c0.07-0.47,0.17-0.95,0.17-1.43
		c0.01-4.48,0.01-8.96,0-13.43c0-0.47-0.12-0.95-0.2-1.42c-0.08-0.52-0.76-1.21-1.31-1.25c-1.43-0.1-2.86-0.21-4.3-0.22
		c-9.91-0.02-19.83-0.01-29.74-0.01c-1.44,0-2.88-0.01-4.32-0.04c-0.47-0.01-0.95-0.11-1.42-0.17c-0.59-0.09-1.23-0.69-1.26-1.26
		c-0.09-1.43-0.19-2.87-0.2-4.3c-0.02-7.68-0.03-15.35,0-23.03c0.02-6.75-0.58-6.51,6.52-6.51c12.15,0,24.3,0,36.45-0.01
		c1.6,0,3.2-0.06,4.79-0.14c1.1-0.06,1.85-0.76,1.86-1.8c0.04-5.12,0.03-10.23,0.04-15.35c0-0.16-0.05-0.31-0.07-0.47
		c-0.07-0.57-0.67-1.27-1.21-1.32c-1.27-0.1-2.54-0.23-3.82-0.24c-19.83-0.01-39.65-0.01-59.48-0.01c-0.8,0-1.6,0-2.4,0.03
		c-1.97,0.08-2.68,0.71-2.75,2.53c-0.06,1.6-0.06,3.2-0.06,4.8C1428.87,279.15,1428.87,298.03,1428.87,316.9z M1164.66,618.81
		c0,18.87,0,37.74,0,56.61c0,1.6-0.01,3.2,0.05,4.8c0.07,1.99,0.63,2.57,2.56,2.67c1.12,0.06,2.24,0.07,3.36,0.07
		c9.75,0,19.5,0,29.25,0c9.59,0,19.18,0.01,28.77-0.01c1.44,0,2.87-0.11,4.3-0.18c0.47-0.02,1.23-0.8,1.27-1.29
		c0.08-0.95,0.21-1.91,0.22-2.86c0.03-2.4,0.03-4.8,0.01-7.2c-0.01-1.92-0.05-3.84-0.12-5.75c-0.04-1.07-0.8-1.86-1.78-1.9
		c-1.44-0.07-2.87-0.11-4.31-0.11c-12.15-0.01-24.3,0-36.45-0.01c-1.6,0-3.2-0.02-4.79-0.08c-1.41-0.06-2.07-0.69-2.14-2.04
		c-0.07-1.44-0.1-2.88-0.1-4.31c-0.01-7.2-0.02-14.39,0-21.59c0.02-6.83-0.5-6.43,6.58-6.44c9.91-0.01,19.82,0.01,29.73-0.01
		c1.59,0,3.19-0.12,4.78-0.22c0.59-0.04,1.21-0.67,1.29-1.22c0.02-0.16,0.1-0.31,0.1-0.47c0.01-5.11,0.03-10.23,0-15.34
		c-0.01-1.3-0.74-1.91-2.2-1.96c-1.44-0.06-2.88-0.07-4.31-0.07c-10.07-0.01-20.14,0.01-30.21-0.01c-1.43,0-2.87-0.12-4.3-0.21
		c-0.55-0.03-1.18-0.69-1.23-1.28c-0.09-1.11-0.21-2.23-0.22-3.34c-0.02-8.64-0.01-17.27,0-25.91c0-0.96,0.07-1.92,0.14-2.87
		c0.06-0.77,0.78-1.49,1.58-1.53c1.59-0.09,3.19-0.18,4.78-0.18c12.15-0.01,24.3,0,36.45-0.01c1.6,0,3.19-0.05,4.79-0.13
		c1.01-0.05,1.69-0.8,1.81-1.87c0.03-0.32,0.1-0.64,0.1-0.95c0.01-4.48,0.02-8.95,0-13.43c0-0.47-0.12-0.95-0.19-1.42
		c-0.09-0.57-0.71-1.26-1.24-1.3c-1.27-0.09-2.54-0.21-3.82-0.21c-19.34-0.01-38.68-0.02-58.03-0.01c-6.99,0.01-6.47-0.46-6.48,6.51
		C1164.65,580.75,1164.66,599.78,1164.66,618.81z M1287.27,684.34c0.8,0,1.6,0.03,2.4-0.01c6.1-0.31,12.09-1.2,17.75-3.61
		c10.94-4.67,17.15-12.97,18.67-24.73c0.78-6.05,0.67-12.13-0.02-18.18c-0.71-6.24-3.27-11.62-7.69-16.13c-2.5-2.55-5.39-4.5-8.6-6
		c-4.35-2.03-8.83-3.73-13.42-5.14c-3.21-0.99-6.42-1.95-9.59-3.04c-2.26-0.77-4.49-1.66-6.7-2.6c-2.23-0.95-4.11-2.41-5.81-4.16
		c-1.74-1.79-2.79-3.88-3.12-6.33c-0.45-3.34-0.47-6.7,0.05-10.03c0.55-3.53,2.46-6.19,5.44-8.1c1.49-0.95,3.1-1.64,4.81-2.1
		c2.65-0.71,5.34-0.94,8.07-0.86c4,0.11,7.47,1.54,10.43,4.21c1.55,1.4,2.89,2.99,3.89,4.83c0.61,1.12,1.17,2.27,1.74,3.42
		c0.28,0.57,0.5,1.18,0.78,1.75c0.37,0.75,1.19,1.05,2.02,0.67c4.94-2.27,9.86-4.55,14.79-6.83c0.14-0.07,0.27-0.17,0.41-0.25
		c0.73-0.43,1.1-1.23,0.87-2.03c-3.69-12.72-11.65-21.06-24.76-24.06c-6.15-1.41-12.37-1.31-18.59-0.53
		c-3.81,0.48-7.53,1.41-11.11,2.86c-3.44,1.4-6.57,3.27-9.31,5.79c-5.81,5.35-8.72,12.13-9.5,19.86c-0.49,4.78-0.49,9.59,0,14.37
		c1.1,10.71,6.54,18.49,16.15,23.31c1.71,0.86,3.48,1.63,5.29,2.25c4.83,1.67,9.7,3.21,14.55,4.84c3.03,1.02,6.05,2.04,9.04,3.17
		c2.25,0.85,4.3,2.08,6.11,3.71c2.64,2.37,4.09,5.31,4.27,8.82c0.13,2.55,0.14,5.12-0.01,7.67c-0.22,3.82-1.69,7.12-4.68,9.64
		c-1.49,1.26-3.19,2.12-5.01,2.75c-3.53,1.22-7.18,1.52-10.87,1.26c-1.59-0.11-3.19-0.34-4.72-0.77
		c-5.53-1.54-9.57-4.99-12.25-10.03c-0.75-1.41-1.38-2.88-2.08-4.31c-0.24-0.48-1.12-0.78-1.68-0.61c-0.3,0.09-0.62,0.16-0.91,0.29
		c-4.82,2.13-9.65,4.25-14.46,6.4c-1.52,0.68-1.93,1.56-1.5,3.06c1.51,5.31,4.05,10.05,7.86,14.09c4.52,4.79,10.06,7.81,16.33,9.57
		C1277.38,683.83,1282.3,684.37,1287.27,684.34z M1552.97,251.85c-1.44,0-2.88-0.09-4.31,0.02c-4.32,0.33-8.56,1.09-12.64,2.56
		c-11.37,4.11-18.13,12.09-20.21,24.03c-0.94,5.4-0.77,10.83-0.41,16.26c0.1,1.43,0.4,2.85,0.7,4.26c0.99,4.63,3.03,8.74,6.16,12.29
		c2.89,3.28,6.3,5.85,10.33,7.62c5.28,2.31,10.75,4.08,16.24,5.79c3.51,1.1,7,2.23,10.44,3.53c1.93,0.73,3.84,1.65,5.55,2.78
		c3.83,2.53,6.06,6.06,6.02,10.81c-0.02,2.4,0.05,4.8-0.06,7.19c-0.06,1.26-0.29,2.55-0.68,3.75c-1.32,4.09-4.22,6.73-8.14,8.24
		c-3.78,1.46-7.76,1.9-11.78,1.55c-1.74-0.15-3.5-0.45-5.17-0.97c-5.3-1.65-9.18-5.06-11.73-9.97c-0.74-1.42-1.32-2.91-2.09-4.31
		c-0.17-0.31-0.8-0.49-1.23-0.51c-0.45-0.02-0.94,0.18-1.37,0.37c-4.69,2.04-9.37,4.1-14.05,6.17c-0.44,0.19-0.86,0.43-1.27,0.66
		c-0.45,0.25-0.88,1.17-0.77,1.65c1.27,5.4,3.74,10.18,7.41,14.32c4.71,5.31,10.64,8.63,17.46,10.39
		c9.14,2.36,18.33,2.33,27.54,0.27c3.93-0.88,7.64-2.3,11.12-4.33c5.88-3.43,10.04-8.34,12.45-14.7c1.25-3.31,2.1-6.73,2.2-10.27
		c0.12-4.31,0.09-8.63,0-12.94c-0.03-1.59-0.34-3.17-0.63-4.74c-1.65-8.96-6.73-15.37-14.71-19.56c-3.69-1.94-7.56-3.44-11.51-4.75
		c-3.18-1.06-6.41-1.97-9.59-3.04c-3.03-1.02-6.04-2.09-9.01-3.26c-2.4-0.94-4.48-2.4-6.35-4.22c-2.17-2.12-3.39-4.66-3.58-7.63
		c-0.16-2.55-0.18-5.12-0.01-7.67c0.31-4.49,2.61-7.82,6.51-9.99c1.24-0.69,2.63-1.17,4-1.57c2.47-0.73,5.01-0.93,7.59-0.9
		c4.37,0.05,8.09,1.59,11.26,4.58c1.65,1.56,2.95,3.36,4,5.35c0.59,1.13,1.09,2.31,1.64,3.47c0.89,1.88,1.27,2.02,3.36,1.11
		c1.17-0.51,2.33-1.05,3.49-1.59c2.61-1.21,5.21-2.44,7.82-3.64c4.61-2.11,4.49-1.97,2.78-6.77c-0.37-1.05-0.87-2.06-1.35-3.07
		c-4.56-9.63-12.17-15.39-22.48-17.74C1560.32,251.89,1556.66,251.62,1552.97,251.85z M1185.47,343.6
		c-0.92-1.16-1.07-2.28-1.32-3.36c-3.56-15.25-7.12-30.5-10.67-45.74c-2.9-12.45-5.8-24.9-8.71-37.34
		c-0.25-1.08-0.58-2.16-1.01-3.18c-0.15-0.37-0.66-0.67-1.08-0.83c-0.43-0.17-0.94-0.18-1.42-0.18c-5.27-0.01-10.54-0.01-15.82,0
		c-0.47,0-0.95,0.11-1.42,0.18c-0.55,0.08-1.08,0.86-0.95,1.45c0.35,1.56,0.69,3.12,1.09,4.66c10.09,38.65,20.18,77.3,30.29,115.94
		c0.36,1.39,0.8,2.76,1.23,4.13c0.21,0.68,0.79,0.99,1.43,1.12c0.62,0.13,1.26,0.2,1.9,0.2c4.31,0.02,8.63,0.02,12.94,0
		c0.63,0,1.28-0.07,1.9-0.2c0.64-0.13,1.22-0.45,1.43-1.13c0.47-1.53,0.93-3.05,1.34-4.6c8.54-32.61,17.07-65.23,25.59-97.85
		c1.78-6.8,3.53-13.61,5.28-20.42c0.2-0.77,0.32-1.56,0.38-2.34c0.02-0.24-0.27-0.65-0.51-0.73c-0.59-0.22-1.22-0.4-1.84-0.41
		c-4.31-0.04-8.63-0.06-12.94-0.04c-5.68,0.03-5.2-0.39-6.52,5.24c-6.42,27.38-12.83,54.76-19.26,82.13
		C1186.54,341.38,1186.41,342.51,1185.47,343.6z M1626.35,326.1c0,12.95,0,25.91,0,38.86c0,3.84-0.01,7.68,0.02,11.51
		c0.01,0.95,0.06,1.92,0.26,2.85c0.08,0.38,0.55,0.76,0.93,0.97c0.4,0.22,0.92,0.31,1.38,0.31c4.95,0.02,9.91,0.02,14.86,0.01
		c0.32,0,0.63-0.07,0.95-0.11c0.77-0.1,1.5-0.8,1.54-1.58c0.08-1.75,0.15-3.51,0.15-5.27c0.01-31.18,0.01-62.37,0.01-93.55
		c0-1.44-0.02-2.88,0.01-4.32c0.06-3.23,0.37-3.55,3.57-3.63c1.12-0.03,2.24-0.02,3.36-0.02c5.12,0,10.23,0,15.35,0
		c1.28,0,2.56,0,3.84-0.06c1.71-0.07,2.44-0.71,2.45-2.26c0.03-4.96,0.01-9.91-0.02-14.87c-0.01-1.09-0.75-1.87-1.75-1.92
		c-1.44-0.07-2.87-0.11-4.31-0.11c-21.74-0.01-43.48,0-65.22,0c-1.12,0-2.24,0-3.36,0.04c-0.47,0.02-0.95,0.13-1.42,0.21
		c-0.54,0.09-1.12,0.75-1.19,1.34c-0.02,0.16-0.07,0.31-0.07,0.47c-0.01,4.96-0.03,9.91-0.01,14.87c0.01,1.4,0.69,2.1,2,2.17
		c1.28,0.07,2.55,0.11,3.83,0.11c5.59,0.01,11.19,0,16.78,0.01c1.44,0,2.87,0.07,4.31,0.16c0.83,0.05,1.57,0.75,1.61,1.5
		c0.07,1.6,0.13,3.19,0.13,4.79C1626.36,294.44,1626.35,310.27,1626.35,326.1z M1382.08,628.65c0-5.91,0-11.83,0-17.74
		c0-10.23-0.01-20.45,0.01-30.68c0-1.43,0.14-2.86,0.24-4.29c0.04-0.56,0.72-1.24,1.26-1.28c1.27-0.09,2.54-0.2,3.81-0.21
		c6.07-0.02,12.14,0,18.21-0.03c1.27-0.01,2.55-0.11,3.8-0.31c0.37-0.06,0.83-0.55,0.94-0.93c0.22-0.75,0.29-1.57,0.29-2.36
		c0.03-3.99,0.02-7.99,0.01-11.98c0-0.64-0.07-1.28-0.13-1.91c-0.07-0.76-0.8-1.51-1.57-1.55c-1.75-0.08-3.51-0.16-5.26-0.16
		c-21.09-0.01-42.17-0.01-63.26-0.01c-1.44,0-2.88,0.01-4.31,0.05c-0.47,0.01-0.99,0.03-1.41,0.22c-0.39,0.19-0.72,0.58-0.99,0.95
		c-0.17,0.24-0.26,0.6-0.26,0.9c-0.02,4.95-0.04,9.9-0.01,14.85c0.01,1.37,0.75,2.08,2.05,2.15c1.28,0.07,2.55,0.09,3.83,0.1
		c5.27,0.01,10.54,0,15.81,0.01c1.28,0,2.56-0.01,3.83,0.03c2.44,0.07,2.96,0.62,3.04,3.23c0.05,1.6,0.03,3.2,0.03,4.79
		c0,30.68,0,61.36,0,92.05c0,1.76,0,3.52,0.05,5.27c0.02,0.63,0.1,1.29,0.33,1.87c0.16,0.39,0.57,0.79,0.96,0.94
		c0.58,0.22,1.25,0.29,1.88,0.29c4.47,0.02,8.95,0.02,13.42,0.01c0.63,0,1.26-0.14,1.89-0.23c0.53-0.08,1.17-0.73,1.21-1.32
		c0.11-1.75,0.25-3.5,0.25-5.25C1382.09,660.29,1382.08,644.47,1382.08,628.65z M1302.3,467.78c0,19.19,0,38.37,0.01,57.56
		c0,1.6,0.06,3.19,0.14,4.79c0.04,0.81,0.76,1.58,1.49,1.62c1.11,0.07,2.23,0.14,3.35,0.14c7.19,0.01,14.38,0.01,21.58,0.01
		c11.99,0,23.97,0.01,35.96-0.01c1.6,0,3.19-0.07,4.79-0.15c0.79-0.04,1.53-0.76,1.54-1.55c0.05-4.95,0.1-9.91,0.08-14.86
		c-0.01-2.02-0.59-2.55-2.55-2.62c-1.44-0.05-2.88-0.04-4.31-0.05c-11.99,0-23.97,0-35.96-0.01c-1.44,0-2.87-0.06-4.31-0.13
		c-0.74-0.04-1.49-0.8-1.52-1.59c-0.08-1.75-0.14-3.51-0.14-5.27c-0.01-31.18-0.01-62.35-0.01-93.53c0-1.6,0.01-3.2-0.04-4.8
		c-0.02-0.63-0.06-1.3-0.27-1.88c-0.14-0.39-0.54-0.86-0.92-0.96c-0.75-0.21-1.57-0.27-2.36-0.28c-3.36-0.03-6.71-0.04-10.07-0.02
		c-6.89,0.04-6.45-0.59-6.46,6.52C1302.29,429.73,1302.3,448.76,1302.3,467.78z M1387.1,467.93c0,18.86,0,37.72,0,56.58
		c0,1.6,0.02,3.2,0.07,4.79c0.02,0.47,0.1,0.98,0.31,1.38c0.21,0.38,0.58,0.83,0.97,0.93c0.76,0.2,1.58,0.24,2.37,0.25
		c4.31,0.05,8.63,0.1,12.94,0.09c13.1-0.01,26.2-0.05,39.3-0.07c3.04-0.01,6.07,0.01,9.11-0.02c0.79-0.01,1.61-0.05,2.37-0.25
		c0.39-0.1,0.81-0.54,0.97-0.92c0.24-0.57,0.35-1.23,0.35-1.86c0.03-4.32,0.02-8.63,0.02-12.95c0-0.48-0.07-0.96-0.12-1.43
		c-0.1-0.96-0.88-1.68-1.95-1.72c-1.6-0.06-3.19-0.08-4.79-0.09c-11.82-0.01-23.65,0-35.47-0.01c-1.44,0-2.87-0.03-4.31-0.1
		c-1.06-0.05-1.83-0.76-1.88-1.79c-0.09-1.75-0.15-3.51-0.15-5.27c-0.01-31.17-0.01-62.34-0.01-93.5c0-1.6,0.01-3.2-0.04-4.79
		c-0.02-0.63-0.09-1.3-0.33-1.87c-0.16-0.38-0.6-0.76-1-0.89c-0.59-0.2-1.25-0.23-1.88-0.23c-4.47-0.02-8.95-0.01-13.42,0
		c-0.63,0-1.27,0.11-1.9,0.18c-0.56,0.06-1.24,0.68-1.27,1.24c-0.11,1.75-0.25,3.5-0.25,5.25
		C1387.09,429.89,1387.1,448.91,1387.1,467.93z M1280.07,467.91c0-6.23,0-12.47,0-18.7c0-12.79,0-25.58,0-38.37
		c0-1.6-0.03-3.2-0.1-4.79c-0.04-1.01-0.78-1.69-1.88-1.76c-0.8-0.05-1.6-0.09-2.39-0.09c-3.2-0.01-6.39-0.02-9.59,0
		c-1.44,0.01-2.88,0.03-4.31,0.1c-1.09,0.05-1.83,0.75-1.87,1.77c-0.06,1.76-0.1,3.51-0.1,5.27c-0.01,37.73,0,75.46,0,113.19
		c0,1.6,0.01,3.2,0.05,4.8c0.01,0.47,0.06,0.99,0.27,1.4c0.2,0.38,0.59,0.74,0.98,0.92c0.41,0.19,0.93,0.22,1.41,0.22
		c4.95,0.01,9.91,0.03,14.86-0.01c2.02-0.02,2.57-0.59,2.64-2.55c0.05-1.6,0.05-3.2,0.05-4.8
		C1280.07,505.64,1280.07,486.78,1280.07,467.91z"/>
	<path class="st1" d="M255.43,623.03c-2.29-10.63-4.17-21.34-5.53-32.12c-1.1-8.72-1.9-17.47-2.46-26.25
		c-0.85-13.26-0.93-26.52-0.45-39.79c0.36-10.06,1.11-20.1,2.34-30.11c0.86-6.98,1.83-13.94,3-20.88
		c2.45-14.52,5.79-28.83,9.92-42.96c7.56-25.87,17.77-50.66,30.55-74.39c9.8-18.19,21-35.49,33.59-51.87
		c19.18-24.97,41.03-47.31,65.58-67.03c23.28-18.7,48.39-34.48,75.33-47.36c27.23-13.02,55.58-22.7,85.11-28.99
		c11.41-2.43,22.9-4.4,34.49-5.75c6.83-0.79,13.66-1.4,20.52-1.92c15.65-1.2,31.31-1.1,46.96-0.44c8.77,0.37,17.53,1.18,26.26,2.25
		c10.47,1.28,20.88,2.94,31.22,5.02c19.78,3.98,39.11,9.54,58,16.61c22.06,8.25,43.2,18.44,63.38,30.59
		c15.08,9.09,29.5,19.12,43.22,30.16c20.37,16.38,38.91,34.64,55.65,54.71c13.23,15.87,25.1,32.71,35.63,50.49
		c11.93,20.13,21.96,41.18,30.04,63.14c7.13,19.39,12.68,39.22,16.61,59.52c2.34,12.1,4.12,24.27,5.33,36.52
		c0.74,7.47,1.3,14.97,1.46,22.49c0.06,2.72,0.17,5.43,0.3,8.15c0.46,9.92-0.22,19.82-0.58,29.72c-0.24,6.39-0.83,12.76-1.56,19.11
		c-0.22,1.9-0.3,3.82-0.44,5.74c-0.8,0.19-1.58,0.23-2.28-0.31c-1.39-1.08-2.78-2.16-4.17-3.23c-5.7-4.38-11.29-8.92-17.39-12.77
		c-3.53-2.23-7.26-4.02-11.13-5.57c-4.09-1.64-8.31-2.19-12.68-2.08c-2.28,0.06-4.45,0.48-6.48,1.52c-2.84,1.46-5.72,2.88-8.48,4.48
		c-5.95,3.44-11.85,6.98-17.75,10.5c-11.81,7.05-23.91,13.57-36.12,19.91c-9.23,4.79-18.64,9.2-28.27,13.11
		c-4.01,1.63-8.09,2.98-12.31,3.96c-2.21,0.52-4.42,0.67-6.66,0.58c-0.99-0.04-1.88-0.32-2.6-1.04c-0.56-0.57-1.13-1.13-1.69-1.7
		c-4.48-4.57-8.96-9.13-13.43-13.71c-1.34-1.37-2.68-2.75-3.93-4.2c-8.56-9.97-17.78-19.28-27.52-28.08
		c-6.29-5.68-12.68-11.25-18.97-16.93c-3.44-3.11-6.95-6.18-10.06-9.59c-7.23-7.91-14.12-16.12-20.5-24.74
		c-6.18-8.35-12.24-16.8-17.94-25.5c-7.22-11.02-15.68-21-25.28-30.02c-4.7-4.42-9.79-8.21-15.77-10.74
		c-1.62-0.68-3.22-1.42-4.78-2.23c-2.7-1.39-5.44-2.73-8.02-4.32c-6.53-4.03-12.95-8.23-19.11-12.82c-3.46-2.58-7.01-5.05-10.8-7.13
		c-3.65-2-7.17-4.21-10.64-6.5c-1.6-1.06-3.18-2.16-4.86-3.07c-4.23-2.28-8.22-4.94-12.26-7.52c-5.13-3.28-10.48-6.13-16.17-8.34
		c-3.31-1.28-6.74-2-10.21-2.54c-3.44-0.53-6.66,0.08-9.63,2.01c-2.55,1.66-4.99,3.46-7.31,5.43c-2.55,2.18-5.12,4.35-7.68,6.52
		c-4.51,3.83-9.07,7.6-13.52,11.5c-11.31,9.9-22.6,19.82-33.85,29.79c-9.57,8.49-18.98,17.16-28.04,26.2
		c-5.32,5.31-10.45,10.82-15.13,16.71c-8.46,10.64-16.71,21.44-25.04,32.19c-5.78,7.46-11.54,14.93-17.33,22.38
		c-5.11,6.56-10.24,13.1-15.39,19.63c-4.16,5.28-8.35,10.52-13.04,15.35c-2.23,2.3-4.45,4.62-7.04,6.5
		c-2.07,1.5-4.19,2.95-6.42,4.18c-3.35,1.84-6.88,2.5-10.55,0.76c-0.86-0.41-1.8-0.65-2.71-0.97c-5.12-1.81-10.23-3.67-15.38-5.42
		c-5.3-1.8-10.54-3.74-15.67-5.98c-2.78-1.22-5.55-2.47-8.4-3.53c-7.11-2.63-14.42-4.21-22.06-3.74c-2.23,0.14-4.45,0.44-6.66,0.75
		c-5.98,0.83-11.41,3.04-16.2,6.72c-3.3,2.53-6.58,5.08-9.78,7.74c-5.28,4.4-10.48,8.9-15.71,13.36
		c-5.72,4.88-11.42,9.77-17.14,14.65c-1.22,1.04-2.43,2.09-3.72,3.02C256.75,622.85,256.04,622.87,255.43,623.03z M884.76,431.12
		c0.17-1.63,0.31-2.74,0.37-3.85c0.02-0.27-0.18-0.65-0.39-0.81c-0.21-0.15-0.65-0.22-0.87-0.1c-0.84,0.45-1.66,0.95-2.44,1.49
		c-6.16,4.3-12.3,8.63-18.46,12.93c-0.91,0.64-1.86,1.24-2.83,1.79c-0.95,0.53-2.46,0.12-2.97-0.81c-0.7-1.26-1.35-2.54-1.95-3.84
		c-2.67-5.81-5.3-11.64-7.98-17.45c-0.6-1.3-1.35-2.53-2.03-3.79c-0.19-0.35-1.05-0.37-1.24-0.02c-0.7,1.25-1.45,2.47-2.05,3.77
		c-2.87,6.25-5.69,12.52-8.54,18.77c-0.4,0.87-0.84,1.72-1.32,2.55c-0.55,0.95-1.99,1.31-2.96,0.73c-1.1-0.65-2.17-1.36-3.21-2.09
		c-5.51-3.84-11.01-7.69-16.52-11.53c-1.18-0.82-2.39-1.61-3.61-2.36c-0.23-0.14-0.61-0.08-0.92-0.08c-0.38,0-0.74,0.55-0.72,1.09
		c0.06,1.12,0.06,2.24,0.21,3.34c0.8,6.02,1.66,12.03,2.44,18.05c0.22,1.74,0.28,3.5,0.33,5.25c0.03,0.93-0.93,1.9-1.83,1.87
		c-1.59-0.05-3.19-0.14-4.77-0.31c-6.99-0.78-13.97-1.6-20.95-2.38c-0.95-0.11-1.91-0.11-2.87-0.11c-0.3,0-0.66,0.09-0.89,0.28
		c-0.21,0.17-0.45,0.6-0.37,0.77c0.34,0.71,0.73,1.41,1.22,2.02c4.52,5.6,9.07,11.17,13.58,16.77c0.8,0.99,1.55,2.03,2.24,3.1
		c0.58,0.91,0.12,2.4-0.87,2.91c-1.13,0.58-2.29,1.12-3.48,1.6c-6.24,2.49-12.49,4.93-18.72,7.43c-1.47,0.59-2.89,1.33-4.32,2.01
		c-0.12,0.06-0.25,0.27-0.23,0.38c0.05,0.29,0.1,0.73,0.29,0.83c1.43,0.71,2.87,1.4,4.35,1.99c6.1,2.41,12.21,4.76,18.31,7.17
		c1.33,0.53,2.63,1.15,3.9,1.82c0.98,0.51,1.38,2.05,0.77,2.94c-0.81,1.18-1.68,2.33-2.59,3.44c-4.33,5.34-8.69,10.66-13.01,16
		c-0.59,0.73-1.06,1.58-1.51,2.41c-0.08,0.16,0.16,0.66,0.36,0.76c0.42,0.19,0.92,0.32,1.37,0.28c2.7-0.26,5.4-0.56,8.1-0.86
		c4.92-0.56,9.83-1.16,14.76-1.68c1.74-0.18,3.5-0.22,5.25-0.24c0.92-0.01,1.9,0.96,1.88,1.85c-0.05,1.75-0.08,3.52-0.3,5.25
		c-0.75,5.87-1.6,11.72-2.36,17.58c-0.18,1.42-0.16,2.86-0.21,4.29c-0.01,0.35,0.78,0.84,1.09,0.69c0.57-0.28,1.17-0.52,1.68-0.87
		c3.03-2.09,6.03-4.2,9.04-6.31c3.66-2.57,7.31-5.16,11-7.71c0.78-0.54,1.66-0.94,2.52-1.34c0.56-0.26,1.86,0.13,2.17,0.66
		c0.58,0.95,1.16,1.91,1.63,2.92c2.76,5.95,5.47,11.91,8.22,17.87c0.67,1.45,1.4,2.87,2.12,4.29c0.29,0.57,1.33,0.64,1.61,0.12
		c0.62-1.12,1.27-2.22,1.8-3.38c2.66-5.82,5.27-11.66,7.93-17.47c0.66-1.45,1.42-2.86,2.21-4.25c0.42-0.74,1.82-1.1,2.59-0.69
		c0.98,0.53,1.95,1.09,2.86,1.72c6.29,4.39,12.57,8.81,18.86,13.2c0.78,0.54,1.64,0.97,2.47,1.43c0.36,0.2,1.13-0.23,1.14-0.6
		c0.01-0.32,0.09-0.64,0.05-0.94c-0.98-7.45-1.99-14.89-2.95-22.34c-0.18-1.42-0.21-2.86-0.24-4.29c-0.02-0.64,0.91-1.58,1.59-1.59
		c1.43-0.02,2.88-0.07,4.29,0.09c6.82,0.79,13.64,1.67,20.46,2.48c1.43,0.17,2.87,0.22,4.3,0.29c0.31,0.02,0.67-0.03,0.92-0.19
		c0.21-0.14,0.49-0.58,0.41-0.71c-0.48-0.82-0.99-1.64-1.58-2.38c-4.42-5.47-8.87-10.92-13.29-16.39c-0.9-1.12-1.75-2.28-2.56-3.46
		c-0.47-0.69-0.08-2.2,0.67-2.57c1.29-0.64,2.59-1.25,3.92-1.78c6.68-2.66,13.38-5.28,20.07-7.93c0.89-0.35,1.76-0.76,2.6-1.21
		c0.23-0.12,0.47-0.47,0.48-0.72c0.01-0.27-0.18-0.69-0.39-0.8c-1.73-0.81-3.47-1.61-5.25-2.32c-6.53-2.61-13.08-5.18-19.61-7.78
		c-3.07-1.22-3.43-2.83-1.26-5.42c4.51-5.4,8.91-10.89,13.34-16.36c0.9-1.12,1.76-2.27,2.59-3.44c0.15-0.21,0.16-0.64,0.05-0.89
		c-0.1-0.24-0.43-0.55-0.66-0.54c-1.43,0.01-2.87,0.01-4.3,0.17c-4.76,0.51-9.52,1.08-14.28,1.63c-2.7,0.31-5.39,0.67-8.09,0.92
		c-0.94,0.09-1.91-0.02-2.86-0.11c-0.7-0.06-1.58-0.96-1.55-1.62c0.08-1.59,0.16-3.18,0.36-4.76
		C883.15,443.28,884,436.94,884.76,431.12z M835.1,296.45c-0.34,0.78-0.79,1.63-1.07,2.52c-0.57,1.83-1.02,3.7-1.57,5.53
		c-0.23,0.76-0.54,1.5-0.87,2.22c-0.39,0.85-1.61,1.38-2.43,1.05c-0.89-0.36-1.77-0.73-2.61-1.18c-1.98-1.04-3.92-2.15-5.9-3.2
		c-0.55-0.29-1.13-0.74-1.78-0.41c-0.91,0.46-0.64,1.37-0.55,2.11c0.2,1.74,0.53,3.47,0.74,5.22c0.13,1.1,0.21,2.22,0.21,3.33
		c0,1.15-1.06,2.1-2.21,2.08c-0.63-0.01-1.27-0.07-1.9-0.15c-2.69-0.34-5.38-0.73-8.08-1.03c-0.38-0.04-0.9,0.25-1.19,0.55
		c-0.38,0.39-0.09,0.91,0.11,1.33c0.21,0.43,0.47,0.83,0.73,1.24c1.1,1.76,2.23,3.51,3.31,5.28c0.33,0.54,0.57,1.14,0.79,1.73
		c0.3,0.8-0.28,2.17-1.05,2.45c-1.05,0.39-2.11,0.75-3.19,1.03c-1.85,0.49-3.73,0.89-5.59,1.36c-0.46,0.11-0.89,0.33-1.33,0.5
		c-0.58,0.23-0.73,1.21-0.2,1.6c1.79,1.34,3.6,2.64,5.38,3.99c0.89,0.67,1.75,1.38,2.58,2.13c0.68,0.62,0.68,1.98,0.06,2.63
		c-1.57,1.62-3.36,2.95-5.41,3.88c-0.52,0.24-1.29,0.21-1.85,0.02c-0.9-0.3-1.75-0.78-2.57-1.27c-4.29-2.51-8.28-5.44-12-8.72
		c-5.9-5.21-11.06-11.07-15.28-17.74c-0.5-0.8-1.15-1.5-1.76-2.23c-0.06-0.08-0.32-0.04-0.46,0.01c-0.12,0.05-0.25,0.19-0.29,0.31
		c-0.42,1.45,0.02,2.85,0.34,4.24c4.06,17.92,13.71,32.17,28.48,42.97c10.51,7.69,22.3,12.4,35.14,14.4
		c4.73,0.74,9.5,1.45,14.31,0.97c4.44-0.45,8.91-0.69,13.32-1.52c15.8-2.98,29.66-9.77,41.28-20.92
		c10.06-9.65,16.7-21.31,19.96-34.87c0.48-2,0.67-4.07,0.98-6.11c0.01-0.1-0.15-0.28-0.28-0.33c-0.13-0.06-0.39-0.08-0.45,0
		c-0.68,0.87-1.4,1.73-1.99,2.66c-6.54,10.26-14.92,18.71-25.13,25.32c-6.26,4.05-5.52,3.84-11.63-0.62
		c-0.13-0.09-0.24-0.21-0.36-0.32c-0.85-0.76-0.95-2.29-0.1-2.99c1.23-1.02,2.53-1.94,3.8-2.91c1.39-1.06,2.8-2.11,4.18-3.19
		c0.48-0.37,0.25-1.42-0.33-1.58c-1.53-0.44-3.07-0.87-4.61-1.28c-1.7-0.45-3.42-0.81-5.09-1.34c-1.38-0.44-1.89-1.69-1.18-3.09
		c0.51-0.99,1.11-1.94,1.69-2.9c0.91-1.5,1.86-2.98,2.74-4.5c0.23-0.4,0.37-0.89,0.39-1.35c0.01-0.24-0.27-0.66-0.49-0.72
		c-0.6-0.14-1.25-0.23-1.86-0.17c-3.02,0.33-6.02,0.74-9.04,1.07c-1.14,0.13-2.19-0.9-2.19-2.04c0-0.48-0.03-0.96,0.04-1.43
		c0.21-1.42,0.45-2.84,0.69-4.25c0.11-0.63,0.25-1.25,0.35-1.88c0.08-0.47,0.13-0.95,0.18-1.42c0.11-1.14-0.81-1.88-1.79-1.38
		c-2.28,1.16-4.52,2.39-6.78,3.57c-0.85,0.44-1.72,0.82-2.61,1.18c-0.62,0.25-1.76-0.17-2.11-0.78c-0.32-0.54-0.64-1.11-0.82-1.71
		c-0.68-2.3-1.28-4.62-1.97-6.91c-0.18-0.59-0.51-1.16-0.87-1.67c-0.13-0.18-0.63-0.31-0.81-0.21c-0.54,0.3-1.09,0.67-1.49,1.13
		c-1.55,1.83-3.01,3.73-4.57,5.55c-0.51,0.6-1.17,1.07-1.79,1.56c-0.42,0.33-1.42,0.28-1.81-0.08c-0.7-0.65-1.42-1.28-2.04-2
		c-1.56-1.82-3.07-3.68-4.61-5.52C836.51,296.73,835.98,296.39,835.1,296.45z"/>
	<path class="st1" d="M868.43,848.66c-0.61,1.19-1.76,1.84-2.77,2.6c-14.64,10.89-29.94,20.77-45.95,29.53
		c-21.52,11.78-43.96,21.4-67.31,28.88c-17.68,5.66-35.68,10-54,13.04c-13.57,2.25-27.22,3.82-40.95,4.6
		c-10.37,0.59-20.76,1.04-31.15,0.64c-8.14-0.31-16.28-0.54-24.41-1.25c-9.4-0.82-18.76-1.87-28.08-3.32
		c-12.96-2.01-25.78-4.69-38.46-8.02c-20.92-5.49-41.24-12.67-60.93-21.62c-26.59-12.08-51.52-26.96-74.76-44.67
		c-18.74-14.29-36.02-30.18-51.92-47.56c-15.25-16.67-28.91-34.57-41.03-53.65c-11.42-17.99-21.29-36.8-29.59-56.42
		c-7.17-16.96-13.09-34.35-17.78-52.16c-0.41-1.55-0.84-3.08-1.26-4.63c0.13-1.35,0.79-2.4,1.81-3.26c2.44-2.07,4.86-4.15,7.3-6.23
		c11.19-9.54,22.36-19.11,33.6-28.6c3.05-2.58,6.31-4.9,9.48-7.34c1.64-1.27,3.35-1.76,5.33-0.68c0.83,0.46,1.79,0.67,2.68,1.04
		c4.89,2.02,9.59,4.39,13.93,7.44c1.45,1.02,2.79,2.14,3.92,3.51c0.53,0.64,0.8,1.38,0.88,2.19c0.13,1.3-0.01,2.58-0.74,3.69
		c-0.7,1.07-1.41,2.14-2.25,3.09c-2.57,2.85-5.23,5.62-8.23,8.03c-3.52,2.82-6.43,6.22-9.22,9.72c-1.41,1.76-2.46,3.73-3.15,5.89
		c-0.72,2.25,1.15,5.13,3.51,5.3c1.59,0.11,3.2,0.11,4.79,0.03c3.67-0.2,7.33-0.57,11-0.71c8.48-0.33,16.85-1.49,25.22-2.92
		c7.58-1.3,14.36-4.43,20.69-8.52c6.59-4.25,12.7-9.17,17.85-15.17c1.25-1.45,2.62-2.81,3.97-4.16c2.38-2.38,4.92-4.54,7.85-6.26
		c3.74-2.2,7.04-4.99,10.1-8.06c3.83-3.86,7.53-7.85,10.89-12.12c2.77-3.52,5.5-7.07,8.26-10.59c8.88-11.32,17.78-22.63,26.66-33.95
		c3.65-4.65,7.28-9.32,10.9-14.01c4.49-5.82,8.94-11.68,13.43-17.51c5.78-7.48,12.1-14.48,18.8-21.13
		c11.25-11.15,22.98-21.77,34.88-32.21c11.53-10.13,23.13-20.18,34.72-30.23c4.35-3.77,8.77-7.46,13.19-11.15
		c0.85-0.71,1.83-1.27,2.77-1.85c0.41-0.26,1.49,0.09,1.73,0.51c0.39,0.7,0.8,1.39,1.1,2.12c1.1,2.66,2.17,5.33,3.25,8
		c3.67,9.04,7.53,18,12.49,26.43c4.05,6.89,8.18,13.74,12.12,20.69c3.59,6.32,8.12,11.82,13.47,16.73
		c5.42,4.97,10.62,10.18,15.91,15.28c2.19,2.12,4.01,4.55,5.88,6.95c2.16,2.77,2.35,5.48,0.36,8.36c-0.46,0.66-0.88,1.33-1.34,1.99
		c-1.9,2.78-3.99,5.41-6.4,7.76c-3.66,3.58-7.27,7.2-11.07,10.62c-4.79,4.31-8.9,9.15-12.6,14.4c-1.69,2.4-2.18,4.94-1.67,7.72
		c0.48,2.68,1.22,5.28,2.39,7.77c2.45,5.24,5.46,10.14,9.17,14.58c3.38,4.05,6.82,8.06,10.3,12.02c1.69,1.92,3.54,3.7,5.33,5.52
		c3.16,3.21,6.95,5.62,10.52,8.33c2.93,2.22,5.98,4.27,9.33,5.84c1.3,0.61,2.54,1.36,3.8,2.04c4.86,2.63,8.14,6.58,10.01,11.77
		c2.39,6.62,4.83,13.21,7.3,19.8c1.01,2.69,2.11,5.36,3.24,8c4,9.38,9.51,17.73,17.04,24.67c2,1.84,4,3.69,6.08,5.42
		c3.72,3.1,6.98,6.52,9.24,10.89c2.93,5.66,7.35,10.02,12.52,13.66c0.13,0.09,0.27,0.18,0.39,0.27c7.65,5.64,16.03,9.89,24.92,13.21
		c3.29,1.23,6.51,2.65,9.78,3.94c4.07,1.61,7.52,4.2,10.88,6.92c1.25,1.01,2.24,2.25,3.09,3.63c2.11,3.43,3.74,7.05,4.91,10.9
		c1.62,5.36,3.26,10.7,4.96,16.04c0.92,2.89,1.83,5.8,3,8.6c2.79,6.65,5.14,13.44,7.17,20.35c1,3.4,2.39,6.61,4.08,9.71
		c2.23,4.07,4.55,8.09,7.43,11.74c2.57,3.26,5.19,6.49,7.92,9.63c4.64,5.33,9.88,10.01,15.68,14.05
		c5.64,3.93,11.37,7.72,17.34,11.16C865.44,846.81,866.93,847.75,868.43,848.66z"/>
	<path class="st2" d="M868.43,848.66c-1.5-0.91-2.99-1.85-4.51-2.73c-5.96-3.43-11.69-7.23-17.34-11.16
		c-5.8-4.04-11.05-8.72-15.68-14.05c-2.73-3.13-5.34-6.37-7.92-9.63c-2.88-3.65-5.2-7.67-7.43-11.74c-1.7-3.09-3.09-6.31-4.08-9.71
		c-2.03-6.91-4.39-13.7-7.17-20.35c-1.17-2.8-2.08-5.71-3-8.6c-1.7-5.33-3.34-10.68-4.96-16.04c-1.16-3.85-2.8-7.47-4.91-10.9
		c-0.85-1.38-1.84-2.62-3.09-3.63c-3.36-2.72-6.81-5.31-10.88-6.92c-3.27-1.29-6.49-2.71-9.78-3.94
		c-8.88-3.32-17.27-7.57-24.92-13.21c-0.13-0.09-0.26-0.18-0.39-0.27c-5.17-3.64-9.59-8-12.52-13.66
		c-2.26-4.36-5.52-7.79-9.24-10.89c-2.09-1.74-4.09-3.58-6.08-5.42c-7.53-6.94-13.04-15.29-17.04-24.67c-1.13-2.65-2.23-5.31-3.24-8
		c-2.47-6.59-4.91-13.18-7.3-19.8c-1.88-5.19-5.16-9.14-10.01-11.77c-1.27-0.68-2.5-1.43-3.8-2.04c-3.35-1.57-6.4-3.62-9.33-5.84
		c-3.56-2.7-7.36-5.11-10.52-8.33c-1.79-1.82-3.64-3.6-5.33-5.52c-3.49-3.96-6.92-7.97-10.3-12.02c-3.71-4.44-6.71-9.34-9.17-14.58
		c-1.16-2.49-1.9-5.09-2.39-7.77c-0.5-2.78-0.02-5.32,1.67-7.72c3.7-5.25,7.81-10.1,12.6-14.4c3.8-3.42,7.42-7.05,11.07-10.62
		c2.41-2.35,4.5-4.98,6.4-7.76c0.45-0.66,0.88-1.33,1.34-1.99c1.99-2.88,1.8-5.58-0.36-8.36c-1.87-2.4-3.69-4.83-5.88-6.95
		c-5.29-5.11-10.5-10.31-15.91-15.28c-5.35-4.91-9.88-10.41-13.47-16.73c-3.95-6.95-8.07-13.8-12.12-20.69
		c-4.96-8.43-8.81-17.39-12.49-26.43c-1.08-2.67-2.14-5.34-3.25-8c-0.3-0.73-0.71-1.42-1.1-2.12c-0.23-0.42-1.32-0.76-1.73-0.51
		c-0.94,0.59-1.92,1.14-2.77,1.85c-4.42,3.69-8.84,7.38-13.19,11.15c-11.6,10.05-23.19,20.11-34.72,30.23
		c-11.9,10.44-23.63,21.07-34.88,32.21c-6.71,6.64-13.03,13.65-18.8,21.13c-4.5,5.82-8.94,11.68-13.43,17.51
		c-3.61,4.68-7.25,9.35-10.9,14.01c-8.88,11.32-17.78,22.63-26.66,33.95c-2.76,3.52-5.49,7.07-8.26,10.59
		c-3.37,4.28-7.06,8.27-10.89,12.12c-3.05,3.07-6.36,5.86-10.1,8.06c-2.93,1.72-5.47,3.88-7.85,6.26c-1.36,1.36-2.73,2.71-3.97,4.16
		c-5.15,6-11.26,10.92-17.85,15.17c-6.34,4.09-13.12,7.22-20.69,8.52c-8.36,1.44-16.73,2.59-25.22,2.92
		c-3.67,0.14-7.33,0.51-11,0.71c-1.59,0.09-3.2,0.08-4.79-0.03c-2.36-0.17-4.23-3.05-3.51-5.3c0.69-2.16,1.75-4.13,3.15-5.89
		c2.8-3.5,5.7-6.9,9.22-9.72c3-2.41,5.67-5.17,8.23-8.03c0.85-0.94,1.56-2.02,2.25-3.09c0.73-1.11,0.87-2.39,0.74-3.69
		c-0.08-0.81-0.36-1.55-0.88-2.19c-1.13-1.37-2.47-2.49-3.92-3.51c-4.34-3.05-9.04-5.42-13.93-7.44c-0.89-0.37-1.85-0.58-2.68-1.04
		c-1.97-1.08-3.68-0.58-5.33,0.68c-3.17,2.44-6.43,4.76-9.48,7.34c-11.24,9.49-22.4,19.06-33.6,28.6c-2.43,2.07-4.86,4.16-7.3,6.23
		c-1.02,0.86-1.68,1.91-1.81,3.26c-0.53-0.84-0.64-1.78-0.77-2.74c-0.41-3.01-0.98-5.98-1.87-8.89c0.6-0.16,1.32-0.18,1.79-0.52
		c1.29-0.93,2.5-1.99,3.72-3.02c5.72-4.88,11.43-9.77,17.14-14.65c5.23-4.46,10.43-8.96,15.71-13.36c3.19-2.66,6.48-5.21,9.78-7.74
		c4.79-3.68,10.22-5.9,16.2-6.72c2.21-0.31,4.43-0.61,6.66-0.75c7.63-0.47,14.95,1.11,22.06,3.74c2.85,1.05,5.62,2.31,8.4,3.53
		c5.13,2.25,10.37,4.19,15.67,5.98c5.15,1.74,10.25,3.61,15.38,5.42c0.9,0.32,1.84,0.56,2.71,0.97c3.67,1.74,7.2,1.07,10.55-0.76
		c2.23-1.23,4.35-2.68,6.42-4.18c2.59-1.88,4.81-4.2,7.04-6.5c4.69-4.83,8.88-10.07,13.04-15.35c5.15-6.53,10.28-13.07,15.39-19.63
		c5.8-7.44,11.55-14.92,17.33-22.38c8.33-10.74,16.58-21.55,25.04-32.19c4.68-5.88,9.8-11.39,15.13-16.71
		c9.06-9.04,18.47-17.71,28.04-26.2c11.24-9.98,22.54-19.9,33.85-29.79c4.45-3.9,9.01-7.67,13.52-11.5
		c2.56-2.17,5.13-4.34,7.68-6.52c2.31-1.98,4.75-3.77,7.31-5.43c2.97-1.93,6.19-2.54,9.63-2.01c3.48,0.53,6.91,1.25,10.21,2.54
		c5.69,2.21,11.04,5.06,16.17,8.34c4.04,2.58,8.03,5.24,12.26,7.52c1.68,0.91,3.26,2.02,4.86,3.07c3.47,2.29,6.98,4.5,10.64,6.5
		c3.79,2.08,7.34,4.55,10.8,7.13c6.16,4.59,12.58,8.79,19.11,12.82c2.58,1.59,5.32,2.92,8.02,4.32c1.56,0.81,3.16,1.54,4.78,2.23
		c5.98,2.53,11.08,6.32,15.77,10.74c9.6,9.02,18.06,19.01,25.28,30.02c5.7,8.7,11.75,17.15,17.94,25.5
		c6.38,8.62,13.28,16.83,20.5,24.74c3.12,3.41,6.63,6.48,10.06,9.59c6.28,5.69,12.68,11.25,18.97,16.93
		c9.74,8.8,18.96,18.11,27.52,28.08c1.25,1.45,2.59,2.83,3.93,4.2c4.47,4.58,8.95,9.14,13.43,13.71c0.56,0.57,1.13,1.13,1.69,1.7
		c0.72,0.72,1.61,1,2.6,1.04c2.25,0.09,4.45-0.07,6.66-0.58c4.22-0.99,8.3-2.34,12.31-3.96c9.64-3.91,19.04-8.32,28.27-13.11
		c12.2-6.33,24.31-12.85,36.12-19.91c5.9-3.52,11.8-7.06,17.75-10.5c2.76-1.6,5.64-3.01,8.48-4.48c2.03-1.04,4.19-1.47,6.48-1.52
		c4.37-0.11,8.59,0.44,12.68,2.08c3.87,1.55,7.6,3.34,11.13,5.57c6.1,3.85,11.69,8.39,17.39,12.77c1.39,1.07,2.78,2.15,4.17,3.23
		c0.7,0.54,1.48,0.51,2.28,0.31c-1.24,7.88-2.47,15.76-3.73,23.64c-0.33,2.05-0.7,4.09-1.14,6.12c-2.03,9.36-4.12,18.72-6.74,27.94
		c-2.93,10.29-6.14,20.49-9.93,30.52c-2.71,7.18-5.62,14.26-8.58,21.33c-0.43,1.03-0.94,2.03-1.41,3.04
		c-1.47,3.19-2.91,6.39-4.41,9.57c-1.09,2.31-2.23,4.6-3.42,6.86c-1.63,3.11-3.29,6.21-5.01,9.27c-2.9,5.15-5.75,10.32-8.82,15.37
		c-3.15,5.18-6.48,10.26-9.84,15.31c-5.48,8.25-11.23,16.3-17.47,23.99c-2.92,3.59-5.87,7.15-8.8,10.73
		c-3.04,3.71-6.57,6.97-9.38,10.87c-0.83,1.16-1.93,2.13-2.94,3.15c-6.2,6.22-12.4,12.45-18.64,18.63c-1.47,1.46-3.1,2.76-4.66,4.12
		c-0.36,0.31-0.79,0.55-1.12,0.9c-3.19,3.38-7,6.05-10.38,9.21c-1.86,1.74-3.92,3.27-5.9,4.88c-1.61,1.31-3.2,2.64-4.87,3.87
		C870.67,847.42,869.52,848,868.43,848.66z M970.26,581.09c0.24-2.23-0.45-4.45-2.13-6.36c-0.67-0.76-1.72-1.14-2.57-0.75
		c-1.3,0.6-2.6,1.22-3.84,1.93c-4.43,2.56-8.87,5.09-13.23,7.75c-17.06,10.4-34.59,19.95-52.57,28.67
		c-10.92,5.3-21.9,10.52-33.88,13.11c-0.46,0.1-0.89,0.35-1.32,0.54c-0.65,0.28-1.02,1.39-0.67,2.06c0.3,0.56,0.55,1.17,0.95,1.66
		c1.82,2.22,3.58,4.51,5.56,6.59c3.96,4.17,7.99,8.28,12.11,12.29c7.71,7.48,6.19,6.39,15.98,12.06
		c7.63,4.42,15.65,7.94,24.23,10.18c8.96,2.34,17.83,5.02,26.6,8.01c0.6,0.21,1.21,0.41,1.83,0.58c0.3,0.08,0.63,0.09,0.94,0.14
		c0.55,0.08,1.41-0.43,1.51-0.93c0.13-0.62,0.28-1.25,0.33-1.88c0.25-3.34,0.53-6.69,0.69-10.04c0.27-5.5,1.53-10.74,3.94-15.69
		c0.91-1.87,1.82-3.73,2.75-5.59c1.57-3.17,3.58-6.04,5.82-8.77c1.94-2.37,4.16-4.42,6.77-6.02c1.77-1.08,3.51-2.24,5.36-3.16
		c2.04-1,2.6-2.6,2.56-4.69c-0.04-1.78-0.31-3.48-0.98-5.14c-0.97-2.4-2.28-4.56-4.17-6.36c-1.27-1.21-2.58-2.4-3.74-3.71
		c-2.81-3.17-4-6.82-3.17-11.07c0.37-1.9,0.94-3.71,1.68-5.49c0.55-1.33,1.11-2.65,1.64-3.99
		C969.94,585.19,970.27,583.31,970.26,581.09z"/>
	<path class="st1" d="M1099.48,723.73c7.13-0.07,13.78,0.63,20.42,1.67c5.36,0.84,10.74,1.53,16.11,2.28
		c5.85,0.83,11.69,1.65,17.54,2.49c7.11,1.02,14.25,1.75,21.39,2.53c5.72,0.63,11.45,0.96,17.17,1.52c1.59,0.16,3.19,0.2,4.78,0.31
		c2.07,0.15,4.14,0.31,6.2,0.47c0.96,0.07,1.91,0.18,2.87,0.2c12.46,0.27,24.92,0.64,37.38,0.76c14.06,0.13,28.13,0.03,42.19,0.03
		c3.68,0,7.34-0.08,10.99-0.69c3.96-0.66,7.78-1.72,11.42-3.46c3.35-1.6,6.4-3.61,9.03-6.23c0.79-0.79,1.61-1.56,2.39-2.36
		c4.97-5.12,10.87-8.89,17.34-11.79c6.75-3.03,13.84-4.86,21.15-5.95c5.56-0.83,11.14-0.84,16.73-0.83c2.88,0,5.76,0.07,8.63,0.25
		c2.7,0.17,5.41,0.44,8.09,0.79c11.9,1.56,23.61,3.97,35.06,7.58c8.09,2.55,15.99,5.58,23.48,9.61c3.67,1.97,7.16,4.21,10.35,6.9
		c1.96,1.65,3.76,3.46,5.24,5.57c2.45,3.5,2.99,7.34,2.02,11.43c-0.53,2.22-1.72,4.12-3.19,5.84c-2.19,2.56-4.67,4.8-7.48,6.69
		c-5.05,3.42-10.4,6.25-16.02,8.6c-11.54,4.83-23.51,8.22-35.77,10.63c-7.52,1.48-15.11,2.67-22.76,3.03
		c-7.49,0.35-15.02,0.57-22.5-0.36c-10.58-1.31-20.62-4.27-29.84-9.75c-3.59-2.14-6.85-4.69-9.88-7.55
		c-0.7-0.66-1.38-1.34-2.03-2.04c-5.1-5.44-11.49-8.5-18.65-10.17c-4.07-0.95-8.23-1.2-12.37-1.2c-17.9,0-35.8-0.26-53.7,0.23
		c-3.67,0.1-7.35,0.09-11.03,0.13c-3.19,0.03-6.39-0.06-9.56,0.5c-1.09,0.19-2.23,0.15-3.35,0.17c-5.91,0.08-11.8,0.58-17.69,1.06
		c-5.09,0.42-10.17,0.9-15.26,1.34c-3.65,0.31-7.29,0.85-10.93,1.29c-3.8,0.46-7.61,0.9-11.41,1.38c-5.54,0.71-11.07,1.42-16.6,2.21
		c-8.53,1.22-17.05,2.47-25.62,3.42c-0.95,0.11-1.91,0.1-2.87,0.16c-2.39,0.15-4.78,0.31-7.17,0.45c-0.96,0.06-1.92,0.2-2.87,0.13
		c-6.84-0.5-13.71-0.75-20.4-2.54c-3.4-0.91-6.73-2-9.9-3.56c-2.46-1.21-4.64-2.8-6.59-4.72c-4.97-4.9-4.78-12.96-0.36-17.83
		c1.84-2.03,4.02-3.62,6.47-4.88c4.6-2.38,9.56-3.57,14.59-4.51C1088.38,723.88,1094.12,723.64,1099.48,723.73z"/>
	<path class="st1" d="M1421.71,820.63c-12.63,0-25.26,0-37.89,0.01c-1.6,0-3.2,0.03-4.79,0.15c-0.61,0.05-1.26,0.29-1.78,0.62
		c-0.68,0.43-1.25,1.08-1.17,1.95c0.07,0.84,0.63,1.51,1.37,1.85c0.71,0.32,1.53,0.53,2.31,0.58c1.75,0.1,3.51,0.09,5.27,0.09
		c24.78,0,49.56,0,74.34,0.01c1.76,0,3.52,0.02,5.27,0.1c1.38,0.06,2.39,0.78,3.11,1.96c0.5,0.83,0.44,1.88-0.19,2.68
		c-0.72,0.92-1.61,1.56-2.82,1.6c-1.76,0.05-3.52,0.09-5.27,0.09c-24.94,0.01-49.88,0-74.82,0.01c-1.76,0-3.52,0.04-5.27,0.13
		c-0.97,0.05-1.84,0.44-2.62,1.07c-0.9,0.73-0.94,2.21,0.02,2.9c0.51,0.37,1.07,0.72,1.66,0.89c0.76,0.22,1.57,0.33,2.36,0.36
		c1.6,0.06,3.2,0.04,4.8,0.04c24.62,0,49.24,0,73.86,0.01c1.76,0,3.52,0.01,5.27,0.1c0.61,0.03,1.27,0.24,1.81,0.54
		c2.33,1.32,2.38,3.95,0.09,5.38c-0.66,0.41-1.44,0.73-2.21,0.84c-1.42,0.21-2.86,0.29-4.29,0.35c-2.23,0.08-4.47,0.02-6.68,0.53
		c-0.62,0.14-1.27,0.15-1.91,0.16c-6.08,0.1-12.13,0.61-18.18,1.14c-1.27,0.11-2.56,0.04-3.83,0.12c-1.75,0.11-3.5,0.29-5.25,0.45
		c-0.64,0.06-1.27,0.17-1.9,0.21c-7.98,0.44-15.95,0.87-23.93,1.32c-1.11,0.06-2.22,0.23-3.33,0.35c-0.79,0.09-1.58,0.24-2.38,0.27
		c-6.07,0.2-12.14,0.51-18.21,0.52c-5.27,0.01-10.56-0.1-15.81-0.56c-5.4-0.47-10.79-1.23-16.02-2.75
		c-2.93-0.85-5.77-1.91-8.45-3.36c-9.52-5.12-19.68-8.38-30.25-10.39c-3.44-0.66-6.94-1.01-10.42-1.48
		c-8.26-1.12-16.58-1-24.89-1.03c-8.15-0.03-16.31-0.05-24.46,0c-11.35,0.07-22.7,0.2-34.05,0.31c-0.16,0-0.32-0.01-0.48,0.01
		c-5.56,0.63-11.16,0.53-16.72,1.21c-2.22,0.27-4.47,0.2-6.69,0.43c-6.83,0.69-13.66,1.37-20.47,2.21
		c-5.7,0.7-11.38,1.59-17.06,2.42c-4.74,0.69-9.47,1.42-14.21,2.1c-6,0.87-11.98,1.88-18.01,2.52c-6.03,0.64-12.11,1.21-18.17,1.23
		c-7.68,0.03-15.32-0.87-22.73-3.04c-2.6-0.76-5.14-1.77-7.61-2.88c-1.59-0.71-3.04-1.76-4.49-2.75c-3.65-2.5-5.53-6.1-6.29-10.36
		c-0.06-0.31-0.09-0.65-0.03-0.95c0.72-3.46,1.51-6.85,4.31-9.39c2.28-2.06,4.74-3.78,7.56-4.99c5.19-2.22,10.63-3.41,16.2-4.13
		c5.08-0.66,10.18-0.8,15.3-0.8c4.17,0,8.29,0.52,12.41,0.97c5.87,0.64,11.7,1.56,17.54,2.44c7.73,1.16,15.45,2.44,23.18,3.57
		c6.32,0.92,12.64,1.79,18.98,2.51c5.07,0.58,10.17,0.94,15.26,1.33c5.1,0.39,10.19,0.94,15.31,0.84c7.48,0.95,15,0.66,22.51,0.67
		c17.75,0.03,35.49-0.05,53.24,0.03c9.16,0.04,18.15-1.16,27.05-3.16c9.08-2.03,17.81-5.11,26.26-8.99c1.89-0.87,3.79-1.71,5.71-2.5
		c4.16-1.71,8.53-2.68,12.96-3.38c5.85-0.93,11.73-1.4,17.65-1.39c4.8,0.01,9.6-0.12,14.39,0.07c5.42,0.22,10.86,0.22,16.25,1.01
		c0.47,0.07,0.96,0.07,1.43,0.1c6.22,0.4,12.43,0.98,18.65,1.15c5.12,0.14,10.18,0.89,15.3,0.98c3.99,0.07,7.97,0.54,11.95,0.82
		c1.43,0.1,2.87,0.2,4.31,0.25c1.92,0.06,3.82,0.19,5.72,0.44c2.37,0.31,4.78,0.28,7.18,0.4c1.51,0.08,2.76,0.68,3.76,1.84
		c0.94,1.09,1.02,2.44,0.15,3.48c-0.85,1.02-1.86,1.77-3.25,1.81c-1.76,0.05-3.52,0.09-5.27,0.09c-25.1,0.01-50.2,0-75.3,0.01
		c-1.76,0-3.51,0.06-5.26,0.19c-1,0.07-1.78,0.64-2.35,1.49c-0.31,0.46-0.29,1.38,0.04,1.8c0.63,0.77,1.39,1.36,2.4,1.42
		c1.59,0.09,3.19,0.12,4.79,0.12c25.26,0.01,50.52,0,75.78,0.01c1.6,0,3.2-0.04,4.79,0.08c0.77,0.06,1.58,0.32,2.25,0.7
		c0.99,0.57,1.76,1.44,1.72,2.69c-0.05,1.26-1.49,2.83-2.75,2.97c-1.27,0.14-2.55,0.19-3.82,0.2c-5.92,0.02-11.83,0.01-17.75,0.01
		C1436.42,820.63,1429.06,820.63,1421.71,820.63z"/>
	<path class="st1" d="M1161.38,468.17c0-18.54,0-37.08,0-55.62c0-0.8,0-1.6,0-2.4c0.02-6.38-0.22-6.04,6-6.05
		c12.14-0.01,24.28,0.02,36.42,0.02c3.69,0,7.34,0.3,10.91,1.28c5.16,1.41,9.84,3.7,13.75,7.45c3.42,3.28,5.8,7.2,7.34,11.64
		c1.05,3.03,1.8,6.16,1.87,9.37c0.1,4.79,0.16,9.59-0.01,14.38c-0.16,4.68-1.38,9.14-3.48,13.35c-2.64,5.31-6.53,9.42-11.7,12.32
		c-0.98,0.55-1.99,1.03-2.97,1.57c-0.91,0.5-1.23,1.42-0.82,2.45c0.47,1.19,0.98,2.36,1.49,3.53c6.6,15.07,13.22,30.14,19.81,45.22
		c0.51,1.17,0.94,2.37,1.38,3.56c0.22,0.6-0.25,1.39-0.82,1.46c-0.32,0.04-0.63,0.14-0.94,0.14c-6.07,0.01-12.14,0-18.21,0.01
		c-1.46,0-2.38-0.66-2.93-2c-1.08-2.66-2.22-5.3-3.33-7.96c-5.45-13.13-10.91-26.26-16.35-39.4c-1.73-4.19-1.66-4.07-5.88-4.08
		c-2.88-0.01-5.75,0.01-8.63,0.03c-0.47,0-0.95,0.12-1.42,0.19c-0.53,0.08-1.24,0.75-1.28,1.27c-0.1,1.27-0.22,2.54-0.22,3.81
		c-0.02,8.95-0.01,17.9-0.01,26.85c0,5.91,0.02,11.83-0.02,17.74c-0.02,3.21-0.37,3.54-3.61,3.57c-4.31,0.04-8.63,0.03-12.94,0
		c-0.79-0.01-1.58-0.15-2.35-0.32c-0.25-0.06-0.52-0.37-0.64-0.64c-0.19-0.43-0.33-0.91-0.35-1.37c-0.06-1.6-0.09-3.19-0.09-4.79
		C1161.38,505.89,1161.38,487.03,1161.38,468.17z M1181.4,441.33C1181.4,441.33,1181.4,441.33,1181.4,441.33
		c0,4.32-0.02,8.63,0,12.95c0.01,1.12,0.1,2.23,0.19,3.34c0.05,0.6,0.65,1.25,1.2,1.32c0.79,0.09,1.58,0.21,2.37,0.22
		c6.07,0.02,12.15,0.01,18.22,0c0.96,0,1.93-0.01,2.87-0.15c4.27-0.6,7.4-2.83,9.32-6.7c0.87-1.74,1.34-3.61,1.37-5.55
		c0.06-3.52,0.04-7.03,0-10.55c-0.01-0.95-0.15-1.92-0.38-2.85c-1.61-6.4-6.26-9.9-11.88-9.98c-0.32,0-0.64-0.02-0.96-0.02
		c-6.23,0-12.47-0.02-18.7,0c-0.79,0-1.6,0.08-2.36,0.29c-0.39,0.11-0.9,0.54-0.98,0.91c-0.21,0.92-0.28,1.89-0.29,2.85
		C1181.38,432.06,1181.4,436.69,1181.4,441.33z"/>
	<path class="st1" d="M1424.24,618.95c0-19.03-0.01-38.07,0.01-57.1c0-1.75,0.14-3.5,0.26-5.25c0.04-0.58,0.71-1.22,1.27-1.27
		c0.79-0.08,1.59-0.18,2.38-0.18c13.11,0,26.22-0.03,39.33,0.03c5,0.02,9.86,0.95,14.5,2.84c8.17,3.33,13.72,9.18,16.64,17.5
		c1.12,3.18,1.88,6.47,1.94,9.85c0.08,4.64,0.16,9.28-0.03,13.91c-0.22,5.34-1.64,10.41-4.33,15.07c-2.62,4.54-6.21,8.1-10.78,10.66
		c-1.11,0.62-2.24,1.22-3.35,1.85c-0.57,0.32-0.84,1.06-0.65,1.66c0.14,0.46,0.27,0.92,0.46,1.36c0.49,1.18,1,2.35,1.52,3.52
		c6.24,14.2,12.48,28.4,18.71,42.6c0.77,1.75,1.43,3.55,2.12,5.34c0.2,0.51-0.38,1.34-0.94,1.39c-0.79,0.08-1.59,0.18-2.39,0.18
		c-5.12,0.02-10.23,0.01-15.35,0.01c-0.32,0-0.64-0.02-0.96-0.02c-1.57-0.01-2.77-0.49-3.34-2.15c-0.47-1.36-1.13-2.65-1.68-3.97
		c-5.75-13.88-11.5-27.77-17.26-41.65c-0.55-1.33-1.14-2.64-1.73-3.95c-0.35-0.77-0.91-1.37-1.79-1.37
		c-4.31-0.02-8.62-0.01-12.93,0.02c-0.74,0.01-1.41,0.8-1.45,1.65c-0.07,1.6-0.14,3.19-0.14,4.79c-0.01,13.43,0,26.87-0.01,40.3
		c0,1.59-0.11,3.19-0.2,4.78c-0.03,0.58-0.66,1.23-1.21,1.31c-0.63,0.09-1.26,0.23-1.9,0.23c-4.48,0.02-8.95,0.03-13.43,0.01
		c-0.63,0-1.29-0.06-1.88-0.26c-0.4-0.14-0.8-0.53-1.01-0.91c-0.22-0.39-0.3-0.91-0.31-1.38c-0.05-1.6-0.07-3.2-0.07-4.8
		C1424.24,656.7,1424.24,637.83,1424.24,618.95z M1444.26,592.31C1444.26,592.31,1444.26,592.31,1444.26,592.31
		c0,4.31-0.01,8.61,0,12.92c0,1.11,0.06,2.23,0.13,3.34c0.05,0.77,0.79,1.56,1.48,1.66c0.31,0.05,0.63,0.14,0.94,0.14
		c6.85,0.01,13.71,0.03,20.56-0.03c1.25-0.01,2.53-0.33,3.75-0.66c3.08-0.83,5.34-2.75,6.9-5.52c1.12-1.98,1.75-4.12,1.79-6.39
		c0.06-3.51,0.03-7.01,0-10.52c-0.01-0.79-0.13-1.59-0.29-2.37c-1.05-4.87-4.31-9.71-11.51-10.45c-0.47-0.05-0.96-0.05-1.43-0.05
		c-6.38,0-12.75-0.01-19.13,0.01c-0.63,0-1.29,0.08-1.87,0.29c-0.4,0.15-0.88,0.55-0.97,0.92c-0.22,0.91-0.32,1.88-0.33,2.83
		C1444.24,583.07,1444.26,587.69,1444.26,592.31z"/>
	<path class="st1" d="M1065.3,618.81c0-19.18,0-38.37,0-57.55c0-6.34-0.32-6.11,5.92-6.11c11.99,0,23.97,0.02,35.96,0.01
		c4.34,0,8.62,0.52,12.77,1.8c11.6,3.59,18.55,11.4,21,23.26c0.52,2.51,0.83,5.04,0.8,7.62c-0.03,3.52,0.06,7.04-0.06,10.55
		c-0.19,5.34-1.46,10.44-3.98,15.18c-2.62,4.92-6.38,8.76-11.24,11.49c-1.25,0.7-2.51,1.38-3.74,2.13c-0.2,0.13-0.36,0.6-0.3,0.84
		c0.3,1.07,0.61,2.15,1.05,3.16c2.61,6.01,5.26,12,7.89,18c4.18,9.51,8.36,19.02,12.53,28.54c0.51,1.17,0.96,2.37,1.41,3.56
		c0.24,0.63-0.19,1.38-0.8,1.45c-0.63,0.08-1.27,0.19-1.9,0.19c-5.43,0.02-10.87,0.01-16.3,0.01c-0.48,0-0.96-0.02-1.44-0.07
		c-1.01-0.1-1.84-0.47-2.27-1.48c-0.5-1.18-1.03-2.34-1.52-3.52c-5.95-14.32-11.89-28.63-17.83-42.95
		c-0.24-0.59-0.47-1.19-0.72-1.78c-1.45-3.4-1.45-3.43-5.34-3.45c-3.2-0.02-6.39,0.01-9.59,0.08c-1.22,0.03-2.13,0.45-2.18,1.99
		c-0.05,1.44-0.08,2.88-0.08,4.31c-0.01,13.27,0.02,26.54-0.01,39.81c-0.02,7.64,0.73,7.02-6.88,7.07c-3.2,0.02-6.39,0.02-9.59-0.03
		c-0.79-0.01-1.6-0.12-2.34-0.36c-0.39-0.12-0.77-0.57-0.96-0.96c-0.2-0.41-0.21-0.93-0.22-1.41c-0.04-1.6-0.05-3.2-0.05-4.8
		C1065.3,656.54,1065.3,637.67,1065.3,618.81z M1085.34,592.46C1085.35,592.46,1085.35,592.46,1085.34,592.46
		c0,4.63-0.01,9.25,0.02,13.88c0.01,0.95,0.09,1.91,0.3,2.83c0.09,0.37,0.56,0.84,0.94,0.93c0.92,0.21,1.88,0.31,2.83,0.31
		c5.74,0.02,11.48,0,17.22,0.01c1.76,0,3.49-0.17,5.2-0.63c3.64-0.97,6.15-3.25,7.74-6.6c0.83-1.75,1.29-3.61,1.3-5.55
		c0.02-3.35,0.02-6.7,0-10.05c0-0.64-0.08-1.28-0.18-1.9c-0.36-2.24-1.12-4.32-2.46-6.16c-2.54-3.51-6.1-5.06-10.31-5.11
		c-6.54-0.08-13.08-0.03-19.61-0.03c-0.16,0-0.32,0.01-0.48,0.02c-1.69,0.09-2.38,0.7-2.44,2.26c-0.06,1.27-0.07,2.55-0.07,3.83
		C1085.34,584.49,1085.34,588.47,1085.34,592.46z"/>
	<path class="st1" d="M1329.73,316.42c0-18.71,0-37.42,0-56.14c0-1.44-0.01-2.88,0.03-4.32c0.07-2.62,0.47-3.03,3.12-3.08
		c3.36-0.07,6.71-0.11,10.07-0.1c9.27,0.01,18.55,0.08,27.82,0.06c3.21-0.01,6.39,0.27,9.54,0.85c5.93,1.1,11.31,3.39,15.83,7.48
		c5.59,5.07,8.59,11.52,9.47,18.88c0.78,6.52,0.76,13.11,0.02,19.64c-0.86,7.54-3.94,14.11-9.62,19.33c-1.9,1.75-4.07,3.09-6.3,4.34
		c-0.84,0.47-1.73,0.86-2.49,1.42c-0.31,0.23-0.56,0.89-0.46,1.25c0.29,1.07,0.72,2.11,1.17,3.13c5,11.42,10.02,22.84,15.03,34.26
		c1.99,4.54,3.99,9.07,5.96,13.62c0.32,0.73,0.52,1.5,0.76,2.26c0.1,0.31-0.4,1.06-0.74,1.11c-0.63,0.09-1.26,0.22-1.89,0.23
		c-5.44,0.02-10.87,0.02-16.31,0c-0.79,0-1.6-0.07-2.37-0.26c-0.42-0.1-0.91-0.43-1.12-0.8c-0.55-0.97-1.01-2-1.43-3.03
		c-6.08-14.62-12.14-29.23-18.21-43.86c-2.49-6.02-1.66-5.25-7.93-5.31c-2.71-0.03-5.43,0.06-8.15,0.13
		c-0.85,0.02-1.54,0.69-1.58,1.5c-0.09,1.59-0.18,3.19-0.18,4.79c-0.01,13.43,0,26.87-0.02,40.3c0,1.6-0.09,3.19-0.17,4.79
		c-0.04,0.77-0.79,1.5-1.54,1.6c-0.16,0.02-0.32,0.07-0.47,0.07c-5.27,0-10.55,0.01-15.82-0.03c-1.11-0.01-1.81-0.74-1.9-1.76
		c-0.05-0.64-0.1-1.28-0.11-1.91c-0.02-1.44-0.01-2.88-0.01-4.32C1329.73,353.84,1329.73,335.13,1329.73,316.42z M1349.76,289.68
		c0,4.8-0.02,9.59,0.01,14.39c0.01,0.95,0.12,1.91,0.34,2.83c0.09,0.38,0.55,0.85,0.94,0.96c0.76,0.21,1.57,0.27,2.37,0.27
		c6.07,0.02,12.14,0.02,18.21-0.01c0.95,0,1.92-0.05,2.86-0.22c5.43-0.95,8.86-4.09,10.26-9.45c0.9-3.47,0.86-13.21-0.09-16.66
		c-1.6-5.82-5.68-9.19-11.69-9.66c-0.32-0.03-0.64-0.03-0.96-0.03c-6.39,0-12.78,0-19.17,0.01c-0.48,0-0.95,0.09-1.43,0.14
		c-0.74,0.09-1.45,0.82-1.52,1.61c-0.07,0.79-0.13,1.59-0.14,2.39C1349.76,280.73,1349.76,285.21,1349.76,289.68z"/>
	<path class="st1" d="M1584.73,529.74c-1.44-1.19-2.06-2.7-2.92-4.03c-1.29-2.01-2.55-4.05-3.85-6.07
		c-0.36-0.56-1.17-0.65-1.67-0.21c-0.96,0.84-1.89,1.72-2.86,2.55c-4.42,3.79-9.33,6.71-14.97,8.31
		c-6.43,1.82-12.93,2.08-19.42,0.47c-8.13-2.01-13.81-7.08-17.38-14.57c-1.66-3.48-2.69-7.18-3.25-10.99
		c-0.86-5.89-0.93-11.77,0.21-17.64c1.44-7.42,4.79-13.86,9.96-19.32c1.86-1.97,3.94-3.73,5.95-5.55c0.83-0.75,1.74-1.4,2.61-2.11
		c0.5-0.42,0.68-1.2,0.39-1.72c-0.79-1.39-1.59-2.77-2.4-4.15c-2.83-4.87-5.09-9.97-6.18-15.51c-1.21-6.15-1.74-12.33-0.6-18.57
		c0.58-3.18,1.59-6.19,3.2-8.98c2.72-4.74,6.61-8.19,11.76-10.08c6.53-2.4,13.14-2.44,19.73-0.21c5.06,1.71,8.83,5.01,11.5,9.61
		c1.96,3.38,3.05,7.05,3.53,10.87c0.54,4.29,0.51,8.61-0.14,12.9c-1.32,8.66-5.31,16-11.19,22.37c-1.08,1.17-2.26,2.26-3.36,3.42
		c-0.54,0.57-0.98,1.23-1.51,1.91c0.38,0.8,0.66,1.55,1.07,2.22c4.39,7.05,8.8,14.09,13.22,21.13c0.33,0.53,0.78,1,1.19,1.48
		c0.24,0.28,1.04,0.11,1.24-0.27c0.29-0.56,0.62-1.12,0.84-1.71c1.29-3.45,2.16-7.02,2.75-10.66c0.31-1.89,0.62-3.79,0.81-5.69
		c0.26-2.63,0.68-3.08,3.19-3.09c4.47-0.02,8.95-0.01,13.42,0.02c0.62,0,1.25,0.17,1.84,0.37c0.24,0.08,0.53,0.44,0.54,0.68
		c0.05,0.95,0.13,1.91-0.02,2.84c-1.8,11.44-4.98,22.45-10.4,32.74c-0.3,0.56-0.56,1.15-0.81,1.73c-0.27,0.63-0.19,1.29,0.13,1.84
		c0.55,0.97,1.17,1.9,1.81,2.82c3.83,5.51,7.68,11.01,11.49,16.53c0.72,1.04,1.33,2.17,1.97,3.26c0.21,0.36-0.17,1.07-0.57,1.12
		c-0.47,0.06-0.94,0.17-1.42,0.17c-5.75,0.01-11.5,0.01-17.25-0.01C1586.12,529.97,1585.33,529.81,1584.73,529.74z M1550.16,514.86
		c2,0.01,3.74-0.12,5.43-0.7c4.92-1.67,8.34-5.12,11.07-9.37c0.21-0.33,0.2-0.97,0.04-1.36c-0.37-0.87-0.87-1.7-1.38-2.5
		c-5.43-8.64-10.87-17.26-16.31-25.89c-0.34-0.54-0.7-1.06-1.07-1.58c-0.64-0.9-1.53-0.94-2.42-0.09c-3.8,3.59-6.45,7.87-7.72,12.96
		c-1.29,5.19-1.27,10.43-0.47,15.67c0.41,2.69,1.45,5.22,3.02,7.48C1542.78,512.97,1546,515.03,1550.16,514.86z M1561.24,428.21
		c0-3.27-0.03-5.98-1.01-8.58c-0.46-1.21-1.03-2.33-1.9-3.29c-2.93-3.22-7.84-3.03-10.4,0.46c-0.56,0.76-0.97,1.65-1.35,2.52
		c-0.64,1.48-0.89,3.05-1.03,4.66c-0.73,8.38,1.23,16.16,5.2,23.49c0.23,0.42,0.54,0.79,0.83,1.17c0.09,0.12,0.24,0.21,0.35,0.32
		c0.23,0.24,1.02,0.24,1.33,0.01c2.6-2.03,4.2-4.78,5.42-7.75C1560.48,436.89,1561.33,432.36,1561.24,428.21z"/>
	<path class="st1" d="M1596.65,619.79c0,8.47,0,16.93,0,25.4c0,3.68-0.26,7.34-1.1,10.94c-1.63,7.01-4.7,13.21-9.96,18.22
		c-3.05,2.9-6.51,5.13-10.4,6.72c-7.25,2.96-14.81,3.82-22.55,3.03c-2.53-0.26-5.06-0.65-7.53-1.35
		c-13.55-3.8-21.82-12.65-25.18-26.22c-0.89-3.59-1.18-7.24-1.18-10.93c0-5.59-0.01-11.18-0.01-16.77c0-11.82,0.01-23.64,0-35.46
		c0-3.84,0.23-7.66,1.14-11.42c1.65-6.82,4.64-12.89,9.73-17.83c3.87-3.75,8.41-6.36,13.49-7.96c9.06-2.84,18.25-3.05,27.39-0.51
		c13.57,3.76,21.73,12.79,25.01,26.37c0.91,3.75,1.15,7.57,1.14,11.42C1596.65,602.22,1596.66,611,1596.65,619.79
		C1596.66,619.79,1596.65,619.79,1596.65,619.79z M1576.2,619.43c0-8.31-0.02-16.62,0.01-24.93c0.01-2.57-0.2-5.12-0.86-7.6
		c-1.7-6.4-5.69-10.64-12.14-12.31c-3.61-0.93-7.32-0.93-10.92-0.03c-6.25,1.57-10.26,5.6-12.1,11.77
		c-0.18,0.61-0.26,1.25-0.42,1.87c-0.6,2.35-0.56,4.75-0.56,7.15c0,15.82,0,31.64,0,47.46c0,0.96,0.03,1.92,0.02,2.88
		c-0.02,2.1,0.36,4.15,0.96,6.14c1.84,6.11,5.7,10.25,12.01,11.85c4.46,1.13,8.87,0.97,13.17-0.69c3.56-1.37,6.27-3.75,8.14-7.09
		c1.02-1.83,1.72-3.77,2.13-5.83c0.44-2.21,0.57-4.43,0.57-6.67C1576.19,635.41,1576.2,627.42,1576.2,619.43z"/>
	<path class="st1" d="M1064.06,468.92c0-8.48,0-16.95,0-25.43c0-3.85,0.24-7.67,1.06-11.44c1.44-6.69,4.14-12.75,8.81-17.84
		c5.28-5.76,11.89-9.13,19.47-10.55c6.99-1.31,14.01-1.19,20.93,0.61c9.34,2.42,16.29,7.91,20.69,16.52
		c2.87,5.63,4.34,11.67,4.92,17.93c0.06,0.62-0.07,1.27-0.13,1.9c-0.05,0.57-0.51,0.81-0.94,0.97c-0.44,0.16-0.94,0.2-1.41,0.2
		c-5.28,0.02-10.55,0.01-15.83,0.01c-0.16,0-0.32-0.02-0.48-0.03c-1.48-0.1-2.02-0.54-2.31-1.91c-0.3-1.41-0.55-2.83-0.9-4.22
		c-0.55-2.19-1.43-4.24-2.71-6.11c-1.67-2.44-3.8-4.32-6.61-5.33c-4.38-1.57-8.8-1.51-13.14,0.1c-4.28,1.59-7.14,4.73-8.98,8.84
		c-1.26,2.81-1.75,5.81-1.94,8.85c-0.08,1.28-0.06,2.56-0.06,3.84c0,15.51,0,31.02,0,46.54c0,2.24,0.03,4.46,0.42,6.69
		c1.37,7.88,7.03,12.88,15.1,13.72c1.9,0.2,3.85,0.21,5.74-0.01c6.6-0.78,11.25-4.25,13.67-10.51c0.69-1.79,1.26-3.65,1.3-5.59
		c0.07-4.32,0.05-8.63,0.07-12.95c0-0.16-0.08-0.31-0.1-0.47c-0.08-0.56-0.68-1.23-1.23-1.29c-1.11-0.11-2.22-0.24-3.33-0.26
		c-2.88-0.04-5.76,0-8.63-0.04c-0.95-0.01-1.91-0.11-2.85-0.29c-0.43-0.08-0.9-0.36-0.99-0.92c-0.08-0.47-0.23-0.94-0.23-1.41
		c-0.02-4.64-0.01-9.27,0-13.91c0-0.47,0.02-0.99,0.21-1.41c0.18-0.39,0.56-0.76,0.94-0.96c0.4-0.21,0.92-0.26,1.39-0.3
		c0.96-0.07,1.92-0.11,2.87-0.11c8.95-0.01,17.91-0.04,26.86,0.01c5.57,0.03,5.57-0.04,5.57,5.62c0,8.32,0.01,16.63-0.03,24.95
		c-0.02,4.32-0.29,8.62-1.4,12.84c-1.57,5.98-4.18,11.38-8.37,15.98c-4.67,5.13-10.44,8.44-17.12,10.04
		c-8.72,2.08-17.47,1.97-26.04-0.79c-12.65-4.08-20.3-12.8-23.24-25.72c-0.71-3.14-1-6.31-1.01-9.52
		c-0.01-5.12-0.02-10.23-0.02-15.35c0-3.84,0-7.68,0-11.51C1064.05,468.92,1064.05,468.92,1064.06,468.92z"/>
	<path class="st1" d="M1241.87,316.76c0-19.18-0.01-38.36,0.01-57.54c0-1.59,0.12-3.18,0.22-4.77c0.03-0.53,0.74-1.22,1.26-1.28
		c0.79-0.1,1.58-0.21,2.37-0.23c2.4-0.04,4.79-0.04,7.19-0.04c17.58,0,35.15,0.01,52.73,0.02c6.48,0,6.07-0.27,6.09,5.92
		c0.01,3.2,0.01,6.39-0.02,9.59c-0.01,0.79-0.12,1.59-0.21,2.38c-0.06,0.55-0.71,1.12-1.32,1.21c-0.63,0.08-1.26,0.19-1.9,0.2
		c-1.44,0.04-2.88,0.03-4.31,0.03c-11.98,0-23.97,0.01-35.95,0c-6.36-0.01-6.06-0.07-6.06,6.03c0,7.83-0.01,15.66,0.01,23.5
		c0,1.43,0.11,2.87,0.2,4.3c0.04,0.59,0.67,1.24,1.25,1.28c1.43,0.1,2.86,0.21,4.29,0.21c9.59,0.02,19.17,0.01,28.76,0.01
		c1.12,0,2.24,0.01,3.36,0c4.95-0.04,4.94,0.12,4.93,5.17c0,3.04,0,6.07,0,9.11c0,0.8-0.02,1.6-0.05,2.4
		c-0.01,0.32-0.08,0.63-0.11,0.95c-0.08,0.73-0.82,1.48-1.6,1.53c-1.43,0.08-2.87,0.15-4.31,0.16c-9.75,0.01-19.49,0.01-29.24,0.01
		c-1.28,0-2.56-0.01-3.83,0.01c-3.14,0.07-3.63,0.5-3.64,3.62c-0.03,9.11-0.01,18.22-0.01,27.33c0,0.48,0.03,0.96,0.07,1.44
		c0.08,1.08,0.77,1.87,1.75,1.92c1.59,0.08,3.19,0.13,4.79,0.13c11.98,0.01,23.97,0,35.95,0.01c1.44,0,2.88,0,4.31,0.04
		c0.48,0.01,0.95,0.11,1.42,0.18c0.58,0.08,1.17,0.69,1.26,1.27c0.02,0.16,0.09,0.31,0.09,0.47c0.01,5.11,0.01,10.23,0.01,15.34
		c0,0.16-0.08,0.31-0.1,0.47c-0.08,0.57-0.67,1.25-1.22,1.29c-1.43,0.11-2.86,0.26-4.29,0.27c-7.99,0.03-15.98-0.01-23.97,0.02
		c-7.67,0.03-15.34,0.17-23,0.18c-4.79,0-9.58-0.14-14.37-0.23c-0.47-0.01-0.95-0.12-1.42-0.2c-0.48-0.08-1.15-0.82-1.22-1.34
		c-0.08-0.63-0.16-1.27-0.18-1.9c-0.03-1.44-0.02-2.88-0.02-4.32C1241.87,354.16,1241.87,335.46,1241.87,316.76z"/>
	<path class="st1" d="M1065.3,316.5c0-19.02,0-38.04,0.01-57.05c0-1.6,0.07-3.19,0.15-4.79c0.04-0.73,0.84-1.54,1.57-1.58
		c1.43-0.08,2.87-0.15,4.3-0.16c17.41-0.01,34.83-0.01,52.24,0c2.88,0,5.75,0.01,8.63,0.03c0.48,0,0.95,0.1,1.42,0.16
		c0.6,0.08,1.25,0.65,1.33,1.19c0.07,0.47,0.18,0.94,0.18,1.42c0.01,4.63,0,9.27-0.02,13.9c0,0.47-0.03,1-0.24,1.4
		c-0.2,0.38-0.64,0.82-1.02,0.88c-1.41,0.2-2.85,0.33-4.28,0.33c-8.15,0.03-16.3,0.01-24.44,0.02c-4.95,0-9.91-0.01-14.86,0.01
		c-1.11,0.01-2.22,0.13-3.33,0.24c-0.57,0.05-1.23,0.71-1.31,1.23c-0.07,0.47-0.18,0.95-0.18,1.42c-0.01,9.91,0,19.82,0.01,29.72
		c0,0.47,0.03,1,0.23,1.41c0.19,0.39,0.58,0.88,0.95,0.94c1.25,0.21,2.53,0.33,3.79,0.33c8.15,0.03,16.3,0.01,24.44,0.02
		c3.2,0,6.39,0,9.59,0.01c0.64,0,1.28,0.06,1.91,0.11c0.77,0.07,1.55,0.79,1.65,1.5c0.05,0.32,0.13,0.63,0.13,0.95
		c0,4.79,0,9.59-0.02,14.38c0,0.31-0.11,0.63-0.15,0.94c-0.07,0.45-0.86,1.17-1.35,1.22c-0.48,0.05-0.95,0.14-1.43,0.15
		c-1.44,0.03-2.88,0.04-4.31,0.04c-9.91,0-19.81-0.01-29.72,0.01c-1.43,0-2.86,0.14-4.29,0.25c-0.55,0.04-1.2,0.74-1.27,1.28
		c-0.08,0.63-0.19,1.27-0.19,1.9c-0.01,9.27-0.01,18.54,0.01,27.81c0,0.63,0.04,1.3,0.24,1.89c0.14,0.39,0.55,0.77,0.94,0.97
		c0.4,0.21,0.92,0.28,1.39,0.29c1.44,0.05,2.87,0.05,4.31,0.05c12.14,0,24.28,0,36.43,0.01c1.59,0,3.19,0.08,4.78,0.17
		c0.78,0.04,1.52,0.78,1.52,1.57c0.01,5.27,0,10.54-0.03,15.81c0,0.81-0.72,1.53-1.51,1.58c-1.59,0.1-3.19,0.18-4.78,0.19
		c-11.82,0.02-23.64,0-35.47,0.02c-3.03,0-6.07,0.16-9.1,0.14c-5.43-0.03-10.86-0.13-16.29-0.22c-0.46-0.01-0.98-0.11-1.37-0.33
		c-0.38-0.22-0.75-0.6-0.93-1c-0.19-0.42-0.2-0.93-0.21-1.41c-0.03-1.6-0.04-3.2-0.04-4.79
		C1065.3,354.22,1065.3,335.36,1065.3,316.5z"/>
	<path class="st1" d="M1428.87,316.9c0-18.87,0-37.75,0-56.62c0-1.6,0-3.2,0.06-4.8c0.07-1.82,0.78-2.45,2.75-2.53
		c0.8-0.03,1.6-0.03,2.4-0.03c19.83,0,39.65,0,59.48,0.01c1.27,0,2.55,0.13,3.82,0.24c0.54,0.04,1.13,0.75,1.21,1.32
		c0.02,0.16,0.07,0.31,0.07,0.47c0,5.12,0,10.23-0.04,15.35c-0.01,1.04-0.76,1.74-1.86,1.8c-1.59,0.09-3.19,0.14-4.79,0.14
		c-12.15,0.01-24.3,0.01-36.45,0.01c-7.11,0-6.51-0.24-6.52,6.51c-0.02,7.68-0.01,15.35,0,23.03c0,1.43,0.11,2.87,0.2,4.3
		c0.04,0.58,0.68,1.18,1.26,1.26c0.47,0.07,0.95,0.16,1.42,0.17c1.44,0.03,2.88,0.04,4.32,0.04c9.91,0,19.83-0.01,29.74,0.01
		c1.43,0,2.87,0.12,4.3,0.22c0.54,0.04,1.22,0.73,1.31,1.25c0.07,0.47,0.2,0.94,0.2,1.42c0.02,4.48,0.01,8.96,0,13.43
		c0,0.48-0.1,0.95-0.17,1.43c-0.08,0.57-0.69,1.26-1.24,1.31c-1.43,0.11-2.86,0.24-4.29,0.25c-8.95,0.02-17.91,0.01-26.86,0.01
		c-1.92,0-3.84-0.01-5.76,0.01c-0.8,0.01-1.6,0.05-2.39,0.11c-1.04,0.08-1.84,0.84-1.93,1.78c-0.04,0.48-0.09,0.96-0.09,1.44
		c0,9.28,0,18.55,0,27.83c0,0.48,0.05,0.96,0.1,1.43c0.09,1.02,0.79,1.66,1.91,1.75c0.64,0.05,1.28,0.09,1.91,0.09
		c1.28,0.02,2.56,0.01,3.84,0.01c11.35,0,22.7,0,34.06,0c1.12,0,2.24-0.01,3.36,0c4.49,0.06,4.52,0.07,4.55,4.58
		c0.02,3.68,0.01,7.36-0.01,11.04c-0.01,0.79-0.05,1.61-0.26,2.37c-0.1,0.39-0.55,0.76-0.93,0.97c-0.4,0.22-0.92,0.29-1.39,0.3
		c-1.44,0.05-2.88,0.07-4.32,0.07c-11.03,0-22.06-0.01-33.1,0.01c-3.84,0.01-7.67,0.17-11.51,0.16c-5.27-0.02-10.55-0.14-15.82-0.23
		c-0.16,0-0.32-0.03-0.48-0.06c-1.06-0.15-1.8-0.57-1.92-1.77c-0.06-0.64-0.11-1.27-0.12-1.91c-0.02-1.28-0.01-2.56-0.01-3.84
		C1428.87,354.33,1428.87,335.61,1428.87,316.9z"/>
	<path class="st1" d="M1164.66,618.81c0-19.03-0.01-38.06,0.01-57.09c0.01-6.98-0.51-6.51,6.48-6.51
		c19.34-0.02,38.68-0.01,58.03,0.01c1.27,0,2.55,0.11,3.82,0.21c0.53,0.04,1.15,0.73,1.24,1.3c0.07,0.47,0.19,0.95,0.19,1.42
		c0.01,4.48,0.01,8.95,0,13.43c0,0.32-0.06,0.64-0.1,0.95c-0.12,1.07-0.8,1.82-1.81,1.87c-1.59,0.08-3.19,0.12-4.79,0.13
		c-12.15,0.01-24.3,0-36.45,0.01c-1.59,0-3.19,0.09-4.78,0.18c-0.8,0.05-1.52,0.76-1.58,1.53c-0.07,0.95-0.14,1.91-0.14,2.87
		c-0.01,8.64-0.01,17.27,0,25.91c0,1.11,0.12,2.23,0.22,3.34c0.05,0.58,0.68,1.24,1.23,1.28c1.43,0.09,2.87,0.21,4.3,0.21
		c10.07,0.02,20.14,0.01,30.21,0.01c1.44,0,2.88,0.01,4.31,0.07c1.46,0.06,2.19,0.67,2.2,1.96c0.03,5.11,0.01,10.23,0,15.34
		c0,0.16-0.08,0.31-0.1,0.47c-0.08,0.55-0.7,1.19-1.29,1.22c-1.59,0.1-3.18,0.22-4.78,0.22c-9.91,0.02-19.82,0-29.73,0.01
		c-7.08,0.01-6.56-0.39-6.58,6.44c-0.02,7.2-0.01,14.39,0,21.59c0,1.44,0.03,2.88,0.1,4.31c0.07,1.35,0.73,1.98,2.14,2.04
		c1.6,0.06,3.2,0.08,4.79,0.08c12.15,0.01,24.3,0,36.45,0.01c1.44,0,2.88,0.04,4.31,0.11c0.98,0.05,1.73,0.84,1.78,1.9
		c0.08,1.92,0.11,3.83,0.12,5.75c0.02,2.4,0.02,4.8-0.01,7.2c-0.01,0.95-0.14,1.91-0.22,2.86c-0.04,0.49-0.8,1.27-1.27,1.29
		c-1.43,0.07-2.87,0.18-4.3,0.18c-9.59,0.02-19.18,0.01-28.77,0.01c-9.75,0-19.5,0-29.25,0c-1.12,0-2.24-0.01-3.36-0.07
		c-1.93-0.1-2.5-0.68-2.56-2.67c-0.05-1.6-0.05-3.2-0.05-4.8C1164.66,656.55,1164.66,637.68,1164.66,618.81z"/>
	<path class="st1" d="M1287.27,684.34c-4.98,0.03-9.89-0.51-14.69-1.86c-6.27-1.76-11.82-4.77-16.33-9.57
		c-3.81-4.04-6.35-8.78-7.86-14.09c-0.43-1.5-0.01-2.38,1.5-3.06c4.81-2.15,9.64-4.27,14.46-6.4c0.29-0.13,0.61-0.19,0.91-0.29
		c0.56-0.17,1.45,0.13,1.68,0.61c0.7,1.43,1.33,2.9,2.08,4.31c2.68,5.05,6.72,8.49,12.25,10.03c1.53,0.43,3.13,0.66,4.72,0.77
		c3.69,0.25,7.34-0.05,10.87-1.26c1.82-0.63,3.53-1.5,5.01-2.75c2.99-2.52,4.45-5.82,4.68-9.64c0.15-2.55,0.13-5.12,0.01-7.67
		c-0.17-3.51-1.63-6.44-4.27-8.82c-1.81-1.63-3.86-2.86-6.11-3.71c-2.99-1.13-6.01-2.15-9.04-3.17c-4.84-1.63-9.72-3.17-14.55-4.84
		c-1.81-0.62-3.58-1.39-5.29-2.25c-9.62-4.82-15.06-12.6-16.15-23.31c-0.49-4.78-0.49-9.59,0-14.37c0.79-7.73,3.69-14.51,9.5-19.86
		c2.74-2.52,5.87-4.39,9.31-5.79c3.58-1.45,7.3-2.38,11.11-2.86c6.21-0.77,12.43-0.88,18.59,0.53c13.11,3,21.07,11.34,24.76,24.06
		c0.23,0.8-0.13,1.6-0.87,2.03c-0.14,0.08-0.27,0.18-0.41,0.25c-4.93,2.28-9.86,4.57-14.79,6.83c-0.83,0.38-1.66,0.09-2.02-0.67
		c-0.28-0.57-0.5-1.18-0.78-1.75c-0.56-1.15-1.13-2.29-1.74-3.42c-1-1.85-2.34-3.43-3.89-4.83c-2.96-2.67-6.43-4.1-10.43-4.21
		c-2.73-0.08-5.42,0.15-8.07,0.86c-1.71,0.46-3.32,1.15-4.81,2.1c-2.98,1.91-4.89,4.57-5.44,8.1c-0.52,3.34-0.5,6.69-0.05,10.03
		c0.33,2.45,1.39,4.55,3.12,6.33c1.69,1.74,3.58,3.2,5.81,4.16c2.2,0.94,4.43,1.83,6.7,2.6c3.17,1.08,6.39,2.05,9.59,3.04
		c4.59,1.41,9.07,3.11,13.42,5.14c3.21,1.5,6.09,3.44,8.6,6c4.42,4.51,6.98,9.88,7.69,16.13c0.69,6.06,0.8,12.14,0.02,18.18
		c-1.52,11.76-7.73,20.07-18.67,24.73c-5.66,2.41-11.65,3.3-17.75,3.61C1288.87,684.38,1288.07,684.34,1287.27,684.34z"/>
	<path class="st1" d="M1552.97,251.85c3.69-0.23,7.35,0.04,10.95,0.87c10.3,2.35,17.92,8.12,22.48,17.74
		c0.48,1.01,0.98,2.02,1.35,3.07c1.7,4.79,1.82,4.66-2.78,6.77c-2.62,1.2-5.22,2.43-7.82,3.64c-1.16,0.54-2.32,1.08-3.49,1.59
		c-2.09,0.9-2.46,0.77-3.36-1.11c-0.55-1.16-1.05-2.33-1.64-3.47c-1.04-1.99-2.35-3.8-4-5.35c-3.17-2.99-6.89-4.53-11.26-4.58
		c-2.58-0.03-5.12,0.18-7.59,0.9c-1.37,0.4-2.76,0.88-4,1.57c-3.9,2.16-6.21,5.49-6.51,9.99c-0.17,2.55-0.15,5.12,0.01,7.67
		c0.19,2.97,1.41,5.52,3.58,7.63c1.86,1.82,3.94,3.28,6.35,4.22c2.97,1.17,5.98,2.24,9.01,3.26c3.18,1.07,6.41,1.99,9.59,3.04
		c3.95,1.31,7.82,2.81,11.51,4.75c7.98,4.2,13.06,10.61,14.71,19.56c0.29,1.57,0.6,3.16,0.63,4.74c0.09,4.31,0.11,8.63,0,12.94
		c-0.09,3.54-0.94,6.97-2.2,10.27c-2.41,6.36-6.58,11.27-12.45,14.7c-3.48,2.03-7.19,3.46-11.12,4.33
		c-9.2,2.05-18.39,2.08-27.54-0.27c-6.81-1.76-12.75-5.08-17.46-10.39c-3.67-4.14-6.14-8.93-7.41-14.32
		c-0.11-0.48,0.32-1.4,0.77-1.65c0.42-0.23,0.84-0.47,1.27-0.66c4.68-2.06,9.36-4.12,14.05-6.17c0.43-0.19,0.92-0.39,1.37-0.37
		c0.43,0.02,1.06,0.19,1.23,0.51c0.77,1.4,1.35,2.9,2.09,4.31c2.55,4.91,6.43,8.32,11.73,9.97c1.66,0.52,3.43,0.82,5.17,0.97
		c4.03,0.35,8-0.09,11.78-1.55c3.91-1.51,6.81-4.15,8.14-8.24c0.39-1.2,0.62-2.49,0.68-3.75c0.11-2.39,0.03-4.79,0.06-7.19
		c0.05-4.75-2.18-8.28-6.02-10.81c-1.72-1.13-3.63-2.05-5.55-2.78c-3.43-1.3-6.93-2.43-10.44-3.53c-5.49-1.72-10.96-3.48-16.24-5.79
		c-4.03-1.77-7.44-4.34-10.33-7.62c-3.13-3.55-5.18-7.67-6.16-12.29c-0.3-1.41-0.6-2.83-0.7-4.26c-0.36-5.43-0.54-10.85,0.41-16.26
		c2.08-11.94,8.85-19.92,20.21-24.03c4.09-1.48,8.33-2.23,12.64-2.56C1550.09,251.76,1551.53,251.85,1552.97,251.85z"/>
	<path class="st1" d="M1185.47,343.6c0.94-1.09,1.07-2.22,1.32-3.3c6.42-27.38,12.84-54.75,19.26-82.13
		c1.32-5.63,0.84-5.21,6.52-5.24c4.31-0.02,8.63,0,12.94,0.04c0.62,0.01,1.25,0.19,1.84,0.41c0.24,0.09,0.52,0.49,0.51,0.73
		c-0.05,0.79-0.18,1.58-0.38,2.34c-1.75,6.81-3.5,13.62-5.28,20.42c-8.52,32.62-17.05,65.23-25.59,97.85
		c-0.4,1.54-0.87,3.07-1.34,4.6c-0.21,0.68-0.79,1-1.43,1.13c-0.62,0.13-1.26,0.2-1.9,0.2c-4.31,0.02-8.63,0.02-12.94,0
		c-0.63,0-1.28-0.07-1.9-0.2c-0.64-0.13-1.22-0.44-1.43-1.12c-0.43-1.37-0.86-2.74-1.23-4.13c-10.1-38.65-20.2-77.29-30.29-115.94
		c-0.4-1.54-0.74-3.1-1.09-4.66c-0.13-0.59,0.39-1.37,0.95-1.45c0.47-0.07,0.94-0.18,1.42-0.18c5.27-0.01,10.54-0.01,15.82,0
		c0.48,0,0.99,0.01,1.42,0.18c0.41,0.16,0.92,0.46,1.08,0.83c0.43,1.02,0.76,2.1,1.01,3.18c2.92,12.44,5.81,24.89,8.71,37.34
		c3.56,15.25,7.11,30.5,10.67,45.74C1184.4,341.32,1184.55,342.44,1185.47,343.6z"/>
	<path class="st1" d="M1626.35,326.1c0-15.83,0-31.66-0.01-47.49c0-1.6-0.06-3.2-0.13-4.79c-0.03-0.75-0.78-1.45-1.61-1.5
		c-1.43-0.08-2.87-0.15-4.31-0.16c-5.59-0.02-11.19,0-16.78-0.01c-1.28,0-2.56-0.03-3.83-0.11c-1.32-0.08-2-0.77-2-2.17
		c-0.03-4.96,0-9.91,0.01-14.87c0-0.16,0.05-0.31,0.07-0.47c0.07-0.59,0.65-1.25,1.19-1.34c0.47-0.08,0.94-0.2,1.42-0.21
		c1.12-0.04,2.24-0.04,3.36-0.04c21.74,0,43.48,0,65.22,0c1.44,0,2.88,0.04,4.31,0.11c1,0.05,1.75,0.83,1.75,1.92
		c0.03,4.96,0.05,9.91,0.02,14.87c-0.01,1.55-0.75,2.19-2.45,2.26c-1.28,0.06-2.56,0.06-3.84,0.06c-5.12,0.01-10.23,0-15.35,0
		c-1.12,0-2.24-0.01-3.36,0.02c-3.2,0.08-3.51,0.39-3.57,3.63c-0.03,1.44-0.01,2.88-0.01,4.32c0,31.18,0,62.37-0.01,93.55
		c0,1.76-0.07,3.51-0.15,5.27c-0.03,0.78-0.77,1.48-1.54,1.58c-0.32,0.04-0.63,0.11-0.95,0.11c-4.95,0.01-9.91,0.01-14.86-0.01
		c-0.47,0-0.98-0.1-1.38-0.31c-0.38-0.21-0.85-0.59-0.93-0.97c-0.2-0.93-0.25-1.9-0.26-2.85c-0.03-3.84-0.02-7.68-0.02-11.51
		C1626.35,352.01,1626.35,339.05,1626.35,326.1z"/>
	<path class="st1" d="M1382.08,628.65c0,15.82,0.01,31.64-0.01,47.46c0,1.75-0.14,3.5-0.25,5.25c-0.04,0.58-0.68,1.24-1.21,1.32
		c-0.63,0.09-1.26,0.23-1.89,0.23c-4.47,0.02-8.95,0.02-13.42-0.01c-0.63,0-1.29-0.08-1.88-0.29c-0.39-0.15-0.81-0.55-0.96-0.94
		c-0.23-0.58-0.31-1.24-0.33-1.87c-0.05-1.76-0.05-3.51-0.05-5.27c0-30.68,0-61.36,0-92.05c0-1.6,0.02-3.2-0.03-4.79
		c-0.07-2.61-0.6-3.15-3.04-3.23c-1.28-0.04-2.56-0.03-3.83-0.03c-5.27,0-10.54,0-15.81-0.01c-1.28,0-2.56-0.03-3.83-0.1
		c-1.29-0.07-2.04-0.78-2.05-2.15c-0.04-4.95-0.01-9.9,0.01-14.85c0-0.31,0.09-0.66,0.26-0.9c0.27-0.37,0.59-0.76,0.99-0.95
		c0.41-0.2,0.93-0.21,1.41-0.22c1.44-0.04,2.87-0.05,4.31-0.05c21.09,0,42.17-0.01,63.26,0.01c1.75,0,3.51,0.08,5.26,0.16
		c0.77,0.04,1.49,0.78,1.57,1.55c0.06,0.64,0.13,1.27,0.13,1.91c0.01,3.99,0.02,7.99-0.01,11.98c-0.01,0.79-0.08,1.61-0.29,2.36
		c-0.11,0.38-0.58,0.87-0.94,0.93c-1.25,0.2-2.53,0.31-3.8,0.31c-6.07,0.03-12.14,0-18.21,0.03c-1.27,0-2.54,0.11-3.81,0.21
		c-0.54,0.04-1.22,0.72-1.26,1.28c-0.11,1.43-0.24,2.86-0.24,4.29c-0.02,10.23-0.01,20.45-0.01,30.68
		C1382.08,616.82,1382.08,622.73,1382.08,628.65z"/>
	<path class="st1" d="M1302.3,467.78c0-19.03-0.01-38.05,0-57.08c0-7.11-0.43-6.48,6.46-6.52c3.36-0.02,6.71-0.01,10.07,0.02
		c0.79,0.01,1.61,0.06,2.36,0.28c0.38,0.11,0.78,0.57,0.92,0.96c0.21,0.59,0.25,1.25,0.27,1.88c0.04,1.6,0.04,3.2,0.04,4.8
		c0,31.18,0,62.35,0.01,93.53c0,1.76,0.06,3.51,0.14,5.27c0.04,0.79,0.78,1.56,1.52,1.59c1.43,0.07,2.87,0.13,4.31,0.13
		c11.99,0.01,23.97,0,35.96,0.01c1.44,0,2.88,0,4.31,0.05c1.97,0.07,2.55,0.6,2.55,2.62c0.02,4.95-0.03,9.91-0.08,14.86
		c-0.01,0.8-0.74,1.52-1.54,1.55c-1.59,0.08-3.19,0.15-4.79,0.15c-11.99,0.01-23.97,0.01-35.96,0.01c-7.19,0-14.38,0.01-21.58-0.01
		c-1.12,0-2.23-0.06-3.35-0.14c-0.73-0.05-1.45-0.81-1.49-1.62c-0.08-1.59-0.14-3.19-0.14-4.79
		C1302.3,506.15,1302.3,486.97,1302.3,467.78z"/>
	<path class="st1" d="M1387.1,467.93c0-19.02-0.01-38.04,0.01-57.06c0-1.75,0.14-3.5,0.25-5.25c0.04-0.56,0.71-1.18,1.27-1.24
		c0.63-0.07,1.27-0.17,1.9-0.18c4.47-0.02,8.95-0.02,13.42,0c0.63,0,1.29,0.04,1.88,0.23c0.4,0.13,0.85,0.51,1,0.89
		c0.24,0.57,0.31,1.24,0.33,1.87c0.05,1.6,0.04,3.2,0.04,4.79c0,31.17,0,62.34,0.01,93.5c0,1.76,0.06,3.51,0.15,5.27
		c0.06,1.03,0.82,1.74,1.88,1.79c1.44,0.06,2.87,0.1,4.31,0.1c11.82,0.01,23.65,0,35.47,0.01c1.6,0,3.19,0.03,4.79,0.09
		c1.07,0.04,1.85,0.76,1.95,1.72c0.05,0.48,0.12,0.95,0.12,1.43c0.01,4.32,0.01,8.63-0.02,12.95c0,0.62-0.12,1.29-0.35,1.86
		c-0.16,0.39-0.59,0.82-0.97,0.92c-0.76,0.2-1.58,0.24-2.37,0.25c-3.04,0.03-6.07,0.01-9.11,0.02c-13.1,0.02-26.2,0.06-39.3,0.07
		c-4.31,0-8.63-0.04-12.94-0.09c-0.79-0.01-1.61-0.05-2.37-0.25c-0.39-0.1-0.76-0.55-0.97-0.93c-0.22-0.4-0.3-0.91-0.31-1.38
		c-0.05-1.6-0.07-3.2-0.07-4.79C1387.1,505.66,1387.1,486.79,1387.1,467.93z"/>
	<path class="st1" d="M1280.07,467.91c0,18.86,0,37.73,0,56.59c0,1.6,0.01,3.2-0.05,4.8c-0.07,1.96-0.62,2.53-2.64,2.55
		c-4.95,0.04-9.91,0.02-14.86,0.01c-0.47,0-0.99-0.03-1.41-0.22c-0.39-0.18-0.78-0.54-0.98-0.92c-0.21-0.4-0.25-0.92-0.27-1.4
		c-0.04-1.6-0.05-3.2-0.05-4.8c0-37.73,0-75.46,0-113.19c0-1.76,0.04-3.52,0.1-5.27c0.04-1.02,0.78-1.72,1.87-1.77
		c1.44-0.07,2.87-0.09,4.31-0.1c3.2-0.01,6.39-0.01,9.59,0c0.8,0,1.6,0.04,2.39,0.09c1.09,0.07,1.84,0.75,1.88,1.76
		c0.06,1.6,0.1,3.2,0.1,4.79c0.01,12.79,0,25.58,0,38.37C1280.07,455.44,1280.07,461.68,1280.07,467.91z"/>
	<path class="st2" d="M884.76,431.12c-0.77,5.82-1.62,12.16-2.42,18.5c-0.2,1.58-0.29,3.17-0.36,4.76
		c-0.03,0.67,0.85,1.56,1.55,1.62c0.95,0.08,1.92,0.2,2.86,0.11c2.7-0.26,5.4-0.61,8.09-0.92c4.76-0.55,9.52-1.12,14.28-1.63
		c1.42-0.15,2.86-0.16,4.3-0.17c0.23,0,0.56,0.3,0.66,0.54c0.1,0.25,0.1,0.67-0.05,0.89c-0.83,1.17-1.69,2.33-2.59,3.44
		c-4.43,5.47-8.83,10.96-13.34,16.36c-2.17,2.59-1.81,4.2,1.26,5.42c6.53,2.6,13.08,5.17,19.61,7.78c1.78,0.71,3.52,1.51,5.25,2.32
		c0.22,0.1,0.41,0.53,0.39,0.8c-0.01,0.25-0.25,0.6-0.48,0.72c-0.84,0.45-1.71,0.86-2.6,1.21c-6.69,2.65-13.38,5.27-20.07,7.93
		c-1.33,0.53-2.64,1.14-3.92,1.78c-0.74,0.37-1.14,1.88-0.67,2.57c0.81,1.18,1.66,2.35,2.56,3.46c4.42,5.47,8.87,10.92,13.29,16.39
		c0.6,0.74,1.11,1.56,1.58,2.38c0.07,0.12-0.2,0.57-0.41,0.71c-0.25,0.16-0.61,0.21-0.92,0.19c-1.44-0.07-2.88-0.12-4.3-0.29
		c-6.82-0.81-13.63-1.69-20.46-2.48c-1.42-0.16-2.86-0.11-4.29-0.09c-0.67,0.01-1.6,0.95-1.59,1.59c0.04,1.43,0.06,2.88,0.24,4.29
		c0.96,7.45,1.97,14.89,2.95,22.34c0.04,0.31-0.04,0.63-0.05,0.94c-0.01,0.37-0.78,0.8-1.14,0.6c-0.83-0.46-1.69-0.89-2.47-1.43
		c-6.29-4.39-12.57-8.81-18.86-13.2c-0.91-0.64-1.88-1.2-2.86-1.72c-0.77-0.41-2.17-0.05-2.59,0.69c-0.78,1.39-1.54,2.8-2.21,4.25
		c-2.66,5.82-5.27,11.66-7.93,17.47c-0.53,1.16-1.18,2.26-1.8,3.38c-0.29,0.51-1.32,0.44-1.61-0.12c-0.73-1.42-1.45-2.84-2.12-4.29
		c-2.75-5.95-5.46-11.92-8.22-17.87c-0.47-1.01-1.05-1.97-1.63-2.92c-0.32-0.53-1.61-0.92-2.17-0.66c-0.86,0.4-1.74,0.8-2.52,1.34
		c-3.68,2.54-7.33,5.14-11,7.71c-3.01,2.11-6.02,4.23-9.04,6.31c-0.52,0.36-1.12,0.6-1.68,0.87c-0.31,0.15-1.11-0.34-1.09-0.69
		c0.05-1.43,0.03-2.87,0.21-4.29c0.76-5.86,1.61-11.72,2.36-17.58c0.22-1.74,0.26-3.5,0.3-5.25c0.02-0.89-0.96-1.86-1.88-1.85
		c-1.75,0.02-3.51,0.06-5.25,0.24c-4.92,0.52-9.84,1.12-14.76,1.68c-2.7,0.31-5.4,0.61-8.1,0.86c-0.45,0.04-0.95-0.09-1.37-0.28
		c-0.21-0.09-0.45-0.6-0.36-0.76c0.45-0.84,0.92-1.68,1.51-2.41c4.32-5.35,8.68-10.66,13.01-16c0.9-1.11,1.77-2.26,2.59-3.44
		c0.61-0.89,0.21-2.43-0.77-2.94c-1.27-0.66-2.57-1.29-3.9-1.82c-6.1-2.41-12.21-4.76-18.31-7.17c-1.48-0.58-2.92-1.28-4.35-1.99
		c-0.19-0.09-0.24-0.54-0.29-0.83c-0.02-0.11,0.11-0.32,0.23-0.38c1.43-0.69,2.85-1.42,4.32-2.01c6.23-2.5,12.48-4.94,18.72-7.43
		c1.18-0.47,2.34-1.02,3.48-1.6c1-0.51,1.45-2.01,0.87-2.91c-0.69-1.07-1.44-2.11-2.24-3.1c-4.52-5.6-9.07-11.17-13.58-16.77
		c-0.49-0.61-0.88-1.31-1.22-2.02c-0.08-0.17,0.16-0.6,0.37-0.77c0.23-0.18,0.59-0.28,0.89-0.28c0.96,0,1.92,0.01,2.87,0.11
		c6.98,0.78,13.97,1.61,20.95,2.38c1.58,0.18,3.18,0.26,4.77,0.31c0.9,0.03,1.86-0.94,1.83-1.87c-0.06-1.75-0.11-3.52-0.33-5.25
		c-0.78-6.02-1.64-12.03-2.44-18.05c-0.15-1.1-0.15-2.23-0.21-3.34c-0.03-0.54,0.34-1.09,0.72-1.09c0.31,0,0.68-0.07,0.92,0.08
		c1.22,0.75,2.43,1.54,3.61,2.36c5.51,3.84,11.01,7.69,16.52,11.53c1.05,0.73,2.12,1.43,3.21,2.09c0.97,0.58,2.42,0.22,2.96-0.73
		c0.48-0.83,0.92-1.68,1.32-2.55c2.85-6.26,5.67-12.53,8.54-18.77c0.6-1.3,1.35-2.52,2.05-3.77c0.2-0.35,1.05-0.33,1.24,0.02
		c0.68,1.26,1.43,2.49,2.03,3.79c2.68,5.81,5.31,11.64,7.98,17.45c0.6,1.3,1.25,2.59,1.95,3.84c0.52,0.93,2.02,1.34,2.97,0.81
		c0.97-0.54,1.92-1.15,2.83-1.79c6.16-4.3,12.3-8.63,18.46-12.93c0.78-0.55,1.6-1.05,2.44-1.49c0.22-0.12,0.66-0.05,0.87,0.1
		c0.22,0.16,0.41,0.54,0.39,0.81C885.08,428.38,884.93,429.49,884.76,431.12z"/>
	<path class="st2" d="M835.1,296.45c0.89-0.06,1.41,0.28,1.83,0.78c1.54,1.83,3.04,3.7,4.61,5.52c0.62,0.72,1.34,1.36,2.04,2
		c0.39,0.36,1.39,0.4,1.81,0.08c0.62-0.49,1.28-0.96,1.79-1.56c1.55-1.83,3.02-3.72,4.57-5.55c0.4-0.47,0.95-0.83,1.49-1.13
		c0.18-0.1,0.68,0.03,0.81,0.21c0.36,0.51,0.69,1.07,0.87,1.67c0.69,2.3,1.28,4.62,1.97,6.91c0.18,0.6,0.5,1.16,0.82,1.71
		c0.36,0.62,1.49,1.04,2.11,0.78c0.88-0.36,1.76-0.74,2.61-1.18c2.27-1.17,4.51-2.41,6.78-3.57c0.98-0.5,1.91,0.24,1.79,1.38
		c-0.05,0.48-0.1,0.95-0.18,1.42c-0.1,0.63-0.24,1.25-0.35,1.88c-0.24,1.42-0.48,2.83-0.69,4.25c-0.07,0.47-0.04,0.95-0.04,1.43
		c0.01,1.14,1.05,2.16,2.19,2.04c3.02-0.33,6.02-0.74,9.04-1.07c0.61-0.07,1.26,0.03,1.86,0.17c0.22,0.05,0.5,0.48,0.49,0.72
		c-0.03,0.46-0.16,0.96-0.39,1.35c-0.88,1.52-1.83,3-2.74,4.5c-0.58,0.96-1.18,1.9-1.69,2.9c-0.72,1.4-0.21,2.65,1.18,3.09
		c1.67,0.53,3.4,0.89,5.09,1.34c1.54,0.41,3.07,0.84,4.61,1.28c0.58,0.17,0.81,1.21,0.33,1.58c-1.38,1.08-2.78,2.13-4.18,3.19
		c-1.27,0.97-2.57,1.89-3.8,2.91c-0.85,0.7-0.75,2.23,0.1,2.99c0.12,0.11,0.23,0.22,0.36,0.32c6.11,4.46,5.37,4.67,11.63,0.62
		c10.21-6.6,18.59-15.05,25.13-25.32c0.59-0.93,1.31-1.79,1.99-2.66c0.06-0.08,0.32-0.06,0.45,0c0.12,0.05,0.29,0.23,0.28,0.33
		c-0.3,2.04-0.5,4.11-0.98,6.11c-3.26,13.56-9.89,25.22-19.96,34.87c-11.63,11.16-25.48,17.95-41.28,20.92
		c-4.41,0.83-8.87,1.08-13.32,1.52c-4.81,0.48-9.58-0.23-14.31-0.97c-12.84-2-24.63-6.71-35.14-14.4
		c-14.77-10.8-24.42-25.05-28.48-42.97c-0.31-1.39-0.76-2.79-0.34-4.24c0.04-0.12,0.17-0.26,0.29-0.31
		c0.14-0.06,0.39-0.09,0.46-0.01c0.61,0.73,1.26,1.43,1.76,2.23c4.22,6.67,9.37,12.53,15.28,17.74c3.72,3.29,7.71,6.21,12,8.72
		c0.82,0.48,1.67,0.97,2.57,1.27c0.56,0.19,1.33,0.22,1.85-0.02c2.04-0.93,3.84-2.26,5.41-3.88c0.63-0.65,0.63-2.01-0.06-2.63
		c-0.82-0.75-1.69-1.45-2.58-2.13c-1.78-1.35-3.59-2.65-5.38-3.99c-0.52-0.39-0.38-1.37,0.2-1.6c0.44-0.17,0.87-0.39,1.33-0.5
		c1.86-0.47,3.73-0.87,5.59-1.36c1.08-0.28,2.14-0.64,3.19-1.03c0.78-0.29,1.35-1.65,1.05-2.45c-0.22-0.59-0.46-1.19-0.79-1.73
		c-1.08-1.77-2.21-3.52-3.31-5.28c-0.25-0.41-0.52-0.81-0.73-1.24c-0.2-0.42-0.49-0.94-0.11-1.33c0.29-0.3,0.81-0.59,1.19-0.55
		c2.7,0.29,5.38,0.68,8.08,1.03c0.63,0.08,1.27,0.14,1.9,0.15c1.15,0.02,2.21-0.93,2.21-2.08c0-1.11-0.08-2.23-0.21-3.33
		c-0.21-1.74-0.53-3.47-0.74-5.22c-0.09-0.74-0.36-1.64,0.55-2.11c0.65-0.33,1.24,0.12,1.78,0.41c1.97,1.05,3.92,2.16,5.9,3.2
		c0.84,0.45,1.73,0.82,2.61,1.18c0.82,0.33,2.04-0.2,2.43-1.05c0.33-0.72,0.65-1.46,0.87-2.22c0.55-1.84,1-3.7,1.57-5.53
		C834.31,298.07,834.76,297.23,835.1,296.45z"/>
	<path class="st1" d="M970.26,581.09c0,2.22-0.33,4.1-1.04,5.91c-0.53,1.34-1.09,2.66-1.64,3.99c-0.74,1.77-1.3,3.59-1.68,5.49
		c-0.83,4.25,0.36,7.91,3.17,11.07c1.16,1.31,2.47,2.5,3.74,3.71c1.89,1.8,3.19,3.96,4.17,6.36c0.67,1.66,0.94,3.36,0.98,5.14
		c0.05,2.09-0.52,3.69-2.56,4.69c-1.86,0.91-3.59,2.07-5.36,3.16c-2.61,1.6-4.83,3.65-6.77,6.02c-2.24,2.73-4.24,5.6-5.82,8.77
		c-0.92,1.86-1.84,3.73-2.75,5.59c-2.41,4.96-3.67,10.19-3.94,15.69c-0.16,3.35-0.44,6.69-0.69,10.04c-0.05,0.63-0.2,1.26-0.33,1.88
		c-0.1,0.5-0.96,1.02-1.51,0.93c-0.31-0.05-0.64-0.05-0.94-0.14c-0.61-0.17-1.22-0.38-1.83-0.58c-8.77-2.99-17.64-5.67-26.6-8.01
		c-8.57-2.24-16.6-5.75-24.23-10.18c-9.79-5.68-8.27-4.58-15.98-12.06c-4.13-4-8.15-8.12-12.11-12.29
		c-1.98-2.08-3.73-4.37-5.56-6.59c-0.4-0.49-0.66-1.09-0.95-1.66c-0.35-0.67,0.02-1.77,0.67-2.06c0.44-0.19,0.87-0.45,1.32-0.54
		c11.98-2.59,22.96-7.81,33.88-13.11c17.97-8.72,35.5-18.27,52.57-28.67c4.36-2.66,8.8-5.2,13.23-7.75
		c1.24-0.72,2.54-1.33,3.84-1.93c0.85-0.39,1.9-0.01,2.57,0.75C969.81,576.64,970.5,578.86,970.26,581.09z"/>
	<path class="st0" d="M1181.4,441.33c0-4.64-0.01-9.27,0.01-13.91c0.01-0.95,0.08-1.92,0.29-2.85c0.08-0.37,0.59-0.8,0.98-0.91
		c0.75-0.21,1.57-0.29,2.36-0.29c6.23-0.02,12.47-0.01,18.7,0c0.32,0,0.64,0.02,0.96,0.02c5.62,0.08,10.26,3.57,11.88,9.98
		c0.23,0.92,0.37,1.9,0.38,2.85c0.04,3.52,0.05,7.03,0,10.55c-0.03,1.94-0.5,3.81-1.37,5.55c-1.92,3.87-5.05,6.1-9.32,6.7
		c-0.95,0.13-1.91,0.14-2.87,0.15c-6.07,0.01-12.15,0.02-18.22,0c-0.79,0-1.59-0.12-2.37-0.22c-0.55-0.07-1.16-0.72-1.2-1.32
		c-0.08-1.11-0.18-2.23-0.19-3.34C1181.38,449.96,1181.39,445.65,1181.4,441.33C1181.4,441.33,1181.4,441.33,1181.4,441.33z"/>
	<path class="st3" d="M1444.26,592.31c0-4.62-0.02-9.25,0.01-13.87c0.01-0.95,0.11-1.91,0.33-2.83c0.09-0.37,0.58-0.77,0.97-0.92
		c0.58-0.21,1.24-0.29,1.87-0.29c6.38-0.02,12.75-0.01,19.13-0.01c0.48,0,0.96,0.01,1.43,0.05c7.2,0.74,10.45,5.57,11.51,10.45
		c0.17,0.78,0.29,1.58,0.29,2.37c0.03,3.51,0.06,7.01,0,10.52c-0.04,2.27-0.67,4.4-1.79,6.39c-1.56,2.77-3.82,4.69-6.9,5.52
		c-1.22,0.33-2.5,0.64-3.75,0.66c-6.85,0.07-13.71,0.04-20.56,0.03c-0.31,0-0.63-0.09-0.94-0.14c-0.7-0.11-1.43-0.9-1.48-1.66
		c-0.07-1.11-0.12-2.23-0.13-3.34C1444.25,600.93,1444.26,596.62,1444.26,592.31C1444.26,592.31,1444.26,592.31,1444.26,592.31z"/>
	<path class="st0" d="M1085.34,592.46c0-3.99-0.01-7.98,0-11.96c0-1.28,0.01-2.55,0.07-3.83c0.07-1.56,0.75-2.17,2.44-2.26
		c0.16-0.01,0.32-0.02,0.48-0.02c6.54,0,13.08-0.05,19.61,0.03c4.21,0.05,7.77,1.6,10.31,5.11c1.34,1.85,2.1,3.93,2.46,6.16
		c0.1,0.63,0.18,1.27,0.18,1.9c0.02,3.35,0.02,6.7,0,10.05c-0.01,1.94-0.47,3.8-1.3,5.55c-1.59,3.35-4.09,5.63-7.74,6.6
		c-1.71,0.46-3.44,0.63-5.2,0.63c-5.74-0.01-11.48,0.01-17.22-0.01c-0.95,0-1.91-0.1-2.83-0.31c-0.38-0.09-0.86-0.56-0.94-0.93
		c-0.21-0.92-0.29-1.89-0.3-2.83C1085.33,601.71,1085.35,597.09,1085.34,592.46C1085.35,592.46,1085.35,592.46,1085.34,592.46z"/>
	<path class="st3" d="M1349.76,289.68c0-4.48-0.01-8.95,0.01-13.43c0-0.8,0.07-1.6,0.14-2.39c0.07-0.79,0.78-1.52,1.52-1.61
		c0.47-0.05,0.95-0.14,1.43-0.14c6.39-0.01,12.78-0.01,19.17-0.01c0.32,0,0.64,0,0.96,0.03c6.02,0.47,10.09,3.84,11.69,9.66
		c0.95,3.45,0.99,13.18,0.09,16.66c-1.4,5.35-4.83,8.5-10.26,9.45c-0.94,0.16-1.91,0.21-2.86,0.22c-6.07,0.02-12.14,0.02-18.21,0.01
		c-0.79,0-1.61-0.06-2.37-0.27c-0.38-0.11-0.84-0.57-0.94-0.96c-0.22-0.92-0.34-1.88-0.34-2.83
		C1349.75,299.27,1349.76,294.48,1349.76,289.68z"/>
	<path class="st0" d="M1550.16,514.86c-4.16,0.17-7.38-1.89-9.81-5.38c-1.57-2.26-2.61-4.79-3.02-7.48
		c-0.8-5.24-0.82-10.48,0.47-15.67c1.27-5.09,3.92-9.37,7.72-12.96c0.89-0.84,1.78-0.81,2.42,0.09c0.37,0.52,0.73,1.04,1.07,1.58
		c5.44,8.63,10.88,17.26,16.31,25.89c0.51,0.81,1.01,1.63,1.38,2.5c0.17,0.39,0.18,1.03-0.04,1.36c-2.73,4.25-6.15,7.7-11.07,9.37
		C1553.9,514.73,1552.16,514.86,1550.16,514.86z"/>
	<path class="st3" d="M1561.24,428.21c0.09,4.15-0.75,8.68-2.54,13.01c-1.23,2.97-2.82,5.72-5.42,7.75
		c-0.31,0.24-1.09,0.24-1.33-0.01c-0.11-0.11-0.26-0.2-0.35-0.32c-0.29-0.38-0.6-0.75-0.83-1.17c-3.97-7.34-5.93-15.12-5.2-23.49
		c0.14-1.6,0.39-3.18,1.03-4.66c0.38-0.87,0.79-1.76,1.35-2.52c2.55-3.49,7.46-3.68,10.4-0.46c0.88,0.96,1.45,2.08,1.9,3.29
		C1561.21,422.24,1561.24,424.95,1561.24,428.21z"/>
	<path class="st0" d="M1576.2,619.43c0,7.99,0,15.98,0,23.97c0,2.24-0.13,4.47-0.57,6.67c-0.41,2.06-1.11,4-2.13,5.83
		c-1.86,3.34-4.58,5.73-8.14,7.09c-4.3,1.66-8.72,1.82-13.17,0.69c-6.31-1.61-10.17-5.74-12.01-11.85c-0.6-1.98-0.98-4.04-0.96-6.14
		c0.01-0.96-0.02-1.92-0.02-2.88c0-15.82,0-31.64,0-47.46c0-2.4-0.04-4.8,0.56-7.15c0.16-0.62,0.24-1.26,0.42-1.87
		c1.85-6.17,5.85-10.19,12.1-11.77c3.61-0.91,7.32-0.91,10.92,0.03c6.45,1.67,10.44,5.91,12.14,12.31c0.66,2.48,0.87,5.03,0.86,7.6
		C1576.18,602.81,1576.2,611.12,1576.2,619.43z"/>
</g>
</svg>
