<svg xmlns="http://www.w3.org/2000/svg" viewBox="0 0 1428.66 775.44"><defs><style>.cls-1{fill:#dc143c;}.cls-2{fill:#003893;}.cls-3{fill:#dad6c5;}</style></defs><title>Asset 1</title><g id="Layer_2" data-name="Layer 2"><g id="Layer_1-2" data-name="Layer 1"><path class="cls-1" d="M8.82,470.37q-2.67-12.18-4.49-24.51Q2.76,435.2,1.77,424.44c-.68-7.33-1.14-14.66-1.45-22-.45-10.87-.44-21.76.09-32.62.45-9.25,1.09-18.5,2.27-27.71.89-7,1.83-13.94,3-20.87A384.47,384.47,0,0,1,79.94,151.65a391.57,391.57,0,0,1,68.27-69.08A386.2,386.2,0,0,1,273.13,17,387.52,387.52,0,0,1,315,6.67q14.61-2.76,29.37-4.4c5.23-.58,10.49-1,15.75-1.39C370.93,0,381.79,0,392.66,0c5.11,0,10.24.08,15.34.37,5.58.31,11.14.86,16.71,1.36,3.34.3,6.68.68,10,1.05a349.83,349.83,0,0,1,37.76,6.43A384.65,384.65,0,0,1,631.07,86.06,390.39,390.39,0,0,1,714.16,179a384.29,384.29,0,0,1,49.75,116.28q3.87,15.86,6.4,31.95c1.45,9.31,2.49,18.68,3.29,28.09.88,10.37,1,20.76,1.44,31.14.1,2.71,0,5.44-.14,8.15-.22,6.23-.38,12.47-.76,18.69-.31,5.1-.91,10.19-1.36,15.28-.18,2.07-.33,4.14-.49,6.21-.61.14-1.25.43-1.83,0-1.77-1.37-3.51-2.78-5.28-4.14-5.45-4.18-10.8-8.5-16.62-12.19A69.31,69.31,0,0,0,737.91,413a31.65,31.65,0,0,0-14.07-2.26,12.33,12.33,0,0,0-5.08,1.23c-3,1.53-6,3-8.91,4.67-6.09,3.51-12.11,7.14-18.15,10.73C681,433.71,670.06,439.68,659,445.45c-10.2,5.33-20.54,10.36-31.22,14.65-3,1.19-6,2.27-9,3.18-3.83,1.14-7.72,2.08-11.93,1.28-.48-.47-1.07-1-1.63-1.57q-7.38-7.53-14.76-15.09c-1.12-1.14-2.24-2.29-3.28-3.5a280.32,280.32,0,0,0-23.62-24.51c-7.43-6.8-15-13.47-22.47-20.2a135.77,135.77,0,0,1-11.46-10.91q-5.88-6.64-11.49-13.52A411.76,411.76,0,0,1,493,340.79a174.32,174.32,0,0,0-26-31.26c-4.81-4.53-10-8.49-16.12-11-1.47-.61-2.91-1.32-4.35-2a97.57,97.57,0,0,1-10.07-5.54c-6.2-4-12.31-8-18.25-12.36a106.57,106.57,0,0,0-9.61-6.3c-4.16-2.4-8.22-4.92-12.23-7.55a42.21,42.21,0,0,0-3.64-2.32c-4.41-2.29-8.49-5.1-12.67-7.76a85.73,85.73,0,0,0-16.2-8.24,40.24,40.24,0,0,0-12.13-2.56,11,11,0,0,0-6,1.42,51.26,51.26,0,0,0-8.56,6.12c-9.46,8.12-19.05,16.09-28.38,24.37-12.08,10.72-24.43,21.13-36.26,32.11-6.68,6.2-13.34,12.43-19.75,18.9A200,200,0,0,0,239,342.08c-8.52,10.59-16.73,21.42-25.06,32.15-5.78,7.45-11.52,14.93-17.32,22.37-4.42,5.67-8.91,11.3-13.36,16.95-3,3.77-5.82,7.64-8.94,11.27s-6.24,6.86-9.5,10.15a40,40,0,0,1-10.42,7.59c-3.23,1.63-6.56,2.47-10.09.72a33.49,33.49,0,0,0-3.59-1.34c-5.42-1.91-10.81-3.91-16.27-5.7-5.78-1.9-11.36-4.25-16.92-6.68-2.05-.89-4.12-1.75-6.22-2.51a53.64,53.64,0,0,0-22.07-3.52c-1.91.13-3.8.47-5.7.7a33.5,33.5,0,0,0-16.64,6.82c-3.42,2.63-6.83,5.28-10.14,8-5.52,4.61-11,9.31-16.43,14q-7.85,6.71-15.66,13.42l-4,3.41A2.24,2.24,0,0,1,8.82,470.37ZM678.23,338.55c-.17-.41-.21-.79-.42-.95a4.7,4.7,0,0,0-1.26-.65l-21.36-8.51c-1.19-.47-2.38-.93-3.56-1.43a10.3,10.3,0,0,1-1.25-.71,2.23,2.23,0,0,1-.6-2.59,19,19,0,0,1,1.14-1.53q7.71-9.49,15.43-19a11.18,11.18,0,0,0,1.13-1.53c.13-.22,0-.6-.05-.89,0-.09-.25-.18-.39-.19a12.06,12.06,0,0,0-1.9,0c-4,.4-7.95.7-11.89,1.3-3.63.55-7.31.65-10.93,1.32a15,15,0,0,1-5.72.19c-.53-.11-1.26-.76-1.27-1.27a22.56,22.56,0,0,1,0-2.85c.43-3.49.92-7,1.38-10.44q1-7.35,1.94-14.7a.58.58,0,0,0-.12-.45c-.21-.19-.57-.49-.71-.43a15,15,0,0,0-2,1.2c-6.81,4.76-13.6,9.55-20.41,14.31-3.33,2.33-4.24,2.05-6-1.8-2.93-6.39-5.82-12.8-8.75-19.19-.66-1.45-1.43-2.85-2.16-4.26-.19-.36-1-.26-1.19.15-.52,1-1.06,2-1.52,3q-4.75,10.47-9.49,21a18.14,18.14,0,0,1-.89,1.69,2.17,2.17,0,0,1-2.55.72c-.83-.47-1.64-1-2.42-1.53l-20.06-14a16.24,16.24,0,0,0-2-1.23c-.16-.08-.65.17-.73.37a3,3,0,0,0-.18,1.4c.51,4.28,1.05,8.56,1.59,12.83s1.1,8.55,1.62,12.82a6.83,6.83,0,0,1-.07,1.42c0,.53-.75,1.27-1.27,1.24-1.75-.07-3.5-.11-5.24-.3-4.28-.46-8.55-1-12.83-1.51-1.9-.23-3.8-.51-5.7-.68-2.07-.19-4.14-.31-6.21-.41a1.07,1.07,0,0,0-.8.33c-.31.46,0,.91.27,1.29s.6.75.9,1.12l14.2,17.49c.6.74,1.22,1.48,1.8,2.24a4.86,4.86,0,0,1,.41.86,2.1,2.1,0,0,1-.81,2.52q-3.51,1.54-7.06,3c-6.37,2.56-12.75,5.09-19.13,7.64a3.88,3.88,0,0,0-1.22.7.89.89,0,0,0,.08.81c1.73.81,3.46,1.61,5.24,2.31,6.24,2.46,12.5,4.87,18.74,7.33,1.19.47,2.34,1,3.48,1.59a2.09,2.09,0,0,1,.67,2.56,18.83,18.83,0,0,1-1.37,1.94q-7.41,9.11-14.83,18.21a23.35,23.35,0,0,0-1.56,2.35.45.45,0,0,0,.11.44,1.78,1.78,0,0,0,.83.32c3,.1,6-.67,9-.91,5.09-.41,10.15-1,15.2-1.77a46,46,0,0,1,5.26-.29,1.88,1.88,0,0,1,1.85,1.82c-.12,1.91-.21,3.83-.47,5.73-.8,6-1.69,12-2.5,18-.17,1.26-.16,2.55-.22,3.82,0,.41.68.93,1,.75.55-.33,1.1-.64,1.62-1l19.24-13.48c1-.73,2.11-1.45,3.2-2.11a2.19,2.19,0,0,1,2.91.85q1.1,2.13,2.09,4.31,4.29,9.36,8.56,18.74a21.43,21.43,0,0,0,1.08,2.14,1.16,1.16,0,0,0,.74.48.91.91,0,0,0,.76-.34c.62-1.12,1.21-2.25,1.74-3.41,2.71-6,5.39-11.94,8.09-17.91.59-1.31,1.22-2.61,1.88-3.88a2.25,2.25,0,0,1,3.28-.84c.68.41,1.34.87,2,1.33q4.73,3.28,9.43,6.59,5.29,3.72,10.6,7.43a8.58,8.58,0,0,0,1.62,1,2.1,2.1,0,0,0,1.29,0c.14,0,.25-.58.21-.87-1.1-8.06-2.23-16.12-3.33-24.18a31.05,31.05,0,0,1-.18-3.35,1.77,1.77,0,0,1,1.56-1.57,39.73,39.73,0,0,1,5.24.28c4.1.65,8.22,1.06,12.34,1.55,2.06.25,4.11.52,6.18.73s4.14.36,6.21.53a1.2,1.2,0,0,0,.46-.07.85.85,0,0,0,.37-.22.61.61,0,0,0,0-.86Q659.25,364.28,651,354c-2.21-2.73-1.91-3.83,1.49-5.18,7.57-3,15.16-6,22.73-9C676.23,339.51,677.22,339,678.23,338.55ZM588.41,143.29c-.39,1.17-.78,2.21-1.09,3.27-.49,1.69-.92,3.39-1.4,5.08-.22.77-.48,1.52-.77,2.26a2.07,2.07,0,0,1-2.73,1.19c-.87-.4-1.73-.83-2.57-1.29-2.11-1.14-4.19-2.32-6.3-3.45a4.93,4.93,0,0,0-1.31-.44.53.53,0,0,0-.69.52c.25,2.2.51,4.41.86,6.6a16.2,16.2,0,0,1,.35,4.28,2.11,2.11,0,0,1-2,1.75,15.16,15.16,0,0,1-1.9-.13c-3-.42-6-.86-9-1.29a4,4,0,0,0-.47.05.78.78,0,0,0-.52,1.09c1.24,2,2.48,4.09,3.76,6.12,2.86,4.53,2.57,5.25-2.78,6.57-2,.5-4,.9-6.07,1.37a8.32,8.32,0,0,0-1.32.54.88.88,0,0,0-.08,1.25l7.39,5.31c2.27,1.62,2.32,3.15-.09,4.84-5.61,3.94-4.37,4.2-10.39.43a81.36,81.36,0,0,1-25.61-25.49c-.6-.94-1.25-1.84-1.9-2.74-.06-.08-.32,0-.46,0s-.26.17-.26.25a27.43,27.43,0,0,0,.33,4.27,72.16,72.16,0,0,0,5.34,15.85,73.47,73.47,0,0,0,26.29,29.84,80.21,80.21,0,0,0,32.4,12.38,54.68,54.68,0,0,0,12.39,1c2.23-.17,4.44-.5,6.67-.57a56.15,56.15,0,0,0,10.43-1.4c15-3.3,28.26-9.92,39.33-20.67a70.9,70.9,0,0,0,20-35.38,28,28,0,0,0,1-6.11.37.37,0,0,0-.22-.28.57.57,0,0,0-.46.08c-.92,1.3-1.84,2.59-2.71,3.92A83.83,83.83,0,0,1,645.22,190a9.28,9.28,0,0,1-4.17,1.78,36.39,36.39,0,0,1-6.1-4.18,1.93,1.93,0,0,1-.14-2.6,9.75,9.75,0,0,1,1.06-1c1.43-1,2.9-2,4.32-3,1.15-.84,2.27-1.74,3.39-2.63.27-.22.09-1.13-.24-1.23s-.91-.28-1.37-.39c-3.1-.76-6.2-1.51-9.29-2.29a1.86,1.86,0,0,1-1.15-2.32,12.37,12.37,0,0,1,.85-1.71c1-1.63,2.07-3.23,3.06-4.87.57-.95,1.06-2,1.57-2.95.17-.33-.32-1-.7-1-.95.07-1.91.1-2.85.22-2.85.36-5.69.76-8.53,1.13a1.93,1.93,0,0,1-1.75-1.37,6.71,6.71,0,0,1-.09-1.89c.36-2.2.82-4.38,1.2-6.58.13-.78.15-1.58.21-2.37,0-.4-.63-.9-1-.73-1.15.55-2.31,1.08-3.43,1.67-2.26,1.19-4.5,2.42-6.76,3.6a2.23,2.23,0,0,1-2.47-1,8,8,0,0,1-.52-1.33c-.68-2.46-1.32-4.93-2-7.39a13.29,13.29,0,0,0-.74-1.75.8.8,0,0,0-1.21-.11c-1.85,2.2-3.67,4.42-5.54,6.6a21.31,21.31,0,0,1-2.06,2,1.5,1.5,0,0,1-1.78-.09c-1-1-2-2.09-2.9-3.18-1.45-1.7-2.83-3.46-4.31-5.14C589.52,143.53,589,143.49,588.41,143.29Z"/><path class="cls-2" d="M621.84,696c-.51,1.29-1.74,1.84-2.74,2.59-7.57,5.63-15.3,11-23.25,16.1a384.06,384.06,0,0,1-115.78,49.6q-18.87,4.62-38.1,7.33-10.2,1.44-20.47,2.29c-6.53.55-13.08.76-19.62,1.15-7.51.45-15,.49-22.52.24-7.82-.25-15.65-.35-23.44-1.22-4.92-.55-9.87-.85-14.78-1.41-5.08-.59-10.15-1.25-15.19-2.08q-11.34-1.87-22.58-4.32a385,385,0,0,1-150.11-69.64,392.26,392.26,0,0,1-44.73-39.83,387.77,387.77,0,0,1-69.35-98.93A374.14,374.14,0,0,1,16.23,499c-1.66-5.67-3.22-11.38-4.82-17.06a3.75,3.75,0,0,1,1.15-2.54c1-.8,1.93-1.68,2.9-2.51q17.88-15.24,35.77-30.45c3.78-3.2,7.69-6.25,11.63-9.24,3.19-2.43,3.25-2.34,6.89-.92.74.29,1.51.53,2.25.84a75.16,75.16,0,0,1,12.71,6.69,19.61,19.61,0,0,1,4.74,4,4.51,4.51,0,0,1,.88,1.66,5,5,0,0,1-.33,3.74,17.61,17.61,0,0,1-2.12,3.18,62.13,62.13,0,0,1-8.54,8.39c-3.71,2.86-6.64,6.45-9.56,10.05a19.69,19.69,0,0,0-3.13,5.9,2.92,2.92,0,0,0,.18,2.33,10.69,10.69,0,0,0,1,1.61,3,3,0,0,0,2.46,1.26c1.76,0,3.52,0,5.27-.08,4.46-.25,8.92-.6,13.39-.83a170.85,170.85,0,0,0,24.68-3.25,36.39,36.39,0,0,0,7.32-2.24,82.39,82.39,0,0,0,27.89-19.91c1.74-1.88,3.49-3.74,5.29-5.56a39.87,39.87,0,0,1,7.49-5.94,55,55,0,0,0,6.54-4.84,107.61,107.61,0,0,0,14.15-14.95c5.21-6.48,10.31-13,15.46-19.57q1.94-2.44,3.86-4.9l20-25.78c5.68-7.33,11.4-14.63,17-22a240.72,240.72,0,0,1,20-23.25c9.22-9.33,18.87-18.2,28.66-26.92,7-6.27,14.17-12.44,21.25-18.67,4.44-3.91,8.8-7.91,13.28-11.76,7.4-6.35,14.87-12.61,22.32-18.91.49-.41,1-.79,1.53-1.15a1.64,1.64,0,0,1,2.7.76c.52,1.17,1,2.36,1.48,3.54,2.66,6.33,5.23,12.7,8,19,1.61,3.65,3.44,7.21,5.35,10.72,4.5,8.29,9.46,16.3,14.24,24.43a68.18,68.18,0,0,0,12.64,15.57c5.63,5.21,11.07,10.63,16.59,15.95a49.37,49.37,0,0,1,5.54,6.61c2.61,3.58,2.5,4.83.19,8.69-.33.55-.72,1.06-1.07,1.59a58.18,58.18,0,0,1-7.73,9.13c-3.66,3.57-7.33,7.14-11.13,10.56a75.84,75.84,0,0,0-11.72,13.88,7.54,7.54,0,0,0-1.43,4.95,26.7,26.7,0,0,0,2.32,9.24,67.18,67.18,0,0,0,9.31,15c2,2.48,4.1,4.9,6.18,7.33,1.67,1.94,3.33,3.88,5.07,5.76a81.82,81.82,0,0,0,11,10,108.71,108.71,0,0,0,16.54,10.54c.29.14.58.27.86.42a20.42,20.42,0,0,1,9.72,11.4c2.31,6.3,4.59,12.61,6.94,18.89,1.23,3.29,2.49,6.58,3.92,9.78a70.42,70.42,0,0,0,16.24,23.5c2.34,2.17,4.71,4.32,7.15,6.39a34,34,0,0,1,8.57,10.2A39.45,39.45,0,0,0,495.54,553a103.55,103.55,0,0,0,22.59,12.48c4.3,1.7,8.66,3.27,12.9,5.14a51.3,51.3,0,0,1,10.85,7,11.71,11.71,0,0,1,2.82,3.24,49.23,49.23,0,0,1,5,10.86c1.61,5.35,3.33,10.68,4.94,16a109.46,109.46,0,0,0,3.67,10.39,152.73,152.73,0,0,1,6.17,17.63,60.47,60.47,0,0,0,6.18,14,112.13,112.13,0,0,0,13.06,17.72A90.7,90.7,0,0,0,601.23,683c4.51,3,9.08,6,13.66,8.88C617.13,693.29,619.5,694.61,621.84,696Z"/><path class="cls-3" d="M621.84,696c-2.34-1.38-4.71-2.7-7-4.16-4.58-2.92-9.15-5.86-13.66-8.88a90.67,90.67,0,0,1-17.52-15.56,111.06,111.06,0,0,1-13.06-17.72,60.47,60.47,0,0,1-6.18-14,148.42,148.42,0,0,0-6.17-17.63,104.91,104.91,0,0,1-3.67-10.39c-1.61-5.35-3.33-10.67-4.94-16a49.23,49.23,0,0,0-5-10.86,11.57,11.57,0,0,0-2.82-3.24,50.91,50.91,0,0,0-10.85-7c-4.25-1.87-8.6-3.43-12.9-5.14A103.09,103.09,0,0,1,495.49,553a39.36,39.36,0,0,1-12.4-13.76,34,34,0,0,0-8.57-10.2c-2.43-2.07-4.8-4.22-7.15-6.39a70.42,70.42,0,0,1-16.24-23.5c-1.42-3.21-2.69-6.49-3.92-9.78-2.35-6.28-4.63-12.59-6.94-18.89a20.42,20.42,0,0,0-9.72-11.4c-.28-.15-.57-.28-.86-.42a107.19,107.19,0,0,1-16.54-10.54,81.21,81.21,0,0,1-11-10c-1.74-1.88-3.4-3.82-5.07-5.76-2.08-2.43-4.16-4.85-6.18-7.33a67.63,67.63,0,0,1-9.31-15,26.87,26.87,0,0,1-2.32-9.24,7.65,7.65,0,0,1,1.43-5,75.51,75.51,0,0,1,11.72-13.88c3.8-3.42,7.47-7,11.13-10.56a58.18,58.18,0,0,0,7.73-9.13c.36-.53.75-1,1.07-1.59,2.31-3.87,2.42-5.11-.19-8.69a49.25,49.25,0,0,0-5.54-6.61c-5.53-5.32-11-10.74-16.59-15.95a68.44,68.44,0,0,1-12.64-15.57c-4.78-8.13-9.74-16.14-14.24-24.43-1.9-3.51-3.74-7.07-5.35-10.72-2.77-6.28-5.35-12.65-8-19-.49-1.18-1-2.37-1.48-3.54a1.65,1.65,0,0,0-2.7-.76c-.52.37-1,.74-1.53,1.15-7.45,6.29-14.92,12.56-22.32,18.91-4.49,3.85-8.84,7.85-13.28,11.76-7.08,6.23-14.2,12.4-21.25,18.67-9.79,8.71-19.45,17.59-28.66,26.92a238,238,0,0,0-20,23.25c-5.62,7.38-11.34,14.67-17,22l-20,25.78c-1.27,1.64-2.57,3.27-3.86,4.9-5.15,6.53-10.25,13.09-15.46,19.57a107.61,107.61,0,0,1-14.15,15,55,55,0,0,1-6.54,4.84A39.87,39.87,0,0,0,154.1,454c-1.79,1.82-3.55,3.68-5.29,5.56a82.53,82.53,0,0,1-27.89,19.91,36.2,36.2,0,0,1-7.32,2.24A170.66,170.66,0,0,1,88.92,485c-4.47.22-8.93.58-13.39.83-1.75.1-3.51.07-5.27.08a3,3,0,0,1-2.46-1.26,11.8,11.8,0,0,1-1-1.61,3,3,0,0,1-.18-2.33,19.57,19.57,0,0,1,3.13-5.9c2.92-3.6,5.85-7.19,9.56-10a62.13,62.13,0,0,0,8.54-8.39A17.61,17.61,0,0,0,90,453.15a5,5,0,0,0,.33-3.74,4.51,4.51,0,0,0-.88-1.66,19.8,19.8,0,0,0-4.74-4A75.89,75.89,0,0,0,72,437.05c-.74-.3-1.5-.55-2.25-.84-3.64-1.42-3.7-1.5-6.89.92-3.94,3-7.85,6.05-11.63,9.24q-17.94,15.17-35.77,30.45c-1,.83-1.9,1.71-2.9,2.51a3.84,3.84,0,0,0-1.15,2.54,2,2,0,0,1-.7-1.63,17.87,17.87,0,0,0-.75-5,31.91,31.91,0,0,0-1.13-4.9,2.27,2.27,0,0,0,1.79-.45c1.34-1.14,2.69-2.26,4-3.41q7.83-6.7,15.66-13.42c5.47-4.67,10.91-9.38,16.43-14,3.31-2.76,6.72-5.42,10.14-8a33.6,33.6,0,0,1,16.64-6.82c1.9-.23,3.79-.57,5.7-.7a53.64,53.64,0,0,1,22.07,3.52c2.1.76,4.17,1.62,6.22,2.51,5.56,2.43,11.15,4.78,16.92,6.68,5.46,1.79,10.85,3.79,16.27,5.7a30.34,30.34,0,0,1,3.59,1.34c3.53,1.75,6.85.91,10.09-.72A40,40,0,0,0,164.75,435c3.26-3.29,6.49-6.64,9.5-10.15s6-7.51,8.94-11.27c4.45-5.65,8.94-11.28,13.36-16.95,5.8-7.44,11.54-14.92,17.32-22.37,8.33-10.74,16.54-21.57,25.06-32.15a200,200,0,0,1,13.8-15.31c6.41-6.47,13.07-12.71,19.75-18.9,11.84-11,24.19-21.4,36.26-32.11,9.33-8.28,18.91-16.25,28.38-24.37a52.1,52.1,0,0,1,8.56-6.12,11,11,0,0,1,6-1.42,40.24,40.24,0,0,1,12.13,2.56,85.44,85.44,0,0,1,16.2,8.24c4.18,2.65,8.26,5.47,12.67,7.76,1.27.66,2.43,1.53,3.64,2.32q6,3.94,12.23,7.55a105.17,105.17,0,0,1,9.61,6.3c5.94,4.34,12.05,8.41,18.25,12.36a97.57,97.57,0,0,0,10.07,5.54c1.44.7,2.88,1.4,4.35,2,6.15,2.55,11.31,6.52,16.12,11a173.14,173.14,0,0,1,26,31.26,411.76,411.76,0,0,0,25.13,34.47q5.61,6.87,11.49,13.52A135.77,135.77,0,0,0,541,399.71c7.5,6.73,15,13.4,22.47,20.2a281.79,281.79,0,0,1,23.62,24.51c1,1.21,2.16,2.35,3.28,3.5q7.36,7.56,14.76,15.09c.55.57,1.14,1.1,1.63,1.57,4.2.81,8.1-.13,11.93-1.28,3-.91,6.07-2,9-3.18,10.68-4.29,21-9.32,31.22-14.65,11-5.77,22-11.75,32.69-18.11,6-3.59,12.07-7.21,18.15-10.73,2.9-1.67,5.92-3.14,8.91-4.67a12.33,12.33,0,0,1,5.08-1.23A31.79,31.79,0,0,1,737.86,413a71.14,71.14,0,0,1,10.65,5.43c5.82,3.69,11.16,8,16.62,12.19,1.78,1.36,3.51,2.77,5.28,4.14.58.45,1.22.16,1.83,0-.11,2.21-.9,4.3-.91,6.57s-1.1,4.31-.94,6.58c-1.13,2.68-.57,5.71-1.7,8.39-.42,4.77-1.82,9.34-2.72,14-1.41,7.34-3.6,14.49-5.16,21.78-.07.31-.16.62-.25.92-2.71,8.65-5.25,17.36-8.34,25.9-1.78,4.94-3.73,9.82-5.67,14.71-2.59,6.52-5.46,12.91-8.53,19.22-1.67,3.43-3,7-4.86,10.4-1.36,2.53-2.76,5-4.15,7.54s-2.52,5.15-4.16,7.54c-1.44,2.1-2.47,4.45-3.79,6.64-5,8.34-10.2,16.54-15.78,24.49-3.11,4.42-6.27,8.81-9.52,13.14-3,4.07-6.53,7.81-9.42,12a21,21,0,0,1-2.28,2.45,15.39,15.39,0,0,0-3,3.69,2.71,2.71,0,0,1-.57.77c-3.47,3.09-6,7-9.27,10.31q-10,10-20,20a20.68,20.68,0,0,1-4,3.41,12.78,12.78,0,0,0-2.17,1.87c-2,1.86-3.73,4-6.14,5.29a1.79,1.79,0,0,0-.37.31,130.36,130.36,0,0,1-11.7,9.81C625.27,693.74,623.81,695.21,621.84,696ZM723.71,428.61c.06-3.23-.33-4.38-2.27-6.79a2,2,0,0,0-2.55-.53c-1.43.7-2.87,1.4-4.25,2.2-4.56,2.65-9.08,5.36-13.63,8-7.17,4.18-14.29,8.45-21.55,12.48-7,3.87-14.08,7.53-21.17,11.2-7.66,4-15.4,7.75-23.36,11.07-6.34,2.64-12.7,5.23-19.5,6.48a4.77,4.77,0,0,0-1.79.62,1.45,1.45,0,0,0-.52,1.2,3.94,3.94,0,0,0,.77,1.72c1.89,2.37,3.7,4.83,5.78,7,4.29,4.52,8.76,8.87,13.09,13.34a60.82,60.82,0,0,0,14.07,10.67c8,4.47,16.14,8.37,25,10.71,9.57,2.53,19.06,5.34,28.4,8.63.3.11.6.21.91.29.15,0,.32.05.47.08a1.33,1.33,0,0,0,1.73-1.12c.29-4.14.6-8.28.84-12.42A38.44,38.44,0,0,1,707,500.9a79.21,79.21,0,0,1,5.53-11.15c2.86-4.66,6.19-8.94,11-11.83,1.64-1,3.29-2,5-2.91,3-1.69,2.95-1.68,3-5.3a12.93,12.93,0,0,0-1.13-5.11,17.32,17.32,0,0,0-3.95-5.93,50.33,50.33,0,0,1-4.09-4,12.38,12.38,0,0,1-3-10.67,34.3,34.3,0,0,1,2.62-7.68A17.85,17.85,0,0,0,723.71,428.61Z"/><path class="cls-3" d="M1014.89,598.1H989a20.18,20.18,0,0,0-6.17.62,13.3,13.3,0,0,1-3.8.26c-6.23,0-12.47,0-18.7.08a17.7,17.7,0,0,0-5.2.6,16.74,16.74,0,0,1-4.27.33,32.06,32.06,0,0,0-7.6.68c-1.8.49-3.81.23-5.72.29-2.22.07-4.46-.17-6.62.74a6.63,6.63,0,0,1-2.37.21,19.16,19.16,0,0,0-5.2.65,17.86,17.86,0,0,1-4.28.32,16.7,16.7,0,0,0-5.19.65c-1.16.42-2.58.07-3.78.44a26.22,26.22,0,0,1-7.57.87,5.4,5.4,0,0,0-1.88.28,12,12,0,0,1-3.75.68,23,23,0,0,0-2.81.5c-.62.12-1.24.28-1.87.35-2.06.23-4.2-.29-6.18.49s-4.15.3-6.07,1.26a4.87,4.87,0,0,1-1.89.2c-2.38.1-4.78-.08-7.09.84a8.06,8.06,0,0,1-2.38.17,10.27,10.27,0,0,0-2.85.19c-2.65.93-5.37.71-8.07.75-3.36.05-6.72-.08-10.07,0-3.71.13-7.26-.75-10.85-1.44-.62-.12-1.23-.36-1.85-.43a38.45,38.45,0,0,1-18-7.18,15.24,15.24,0,0,1-4.71-5.95,21,21,0,0,1-1.16-4.61,1.07,1.07,0,0,1,0-.47c.72-2.77,1.13-5.66,2.85-8a11.73,11.73,0,0,1,2.59-2.8c3.52-2.48,7.09-4.9,11.46-5.71a19,19,0,0,0,3.2-1,11.54,11.54,0,0,1,3.71-.82,18.38,18.38,0,0,0,2.82-.45,8,8,0,0,1,.91-.29,33.8,33.8,0,0,0,5.72-.42,22.74,22.74,0,0,1,5.67-.69c1.92,0,3.84.07,5.75,0a23.39,23.39,0,0,1,5.65.84c1.87.37,3.86-.22,5.7.44a10.29,10.29,0,0,0,4.24.58c3.56-.24,6.92.93,10.38,1.41.63.09,1.25.5,1.84.44,3.25-.32,6.29,1,9.47,1.11a19.18,19.18,0,0,1,2.33.46,21,21,0,0,0,2.83.42c1.91.09,3.85,0,5.64.83,3.67,0,7.18,1.5,10.9,1.17a8.42,8.42,0,0,1,3.77.51,7.65,7.65,0,0,0,2.34.39,15.18,15.18,0,0,1,4.72.63,8.86,8.86,0,0,0,2.84.31c1.92.06,3.84,0,5.75.08a6.84,6.84,0,0,1,2.37.2c2,.83,4.07.69,6.14.73a7.47,7.47,0,0,1,2.38.16c2.63,1,5.36.73,8.06.77,3.36.05,6.71,0,10.07.05a19.57,19.57,0,0,1,5.68.61,15.16,15.16,0,0,0,4.28.3q14.86,0,29.73,0h39.81c2.38,0,4.8.25,7.08-.77a1.23,1.23,0,0,1,.47-.09c3,.1,5.61-1,8.32-1.95a27.4,27.4,0,0,0,10.52-6.45c.79-.79,1.61-1.56,2.38-2.37a35.62,35.62,0,0,1,8.1-6.68c4.86-4.08,10.68-6.35,16.53-8.44a50.7,50.7,0,0,1,13-3.06,4.63,4.63,0,0,0,1.41-.22c1.83-.8,3.75-.68,5.67-.7a28.72,28.72,0,0,0,7.6-.69,9.18,9.18,0,0,1,4.74,0,26.38,26.38,0,0,0,7.12.66c1.28,0,2.56,0,3.84,0a9.91,9.91,0,0,1,2.84.32,14.32,14.32,0,0,0,4.73.62,9,9,0,0,1,3.76.56,4.17,4.17,0,0,0,1.39.34c4.32.21,8.42,1.57,12.63,2.36,5.79,1.09,11.35,3,17,4.55a91.66,91.66,0,0,1,9,3.26,128,128,0,0,1,13,6,39.11,39.11,0,0,1,7.6,4.93c1.33,1.14,2.87,2,4.16,3.21a33.7,33.7,0,0,1,4.71,6c.89,1.35,1,3,1.51,4.49a6.47,6.47,0,0,1-.13,4.59,19.48,19.48,0,0,1-4.83,8.12,51.36,51.36,0,0,1-10.93,8.45,71.61,71.61,0,0,1-13.79,6.54,48.66,48.66,0,0,0-4.89,1.93c-3.64,1.65-7.54,2.54-11.34,3.69s-7.36,2-11.06,2.94a20,20,0,0,1-6.09,1c-2.07.91-4.39.7-6.51,1.43a8.82,8.82,0,0,1-2.35.39c-2.07.1-4.13,0-6.14.78a8.36,8.36,0,0,1-2.85.2,13.11,13.11,0,0,0-4.25.58,8.91,8.91,0,0,1-2.83.36c-5,0-9.91,0-14.87,0a2.57,2.57,0,0,1-.48,0c-1.56-.3-3.11-.68-4.68-.88s-3.2.1-4.72-.6a2.31,2.31,0,0,0-.92-.26c-2.76,0-5.28-1-7.91-1.64s-5.08-1.83-7.67-2.61a29.33,29.33,0,0,1-4.85-2,47.68,47.68,0,0,1-6.64-3.79,44.62,44.62,0,0,1-6.4-5c-1.31-1.4-2.73-2.7-4.06-4.08a33.18,33.18,0,0,0-15.19-8.67c-2.26-.64-4.56-1.53-7-1.22a3,3,0,0,1-1.42-.14c-2.62-1-5.36-.73-8.06-.74q-12,0-24,0Z"/><path class="cls-3" d="M1175.8,656.63H1137c-1.44,0-2.88,0-4.31.09a1.83,1.83,0,0,0-.91.28,2,2,0,0,0-1.06,1.48,1.9,1.9,0,0,0,.94,1.54,5.19,5.19,0,0,0,1.36.37c1.44.06,2.88.06,4.31.06h76.26c1.44,0,2.88-.06,4.31.07a4.68,4.68,0,0,1,4.09,2.88,2.62,2.62,0,0,1-.39,3.1,4,4,0,0,1-3.3,1.63c-1.44,0-2.88,0-4.32,0h-75.3c-1.44,0-2.88,0-4.32,0a6.1,6.1,0,0,0-3.13,1.08,1.54,1.54,0,0,0-.14,2.45,5.91,5.91,0,0,0,3.08,1.18c1.44,0,2.88,0,4.32,0h75.78c1.44,0,2.88,0,4.32.05a3.73,3.73,0,0,1,1.8.52c2.61,1.77,2.53,3.62.39,5.4a6.81,6.81,0,0,1-4.41,1.64h-78.19q-2.64,0-5.28.06a3.25,3.25,0,0,0-1.4.23,1.77,1.77,0,0,0-.87,1,1.6,1.6,0,0,0,.4,1.27,4.44,4.44,0,0,0,3,1.28c1.44,0,2.88,0,4.32,0h76.26c1.44,0,2.88,0,4.31.07a3.94,3.94,0,0,1,3.42,4.4,3.64,3.64,0,0,1-2.33,2.84,13.09,13.09,0,0,1-5.54,1.33c-2.07-.09-4.16,0-6.23,0a15.88,15.88,0,0,0-4.27.5,13.09,13.09,0,0,1-3.31.38c-2.88.07-5.76,0-8.63.08a10.4,10.4,0,0,0-3.32.26,17.62,17.62,0,0,1-6.15.68c-2.39,0-4.78-.13-7.11.71a9,9,0,0,1-2.85.19c-2.72,0-5.44,0-8.15.07a16.92,16.92,0,0,0-6.15.69,8.63,8.63,0,0,1-2.85.24c-1.6,0-3.2,0-4.8,0a9.23,9.23,0,0,0-2.85.2c-2.49.87-5,.7-7.59.7q-12.23,0-24.46,0a13.93,13.93,0,0,1-5.2-.6,7.39,7.39,0,0,0-2.36-.29,9.67,9.67,0,0,1-4.22-.68,1.86,1.86,0,0,0-.93-.2,17.56,17.56,0,0,1-6.54-1.25,59,59,0,0,1-9.79-3.83,83.69,83.69,0,0,0-16.31-6.78c-2.59-.77-5.14-1.73-7.78-2.28-2.17-.46-4.36-.86-6.54-1.29a15.12,15.12,0,0,1-2.34-.45,10,10,0,0,0-3.29-.52c-2.23,0-4.46.1-6.62-.77a7.9,7.9,0,0,0-2.85-.18l-60.91,0q-8.88,0-17.75,0a14.6,14.6,0,0,0-5.2.59,8.86,8.86,0,0,1-2.83.33c-2.4,0-4.8,0-7.19,0-2.23,0-4.46-.13-6.63.7a8.39,8.39,0,0,1-2.85.24,19.5,19.5,0,0,0-5.67.69,16.83,16.83,0,0,1-4.28.28,19.75,19.75,0,0,0-6.15.69c-1.16.42-2.6,0-3.78.42a24,24,0,0,1-7.09.86,23.31,23.31,0,0,0-2.82.46c-3.3.46-6.49,1.61-9.89,1.45a4.6,4.6,0,0,0-1.89.22c-1.52.62-3.17.44-4.69.82a29.8,29.8,0,0,1-7.56.91c-2.56,1-5.36.67-8,1.46a14.73,14.73,0,0,1-2.82.39,11,11,0,0,0-2.38.17c-3,1-6,.75-9,.8-1.12,0-2.24-.05-3.36,0a16.44,16.44,0,0,0-3.29.49,11.09,11.09,0,0,1-6.15.08,11.65,11.65,0,0,0-4.24-.57,34.72,34.72,0,0,1-10.42-1.15,56.57,56.57,0,0,1-14.42-4.94c-3.06-1.62-5.26-4.13-7.46-6.65a6,6,0,0,1-1.22-2.58,18.9,18.9,0,0,0-1-3.69,2.7,2.7,0,0,1-.12-1,56.3,56.3,0,0,1,1.54-6,20.37,20.37,0,0,1,10.22-8.94,71.52,71.52,0,0,1,9.51-3.14,10.86,10.86,0,0,1,1.87-.37,13.34,13.34,0,0,0,4.23-.69,7.92,7.92,0,0,1,2.36-.3,9.79,9.79,0,0,0,2.38-.13c3.43-1.18,7-.72,10.45-.81,1.12,0,2.24,0,3.36,0,3.65.19,7.22,1.2,10.9,1.13a8.16,8.16,0,0,0,3.74.71c3.56-.23,6.92.88,10.37,1.44.63.1,1.23.36,1.86.43,2,.23,4.14-.12,6.16.67,1.78.7,3.84.19,5.59,1.16a2.61,2.61,0,0,0,.94.12c1.9.17,3.84-.18,5.69.58s3.84.23,5.59,1.18a2.22,2.22,0,0,0,.94.15,51.25,51.25,0,0,1,5.27.2c1.72.24,3.36,1,5.16.85a2.16,2.16,0,0,1,.95.09c2.6,1.08,5.35.93,8,.81,2.14-.09,4.05.89,6.12,1,1.9.08,3.81-.11,5.69.54a10.63,10.63,0,0,0,3.3.39c3,.06,6.08,0,9.11.07a19.79,19.79,0,0,1,6.16.63,12.6,12.6,0,0,0,3.8.28c5.76,0,11.51,0,17.27,0h58c2.54,0,5.12.26,7.57-.76a4.43,4.43,0,0,1,1.42-.15c2.06-.16,4.18.28,6.17-.53,1.79-.73,3.85-.26,5.58-1.25,4.76-.64,9.27-2.22,13.81-3.66a123.07,123.07,0,0,0,13.36-5.2c3.49-1.57,7.07-2.92,10.62-4.35a3.61,3.61,0,0,1,1.38-.35c2.12.06,4.07-.81,6.07-1.27a25.9,25.9,0,0,1,5.66-.73,16.41,16.41,0,0,0,5.68-.69,8.65,8.65,0,0,1,2.85-.25q11.27,0,22.54,0a8.35,8.35,0,0,1,2.84.26,16.15,16.15,0,0,0,5.68.65l8.63.07a18.14,18.14,0,0,1,5.21.59,17.24,17.24,0,0,0,4.27.33c2.54.08,5.1-.19,7.59.74a8.68,8.68,0,0,0,2.85.19c2.72,0,5.44,0,8.15.08a18.41,18.41,0,0,1,6.16.67,11,11,0,0,0,3.32.25c2.86.08,5.74-.22,8.54.77a9.34,9.34,0,0,0,2.86.16c3.52,0,7,.08,10.55.08a7.45,7.45,0,0,1,5.55,2.39,3.5,3.5,0,0,1,0,4.77,4.05,4.05,0,0,1-2.92,1.43c-1.28,0-2.56,0-3.84,0Q1195.24,656.65,1175.8,656.63Z"/><path class="cls-3" d="M914.51,315.47q0-28.55,0-57.09c0-1.6.06-3.19.16-4.79a2.36,2.36,0,0,1,1.93-1.88,23.76,23.76,0,0,1,2.39-.13c14.07,0,28.14,0,42.2,0a28.66,28.66,0,0,1,6.57,1.1,31.51,31.51,0,0,1,15.58,8.83,24.89,24.89,0,0,1,2.79,3.86c2.75,4.06,3.74,8.75,4.9,13.38a12.42,12.42,0,0,1,.15,2.87c0,4.16-.1,8.32,0,12.47A31.9,31.9,0,0,1,989,305.72a33.59,33.59,0,0,1-5.13,9.16,23.44,23.44,0,0,1-7.41,6c-1.11.63-2.25,1.2-3.37,1.83a2.21,2.21,0,0,0-1,2.47,5.73,5.73,0,0,0,.27.92c1.55,3.5,3.16,7,4.65,10.5,1.87,4.4,4,8.69,5.75,13.14,1.41,3.56,3.09,7,4.65,10.5s3.12,6.65,4.44,10.07c.81,2.09,1.78,4.1,2.66,6.14a6.93,6.93,0,0,1,.32,1.38,1.41,1.41,0,0,1-.7,1.15,3.83,3.83,0,0,1-.91.24q-9.11,0-18.22.05a3,3,0,0,1-3-2c-1.21-2.78-2.57-5.5-3.6-8.34-1.8-4.95-4.12-9.68-6-14.6-2.48-6.56-5.53-12.89-7.94-19.48-.93-2.54-2.1-5-3.21-7.47a2.63,2.63,0,0,0-2.53-1.85c-4.15.05-8.31.05-12.46.1a1.66,1.66,0,0,0-1.56,1.53c-.07,1.44-.12,2.87-.12,4.31,0,13.75,0,27.51,0,41.26,0,7.12.64,6.49-6.37,6.51-3.2,0-6.39,0-9.59,0-.64,0-1.28-.05-1.91-.11a2.4,2.4,0,0,1-2.11-2.25c-.08-1.43-.11-2.87-.11-4.31Q914.52,344,914.51,315.47Zm20.11-27h0c0,2.08,0,4.15,0,6.23,0,2.72,0,5.43,0,8.15,0,3.07.33,3.39,3.21,3.43,2.56,0,5.11,0,7.67,0,4.63,0,9.26,0,13.9,0a8,8,0,0,0,3.69-.86,18,18,0,0,0,6.27-6.4,6.42,6.42,0,0,0,.75-2.74c0-4.95.14-9.91-.06-14.86a8.94,8.94,0,0,0-2.84-6.4c-.71-.64-1.34-1.37-2.05-2a8,8,0,0,0-5.63-2.25c-7.35,0-14.69,0-22,0a6.71,6.71,0,0,0-1.88.3,1.1,1.1,0,0,0-.66.64,11.73,11.73,0,0,0-.3,2.36C934.6,278.89,934.62,283.69,934.62,288.48Z"/><path class="cls-3" d="M1235.43,529.64c-2.45-5.89-4.84-11.62-7.23-17.35-1.16-2.79-2.34-5.59-3.48-8.39-2.16-5.31-4.55-10.53-6.56-15.9-1-2.53-2.1-5-3.2-7.47-.45-1-1-2-1.61-3.06a19,19,0,0,0-2.34-.32c-3.36,0-6.71,0-10.07,0-.64,0-1.27.07-1.91.13a1.73,1.73,0,0,0-1.46,1.64c0,1.12-.08,2.24-.08,3.35q0,20.87,0,41.73c0,1.44,0,2.87-.11,4.31a1.72,1.72,0,0,1-1.54,1.56c-.64,0-1.27.11-1.91.11h-12.46a17.33,17.33,0,0,1-1.91-.12,2.48,2.48,0,0,1-2-1.83,9.77,9.77,0,0,1-.15-1.43c0-1.12,0-2.24,0-3.36q0-57.08,0-114.15c0-1.6.06-3.19.15-4.79a2.35,2.35,0,0,1,1.94-1.87c1-.08,1.91-.13,2.87-.13,12.78,0,25.57,0,38.35,0,3.08,0,6,1,9,1.3a17.07,17.07,0,0,1,3.69.93,28.47,28.47,0,0,1,4.42,1.81,21,21,0,0,1,4.77,3.15c.91.9,1.8,1.82,2.74,2.68a25,25,0,0,1,7.9,15.42c1.17,2.91.87,6,.89,9s0,6.08,0,9.11c0,1.75.13,3.53-.7,5.17,0,2.63-1.22,4.91-2.06,7.31a22.37,22.37,0,0,1-5.34,8.4c-.45.46-.93.88-1.35,1.36a18,18,0,0,1-6.52,4.76,17.89,17.89,0,0,0-2.1,1.15,2.29,2.29,0,0,0-.94,2.52c.53,1.5,1,3,1.71,4.46q5.3,11.52,10.19,23.2c1.72,4.12,3.69,8.13,5.49,12.22,1.55,3.5,3,7,4.54,10.54a16.14,16.14,0,0,1,.56,1.83,1.1,1.1,0,0,1-.64,1.14,9.73,9.73,0,0,1-1.4.23q-9.1,0-18.22,0A10.65,10.65,0,0,1,1235.43,529.64Zm-24.78-108.15c-3.2,0-6.39,0-9.59,0a9.29,9.29,0,0,0-2.36.27,1.67,1.67,0,0,0-.93,1,5.66,5.66,0,0,0-.25,1.88q0,15.11,0,30.22a5.63,5.63,0,0,0,.26,1.88,1.61,1.61,0,0,0,.94.94,14.17,14.17,0,0,0,2.84.27c5.12,0,10.23-.05,15.34,0a28.33,28.33,0,0,0,7.56-.94,11.31,11.31,0,0,0,8.5-10.36c.11-4.15-.06-8.32.08-12.47a12.84,12.84,0,0,0-1.94-6.8,9.86,9.86,0,0,0-5.31-4.62,16.4,16.4,0,0,0-6.52-1.3C1216.4,421.58,1213.52,421.49,1210.65,421.49Z"/><path class="cls-3" d="M818.53,465.86v-58c0-5.73-.25-5.54,5.45-5.54q18.94,0,37.88,0a15.57,15.57,0,0,1,3.81.26c3.08.79,6.32.93,9.27,2.13,2.51,1,4.88,2.38,7.3,3.6a3.55,3.55,0,0,1,.78.55c2.92,2.72,5.88,5.42,7.89,8.94a20.85,20.85,0,0,1,1.41,3,52.15,52.15,0,0,1,1.67,5c.49,1.84.46,3.78,1.1,5.62a9,9,0,0,1,.15,2.86c0,3.36,0,6.72,0,10.07a13.35,13.35,0,0,1-.19,3.81c-.79,2.44-.74,5-1.69,7.44a41.58,41.58,0,0,1-4.51,9,23.35,23.35,0,0,1-6.17,6,48.78,48.78,0,0,1-4.92,2.94,2.94,2.94,0,0,0-1.4,4.06c.06.15.12.29.19.44,1.56,3.49,3.23,6.94,4.66,10.49,1.79,4.44,4.12,8.63,5.73,13.15a21.3,21.3,0,0,0,1,2.17c2.12,4.29,3.95,8.71,5.71,13.16.41,1,1,2,1.44,3,1.2,2.78,2.38,5.57,3.56,8.36a1.13,1.13,0,0,1-.75,1.49,11.4,11.4,0,0,1-1.42.15c-5.91,0-11.83,0-17.74,0a3.13,3.13,0,0,1-3.23-2.28c-.3-.74-.48-1.52-.79-2.25-2.84-6.76-5.74-13.49-8.55-20.26-2.56-6.18-5-12.41-7.55-18.6-1.09-2.65-2.27-5.27-3.43-7.9a2.29,2.29,0,0,0-2.2-1.54H841a7.58,7.58,0,0,0-.94.13,1.58,1.58,0,0,0-1.24,1.27c-.07,1.43-.16,2.87-.16,4.3q0,20.14,0,40.29c0,1.12,0,2.24,0,3.36,0,3.12-.51,3.46-3.69,3.45h-6.23c-2.4,0-4.79,0-7.19,0a5.31,5.31,0,0,1-1.87-.29,1.56,1.56,0,0,1-.88-1,28.56,28.56,0,0,1-.24-3.81q0-13.9,0-27.82Q818.52,481.45,818.53,465.86Zm20.12-26.28c0,4.47,0,8.94,0,13.42,0,1.12.06,2.23.13,3.34a1.69,1.69,0,0,0,1.6,1.49c1,.05,1.91.08,2.87.09,5,0,9.9-.07,14.85,0a27.76,27.76,0,0,0,7.54-1,11.39,11.39,0,0,0,8.48-10.38c.11-4.31,0-8.63,0-12.94a10.3,10.3,0,0,0-1.2-4.59,11.78,11.78,0,0,0-4.14-5.12,15.06,15.06,0,0,0-8.09-2.43c-6.38-.15-12.77,0-19.16,0a13.62,13.62,0,0,0-1.42.13,1.58,1.58,0,0,0-1.31,1.2c-.08.95-.19,1.9-.19,2.86C838.64,430.32,838.66,435,838.65,439.58Z"/><path class="cls-3" d="M1140.13,173c.4,1.16.82,2.52,1.35,3.84.9,2.22,1.85,4.41,2.83,6.59,1.9,4.22,3.85,8.42,5.74,12.64,1.18,2.62,2.31,5.26,3.44,7.89,1.7,3.95,3.38,7.92,5.08,11.87,1.26,2.93,2.56,5.84,3.83,8.77a7.91,7.91,0,0,1,.37,1.37,1.5,1.5,0,0,1-1,1.47,17.39,17.39,0,0,1-1.9.16h-15.83a13.51,13.51,0,0,1-1.91-.11,2.32,2.32,0,0,1-1.87-1.35c-1.65-3.8-3.25-7.63-4.84-11.46-1.41-3.38-2.79-6.78-4.17-10.18-2.63-6.5-5.5-12.9-7.94-19.48-1-2.69-2.28-5.27-3.4-7.91a3.29,3.29,0,0,0-3.25-2.34c-3.84,0-7.67,0-11.51.07a1.67,1.67,0,0,0-1.62,1.47c-.08,1.43-.14,2.87-.14,4.31q0,20.64,0,41.27c0,1.43-.1,2.87-.19,4.3a1.63,1.63,0,0,1-1.28,1.25,11.4,11.4,0,0,1-1.42.15c-4.8,0-9.59,0-14.39,0a6.73,6.73,0,0,1-1.88-.31,1.19,1.19,0,0,1-.64-.66,4.18,4.18,0,0,1-.26-1.4c0-1.44,0-2.88,0-4.32q0-57.1,0-114.2c0-1.76.08-3.51.15-5.27a1.52,1.52,0,0,1,1.19-1.31A23.82,23.82,0,0,1,1087,100h39.33a11,11,0,0,1,4.25.56,3.39,3.39,0,0,0,1.4.3c3-.13,5.61,1.09,8.32,2a18.46,18.46,0,0,1,6.67,3.65c1.18,1.06,2.62,1.84,3.75,3a27.68,27.68,0,0,1,7.27,12.74,28.49,28.49,0,0,1,1.15,8.49c-.13,4.31-.08,8.64,0,13a29.79,29.79,0,0,1-6.77,19.42c-2.75,3.49-6.31,5.76-9.93,8.06C1141.65,171.58,1140.64,171.79,1140.13,173Zm-36.72-35.8c0,4.79,0,9.59,0,14.38a12.86,12.86,0,0,0,.3,2.84,1.48,1.48,0,0,0,1,.89,14.25,14.25,0,0,0,2.85.24c5.59,0,11.18,0,16.77,0a22.24,22.24,0,0,0,5.62-.93c3.21-.8,7.27-4.85,8.11-8.18a19.5,19.5,0,0,0,.92-5.62,61.65,61.65,0,0,1,0-6.23c.17-2.63-.84-5-1.38-7.48a5.85,5.85,0,0,0-1.08-2.12,13.46,13.46,0,0,0-11-5.85c-6.38-.15-12.77,0-19.16,0-.32,0-.64,0-1,0a1.9,1.9,0,0,0-1.92,1.74c-.06,1.12-.08,2.23-.08,3.35Q1103.41,130.76,1103.41,137.23Z"/><path class="cls-3" d="M1291.33,306.86c-.92-1.71-1.58-3.17-2.45-4.5a45.55,45.55,0,0,1-6.15-14.95,19.64,19.64,0,0,1-.87-5.16,7.89,7.89,0,0,0-.3-2.36,17.73,17.73,0,0,1,0-9.45,8.06,8.06,0,0,0,.33-1.88,18.66,18.66,0,0,1,2.61-8.61,22.39,22.39,0,0,1,5.1-6.88c3.21-2.71,6.73-4.83,11-5.35a11.38,11.38,0,0,0,2.34-.44,11.39,11.39,0,0,1,5.69-.39,39.07,39.07,0,0,1,8.82,2,20.28,20.28,0,0,1,10.71,9.78,34.36,34.36,0,0,1,2.69,7.14,26.57,26.57,0,0,1,1,8.51c-.08,1.27,0,2.56,0,3.84a13.74,13.74,0,0,1-.63,4.71c-.48,1.33-.4,2.85-.85,4.19-2.07,6.28-5,12.07-9.83,16.74-1.49,1.45-2.92,2.95-4.33,4.48a2.16,2.16,0,0,0-.27,2.67c1.44,2.48,2.89,5,4.41,7.39,3,4.73,6,9.38,8.82,14.21a10.94,10.94,0,0,0,1.55,1.8,1.1,1.1,0,0,0,1.61-.38,78.81,78.81,0,0,0,3.29-10.95c-.18-2.91,1.21-5.6,1.17-8.5a1.45,1.45,0,0,1,1.21-1.29,7.74,7.74,0,0,1,1-.13h14.86a1.6,1.6,0,0,1,.93.19,2.41,2.41,0,0,1,.86,1.05,3.67,3.67,0,0,1,.13,1.88c-1.14,4.14-1.57,8.43-2.67,12.58a116,116,0,0,1-3.84,11.8,85.39,85.39,0,0,1-4.07,9.18,8.75,8.75,0,0,0-.74,1.76,2.77,2.77,0,0,0,.23,2.32c2.21,3.31,4.47,6.59,6.71,9.89q4.15,6.14,8.3,12.27a.79.79,0,0,1-.68,1.3l-1,0h-17.26c-.48,0-1,0-1.44,0a2.74,2.74,0,0,1-2.36-1.41c-1.4-2.32-2.71-4.69-4.12-7a18.86,18.86,0,0,0-1.75-2.25,1,1,0,0,0-1.3,0c-.71.65-1.44,1.27-2.09,2a29.42,29.42,0,0,1-8.12,5.83c-2.82,1.47-5.64,3-8.85,3.49s-6.49,1.61-9.89,1.4a26.19,26.19,0,0,1-5.19-.68c-1.83-.49-3.75-.59-5.57-1.23a32.08,32.08,0,0,1-8.66-5,4,4,0,0,1-.69-.67c-2.58-3.24-5.17-6.42-6.56-10.46-1.15-3.33-1.74-6.77-2.61-10.15a9.5,9.5,0,0,1-.13-2.39q0-3.84,0-7.67a13.35,13.35,0,0,1,.19-3.81c.81-2.59.72-5.4,1.88-7.88,1.69-3.6,3.28-7.21,5.77-10.43a42.3,42.3,0,0,1,9.45-9.39A22.24,22.24,0,0,0,1291.33,306.86Zm13,55.12a15.36,15.36,0,0,0,5.65-.84,16.26,16.26,0,0,0,3.7-2.14,19.23,19.23,0,0,0,5.9-6.17,3,3,0,0,0-.07-3.56c-1-1.41-2-2.86-2.93-4.37q-4.52-7.61-9.39-15c-1.14-1.73-2.14-3.55-3.24-5.3-.85-1.35-1.74-2.67-2.63-4a1.56,1.56,0,0,0-2.12-.31c-2.67,2.14-4.24,5.14-6.11,7.9a6.93,6.93,0,0,0-.69,1.78c-.4,1.21-.7,2.46-1.18,3.63a9.37,9.37,0,0,0-.7,3.73c0,3.36,0,6.71,0,10.07a7.12,7.12,0,0,0,.13,1.91,23.16,23.16,0,0,0,3.13,7.47c2.33,3.2,5.2,5.67,9.6,5.17A7.32,7.32,0,0,1,1304.34,362Zm10.19-87h0c0-1.59.11-3.2,0-4.78-.33-3.91-2-7-5.78-8.59a4.87,4.87,0,0,0-5.72,1l-1.35,1.35a7.18,7.18,0,0,0-1.66,2.84,13.05,13.05,0,0,0-.83,4.66c0,1.59,0,3.19,0,4.78a25.81,25.81,0,0,0,1.06,8.47,48.16,48.16,0,0,0,3.71,9.78c.23.41.49.82.74,1.22a1.51,1.51,0,0,0,2.08.45,14.3,14.3,0,0,0,1.42-1.27,22.17,22.17,0,0,0,5.19-9.53c.75-2.91,1.52-5.85,1.21-8.92A13.85,13.85,0,0,1,1314.53,275Z"/><path class="cls-3" d="M1350,466.37c0,9.12-.11,18.23,0,27.35a53.62,53.62,0,0,1-2.36,14.06,33.49,33.49,0,0,1-4.49,8.94,7.33,7.33,0,0,1-.54.79c-2.9,3-5.58,6.12-9.14,8.4a39.81,39.81,0,0,1-9.18,4,17.57,17.57,0,0,1-6.56,1.13c-2.77,1-5.66.87-8.53.81a24.76,24.76,0,0,1-3.31-.42c-.78-.12-1.55-.38-2.34-.46a32.34,32.34,0,0,1-16-5.79,27.32,27.32,0,0,1-2.24-1.78c-.83-.74-1.62-1.55-2.41-2.34-4.66-4.64-4.6-4.67-7.45-10.43a32.93,32.93,0,0,1-1.89-5.9,35.32,35.32,0,0,1-1.39-9.89c.1-19,0-38.06.06-57.1a29,29,0,0,1,.42-5.71,36.86,36.86,0,0,1,3.32-10.42c1-2,2-4,3.26-5.85a26.73,26.73,0,0,1,9.83-8.89c1.68-.93,3.45-1.68,5.12-2.62s3.35-1,5-1.51a29.09,29.09,0,0,1,10.36-1.41c1.27.09,2.56,0,3.84,0a24.29,24.29,0,0,1,5.67.64c2,.49,4,.85,6.06,1.28a6.23,6.23,0,0,1,1.38.37,76,76,0,0,1,8.9,4.65,27.6,27.6,0,0,1,9.18,10.2c.31.56.57,1.14.88,1.7a31.61,31.61,0,0,1,3.23,8.45,42.34,42.34,0,0,1,1.27,9.92C1349.94,447.81,1350,457.09,1350,466.37Zm-57.55.07c0,8.48,0,16.95,0,25.43a22.55,22.55,0,0,0,4.31,13.41,14,14,0,0,0,6.76,5.09,20.2,20.2,0,0,0,10.35,1.2c2.17-.38,4.48-.64,6.39-1.86A21.21,21.21,0,0,0,1327,503a10.13,10.13,0,0,0,1.72-3.92c.33-2.84,1.21-5.57,1.19-8.51q-.15-24.46,0-48.94a29,29,0,0,0-1.58-8.89,15.74,15.74,0,0,0-10.7-10.69,12.08,12.08,0,0,0-4.23-.57c-2.7.09-5.44-.36-8.11.37a18.1,18.1,0,0,0-8.39,5.28,9.06,9.06,0,0,0-2.06,3.2c-1.26,3.61-2.4,7.24-2.36,11.15C1292.52,449.81,1292.47,458.12,1292.47,466.44Z"/><path class="cls-3" d="M817.55,316c0-9.28.08-18.55,0-27.83,0-3.72.83-7.25,1.52-10.84,1-5.3,3.68-9.87,6.77-14.13a28.63,28.63,0,0,1,9-7.8,45.48,45.48,0,0,1,12.49-4.66,7.53,7.53,0,0,1,1.43-.13,21.49,21.49,0,0,0,6.16-.71c2.07-.67,4,.84,6.12.68,4.62-.36,8.73,1.47,12.86,3.17,3.15,1.3,5.7,3.49,8.35,5.52a11.78,11.78,0,0,1,2.25,2.47c1.21,1.68,2.34,3.42,3.47,5.16a8,8,0,0,1,.9,1.68c1.37,3.9,3.13,7.68,3.61,11.85a8.47,8.47,0,0,0,.45,1.85,11.78,11.78,0,0,1,.32,5.21,1.59,1.59,0,0,1-1.21,1.31,11.4,11.4,0,0,1-1.42.15q-7.92,0-15.83,0c-.32,0-.63-.06-1-.09a1.5,1.5,0,0,1-1.36-1.13,31.26,31.26,0,0,0-1.61-6.47,20.91,20.91,0,0,0-2.32-4.69c-1.76-2.93-4.52-4.42-7.54-5.59a5.64,5.64,0,0,0-1.89-.24c-1.92,0-3.84,0-5.75,0-5.49,0-9.34,2.76-12.06,7.31-.74,1.23-1.27,2.58-1.9,3.87a2.69,2.69,0,0,0-.39.87c-.16,2.55-1.3,4.94-1.26,7.52,0,.8,0,1.6,0,2.4,0,15.83,0,31.67-.05,47.5a29.81,29.81,0,0,0,1.12,8,16.51,16.51,0,0,0,11.79,11.44,12.46,12.46,0,0,0,2.35.35c1.6.06,3.2-.05,4.79,0a15.29,15.29,0,0,0,7.36-1.76,11.12,11.12,0,0,0,2-1.28c.51-.38.92-.89,1.4-1.31,4-3.47,5.38-6.73,5.65-13.14.13-3,0-6.08,0-9.12,0-4.1-.08-4.14-4.41-4.18-1.92,0-3.84,0-5.76,0-1.6,0-3.2,0-4.8-.05a3.89,3.89,0,0,1-1.39-.3,1.49,1.49,0,0,1-.63-.68,2.24,2.24,0,0,1-.24-.92q0-7.68,0-15.35a3.94,3.94,0,0,1,.1-.47,1.64,1.64,0,0,1,1.26-1.26,23.8,23.8,0,0,1,2.38-.17h29.74l1.44,0c1.72.08,2.37.67,2.44,2.25,0,.8.05,1.6,0,2.4,0,9.92-.06,19.83,0,29.75a28.57,28.57,0,0,1-1,8c-1.28,4.45-2.63,8.83-5.39,12.69a36.77,36.77,0,0,1-11.17,10.28,30,30,0,0,1-7.45,3.21c-3.09.69-6.14,1.65-9.39,1.51-2.23-.09-4.48-.11-6.71,0a31.79,31.79,0,0,1-10.77-1.79,32.2,32.2,0,0,1-10.34-4.84c-5.35-4-9.52-8.87-11.83-15.27a90.08,90.08,0,0,1-2.6-10.16,17.41,17.41,0,0,1-.14-3.83Q817.56,330.19,817.55,316Z"/><path class="cls-3" d="M818.53,164.26V107.18c0-1.44,0-2.88,0-4.32a2.62,2.62,0,0,1,2.61-2.83c.8,0,1.6-.06,2.4-.06q30.45,0,60.89,0c3.91,0,4,.15,4.06,4s0,7.67,0,11.51c0,.64,0,1.28-.08,1.91A1.73,1.73,0,0,1,887,119c-.63.06-1.27.12-1.91.13-1.76,0-3.52,0-5.27,0q-17.74,0-35.48,0c-1.27,0-2.55.1-3.82.21a2.45,2.45,0,0,0-1.64,1.6,13.59,13.59,0,0,0-.19,1.9q0,14.38,0,28.78a13.79,13.79,0,0,0,.12,1.43,1.75,1.75,0,0,0,1.64,1.46c1.44.05,2.88.08,4.31.08H875.9c1.44,0,2.87.06,4.31.13a1.71,1.71,0,0,1,1.5,1.6c0,.64.08,1.28.08,1.91,0,4,0,8,0,12a8.86,8.86,0,0,1-.26,2.36,1.47,1.47,0,0,1-.95.92,19.4,19.4,0,0,1-3.32.27c-6.55,0-13.11,0-19.66,0H845.12c-1,0-1.92,0-2.88,0-2.71.08-3.49.81-3.58,3.36,0,.32,0,.64,0,1q0,13.43,0,26.86a11.05,11.05,0,0,0,.3,2.36,1.12,1.12,0,0,0,.65.65,4.47,4.47,0,0,0,1.4.28c1.44.05,2.88.05,4.31.05h37.4c1.43,0,2.87.08,4.3.15a1.59,1.59,0,0,1,1.31,1.2,7.62,7.62,0,0,1,.14.94q0,7.2,0,14.39a3.12,3.12,0,0,1-.25,1.4,1.67,1.67,0,0,1-1,.88,36.18,36.18,0,0,1-4.29.25c-12.47,0-24.93,0-37.4,0-2.7,0-5.44-.26-8.06.72-3.18.08-6.39.53-9.53-.35a18.19,18.19,0,0,0-4.28-.38q-1.9-.07-3.81-.21a1.62,1.62,0,0,1-1.21-1.31c0-.47-.13-1-.14-1.43,0-1.28,0-2.56,0-3.84Q818.55,192.58,818.53,164.26Z"/><path class="cls-3" d="M995.07,164.13V106.57c0-1.44,0-2.88.11-4.31a2.39,2.39,0,0,1,2.18-2.18c.95-.08,1.91-.11,2.87-.11q30.21,0,60.41,0c1,0,1.91.06,2.87.13a1.72,1.72,0,0,1,1.48,1.62c0,2.88.08,5.75.08,8.63,0,2.4,0,4.79-.12,7.19a1.66,1.66,0,0,1-1.56,1.53c-1.44.06-2.87.11-4.31.11h-36.92c-1.28,0-2.56,0-3.84,0-2.23.08-3,1-3.11,3.34,0,.48,0,1,0,1.44q0,13.19,0,26.38c0,1,.09,1.91.17,2.86a1.57,1.57,0,0,0,1.26,1.25c1,.08,1.91.16,2.86.17,3.36,0,6.71,0,10.07,0q12.23,0,24.45,0a24.67,24.67,0,0,1,3.32.3c.26,0,.52.37.68.63a1.84,1.84,0,0,1,.25.92q0,7.68,0,15.35a1.84,1.84,0,0,1-1.73,1.92c-1.12.06-2.24.08-3.35.08h-31.64c-1.44,0-2.87.06-4.31.15a2.43,2.43,0,0,0-1.9,1.91,17.34,17.34,0,0,0-.14,1.91q0,13.66,0,27.34c0,.48,0,1,.07,1.44a1.76,1.76,0,0,0,1.47,1.64c.79.07,1.59.13,2.39.14,2.08,0,4.16,0,6.23,0q17.27,0,34.52,0c1.27,0,2.55.1,3.82.18a1.58,1.58,0,0,1,1.22,1.29,7.71,7.71,0,0,1,.12,1q0,7.2,0,14.39a7.71,7.71,0,0,1-.12.95,1.58,1.58,0,0,1-1.24,1.27c-1.43.08-2.86.18-4.3.19H1021c-2.23,0-4.49-.22-6.63.66l-8.61.06c-2.46-1-5-.66-7.58-.74a6.24,6.24,0,0,1-1.88-.26,2,2,0,0,1-1-.92,3.26,3.26,0,0,1-.24-1.4c0-1.44,0-2.88,0-4.32Q995.07,192.42,995.07,164.13Z"/><path class="cls-3" d="M1182.15,163.71q0-28.78,0-57.57c0-1.59.11-3.19.19-4.78a1.57,1.57,0,0,1,1.29-1.23c.95-.07,1.91-.16,2.86-.16q30.69,0,61.38,0c.95,0,1.91.09,2.86.16a1.62,1.62,0,0,1,1.26,1.26,3.94,3.94,0,0,1,.1.47q0,7.68,0,15.35a3.89,3.89,0,0,1-.09.47,1.59,1.59,0,0,1-1.22,1.3c-1.43.09-2.86.19-4.3.2q-18.95,0-37.89,0c-1.44,0-2.87.06-4.31.15a2.4,2.4,0,0,0-1.89,1.93,23.76,23.76,0,0,0-.13,2.39q0,13.68,0,27.35a9.88,9.88,0,0,0,.23,2.37,1.51,1.51,0,0,0,.89,1,13.49,13.49,0,0,0,2.84.29c5.28,0,10.55,0,15.83,0,6.23,0,12.47,0,18.7,0a20.56,20.56,0,0,1,3.33.24,1.75,1.75,0,0,1,1,.87,3,3,0,0,1,.26,1.39c0,4.8,0,9.59,0,14.39,0,1.6-.71,2.22-2.41,2.27-1.28,0-2.56,0-3.84,0h-30.69c-1.44,0-2.88,0-4.31.07a1.88,1.88,0,0,0-1.77,1.89q-.06,1-.06,1.92,0,13.44,0,26.87c0,.79.1,1.59.17,2.38a1.62,1.62,0,0,0,1.28,1.24,13.68,13.68,0,0,0,1.42.15c1.28,0,2.56,0,3.84,0h37.41c1.43,0,2.87.08,4.3.16a1.58,1.58,0,0,1,1.28,1.23,3.94,3.94,0,0,1,.1.47q0,7.68,0,15.35a1.58,1.58,0,0,1-.22.92c-.28.35-.66.81-1,.85a41,41,0,0,1-4.29.24c-12.31,0-24.62,0-36.93,0-2.86,0-5.76-.29-8.54.72-3.18.06-6.37.45-9.54-.34a17.4,17.4,0,0,0-3.31-.38c-1.43-.08-2.88,0-4.31-.11a1.79,1.79,0,0,1-1.63-1.48,13.79,13.79,0,0,1-.12-1.43c0-1.28,0-2.56,0-3.84Z"/><path class="cls-3" d="M918.28,466.24V408.65c0-1.44,0-2.88.06-4.32s.75-1.93,2.17-2c1,0,1.92,0,2.88,0q29.5,0,59,0c5,0,5.07,0,5.05,5,0,3.52,0,7,0,10.56a9.89,9.89,0,0,1-.25,2.37,1.57,1.57,0,0,1-.9,1,8.87,8.87,0,0,1-2.36.29c-3,0-6.08,0-9.11,0q-15.34,0-30.7,0c-1.43,0-2.87.1-4.3.19a1.59,1.59,0,0,0-1.23,1.29c-.06.47-.13,1-.15,1.42,0,.8,0,1.6,0,2.4q0,12.48,0,25c0,1.27.1,2.55.18,3.82a1.55,1.55,0,0,0,1.28,1.23c1,.07,1.91.15,2.86.15,4.16,0,8.31,0,12.47,0,6.72,0,13.43,0,20.15,0,1.27,0,2.55.08,3.82.15a1.6,1.6,0,0,1,1.3,1.22,4,4,0,0,1,.11.47q0,7.68,0,15.35a1.58,1.58,0,0,1-.22.92c-.27.35-.65.82-1,.86a38.41,38.41,0,0,1-4.29.23c-10.23,0-20.47,0-30.7,0-1.44,0-2.87,0-4.31.12a1.73,1.73,0,0,0-1.54,1.57c0,.64-.1,1.28-.1,1.91q0,13.68,0,27.35c0,3.25.31,3.56,3.56,3.56q19.42,0,38.85,0c1.44,0,2.88,0,4.32.05s2.2.7,2.21,2c0,5.12,0,10.23,0,15.35a1.81,1.81,0,0,1-.26.91c-.16.26-.43.59-.69.63a24.69,24.69,0,0,1-3.32.31q-30.22,0-60.44,0-1.2,0-2.4-.06a1.85,1.85,0,0,1-1.89-1.76c-.05-1.44-.07-2.88-.07-4.32v-37Q918.29,476.57,918.28,466.24Z"/><path class="cls-3" d="M1042.67,401.42c4.94-.73,9.74.61,14.46,2a33,33,0,0,1,6.9,3.27,26.69,26.69,0,0,1,10.25,11.09c.82,1.55,1.61,3.12,2.32,4.73.51,1.16.84,2.4,1.25,3.6a1.82,1.82,0,0,1-.79,2.07,5.86,5.86,0,0,1-1.16.83,48.28,48.28,0,0,1-5.18,2.49,78.91,78.91,0,0,0-7.84,3.54c-1.57.77-2.57.84-3.49-1s-1.75-3.41-2.58-5.14a10.82,10.82,0,0,0-2.25-3.07,18.47,18.47,0,0,0-12.42-5.34,24.85,24.85,0,0,0-8,1.24,14.37,14.37,0,0,0-7.71,5.42,6.89,6.89,0,0,0-1.46,3c-.24,1.91-1,3.75-1,5.63-.07,2.86.86,5.64,1.2,8.48a3.53,3.53,0,0,0,.84,1.71c1.82,2.23,3.66,4.45,6.34,5.72a69.88,69.88,0,0,0,11.13,4.29,131.94,131.94,0,0,1,17.58,6.1,32.18,32.18,0,0,1,7.16,3.77c4.32,3.39,7.88,7.36,9.67,12.76a23.86,23.86,0,0,1,1.61,8.87,13,13,0,0,0,.6,4.73,7.07,7.07,0,0,1,0,4.27,20.74,20.74,0,0,0-.67,6.64,12.69,12.69,0,0,1-.82,4.68c-.62,1.63-1,3.35-1.69,5a28.66,28.66,0,0,1-3.77,6.06,16,16,0,0,1-5.1,4.94c-3.72,3.58-8.55,4.82-13.3,6.17a19.25,19.25,0,0,1-6.57,1.1c-2.76,1-5.65.84-8.52.84a28.5,28.5,0,0,1-6.15-.65c-2.31-.51-4.7-.66-7-1.24a34.24,34.24,0,0,1-13.23-6.44c-3.08-2.48-6.13-5.17-7.78-9-1.7-2.18-2.31-4.88-3.5-7.31a4.07,4.07,0,0,1-.22-.93,2.76,2.76,0,0,1,1.26-2.9,44.64,44.64,0,0,1,5.15-2.53c3-1.11,5.84-2.56,8.72-3.92l.43-.2a2.34,2.34,0,0,1,3.28,1c.53,1,1,2,1.49,3a13.12,13.12,0,0,0,3.05,4.25c.7.65,1.38,1.33,2,2a14.81,14.81,0,0,0,10.14,4.71c1.42.12,2.81.67,4.22.68,1.24,0,2.51-.71,3.74-.64,3.76.2,6.74-1.67,9.79-3.39a6.53,6.53,0,0,0,1.73-1.63,16.27,16.27,0,0,0,3.39-9.74c.08-1.75.06-3.52,0-5.27a19.45,19.45,0,0,0-.39-2.83c-.95-5.3-4.69-8.24-9.19-10.24a85.14,85.14,0,0,0-12.59-4.46,105.18,105.18,0,0,1-18.78-7c-2.48-1.21-4.31-3.27-6.6-4.71-2-2.7-4.39-5.09-5.57-8.3-.82-2.24-1.56-4.52-2.28-6.8a6.34,6.34,0,0,1-.2-1.9c0-5.12,0-10.23,0-15.35,0-2.05,1.51-7.62,2.64-10.11.53-1.16,1.14-2.28,1.68-3.44a11.09,11.09,0,0,1,2.52-3.47c2.09-2,4-4.11,6.42-5.71a29.44,29.44,0,0,1,8.19-3.84,81.75,81.75,0,0,1,9.76-2.16A49.93,49.93,0,0,1,1042.67,401.42Z"/><path class="cls-3" d="M1324.13,192c0-1.44-.05-2.88,0-4.32a9,9,0,0,0-2.65-6.45,22.16,22.16,0,0,0-10-6.29c-4.36-1.49-8.71-3-13.2-4.19a87.79,87.79,0,0,1-9.39-3.5,15.58,15.58,0,0,0-2.21-.91,16.61,16.61,0,0,1-6.65-3.69c-4.63-3.79-8.3-8.37-9.94-14.32a10.16,10.16,0,0,1-.65-2.77,13.37,13.37,0,0,0-.6-3.76c-.53-1.9-.65-11.48,0-13.35.73-2.29.81-4.69,1.49-7a28.66,28.66,0,0,1,4.37-9c.56-.77,1.12-1.55,1.7-2.31a8.31,8.31,0,0,1,1.24-1.45c3.34-2.74,6.85-5.28,11-6.68,2.84-1,5.63-2.31,8.77-2.14,3.88-1.32,7.9-.84,11.87-.9a13.28,13.28,0,0,1,4.29.21c2.29.75,4.7.73,7,1.58a74.4,74.4,0,0,1,9,4.33,7.69,7.69,0,0,1,1.47,1.22c.59.54,1.11,1.16,1.72,1.67,4.83,4.07,7.34,9.55,9.34,15.34a7.33,7.33,0,0,1,.2.93,2.37,2.37,0,0,1-1.06,2q-7.35,3.48-14.72,6.92a1.85,1.85,0,0,1-.93.16,1.32,1.32,0,0,1-.86-.32,4.84,4.84,0,0,1-1-1.58c-1.34-4.31-4.33-7.4-7.58-10.25a13.2,13.2,0,0,0-7.92-3,23.36,23.36,0,0,0-9.45,1,16.5,16.5,0,0,0-5.17,2.45,9.25,9.25,0,0,0-3.54,4.43,15.25,15.25,0,0,0-1.38,6.5c.12,1.59,0,3.2,0,4.79a12,12,0,0,0,5.27,10.21,24.49,24.49,0,0,0,7.17,3.73c7,2.22,13.88,4.71,20.85,6.95,3.23,1,6.09,2.78,9.13,4.18a44.73,44.73,0,0,1,9.08,9.15,18.59,18.59,0,0,1,3.19,8.43,11.41,11.41,0,0,0,.46,2.34,10.81,10.81,0,0,1,.49,3.78v12a10.32,10.32,0,0,1-.54,3.77c-.69,1.79-.52,3.74-1.2,5.59a33.29,33.29,0,0,1-6.37,10.57,30.51,30.51,0,0,1-11.81,7.94,32.15,32.15,0,0,1-10.13,2.57,5.6,5.6,0,0,0-1.43.14c-3.58,1.26-7.28.7-10.93.75A15.38,15.38,0,0,1,1299,229a10.13,10.13,0,0,0-2.35-.39c-2.3.14-4.4-.65-6.54-1.24-.92-.25-1.82-.59-2.73-.89a26.7,26.7,0,0,1-9.56-5.27c-.59-.52-1.3-.92-1.92-1.41a10,10,0,0,1-1.8-1.57,61.56,61.56,0,0,1-4.72-6.6,32.5,32.5,0,0,1-3.5-8.84,1.54,1.54,0,0,1,.51-1.24,8.55,8.55,0,0,1,2.45-1.43,57.25,57.25,0,0,0,6.56-2.89c2.32-1.05,4.69-2,7-3a1.85,1.85,0,0,1,2.38,1c.74,1.41,1.42,2.86,2.17,4.27a17.76,17.76,0,0,0,7.67,7.65c1,.51,2,.94,3,1.45a5,5,0,0,0,2.74.73c1.81-.17,3.44.83,5.17.81a48.5,48.5,0,0,0,5.17-.77,15.68,15.68,0,0,0,9.74-4.53,11.56,11.56,0,0,0,3.57-8.55c0-1.46,0-2.89,0-4.33Z"/><path class="cls-3" d="M916.57,100.19c1.7,2.54,1.54,5.25,2.54,7.59.63,5.07,2.37,9.89,3.35,14.88.55,2.8,1.15,5.6,1.87,8.37.67,2.62,1.28,5.24,1.8,7.89.82,4.21,2,8.34,3,12.51,1.4,5.87,2.84,11.74,4.22,17.61,1,4,1.89,8,2.79,12.07.48,2.16.94,4.34,1.37,6.52a10.13,10.13,0,0,0,.84,2.22c.09.2.44.31.69.38.08,0,.28-.17.35-.3a7.49,7.49,0,0,0,.78-1.74c1.1-5.45,2.55-10.83,3.73-16.25s2.61-10.49,3.7-15.78c1.16-5.61,2.76-11.11,4-16.69s2.69-10.8,3.81-16.24c1.16-5.61,2.67-11.12,3.94-16.7.46-2,.63-4.09,1.73-6.12a6.68,6.68,0,0,1,1.68-.4c5.59,0,11.19,0,16.78,0a6.1,6.1,0,0,1,.94.14,1.52,1.52,0,0,1,.93,1.5c-.06.31-.11.62-.19.93-1.92,7.39-3.88,14.76-5.75,22.16-2.73,10.79-5.87,21.47-8.32,32.33-2.07,6.36-3.43,12.91-5.13,19.36-1.87,7.07-3.64,14.17-5.56,21.22q-3,11.06-5.7,22.17a2.69,2.69,0,0,1-.14.46c-.93,2.19-1.2,4.61-2.23,6.77-2.44,1.1-5,.48-7.54.56-3.35.1-6.71,0-10.07,0a1.77,1.77,0,0,1-1.82-1.27c-.64-2.13-1.38-4.25-1.86-6.42-2.17-9.78-5.15-19.36-7.51-29.09-2.29-9.42-5.09-18.72-7.18-28.19-2.59-7.53-3.91-15.41-6.28-23-1.6-5.15-2.76-10.45-4-15.71-1.07-4.49-2.48-8.88-3.5-13.38-.67-2.94-1.47-5.86-2.19-8.79a1.44,1.44,0,0,1,1.32-1.65c.48,0,.95-.09,1.43-.09q7.67,0,15.34,0C915.15,100,915.78,100.11,916.57,100.19Z"/><path class="cls-3" d="M1399.91,173.34v47.5c0,1.28,0,2.56,0,3.84-.05,2.42-.48,2.9-2.73,2.94-2.56,0-5.12,0-7.67,0-2.24,0-4.48,0-6.71,0a5.64,5.64,0,0,1-1.88-.28,2,2,0,0,1-.9-1,3.66,3.66,0,0,1-.21-1.41c0-1.44,0-2.88,0-4.32v-96c0-5.72.23-5.51-5.49-5.5q-9.58,0-19.18,0a15.09,15.09,0,0,1-2.85-.24c-.38-.08-.74-.53-1-.89a1.67,1.67,0,0,1-.2-.92c0-5.12,0-10.23,0-15.35a1.71,1.71,0,0,1,1.47-1.63c1-.07,1.91-.13,2.87-.13q34.53,0,69.06,0c.8,0,1.6,0,2.4.07a1.84,1.84,0,0,1,1.75,1.9q0,7.68,0,15.35a1.87,1.87,0,0,1-.25.92c-.16.26-.43.59-.69.62a24.69,24.69,0,0,1-3.32.31c-6.87,0-13.75,0-20.62,0a17,17,0,0,0-2.84.3,1.11,1.11,0,0,0-.66.65,4.47,4.47,0,0,0-.28,1.4c0,1.44,0,2.88,0,4.32Q1399.9,149.58,1399.91,173.34Z"/><path class="cls-3" d="M1135.17,476.29q0,23.74,0,47.49c0,1.59-.1,3.19-.19,4.78a1.63,1.63,0,0,1-1.27,1.25,3.94,3.94,0,0,1-.47.1h-15.34a1.65,1.65,0,0,1-.92-.22,2.81,2.81,0,0,1-.87-1,3.66,3.66,0,0,1-.21-1.41c0-1.44,0-2.88,0-4.32q0-47.25,0-94.51c0-1.6,0-3.2-.14-4.79a2.42,2.42,0,0,0-1.85-2c-1.11-.09-2.23-.16-3.35-.16-6.23,0-12.47,0-18.7,0-1.11,0-2.23-.1-3.34-.18a1.62,1.62,0,0,1-1.23-1.29,3.89,3.89,0,0,1-.09-.47q0-7.68,0-15.35a3.78,3.78,0,0,1,.1-.46,1.64,1.64,0,0,1,1.27-1.26c1-.08,1.91-.17,2.86-.17h68.09c.8,0,1.6,0,2.4.06,1.29.07,1.94.77,2,2.19,0,3,.06,6.08,0,9.11,0,2.08-.06,4.15-.12,6.23a1.65,1.65,0,0,1-1.59,1.5c-1.28.06-2.55.09-3.83.09h-17.74c-1.12,0-2.23,0-3.35.14a2.44,2.44,0,0,0-1.94,1.88c-.09,1.27-.15,2.55-.15,3.83q0,20.63,0,41.26C1135.17,471.17,1135.17,473.73,1135.17,476.29Z"/><path class="cls-3" d="M1055.51,315.43q0-28.79,0-57.56c0-1.59.08-3.19.15-4.78a1.58,1.58,0,0,1,1.2-1.31,7.65,7.65,0,0,1,.94-.15q7.67,0,15.34,0a3.12,3.12,0,0,1,1.4.25,2.18,2.18,0,0,1,.87,1,3.66,3.66,0,0,1,.2,1.41c0,1.44,0,2.88,0,4.32v94c0,1.12,0,2.24,0,3.36,0,3.89.16,4,4,4,12.79,0,25.57,0,38.36,0,7.11,0,6.48-.66,6.51,6.37,0,3.36,0,6.72,0,10.07,0,2.27-.5,2.67-2.92,2.74-.8,0-1.6,0-2.4,0h-58.5c-1.27,0-2.55-.1-3.82-.18a1.53,1.53,0,0,1-1.23-1.28c-.07-1.59-.16-3.19-.16-4.78Z"/><path class="cls-3" d="M1140.82,315.42q0-28.79,0-57.58c0-1.59.09-3.19.16-4.78a1.58,1.58,0,0,1,1.22-1.29,7.91,7.91,0,0,1,.94-.14c5,0,9.91,0,14.87,0a2.41,2.41,0,0,1,2.45,1.89,11,11,0,0,1,.45,2.33c.08,1.28,0,2.56,0,3.84v93.57c0,1.6,0,3.2.07,4.8a1.83,1.83,0,0,0,1.74,1.91c1.44.06,2.88.08,4.31.08h36.45c5.71,0,5.52-.23,5.51,5.48,0,3.36,0,6.72,0,10.08a9.89,9.89,0,0,1-.25,2.37,2.25,2.25,0,0,1-.89,1,1.74,1.74,0,0,1-.92.21q-1.44.06-2.88.06-29.26,0-58.52,0c-1.11,0-2.23-.1-3.34-.17a1.54,1.54,0,0,1-1.23-1.28c-.08-1.59-.17-3.19-.17-4.78Z"/><path class="cls-3" d="M1033.42,315.93q0,28.53,0,57.07c0,1.59-.08,3.19-.15,4.78a1.58,1.58,0,0,1-1.22,1.29,11.43,11.43,0,0,1-1.42.16h-14.38a13.79,13.79,0,0,1-1.43-.12,1.76,1.76,0,0,1-1.46-1.63c0-.48-.06-1-.07-1.44,0-1.12,0-2.24,0-3.36q0-57.3,0-114.61c0-7.09-.65-6.46,6.39-6.48h9.59c.8,0,1.6,0,2.39.07a1.74,1.74,0,0,1,1.63,1.46c0,.48.11.95.12,1.43,0,1.28,0,2.56,0,3.84Q1033.43,287.15,1033.42,315.93Z"/><path class="cls-3" d="M678.23,338.55c-1,.46-2,1-3,1.37-7.57,3-15.16,5.95-22.73,8.95-3.39,1.35-3.69,2.45-1.49,5.18q8.28,10.26,16.6,20.49a.6.6,0,0,1,0,.86.78.78,0,0,1-.37.22,1.23,1.23,0,0,1-.46.07c-2.07-.17-4.14-.32-6.21-.53s-4.12-.49-6.18-.73c-4.12-.49-8.24-.9-12.34-1.55a41.52,41.52,0,0,0-5.24-.28,1.78,1.78,0,0,0-1.56,1.57,31.19,31.19,0,0,0,.18,3.35c1.1,8.06,2.23,16.12,3.33,24.18,0,.29-.07.83-.21.87a2.1,2.1,0,0,1-1.29,0,9.12,9.12,0,0,1-1.62-1c-3.53-2.47-7.06-5-10.6-7.43q-4.71-3.3-9.43-6.59c-.65-.46-1.31-.92-2-1.33a2.25,2.25,0,0,0-3.28.84c-.66,1.28-1.29,2.57-1.88,3.88-2.71,6-5.39,11.94-8.09,17.91-.53,1.16-1.12,2.3-1.74,3.41a.91.91,0,0,1-.76.34,1.07,1.07,0,0,1-.74-.48A21.43,21.43,0,0,1,596,410q-4.29-9.37-8.56-18.74-1-2.18-2.09-4.31a2.18,2.18,0,0,0-2.91-.85c-1.09.66-2.15,1.37-3.2,2.11L560,401.64c-.52.36-1.08.68-1.62,1-.3.18-1-.35-1-.75.06-1.28,0-2.56.22-3.82.81-6,1.7-12,2.5-18,.25-1.9.35-3.82.47-5.73a1.89,1.89,0,0,0-1.85-1.82,46,46,0,0,0-5.26.29c-5,.73-10.12,1.35-15.2,1.77-3,.25-6,1-9,.91a1.89,1.89,0,0,1-.83-.32.45.45,0,0,1-.11-.44,23.35,23.35,0,0,1,1.56-2.35q7.4-9.12,14.83-18.21a17.41,17.41,0,0,0,1.37-1.94,2.09,2.09,0,0,0-.67-2.56c-1.14-.57-2.3-1.12-3.48-1.59-6.24-2.46-12.5-4.87-18.74-7.33-1.77-.7-3.51-1.5-5.24-2.31-.14-.06-.21-.69-.08-.81a4.22,4.22,0,0,1,1.22-.7c6.37-2.55,12.76-5.08,19.13-7.64,2.37-.95,4.72-1.95,7.06-3a2.08,2.08,0,0,0,.81-2.52,4.86,4.86,0,0,0-.41-.86c-.58-.76-1.19-1.5-1.8-2.24L529.7,303.2c-.3-.37-.63-.73-.9-1.12s-.58-.83-.27-1.29a1,1,0,0,1,.8-.33c2.07.11,4.14.22,6.21.41,1.91.18,3.8.46,5.7.68,4.28.51,8.55,1.05,12.83,1.51,1.74.19,3.49.22,5.24.3a1.58,1.58,0,0,0,1.27-1.24,6.76,6.76,0,0,0,.07-1.42c-.53-4.28-1.08-8.55-1.62-12.82s-1.08-8.55-1.59-12.83a3.34,3.34,0,0,1,.18-1.4.84.84,0,0,1,.73-.37,15.13,15.13,0,0,1,2,1.23l20.06,14c.78.55,1.59,1.06,2.42,1.53a2.16,2.16,0,0,0,2.55-.72,18.14,18.14,0,0,0,.89-1.69q4.76-10.47,9.49-21c.46-1,1-2,1.52-3,.22-.42,1-.51,1.19-.15.73,1.42,1.5,2.82,2.16,4.26,2.93,6.39,5.83,12.79,8.75,19.19,1.76,3.85,2.68,4.12,6,1.8,6.81-4.76,13.6-9.55,20.41-14.31a15,15,0,0,1,2-1.2c.14-.07.5.24.71.43a.57.57,0,0,1,.12.45q-1,7.35-1.94,14.7c-.46,3.48-1,7-1.38,10.44a19.35,19.35,0,0,0,0,2.85c0,.52.74,1.17,1.27,1.27a15.05,15.05,0,0,0,5.72-.19c3.62-.67,7.3-.77,10.93-1.32,3.94-.6,7.92-.9,11.89-1.3a13.4,13.4,0,0,1,1.9,0c.14,0,.37.1.39.19.07.29.18.67,0,.89a11.18,11.18,0,0,1-1.13,1.53q-7.71,9.5-15.43,19a19,19,0,0,0-1.14,1.53,2.23,2.23,0,0,0,.6,2.59,9.12,9.12,0,0,0,1.25.71c1.18.5,2.37,1,3.56,1.43L676.57,337a5.18,5.18,0,0,1,1.26.65C678,337.76,678.06,338.14,678.23,338.55Z"/><path class="cls-3" d="M588.41,143.29c.56.21,1.11.24,1.36.53,1.47,1.68,2.85,3.44,4.31,5.14.93,1.09,1.91,2.14,2.9,3.18a1.5,1.5,0,0,0,1.78.09,19.22,19.22,0,0,0,2.06-2c1.87-2.18,3.69-4.4,5.54-6.6a.81.81,0,0,1,1.21.11,12.74,12.74,0,0,1,.74,1.75c.69,2.46,1.33,4.93,2,7.39a8.94,8.94,0,0,0,.52,1.33,2.22,2.22,0,0,0,2.47,1c2.27-1.18,4.5-2.42,6.76-3.6,1.13-.59,2.28-1.13,3.43-1.67.35-.17,1,.33,1,.73a23.44,23.44,0,0,1-.21,2.37c-.38,2.2-.84,4.38-1.2,6.58a6.69,6.69,0,0,0,.09,1.89,1.91,1.91,0,0,0,1.75,1.37c2.85-.37,5.69-.77,8.53-1.13.94-.12,1.9-.15,2.85-.22.38,0,.87.68.7,1-.51,1-1,2-1.57,2.95-1,1.64-2.06,3.23-3.06,4.87a14.33,14.33,0,0,0-.85,1.71,1.86,1.86,0,0,0,1.15,2.32c3.09.79,6.19,1.53,9.29,2.29.46.11.92.25,1.37.39s.51,1,.24,1.23c-1.12.88-2.23,1.79-3.39,2.63-1.42,1-2.89,2-4.32,3a9.67,9.67,0,0,0-1.06,1,1.94,1.94,0,0,0,.14,2.6,36.2,36.2,0,0,0,6.1,4.18A9.28,9.28,0,0,0,645.2,190a83.83,83.83,0,0,0,26.61-25.83c.87-1.33,1.79-2.62,2.71-3.92a.57.57,0,0,1,.46-.08.35.35,0,0,1,.22.28,29.23,29.23,0,0,1-1,6.11,70.82,70.82,0,0,1-20,35.38c-11.08,10.75-24.35,17.38-39.33,20.67A56,56,0,0,1,604.5,224c-2.23.06-4.44.4-6.67.57-4.18.32-8.31-.37-12.39-1A80.21,80.21,0,0,1,553,211.15a73.47,73.47,0,0,1-26.29-29.84,72.16,72.16,0,0,1-5.34-15.85,27.43,27.43,0,0,1-.33-4.27c0-.08.15-.22.26-.25s.41-.07.46,0c.65.9,1.3,1.81,1.9,2.74a81.26,81.26,0,0,0,25.61,25.49c6,3.77,4.77,3.52,10.39-.43,2.41-1.69,2.35-3.22.09-4.84-2.47-1.77-4.93-3.53-7.39-5.31a.89.89,0,0,1,.08-1.25,8.32,8.32,0,0,1,1.32-.54c2-.48,4.05-.88,6.07-1.37,5.35-1.32,5.64-2,2.78-6.57-1.28-2-2.52-4.07-3.76-6.12-.24-.4.12-1.09.52-1.09a2.59,2.59,0,0,1,.47,0c3,.43,6,.87,9,1.29a15.16,15.16,0,0,0,1.9.13,2.11,2.11,0,0,0,2-1.75,16.2,16.2,0,0,0-.35-4.28c-.35-2.19-.61-4.4-.86-6.6a.54.54,0,0,1,.69-.52,4.6,4.6,0,0,1,1.31.44c2.11,1.13,4.2,2.31,6.3,3.45.84.46,1.7.89,2.57,1.29a2.08,2.08,0,0,0,2.73-1.19c.29-.74.55-1.5.77-2.26.48-1.69.91-3.39,1.4-5.08C587.63,145.5,588,144.45,588.41,143.29Z"/><path class="cls-2" d="M723.71,428.61a17.81,17.81,0,0,1-1.84,7.66,34.3,34.3,0,0,0-2.62,7.68,12.36,12.36,0,0,0,3,10.67,52,52,0,0,0,4.09,4,17.18,17.18,0,0,1,3.95,5.93,12.85,12.85,0,0,1,1.13,5.11c0,3.62.05,3.61-3,5.3q-2.51,1.41-5,2.91c-4.78,2.9-8.11,7.17-11,11.83A78.14,78.14,0,0,0,707,500.89a38.18,38.18,0,0,0-2.79,12.57c-.23,4.14-.54,8.28-.84,12.42a1.33,1.33,0,0,1-1.73,1.12c-.15,0-.32,0-.47-.08l-.91-.29c-9.34-3.29-18.83-6.1-28.4-8.63-8.88-2.34-17.06-6.24-25-10.71a60.47,60.47,0,0,1-14.07-10.67c-4.33-4.48-8.81-8.82-13.09-13.34-2.08-2.19-3.89-4.65-5.78-7a3.94,3.94,0,0,1-.77-1.72,1.45,1.45,0,0,1,.52-1.2,4.77,4.77,0,0,1,1.79-.62c6.8-1.25,13.16-3.84,19.5-6.48,8-3.31,15.71-7.11,23.36-11.07,7.09-3.67,14.19-7.32,21.17-11.2,7.26-4,14.38-8.3,21.55-12.48,4.55-2.66,9.07-5.36,13.63-8,1.38-.8,2.82-1.5,4.25-2.2a2,2,0,0,1,2.55.53C723.38,424.24,723.77,425.38,723.71,428.61Z"/></g></g></svg>