<svg xmlns="http://www.w3.org/2000/svg" viewBox="0 0 1428.47 775.39"><defs><style>.cls-1{fill:#dc143c;}.cls-2{fill:#003893;}.cls-3{fill:#dad6c5;}.cls-4{fill:#484848;}</style></defs><title>Asset 1</title><g id="Layer_2" data-name="Layer 2"><g id="Layer_1-2" data-name="Layer 1"><path class="cls-1" d="M8.83,470.32q-2.67-12.18-4.49-24.51Q2.77,435.15,1.78,424.4c-.68-7.32-1.14-14.66-1.45-22-.45-10.87-.45-21.75.09-32.61.46-9.25,1.09-18.5,2.27-27.71.89-7,1.83-13.94,3-20.87A384.34,384.34,0,0,1,80,151.64a392.19,392.19,0,0,1,68.26-69.08A386.55,386.55,0,0,1,273.12,17,387.52,387.52,0,0,1,315,6.67q14.61-2.76,29.36-4.4c5.23-.58,10.49-1,15.75-1.39C370.91,0,381.77,0,392.64,0c5.11,0,10.24.08,15.34.36,5.58.31,11.14.86,16.71,1.36,3.34.3,6.67.68,10,1a349.83,349.83,0,0,1,37.76,6.43A385.06,385.06,0,0,1,634,88.45a390.18,390.18,0,0,1,80.11,90.48A384.37,384.37,0,0,1,763.89,295.2q3.87,15.84,6.4,31.95c1.45,9.31,2.49,18.68,3.29,28.08.87,10.37,1,20.76,1.44,31.14.1,2.71,0,5.44-.15,8.15-.22,6.23-.38,12.47-.76,18.69-.31,5.1-.91,10.18-1.37,15.28-.18,2.07-.33,4.14-.49,6.21-.61.14-1.25.43-1.83,0-1.77-1.37-3.51-2.78-5.28-4.14-5.45-4.18-10.8-8.5-16.62-12.19a69.31,69.31,0,0,0-10.65-5.43,31.65,31.65,0,0,0-14.07-2.26,12.3,12.3,0,0,0-5.08,1.23c-3,1.53-6,3-8.91,4.67-6.09,3.51-12.12,7.12-18.15,10.73-11.52,6.88-23.34,13.23-35.24,19.43-9.5,4.95-19.18,9.5-29.1,13.53a85.85,85.85,0,0,1-11.83,3.82,27.34,27.34,0,0,1-8.54.57c-.62-.6-1.21-1.13-1.76-1.7q-7.56-7.71-15.09-15.42c-1-1-2-2.07-2.94-3.16a281.68,281.68,0,0,0-23.61-24.51c-7.43-6.79-15-13.44-22.46-20.21-3.78-3.44-7.69-6.79-11.11-10.57-7-7.7-13.68-15.65-19.86-24s-12.26-16.77-17.94-25.47a166.22,166.22,0,0,0-25.54-30.4,52.8,52.8,0,0,0-15.77-10.71c-1.47-.61-2.93-1.29-4.35-2-2.84-1.47-5.73-2.85-8.44-4.53-6.53-4-12.94-8.24-19.11-12.8A90.62,90.62,0,0,0,408.19,272c-3.8-2.05-7.43-4.38-11-6.75-1.47-1-2.9-2-4.45-2.83-4.4-2.31-8.46-5.15-12.67-7.74-3.26-2-6.62-3.87-10-5.6a53.3,53.3,0,0,0-14-4.79c-4.63-.9-8.89-.44-12.72,2.49-2,1.55-4.14,3-6.09,4.65-9.5,8.08-19.06,16.07-28.39,24.35-12,10.61-24.14,21-35.92,31.77-6.83,6.27-13.68,12.54-20.1,19.22-4.76,4.95-9.49,10-13.79,15.32-8.51,10.59-16.73,21.41-25.06,32.15-5.78,7.45-11.52,14.93-17.32,22.37-4.42,5.67-8.91,11.3-13.36,16.95-3,3.77-5.82,7.64-8.93,11.27s-6.24,6.86-9.5,10.15a39.77,39.77,0,0,1-10.42,7.59c-3.23,1.63-6.56,2.47-10.09.72a33.49,33.49,0,0,0-3.59-1.34q-7.68-2.7-15.38-5.37c-4.68-1.62-9.34-3.27-13.86-5.32-3.2-1.45-6.44-2.81-9.73-4a53.77,53.77,0,0,0-22.52-3.68c-1.91.13-3.8.47-5.7.7a33.5,33.5,0,0,0-16.64,6.82c-3.42,2.62-6.83,5.28-10.14,8-5.15,4.3-10.22,8.7-15.33,13.06L14.66,466.49l-4,3.41A2.35,2.35,0,0,1,8.83,470.32ZM528.54,300.49c0,.38-.19.75-.07,1a10.46,10.46,0,0,0,1.1,1.56q7.39,9.12,14.81,18.23a24,24,0,0,1,1.65,2.34,2.25,2.25,0,0,1-.61,2.6c-.85.44-1.72.85-2.61,1.21q-10.45,4.17-20.92,8.31c-1.19.47-2.38.94-3.54,1.46a1.39,1.39,0,0,0-.55.68c-.15.34,0,.62.37.78l.88.37L536,345.7c2.82,1.12,5.66,2.2,8.45,3.39,2.09.89,2.41,2.38,1,4.18-.39.5-.82,1-1.23,1.47l-13.93,17.09c-.7.87-1.36,1.77-2,2.7-.09.13.15.67.34.74a3.17,3.17,0,0,0,1.4.18q7.38-.76,14.76-1.58c3.64-.41,7.28-.88,10.92-1.3.79-.09,1.59-.11,2.39-.13.32,0,.63.06.95.08a1.87,1.87,0,0,1,1.54,1.6,66.89,66.89,0,0,1-1,9c-.7,4.73-1.3,9.49-1.87,14.24a12.87,12.87,0,0,0-.18,4.75.81.81,0,0,0,.68.42,7.51,7.51,0,0,0,1.66-.87q9.82-6.87,19.63-13.76c1-.73,2.13-1.39,3.24-2a2.12,2.12,0,0,1,2.52.81c.46.84.89,1.7,1.29,2.57,2.86,6.24,5.7,12.5,8.57,18.74.67,1.45,1.42,2.85,2.15,4.27a.81.81,0,0,0,1.21,0c.46-.84.94-1.66,1.34-2.53,2.73-6,5.43-11.92,8.15-17.88.66-1.45,1.3-2.92,2-4.35,1-2.06,2.23-2.32,4.27-1,.67.44,1.32.9,2,1.36l19.24,13.48a16.31,16.31,0,0,0,2,1.24,1,1,0,0,0,.89,0,1,1,0,0,0,.31-.82c-.44-3.32-.93-6.63-1.39-9.94-.63-4.59-1.26-9.17-1.85-13.76-.16-1.26-.22-2.55-.28-3.82a1.89,1.89,0,0,1,1.87-1.8,42.12,42.12,0,0,1,4.77.3c4.58.67,9.15,1.36,13.77,1.65a20.43,20.43,0,0,1,3.33.35,57.29,57.29,0,0,0,7.61.82,2.43,2.43,0,0,0,.92-.14.44.44,0,0,0,.18-.4,4.84,4.84,0,0,0-.61-1.2q-7.53-9.31-15.09-18.62c-.6-.74-1.24-1.47-1.82-2.23a2.19,2.19,0,0,1,.82-3.56c1.32-.58,2.65-1.12,4-1.65,6.84-2.68,13.68-5.34,20.52-8a17.37,17.37,0,0,0,2.53-1.32c.1-.06.06-.66-.1-.8a3.93,3.93,0,0,0-1.23-.7q-8.45-3.39-16.91-6.74c-2.67-1.06-5.36-2.07-8-3.19s-2.85-2.46-1-4.77q7.88-9.66,15.74-19.33a8.09,8.09,0,0,0,1-1.58.85.85,0,0,0-.39-.72,13.53,13.53,0,0,0-5.23.18c-4.41.77-8.89.86-13.31,1.53-2.05.31-4.12.41-6.17.79a33,33,0,0,1-4.77.32,2.83,2.83,0,0,1-1.39-.25,2.23,2.23,0,0,1-.92-1,2.76,2.76,0,0,1-.17-1.4c.26-2.22.58-4.43.87-6.64.8-6.17,1.58-12.35,2.41-18.52.11-.8.54-1.85-.07-2.26-.93-.63-1.72.4-2.48.91-1.59,1.07-3.15,2.19-4.72,3.29q-8,5.65-16.08,11.3a13.54,13.54,0,0,1-2.07,1.16,2.23,2.23,0,0,1-2.54-.83c-.32-.55-.62-1.12-.89-1.7-2.11-4.65-4.17-9.34-6.33-14-1.62-3.47-3-7-5-10.45-.46.28-1,.42-1.19.76-.69,1.26-1.29,2.57-1.88,3.88-3.09,6.85-6.15,13.7-9.24,20.54a4.23,4.23,0,0,1-.77,1.21,2,2,0,0,1-1.74.6,3.73,3.73,0,0,1-1.32-.48c-2-1.34-3.94-2.73-5.91-4.1q-8.07-5.61-16.13-11.22c-.52-.36-1.07-.69-1.61-1-.33-.2-1,.23-1,.63.05,4.64,1,9.19,1.53,13.78.48,4.44,1.15,8.86,1.68,13.29a2,2,0,0,1-2.16,2.45,32.24,32.24,0,0,1-3.82-.26c-5-.79-10.12-1.33-15.2-1.79-1.27-.12-2.53-.36-3.79-.51A29.39,29.39,0,0,0,528.54,300.49Zm59.91-157.27c-.4,1.14-.81,2.17-1.13,3.23-.64,2.14-1.2,4.31-1.85,6.44a8.34,8.34,0,0,1-.86,1.68,1.7,1.7,0,0,1-1.67.67c-.88-.38-1.78-.73-2.62-1.18-2.53-1.35-5-2.76-7.58-4.11a1.07,1.07,0,0,0-.89.05,1,1,0,0,0-.42.75c.31,2.21.7,4.41,1,6.63a37.34,37.34,0,0,1,.28,3.81,2,2,0,0,1-1.86,1.84,21.07,21.07,0,0,1-2.37-.21l-9-1.17c-.39-.05-.86.68-.65,1,1.07,1.78,2.16,3.54,3.23,5.31.74,1.23,1.51,2.44,2.19,3.7a2.09,2.09,0,0,1-1.1,2.8c-1.53.46-3.08.84-4.62,1.25-2,.53-4,1.05-6,1.59-.37.1-.53,1-.23,1.22l5.4,4c1,.76,2.08,1.48,3.08,2.28a2.15,2.15,0,0,1,.08,3c-.24.21-.47.43-.73.62-6.19,4.45-4.72,4.66-11.15.6a80.71,80.71,0,0,1-25.23-25.2c-.43-.67-.82-1.37-1.28-2-.26-.36-.45-.84-1-.84-.35,0-.53.36-.46,1.12a28.53,28.53,0,0,0,.39,3.33,70.92,70.92,0,0,0,16.72,33,77.56,77.56,0,0,0,28.39,19.92,79.27,79.27,0,0,0,18.85,5.27c4.09.6,8.21,1.33,12.38,1,2.38-.18,4.76-.51,7.15-.58a57,57,0,0,0,10.42-1.47,81.45,81.45,0,0,0,26.48-10.77A71.43,71.43,0,0,0,675.26,161a2.45,2.45,0,0,0-.19-.88c-.29.12-.69.15-.84.36-.74,1-1.42,2.12-2.11,3.19a83.79,83.79,0,0,1-26.43,26,12.8,12.8,0,0,1-4.33,2.09,7.06,7.06,0,0,1-1.28-.53c-1.34-.87-2.63-1.81-4-2.68-2.78-1.81-2-3.38,0-4.78l5.5-3.85c.52-.37,1-.75,1.54-1.13s.68-.91.43-1.22-.4-.53-.65-.59c-3.1-.77-6.21-1.49-9.31-2.24-2.3-.56-2.82-1.81-1.62-3.84.49-.82,1-1.62,1.52-2.44,1.09-1.77,2.2-3.52,3.24-5.32.21-.36.08-.91.12-1.56-1.2.07-2.31.09-3.4.22-2.85.35-5.69.77-8.53,1.14a2,2,0,0,1-1.94-1.74,9.35,9.35,0,0,1,.05-1.91c.42-2.35.89-4.7,1.34-7a2.58,2.58,0,0,0,0-.48c0-.6.23-1.35-.43-1.67a1.79,1.79,0,0,0-1.36.16c-2.4,1.26-4.78,2.59-7.16,3.88-.7.38-1.41.75-2.13,1.08a2.2,2.2,0,0,1-2.5-.88,7.13,7.13,0,0,1-.55-1.31c-.68-2.46-1.33-4.93-2-7.39a14.86,14.86,0,0,0-.69-1.78.85.85,0,0,0-1.21-.24c-.55.57-1.13,1.13-1.64,1.75-1.42,1.73-2.78,3.5-4.22,5.22a14.84,14.84,0,0,1-1.74,1.62,1.58,1.58,0,0,1-1.79,0c-.79-.79-1.59-1.57-2.31-2.42-1.65-2-3.24-4-4.9-5.9C589.55,143.55,589,143.47,588.45,143.22Z"/><path class="cls-2" d="M621.65,696.69c-5.07,3.61-10.1,7.29-15.23,10.83a383.54,383.54,0,0,1-131.64,57.93q-18,4.11-36.29,6.51c-9.35,1.21-18.72,2.16-28.13,2.67-10.37.56-20.76,1-31.14.6-7.81-.31-15.65-.38-23.44-1.25-4.92-.55-9.86-.84-14.78-1.42s-10.14-1.27-15.19-2.1q-11.34-1.86-22.58-4.33a384.8,384.8,0,0,1-150-69.65,392.94,392.94,0,0,1-44.71-39.82A385.58,385.58,0,0,1,12.56,486c-.36-1.39-.78-2.77-1.17-4.15a3.75,3.75,0,0,1,1.15-2.54c1-.8,1.93-1.68,2.9-2.51q10.94-9.34,21.87-18.68c5.47-4.66,10.94-9.34,16.46-13.93,2.82-2.35,5.75-4.58,8.68-6.8,1.26-.95,2.46-2.17,4.15-2.25,1.31-.06,2.36.89,3.57,1.25.61.18,1.22.4,1.81.64a75.11,75.11,0,0,1,12.71,6.68,19.61,19.61,0,0,1,4.74,4,4.51,4.51,0,0,1,.88,1.66A5,5,0,0,1,90,453.1a17.61,17.61,0,0,1-2.12,3.18,61.56,61.56,0,0,1-8.54,8.39c-3.72,2.85-6.63,6.46-9.56,10.05a19.35,19.35,0,0,0-3.13,5.9,3,3,0,0,0,.17,2.33,6.71,6.71,0,0,0,.71,1.25,3.39,3.39,0,0,0,2.77,1.63c1.76,0,3.52,0,5.27-.08,4.46-.25,8.92-.6,13.39-.83a170.71,170.71,0,0,0,24.67-3.25,36.39,36.39,0,0,0,7.32-2.24,83.05,83.05,0,0,0,27.58-19.54c1.87-2,3.7-4,5.6-5.93a39.16,39.16,0,0,1,7.49-5.94,55,55,0,0,0,6.54-4.84,107,107,0,0,0,14.15-14.95c5-6.23,9.91-12.54,14.85-18.82,1.48-1.88,3-3.75,4.46-5.65l20-25.77c5.68-7.33,11.4-14.63,17-22a239.4,239.4,0,0,1,20-23.24c9.21-9.33,18.87-18.2,28.66-26.91,6.21-5.52,12.51-10.94,18.75-16.42,8.16-7.17,16.22-14.46,24.55-21.45,4.41-3.7,8.77-7.45,13.18-11.14a26.17,26.17,0,0,1,2.77-1.85,1.25,1.25,0,0,1,1.29.35,25.2,25.2,0,0,1,1.32,2.52c1.7,4.14,3.31,8.31,5.05,12.43a208.53,208.53,0,0,0,10.39,21.57c4.17,7.37,8.61,14.58,12.85,21.91A66.47,66.47,0,0,0,390,329.33c5.63,5.21,11.07,10.63,16.59,15.95a49.28,49.28,0,0,1,5.54,6.6c2.62,3.6,2.5,4.83.2,8.69-.33.55-.72,1.06-1.07,1.59a58.18,58.18,0,0,1-7.73,9.13c-3.54,3.46-7.08,6.94-10.77,10.24a80.2,80.2,0,0,0-11.83,13.79,9.18,9.18,0,0,0-1.54,7.27,30.72,30.72,0,0,0,2.15,7.34,68.64,68.64,0,0,0,9.63,15.4c2.87,3.44,5.82,6.8,8.74,10.19,1,1.21,2.07,2.44,3.17,3.59a82.66,82.66,0,0,0,10.4,9.19,101.11,101.11,0,0,0,15.74,10c.43.21.85.44,1.27.67a20.45,20.45,0,0,1,9.73,11.4c2.31,6.3,4.58,12.61,6.94,18.89,1.23,3.29,2.49,6.58,3.92,9.78a70.67,70.67,0,0,0,16.24,23.5c2.34,2.17,4.72,4.32,7.15,6.39a34,34,0,0,1,8.57,10.2,39.35,39.35,0,0,0,12.4,13.76A102.91,102.91,0,0,0,518,565.37c4.3,1.7,8.65,3.27,12.9,5.14a50.66,50.66,0,0,1,10.85,7,11.57,11.57,0,0,1,2.82,3.24,48.7,48.7,0,0,1,5,10.85c1.61,5.35,3.33,10.67,4.94,16A109.46,109.46,0,0,0,558.21,618a164.26,164.26,0,0,1,6.19,17.62,43.72,43.72,0,0,0,2.77,7.65,110.72,110.72,0,0,0,6.68,11.63A122.06,122.06,0,0,0,584.26,668a85.87,85.87,0,0,0,14.91,13.47c4.57,3.21,9.29,6.21,14,9.24,2.28,1.47,4.65,2.81,7,4.16A3,3,0,0,1,621.65,696.69Z"/><path class="cls-3" d="M621.65,696.69a2.89,2.89,0,0,0-1.47-1.78c-2.35-1.35-4.72-2.69-7-4.16-4.7-3-9.42-6-14-9.24A85.5,85.5,0,0,1,584.28,668a122.06,122.06,0,0,1-10.41-13.14,110.72,110.72,0,0,1-6.68-11.63,44,44,0,0,1-2.77-7.65A162.74,162.74,0,0,0,558.23,618a104.91,104.91,0,0,1-3.67-10.39c-1.61-5.35-3.33-10.67-4.94-16a48.49,48.49,0,0,0-5-10.85,11.57,11.57,0,0,0-2.82-3.24,50.66,50.66,0,0,0-10.85-7c-4.25-1.86-8.6-3.43-12.9-5.14a102.68,102.68,0,0,1-22.59-12.48,39.45,39.45,0,0,1-12.4-13.76A34,34,0,0,0,474.5,529c-2.43-2.07-4.8-4.22-7.15-6.39a70.38,70.38,0,0,1-16.24-23.5c-1.43-3.21-2.69-6.49-3.92-9.78-2.35-6.28-4.63-12.59-6.94-18.89a20.44,20.44,0,0,0-9.73-11.4c-.42-.23-.84-.46-1.27-.67a101.38,101.38,0,0,1-15.74-10,82.66,82.66,0,0,1-10.4-9.19c-1.11-1.15-2.13-2.38-3.17-3.59-2.92-3.39-5.87-6.76-8.74-10.19a69,69,0,0,1-9.63-15.4,30.59,30.59,0,0,1-2.15-7.34,9.18,9.18,0,0,1,1.54-7.27,79.83,79.83,0,0,1,11.83-13.79c3.69-3.3,7.23-6.78,10.77-10.24a59.1,59.1,0,0,0,7.73-9.13c.36-.53.75-1,1.07-1.59,2.3-3.86,2.42-5.09-.2-8.69a48.54,48.54,0,0,0-5.54-6.6c-5.53-5.32-11-10.74-16.59-15.95a66.93,66.93,0,0,1-12.63-15.57c-4.24-7.33-8.68-14.54-12.85-21.91a209.52,209.52,0,0,1-10.39-21.57c-1.75-4.12-3.35-8.29-5.05-12.43a25.2,25.2,0,0,0-1.32-2.52,1.25,1.25,0,0,0-1.29-.35,27.24,27.24,0,0,0-2.77,1.85c-4.41,3.69-8.78,7.44-13.18,11.14-8.32,7-16.39,14.27-24.55,21.45-6.24,5.49-12.54,10.9-18.75,16.42-9.79,8.71-19.45,17.58-28.66,26.91a240.4,240.4,0,0,0-20,23.24c-5.62,7.37-11.34,14.67-17,22l-20,25.77c-1.47,1.89-3,3.76-4.46,5.65-5,6.28-9.85,12.59-14.85,18.82a107,107,0,0,1-14.15,14.95,55,55,0,0,1-6.54,4.84,39.16,39.16,0,0,0-7.49,5.94c-1.9,1.94-3.73,3.95-5.6,5.93a83.2,83.2,0,0,1-27.58,19.54,36.39,36.39,0,0,1-7.32,2.24A170.71,170.71,0,0,1,89,484.94c-4.47.22-8.92.58-13.39.83-1.75.1-3.51.06-5.27.08a3.38,3.38,0,0,1-2.77-1.63,6.71,6.71,0,0,1-.71-1.25,3,3,0,0,1-.17-2.33,19.35,19.35,0,0,1,3.13-5.9c2.93-3.59,5.84-7.2,9.56-10.05a61,61,0,0,0,8.54-8.39A17.61,17.61,0,0,0,90,453.12a5.1,5.1,0,0,0,.34-3.74,4.67,4.67,0,0,0-.88-1.66,19.61,19.61,0,0,0-4.74-4A75.11,75.11,0,0,0,72,437c-.59-.24-1.2-.46-1.81-.64-1.22-.36-2.27-1.32-3.57-1.25-1.69.08-2.89,1.3-4.15,2.25-2.93,2.22-5.85,4.45-8.68,6.8-5.53,4.6-11,9.27-16.46,13.93q-10.95,9.33-21.87,18.68c-1,.83-1.9,1.71-2.9,2.51a3.84,3.84,0,0,0-1.15,2.54,2,2,0,0,1-.7-1.63,18.23,18.23,0,0,0-.74-5,31.78,31.78,0,0,0-1.13-4.89,2.27,2.27,0,0,0,1.79-.45l4-3.41,16.76-14.34c5.1-4.36,10.17-8.76,15.33-13.06,3.31-2.76,6.72-5.42,10.14-8a33.6,33.6,0,0,1,16.64-6.82c1.9-.23,3.79-.57,5.7-.7a53.82,53.82,0,0,1,22.52,3.68c3.29,1.23,6.53,2.59,9.73,4,4.52,2.05,9.18,3.7,13.86,5.32q7.69,2.66,15.38,5.37a29.69,29.69,0,0,1,3.59,1.34c3.53,1.75,6.85.91,10.09-.72A40,40,0,0,0,164.82,435c3.26-3.29,6.48-6.64,9.5-10.15s6-7.51,8.93-11.27c4.45-5.65,8.94-11.27,13.36-16.95,5.8-7.44,11.54-14.92,17.32-22.37,8.33-10.74,16.54-21.56,25.06-32.15,4.3-5.35,9-10.37,13.79-15.32,6.42-6.69,13.27-12.95,20.1-19.22,11.78-10.81,24-21.16,35.92-31.77,9.33-8.28,18.89-16.27,28.39-24.35,1.94-1.65,4.06-3.1,6.09-4.65,3.83-2.92,8.09-3.39,12.72-2.49a53.42,53.42,0,0,1,14,4.79c3.42,1.73,6.78,3.6,10,5.6,4.22,2.59,8.28,5.44,12.67,7.74a52.13,52.13,0,0,1,4.45,2.83c3.61,2.37,7.23,4.7,11,6.75A90.62,90.62,0,0,1,419,279.14c6.17,4.57,12.58,8.78,19.11,12.8,2.71,1.67,5.61,3.06,8.44,4.53,1.42.73,2.87,1.41,4.35,2a52.55,52.55,0,0,1,15.77,10.71,166.15,166.15,0,0,1,25.54,30.4c5.68,8.7,11.77,17.12,17.94,25.47s12.89,16.31,19.86,24c3.42,3.78,7.33,7.13,11.11,10.57,7.45,6.77,15,13.42,22.46,20.21a280.21,280.21,0,0,1,23.61,24.51c.94,1.09,1.94,2.13,2.94,3.16q7.53,7.73,15.09,15.42c.56.57,1.14,1.1,1.76,1.7a27,27,0,0,0,8.54-.57,85,85,0,0,0,11.83-3.82c9.92-4,19.61-8.58,29.1-13.53,11.9-6.2,23.71-12.55,35.24-19.43,6-3.6,12.07-7.21,18.15-10.73,2.9-1.67,5.92-3.15,8.91-4.67a12.33,12.33,0,0,1,5.08-1.23,31.79,31.79,0,0,1,14.07,2.26,71.14,71.14,0,0,1,10.65,5.43c5.82,3.69,11.16,8,16.62,12.19,1.78,1.36,3.51,2.77,5.28,4.14.58.45,1.22.16,1.83,0-.11,2.21-.9,4.31-.91,6.57s-1.1,4.31-.94,6.59c-1.13,2.68-.57,5.71-1.7,8.39-.42,4.77-1.83,9.34-2.72,14-1.41,7.35-3.62,14.49-5.17,21.79-.07.31-.16.62-.26.92-2.7,8.66-5.25,17.37-8.34,25.91-1.78,4.94-3.73,9.83-5.68,14.71q-3.9,9.78-8.54,19.22c-1.54,3.14-2.7,6.48-4.43,9.54-3,5.28-5.59,10.75-8.76,15.92-1.33,2.17-2.45,4.46-3.77,6.66-4.93,8.19-10,16.28-15.53,24.1-3.21,4.55-6.34,9.15-9.82,13.51-2.58,3.23-5.11,6.51-7.7,9.73-1.7,2.11-3.65,4-5.24,6.19-2.1,2.85-4.83,5.12-6.93,7.9-3.29,4.37-7.32,8-11.1,11.88s-7.89,7.93-11.86,11.86a35.83,35.83,0,0,1-6.09,5.37,16.4,16.4,0,0,0-2.46,2.27c-1.62,1.54-3,3.28-5.09,4.32a2.38,2.38,0,0,0-.73.61c-2.4,2.83-5.48,4.88-8.34,7.15S624.63,694.58,621.65,696.69Zm102-268.51a8,8,0,0,0-2.57-6.69,1.69,1.69,0,0,0-1.75-.44c-1.58.77-3.18,1.5-4.7,2.37-4.56,2.63-9.08,5.34-13.63,8-7.17,4.18-14.29,8.46-21.55,12.48-7,3.87-14.08,7.53-21.16,11.2-9.07,4.7-18.29,9.11-27.79,12.89a77.64,77.64,0,0,1-14.14,4.45,12.37,12.37,0,0,0-2.74.82,1.41,1.41,0,0,0-.56,1.18,3.78,3.78,0,0,0,.74,1.72c1.77,2.26,3.46,4.61,5.44,6.68,4.51,4.75,9.19,9.33,13.77,14A58.24,58.24,0,0,0,646.32,507c8.1,4.56,16.4,8.57,25.43,11,9.57,2.52,19.06,5.34,28.4,8.62.15.05.29.12.45.17l.46.13c1.4.41,2.22-.08,2.31-1.45.28-4,.56-8,.77-11.95a38.17,38.17,0,0,1,2.78-12.57,81.49,81.49,0,0,1,5.52-11.16c3-5,6.67-9.37,11.74-12.41a57.23,57.23,0,0,1,5-2.81c1.72-.81,2.14-2.1,2.2-3.85a15.19,15.19,0,0,0-1.72-7.38,16.32,16.32,0,0,0-3.35-4.64,55.72,55.72,0,0,1-4.1-4,12.4,12.4,0,0,1-3-10.66,33.14,33.14,0,0,1,2.61-7.68A17.89,17.89,0,0,0,723.67,428.18Z"/><path class="cls-4" d="M1004.25,597.74c-8.28.1-20.75.23-33.22.44-2.55,0-5.08.45-7.63.59-2.39.13-4.8,0-7.19.19-5.1.32-10.22.49-15.28,1.16-5.23.69-10.51.66-15.71,1.56-2.82.49-5.69.68-8.54,1q-6.4.71-12.79,1.7c-3.31.52-6.63.94-9.95,1.38-3.79.51-7.59.93-11.37,1.5-5.83.88-11.68,1.58-17.53,2.29-1.11.13-2.23.06-3.35.13-2.07.12-4.14.28-6.22.41a22.17,22.17,0,0,1-3.35.16c-6.66-.59-13.37-.72-19.91-2.48a54.9,54.9,0,0,1-10.78-3.91,24.79,24.79,0,0,1-6.15-4.52c-4.91-4.84-4.69-13.05-.22-17.83a22.33,22.33,0,0,1,6.06-4.64,43,43,0,0,1,9.87-3.62,83.39,83.39,0,0,1,19-2.29,138.58,138.58,0,0,1,14.84.51c2.37.25,4.75.53,7.11.88l18.42,2.74c6,.89,12,1.85,18,2.6,6.64.83,13.29,1.6,20,2.27,5.71.58,11.44,1,17.15,1.51,1.59.15,3.18.24,4.78.31a33.09,33.09,0,0,1,6.2.48,13.63,13.63,0,0,0,2.86.2c14.54.41,29.08.9,43.63.81,12.31-.08,24.62,0,36.93,0a59.5,59.5,0,0,0,10.5-.75,41.63,41.63,0,0,0,12.23-4,34.23,34.23,0,0,0,8.43-6.26,62.94,62.94,0,0,1,8.22-7.33A70.1,70.1,0,0,1,1104.51,554a97.13,97.13,0,0,1,23.31-2.05c3,0,6.08.09,9.11.27,2.54.15,5.08.41,7.61.76a220.51,220.51,0,0,1,28.12,5.56,177.72,177.72,0,0,1,20.86,7.07,92,92,0,0,1,14.89,7.69,42.68,42.68,0,0,1,9.11,7.74,14.13,14.13,0,0,1,3.36,6.27,13.6,13.6,0,0,1-2.59,11.77,35.3,35.3,0,0,1-8,7.47,90.06,90.06,0,0,1-15.12,8.25A182.5,182.5,0,0,1,1162.26,625q-7,1.54-14.11,2.51a120.45,120.45,0,0,1-18.6,1.48c-2.88-.07-5.76,0-8.63,0a79.39,79.39,0,0,1-29.35-6.09,57,57,0,0,1-15.54-9.34,64.39,64.39,0,0,1-4.88-4.61c-4.91-5.15-11-8.12-17.78-9.84a58.94,58.94,0,0,0-14.26-1.38C1028.9,597.7,1018.67,597.74,1004.25,597.74Z"/><path class="cls-4" d="M1175.2,656.21h-37.89c-1.44,0-2.88,0-4.32,0a6,6,0,0,0-1.87.35,2.65,2.65,0,0,0-1.83,2c-.13.69.7,1.81,1.6,2.17a4.52,4.52,0,0,0,1.37.38c1.44.06,2.88.05,4.32.05h77.22c1.44,0,2.88,0,4.31.11a4.1,4.1,0,0,1,3.33,2.44,1.85,1.85,0,0,1,.18.93,4.09,4.09,0,0,1-2.74,3,9.74,9.74,0,0,1-1.43.12l-5.28,0h-74.82c-1.44,0-2.88,0-4.32,0a6.69,6.69,0,0,0-1.87.38,2.82,2.82,0,0,0-1.87,2c-.22.78.92,2.17,2,2.4a13.63,13.63,0,0,0,2.36.37c1.6.06,3.2,0,4.8,0h74.82c1.6,0,3.2,0,4.8.05a3.84,3.84,0,0,1,3.15,1.9,2.18,2.18,0,0,1,0,2.66,3.87,3.87,0,0,1-3.21,1.79c-1.6,0-3.2,0-4.8,0h-75.3c-1.76,0-3.52,0-5.27.12a4.25,4.25,0,0,0-2.59,1.12,1.72,1.72,0,0,0,.08,2.86,8,8,0,0,0,2.58,1.15,9.9,9.9,0,0,0,2.38.14c1.76,0,3.52,0,5.28,0h72.9c1.6,0,3.2,0,4.8,0a3.8,3.8,0,0,1,2.92,1.4c1.25,1.33,1.27,2.5.08,3.78a4.5,4.5,0,0,1-2.83,1.65c-1.43.14-2.86.29-4.29.35-2.39.1-4.79-.06-7.15.58a7.55,7.55,0,0,1-1.91.13c-5.92.05-11.8.64-17.69,1.12-1.27.1-2.56.07-3.83.12a24.45,24.45,0,0,0-5.72.49,4.9,4.9,0,0,1-1.42.18c-5-.18-9.88.71-14.83.83-3.35.08-6.7.35-10,.49-2.39.1-4.71.79-7.14.7s-4.79.16-7.18.26a143.7,143.7,0,0,1-18.21-.1c-1.27-.11-2.55-.13-3.83-.18a88.74,88.74,0,0,1-17-2.42,43.67,43.67,0,0,1-10.73-4,100.37,100.37,0,0,0-26-9.39A152.32,152.32,0,0,0,1046,678.6a181.39,181.39,0,0,0-19.62-.87c-13.75-.12-27.5-.07-41.25,0-7.51,0-15,.21-22.54.32a13.64,13.64,0,0,0-1.92.08c-3.65.54-7.35.34-11,.75-5.86.66-11.77.73-17.63,1.58-4.24.61-8.55,1-12.82,1.43-2.84.31-5.68.7-8.51,1.19-3.45.59-6.94,1-10.41,1.46-3.31.45-6.63.86-9.94,1.38-3.14.49-6.29,1-9.44,1.42-3.62.54-7.26,1-10.87,1.58-3,.48-6,.48-9.06.8a90.79,90.79,0,0,1-22.94-.62,59.26,59.26,0,0,1-16.07-4.5,25.65,25.65,0,0,1-7.12-4.8,10.78,10.78,0,0,1-3.56-6.09c-.13-.78-.54-1.5-.74-2.27a2.65,2.65,0,0,1-.07-1.42c.73-2.27.92-4.73,2.28-6.76a19.41,19.41,0,0,1,5.13-5,30.9,30.9,0,0,1,9.56-4.32,69.4,69.4,0,0,1,13.14-2.47c3.34-.28,6.67-.53,10-.63a120.26,120.26,0,0,1,15.76,1c6.34.65,12.62,1.73,18.9,2.78,4.24.71,8.5,1.26,12.74,2,6,1,12,1.51,18,2.65,4.47.12,8.85,1.2,13.33,1.3,6,1.12,12.1.8,18.1,1.7a6.22,6.22,0,0,0,1,.08c8.15,0,16.26,1,24.42.91,19.18-.14,38.37,0,57.55-.05,4.62,0,9.27.35,13.84-.7a104.27,104.27,0,0,0,22.5-4.3A136.67,136.67,0,0,0,1086,651a53.32,53.32,0,0,1,10.72-4.11c2.18-.49,4.34-1.08,6.53-1.45a99.63,99.63,0,0,1,15.7-1.53c6.07-.06,12.16-.21,18.22,0,5.25.22,10.54.11,15.76,1a6.11,6.11,0,0,0,1,0c6.39.2,12.74,1,19.12,1.16,5.11.14,10.16,1.1,15.29.93,4.1.82,8.29.41,12.41,1a27.44,27.44,0,0,0,2.87.14,49.77,49.77,0,0,1,6.67.49,46.63,46.63,0,0,0,6.7.31,5.27,5.27,0,0,1,4.44,2.4,2.22,2.22,0,0,1,0,2.67,4.57,4.57,0,0,1-4,2.21c-1.44-.06-2.88,0-4.32,0Q1194.17,656.18,1175.2,656.21Z"/><path class="cls-4" d="M994.83,379c-.69.07-1.31.18-1.93.18-5.91,0-11.83-.05-17.74,0-1.91,0-2.84-.77-3.51-2.5-1.74-4.46-3.65-8.86-5.49-13.28q-7.17-17.26-14.33-34.52c-.42-1-1-2-1.37-2.83a2.84,2.84,0,0,0-.66-.23c-4.47,0-8.94-.08-13.41-.09a1.55,1.55,0,0,0-1.55,1.5c-.05,1.44-.07,2.87-.07,4.31q0,21.59,0,43.16c0,4.64.33,4.46-4.39,4.45h-12c-.8,0-1.59-.06-2.39-.11a1.37,1.37,0,0,1-1.15-1.3c0-1.28-.09-2.55-.09-3.83V256.39c0-5.43-.33-5,4.82-5h36.91a43,43,0,0,1,11.4,1.22A31.47,31.47,0,0,1,982.71,261a28.56,28.56,0,0,1,5.34,7.91,30.83,30.83,0,0,1,3,12c.15,4.95.12,9.91,0,14.86a30.23,30.23,0,0,1-2.2,10.27,28.36,28.36,0,0,1-14.46,15.93c-2.87,1.38-3.21,1.39-1.79,4.62q10.54,23.9,21,47.82c.45,1,.91,2.05,1.26,3.1A4.16,4.16,0,0,1,994.83,379ZM947.78,270.61h0c-3.19,0-6.38,0-9.57,0-.79,0-1.58.1-2.37.17-.57.05-.77.52-.94,1a2.48,2.48,0,0,0-.1.95q0,15.79,0,31.58c0,.32.05.64.08.95a1.49,1.49,0,0,0,1.33,1.14c7.65,0,15.31.18,22.95-.07,4.68-.15,8-2.8,10-7.07a11.25,11.25,0,0,0,1.15-4.61c0-4,0-8,0-12a7.57,7.57,0,0,0-.27-1.89c-1.2-4.6-3.7-8.06-8.42-9.6a13.6,13.6,0,0,0-4.25-.54Z"/><path class="cls-4" d="M1234.53,475c.27.79.53,1.69.9,2.55q6.61,15.15,13.26,30.29c2.63,6,5.29,12,7.91,18,.45,1,.81,2.08,1.21,3.12a1.11,1.11,0,0,1-.64,1.11c-.15,0-.3.13-.45.13q-9.83,0-19.65,0a2.23,2.23,0,0,1-2.21-1.51q-5.94-14.4-11.91-28.78-3.95-9.51-7.92-19c-.49-1.18-1-2.34-1.5-3.41-.42-.18-.7-.42-1-.42q-6.7-.06-13.42-.06a1.48,1.48,0,0,0-1.44,1.57c0,1.44,0,2.88-.06,4.31q0,21.34,0,42.68c0,1.27-.08,2.55-.2,3.81,0,.24-.38.52-.65.65a2.1,2.1,0,0,1-.94.16c-5.43,0-10.87,0-16.3,0a1.67,1.67,0,0,1-1.87-1.7c0-1.6-.06-3.2-.06-4.79V434q0-13.19,0-26.38c0-1.28.06-2.55.12-3.83a1.45,1.45,0,0,1,1.18-1.29c.79-.05,1.59-.11,2.39-.11h38.35a42.62,42.62,0,0,1,12.75,1.84c11.19,3.49,18,11,20.7,22.42a17.42,17.42,0,0,1,.46,2.35c.7,8,1.19,16-.59,23.86a28.67,28.67,0,0,1-15.13,20C1236.74,473.39,1235.44,473.69,1234.53,475Zm-36.89-35.62c0,5,0,9.9,0,14.85a9.86,9.86,0,0,0,.2,2.37c.09.37.56.7.93.94a1.78,1.78,0,0,0,.93.16c6.86,0,13.72,0,20.58,0a17.53,17.53,0,0,0,4.23-.68,10.93,10.93,0,0,0,6.9-5.52,13.25,13.25,0,0,0,1.78-6.39c.06-3.51,0-7,0-10.53a13.58,13.58,0,0,0-.29-2.37A12.46,12.46,0,0,0,1222.8,422a14.25,14.25,0,0,0-2.84-.28c-6.54,0-13.08,0-19.63,0a13.62,13.62,0,0,0-1.42.13,1.51,1.51,0,0,0-1.18,1.3c0,.64-.09,1.27-.09,1.91C1197.63,429.76,1197.64,434.55,1197.64,439.34Z"/><path class="cls-4" d="M875.49,474.89c.43,1.13.84,2.33,1.34,3.48q9.33,21.3,18.7,42.58c3.21,7.27,3.76,8.69,3.25,8.84-3,.87-6,.3-9,.39-3.35.1-6.71,0-10.07,0-.94,0-1.88-.13-2.55-.17a5.78,5.78,0,0,1-1.88-3q-9.59-23-19.12-46c-.49-1.18-1-2.35-1.47-3.44-.4-.18-.69-.43-1-.43Q847,477,840.25,477a1.44,1.44,0,0,0-1.46,1.53c0,.48,0,1,0,1.44,0,1.28,0,2.56,0,3.84q0,20.86,0,41.74c0,1.27-.08,2.55-.2,3.81,0,.24-.37.52-.63.66a2.1,2.1,0,0,1-.94.16H820.64a5.09,5.09,0,0,1-.93-.18,1.13,1.13,0,0,1-.91-1c-.12-1.27-.12-2.55-.12-3.83q0-18,0-36,0-40.79,0-81.57c0-1.43.09-2.87.2-4.3a1,1,0,0,1,.62-.67,8,8,0,0,1,1.89-.24c4,0,8-.09,12-.08q13.9,0,27.82.08a41.85,41.85,0,0,1,12.28,1.83,29.91,29.91,0,0,1,13,7.76A28.63,28.63,0,0,1,893,422.53a35.23,35.23,0,0,1,2.09,11.27c0,4,.11,8,0,12a34.14,34.14,0,0,1-3.82,14.73,28.39,28.39,0,0,1-12,12.09C878,473.3,876.57,473.62,875.49,474.89Zm-36.76-35.47c0,4.95,0,9.9,0,14.85a9.86,9.86,0,0,0,.2,2.37,1.76,1.76,0,0,0,1,.89,3.67,3.67,0,0,0,1.41.16h19.15a15.18,15.18,0,0,0,1.91-.05c3.24-.41,6.22-1.37,8.48-3.93a12.82,12.82,0,0,0,3.38-8.25c.12-3.67.06-7.34,0-11a13,13,0,0,0-1.38-5.54,11.76,11.76,0,0,0-7.72-6.65,17.48,17.48,0,0,0-4.72-.62c-6.22,0-12.45,0-18.67,0a6.6,6.6,0,0,0-1.89.16,1.57,1.57,0,0,0-1,.89,9.86,9.86,0,0,0-.2,2.37Q838.72,432.23,838.73,439.42Z"/><path class="cls-4" d="M1141,227.66c-.45-.92-.93-1.75-1.29-2.63q-9.65-23.24-19.28-46.48c-.54-1.3-.8-2.79-2.2-3.81-4.48-.19-9.11-.14-13.74,0a1.33,1.33,0,0,0-1.24,1.18c0,1.6-.1,3.19-.1,4.79q0,20.87,0,41.73c0,1.44,0,2.88-.13,4.31a1.15,1.15,0,0,1-.92,1,5.09,5.09,0,0,1-.93.18q-8.14,0-16.3,0a2.1,2.1,0,0,1-.94-.17,1.2,1.2,0,0,1-.62-.68,22.6,22.6,0,0,1-.18-2.85q0-60,0-119.92a26.5,26.5,0,0,1,.24-3.33,1,1,0,0,1,.64-.63,9.09,9.09,0,0,1,1.88-.2c2.88,0,5.75-.09,8.63-.09l30.69.09a44.09,44.09,0,0,1,12.3,1.73,29.67,29.67,0,0,1,13.45,8,27.6,27.6,0,0,1,5.34,7.9,32.11,32.11,0,0,1,2.93,11.55,143,143,0,0,1,0,16.3,31.76,31.76,0,0,1-3.25,12,27.9,27.9,0,0,1-11.61,12.4c-1.25.7-2.55,1.32-3.83,2a1.2,1.2,0,0,0-.51,1.23c.65,1.63,1.28,3.26,2,4.87q10.1,23,20.22,46.08c.38.88.73,1.77,1.09,2.66.14.34-.33,1-.72,1s-1,.12-1.43.12q-8.87,0-17.74,0A18.75,18.75,0,0,1,1141,227.66Zm-37.85-90.3h0c0,4.62,0,9.25,0,13.87,0,1,.06,1.91.12,2.86a1.41,1.41,0,0,0,1.25,1.22c.48,0,1,.07,1.43.07h19.12a15.18,15.18,0,0,0,1.91-.06c5.18-.64,9-3.19,10.77-8.21a14.91,14.91,0,0,0,1-5.14q0-4.31,0-8.61a16,16,0,0,0-1.25-6,11.55,11.55,0,0,0-8.64-7.49,16.8,16.8,0,0,0-3.3-.45c-6.85,0-13.71,0-20.56,0a2,2,0,0,0-.91.19c-.26.13-.6.38-.65.62a12.38,12.38,0,0,0-.29,2.35C1103.13,127.48,1103.14,132.42,1103.14,137.36Z"/><path class="cls-4" d="M1315,309.6c.67,1.16,1.11,2,1.62,2.81q6.48,10.36,13,20.71c.34.54.72,1.05,1.09,1.56a.81.81,0,0,0,1.2-.09c.28-.57.6-1.12.83-1.71a72.17,72.17,0,0,0,3.68-16.8c.08-.63.14-1.26.22-1.89s.52-.78.94-1a2.48,2.48,0,0,1,1-.11h15.34c1.46,0,1.9.57,1.76,2.11,0,.32,0,.64-.09.95-1.88,11.91-5,23.4-10.84,34.06-.23.42-.42.86-.63,1.29a1.78,1.78,0,0,0,.16,1.81c.59.95,1.22,1.87,1.86,2.79q6.27,9.06,12.56,18.11a14.05,14.05,0,0,1,1.18,2.06.9.9,0,0,1-.33.77,1.73,1.73,0,0,1-.92.17h-18.69c-.63,0-1.26-.1-2-.17-1.33-2.13-2.69-4.28-4-6.45-.76-1.22-1.47-2.48-2.27-3.67a4.56,4.56,0,0,0-1.15-.9c-1.1,1-2.14,2-3.22,2.94a39.42,39.42,0,0,1-14.87,8.45,37.26,37.26,0,0,1-19.87.58c-8.11-2-13.78-7.11-17.35-14.6a38.05,38.05,0,0,1-3.39-11.94,53.2,53.2,0,0,1,.38-16.7,38.9,38.9,0,0,1,10-19.32,54.74,54.74,0,0,1,7.09-6.43c.75-.56,1.69-.95,2.13-2.1a6.09,6.09,0,0,0-.41-1.13c-1.4-2.51-2.9-5-4.23-7.51a50.1,50.1,0,0,1-5.39-25.49,29.47,29.47,0,0,1,3.45-13.34,22.8,22.8,0,0,1,16-11.8,29.21,29.21,0,0,1,16,1,20.66,20.66,0,0,1,11.13,9.35,27.53,27.53,0,0,1,3.6,10.84,45.09,45.09,0,0,1-1.2,18.05,43.26,43.26,0,0,1-10.62,18C1318.18,306.39,1316.71,307.84,1315,309.6Zm-24.88,32.24c.14,2.25.12,4.18.39,6.07.61,4.36,2.14,8.32,5.46,11.4a9.54,9.54,0,0,0,5,2.59,16.09,16.09,0,0,0,11.08-1.82,24.36,24.36,0,0,0,8.06-8,1.63,1.63,0,0,0,.06-1.35,20.87,20.87,0,0,0-1.43-2.47L1302.18,322c-.34-.54-.68-1.08-1-1.6-.49-.72-1.29-.73-2-.05a26.83,26.83,0,0,0-8.32,14.73C1290.36,337.38,1290.3,339.79,1290.1,341.84Zm24.52-66.46c0-3.34,0-6.05-1-8.64a9.49,9.49,0,0,0-2.28-3.59,6.55,6.55,0,0,0-9.73.58,11,11,0,0,0-1.47,2.44,15.66,15.66,0,0,0-1.17,5.1,41,41,0,0,0,5.45,23.87,11.68,11.68,0,0,0,.83,1.16,1,1,0,0,0,1.28.15,19.34,19.34,0,0,0,5.67-8.15A32.54,32.54,0,0,0,1314.62,275.38Z"/><path class="cls-4" d="M1350,466.55V493.4a43.56,43.56,0,0,1-2.73,15.49,33.08,33.08,0,0,1-15.24,17.81,36,36,0,0,1-9.37,3.56,47.69,47.69,0,0,1-27.36-1.26c-10.49-3.72-17.38-11-21-21.49a39.37,39.37,0,0,1-2.17-11.74c0-1.44-.07-2.88-.07-4.31q0-25.17,0-50.34a51.05,51.05,0,0,1,1-11.43c1.64-7.17,4.76-13.52,10.18-18.63a33.47,33.47,0,0,1,13.14-7.64,47.58,47.58,0,0,1,27.39-.5c13.78,3.82,21.93,13,25.13,26.81a48.57,48.57,0,0,1,1,10.95v25.89S1350,466.55,1350,466.55Zm-57.43-.41h0c0,.8,0,1.6,0,2.4,0,7.68,0,15.35,0,23a26.52,26.52,0,0,0,.76,6.65c1.68,6.58,5.59,11,12.28,12.76a21.94,21.94,0,0,0,9.5.32,16.3,16.3,0,0,0,9.23-4.73,17.91,17.91,0,0,0,4.47-8.35,33.29,33.29,0,0,0,.77-8.09q0-20.86,0-41.73c0-2.72,0-5.44,0-8.15a22.78,22.78,0,0,0-.85-6.16c-1.61-6-5.25-10.09-11.26-12a24,24,0,0,0-8.54-.75,16.29,16.29,0,0,0-15.49,12.77,27.82,27.82,0,0,0-.86,7.12C1292.62,449.51,1292.59,457.83,1292.59,466.14Z"/><path class="cls-4" d="M872.51,288.46c-.38-1.79-.73-3.67-1.17-5.52a18.46,18.46,0,0,0-3-6.51,13.58,13.58,0,0,0-10-5.89,28,28,0,0,0-5.26,0c-5.69.55-9.81,3.53-12.56,8.48a24,24,0,0,0-2.63,10.13c-.07,1,0,1.92,0,2.88V341a30.55,30.55,0,0,0,.49,5.72c1.37,7.3,6.58,12.27,14.42,13.3a26.28,26.28,0,0,0,6.69,0,15.58,15.58,0,0,0,13.29-10.31,19.14,19.14,0,0,0,1.45-7c0-4,0-8,0-12,0-1.15-.56-1.66-1.81-1.67-4.16,0-8.31,0-12.47-.06a12.45,12.45,0,0,1-2.35-.27c-.24-.05-.48-.39-.61-.65a2.07,2.07,0,0,1-.19-.93q0-7.92,0-15.83a1.47,1.47,0,0,1,1.47-1.51l1.44-.06h1.44q14.63,0,29.26,0a28.81,28.81,0,0,1,3.34.22,1,1,0,0,1,.65.65,8,8,0,0,1,.2,1.9c0,9.6,0,19.19,0,28.79a46.68,46.68,0,0,1-1.39,11.88,36.86,36.86,0,0,1-9.41,17A33,33,0,0,1,868.14,379a47.59,47.59,0,0,1-26.5-.71c-12.65-4.08-20.27-12.83-23.2-25.74a39.78,39.78,0,0,1-1-8.56c0-2.24,0-4.48,0-6.72q0-21.83,0-43.66c0-2.72,0-5.44.19-8.15a42,42,0,0,1,5-17.39,33.3,33.3,0,0,1,20.48-16.25,43.24,43.24,0,0,1,15.18-1.63,47.59,47.59,0,0,1,9.48,1.33c9.15,2.44,16.06,7.72,20.45,16.12a48.14,48.14,0,0,1,5.24,19.78,1.86,1.86,0,0,1-.14.94c-.13.25-.44.59-.68.59a173.2,173.2,0,0,1-19.6-.15C872.85,288.76,872.72,288.6,872.51,288.46Z"/><path class="cls-4" d="M995.25,164.07V106.53c0-1.44,0-2.88,0-4.32s.59-2,2.08-2c.8,0,1.6,0,2.4,0h60.88c4.74,0,4.5-.19,4.49,4.38s0,9-.06,13.42a1.45,1.45,0,0,1-1.49,1.48c-.64,0-1.28.06-1.92.06H1021.4c-1.44,0-2.88,0-4.31.06-1.06,0-1.65.72-1.69,1.89q0,1,0,1.92V151.2c0,.64,0,1.28,0,1.92.05,1.1.63,1.64,1.86,1.68,1,0,1.92,0,2.88,0,10.55,0,21.09,0,31.64,0,7.28,0,6.31-.92,6.38,6.33,0,3.36,0,6.71,0,10.07,0,2.67-.24,2.86-3.1,2.9-1.28,0-2.56,0-3.83,0q-15.83,0-31.64,0a26.36,26.36,0,0,0-3.32.26,1,1,0,0,0-.65.64,19.45,19.45,0,0,0-.24,2.85q0,11,0,22.06c0,2.4,0,4.79.08,7.19a1.38,1.38,0,0,0,1.16,1.3c1.43.06,2.87.13,4.3.13h39.79c4.72,0,4.43-.17,4.44,4.43q0,6.48,0,12.95c0,1.45-.5,1.88-2.07,1.93q-1,0-1.92,0h-3.36c-11,0-22,0-33.07,0-3.67,0-7.35.18-11,.17-5.59,0-11.18-.14-16.77-.24a1.56,1.56,0,0,1-1.58-1.47c-.05-1.44-.07-2.88-.07-4.31Q995.24,193.08,995.25,164.07Z"/><path class="cls-4" d="M818.68,164V106.9c0-1.28,0-2.56,0-3.84,0-2.56.51-2.9,3.15-2.9H885.1c.64,0,1.28,0,1.91.06a1.5,1.5,0,0,1,1.49,1.52q0,8.15,0,16.3a1.48,1.48,0,0,1-1.57,1.41c-1.6,0-3.19.06-4.79.06q-19.41,0-38.82,0c-4.8,0-4.5.1-4.5,4.44v26.85a22.88,22.88,0,0,0,.12,2.87,1.05,1.05,0,0,0,.91,1c1.27.09,2.54.19,3.81.19h32.11c1.44,0,2.87,0,4.31.08a1.53,1.53,0,0,1,1.46,1.57q0,8.14,0,16.3a1.47,1.47,0,0,1-1.24,1.24c-1.43.06-2.87.12-4.3.12q-16.29,0-32.59,0c-4.72,0-4.57,0-4.57,4.38q0,12.94,0,25.89c0,1,0,1.92.08,2.87a1.38,1.38,0,0,0,1.26,1.2c1.11,0,2.23.1,3.35.1h41.7l1.44,0c1.22,0,1.84.57,1.89,1.64q0,.72,0,1.44v13.43c0,.48,0,1-.07,1.44a1.32,1.32,0,0,1-1.18,1.24c-1.43.06-2.87.12-4.31.12-11.18,0-22.37,0-33.55,0-4.15,0-8.3.19-12.46.17-5.59,0-11.18-.15-16.77-.25a1.59,1.59,0,0,1-1.47-1.58c0-1.44-.06-2.88-.06-4.31Q818.69,193,818.68,164Z"/><path class="cls-4" d="M1182.25,164.17v-59.5c0-4.52-.13-4.51,4.44-4.5q30.46,0,60.92,0a25,25,0,0,1,3.35.15c.36,0,.68.55,1,.87a.69.69,0,0,1,.12.46q0,8.16,0,16.31a1.48,1.48,0,0,1-1.5,1.49q-1,0-1.92.06h-3.84q-18.94,0-37.89,0c-4.82,0-4.54.08-4.54,4.4v26.39c0,1.12,0,2.24.12,3.35a1,1,0,0,0,.89,1c1.27.1,2.54.19,3.82.19h32.14c1.44,0,2.88,0,4.31.09a1.57,1.57,0,0,1,1.46,1.59c0,5.28,0,10.55,0,15.83a1.62,1.62,0,0,1-1.8,1.76c-1.28,0-2.56,0-3.84,0h-32.14a30.46,30.46,0,0,0-3.82.21c-.36,0-.71.55-1,.91a1.76,1.76,0,0,0-.16.93q0,15.12,0,30.23c0,.16,0,.32,0,.48a1.48,1.48,0,0,0,1.41,1.6c1.44.05,2.88.08,4.31.08h32.62c2.56,0,5.12,0,7.67,0,.8,0,1.6.05,2.39.09a1.37,1.37,0,0,1,1.21,1.25c0,.8.09,1.59.09,2.39q0,6,0,12c0,.64,0,1.28,0,1.92,0,1-.53,1.56-1.38,1.59-1.44,0-2.87.09-4.31.09-11.83,0-23.66,0-35.5,0-3.36,0-6.71.18-10.07.17-5.59,0-11.19-.14-16.78-.22a3.78,3.78,0,0,1-.47-.06,1.64,1.64,0,0,1-1.23-1.28c0-1.44-.08-2.88-.08-4.32Z"/><path class="cls-4" d="M918,466.22V408.16c0-1.44,0-2.87.09-4.31a1.48,1.48,0,0,1,1.19-1.29c1.28-.05,2.56-.09,3.83-.09q21.11,0,42.21,0c6.4,0,12.79,0,19.19,0a12.61,12.61,0,0,1,2.37.23c.25.05.49.38.64.65a1.94,1.94,0,0,1,.25.91q0,7.92,0,15.83c0,1.06-.7,1.64-1.89,1.67s-2.56,0-3.84,0H943.69c-1.44,0-2.88,0-4.31.13a1.07,1.07,0,0,0-1,.88,9.77,9.77,0,0,0-.2,1.41q0,15.36,0,30.71a4.18,4.18,0,0,0,.19,1.41,1,1,0,0,0,.68.62c1.27.1,2.55.15,3.83.15H976c1.28,0,2.55.06,3.82.16.25,0,.54.35.69.61a1.92,1.92,0,0,1,.22.92q0,8.16,0,16.31a1.29,1.29,0,0,1-1.22,1.2c-1.44.05-2.87.1-4.31.1H944c-1.28,0-2.56,0-3.84,0s-1.89.61-1.94,2.13c0,.16,0,.32,0,.48q0,14.64,0,29.27a3.91,3.91,0,0,0,.14,1.42c.16.39.54.93.86,1,1.43.14,2.87.16,4.31.16,13,0,25.9,0,38.85,0,5.81,0,5.54-.71,5.53,5.32,0,3.52,0,7,0,10.56a9.27,9.27,0,0,1-.22,2.36,1.48,1.48,0,0,1-1,.9,34.59,34.59,0,0,1-3.81.18h-60c-1.12,0-2.24,0-3.35-.08a1.39,1.39,0,0,1-1.43-1.53c0-1.44,0-2.88,0-4.32Q918,495.23,918,466.22Z"/><path class="cls-4" d="M1284.27,193.73c.33.66.62,1.21.88,1.78.54,1.16,1,2.37,1.59,3.49a19.61,19.61,0,0,0,15.08,10.59,27.12,27.12,0,0,0,13.23-1.24,12.9,12.9,0,0,0,8.5-8.48,14.51,14.51,0,0,0,.63-3.76c.1-2.4,0-4.8,0-7.2,0-4.78-2.28-8.26-6.12-10.75a31.57,31.57,0,0,0-6-2.94c-3.28-1.24-6.65-2.28-10-3.33a153.78,153.78,0,0,1-16.24-5.8,29.46,29.46,0,0,1-11.21-8.78,25.56,25.56,0,0,1-5-10.27,35.26,35.26,0,0,1-1.11-8.06c0-2.56,0-5.12,0-7.68a35.8,35.8,0,0,1,2-11.28A28.14,28.14,0,0,1,1284.22,104a36.79,36.79,0,0,1,9.85-3.66,54.45,54.45,0,0,1,22.84-.4c10.33,2.18,18,7.85,22.68,17.46a30.42,30.42,0,0,1,1.57,3.5c1.68,5,2.09,4.43-2.77,6.68l-9.57,4.42c-1,.47-2,.93-3.06,1.38a1.26,1.26,0,0,1-1.63-.53c-.59-1.31-1.14-2.64-1.76-3.94a19.94,19.94,0,0,0-4.83-6.5,16,16,0,0,0-10.47-4.12,28.47,28.47,0,0,0-8.07.92,15,15,0,0,0-6.31,3.29,11.74,11.74,0,0,0-4,8.41c-.11,2.39-.12,4.8,0,7.19a11.43,11.43,0,0,0,3.38,7.72,19,19,0,0,0,6.71,4.52c3.13,1.2,6.3,2.32,9.48,3.35,4.86,1.58,9.8,2.94,14.52,4.92,2.21.93,4.44,1.84,6.54,3a26.81,26.81,0,0,1,14.13,18.93,33.93,33.93,0,0,1,.78,6.66c0,3.52,0,7,0,10.55a33.29,33.29,0,0,1-1.82,9.87,28.26,28.26,0,0,1-13.41,16.24,41,41,0,0,1-13.53,4.65,60.78,60.78,0,0,1-20.05.11,41.55,41.55,0,0,1-12.28-3.91,32.13,32.13,0,0,1-15.39-16.46c-.75-1.76-1.25-3.62-1.85-5.43a1.61,1.61,0,0,1,.78-1.61c.28-.15.57-.3.86-.43q7.46-3.28,14.93-6.54A17.86,17.86,0,0,1,1284.27,193.73Z"/><path class="cls-4" d="M1078.14,427.44a8.58,8.58,0,0,1-1.5,1.15c-5.06,2.38-10.13,4.72-15.21,7.07a1.21,1.21,0,0,1-1.6-.59c-.53-1.16-1-2.35-1.56-3.5a22,22,0,0,0-4-5.91,16.25,16.25,0,0,0-12-5.11,27.59,27.59,0,0,0-7.58.94,15,15,0,0,0-7,3.95,10.79,10.79,0,0,0-3,5.87,34,34,0,0,0,0,11,10.36,10.36,0,0,0,2.78,5.47,18,18,0,0,0,6.17,4.46c2.21.92,4.43,1.82,6.7,2.59,3.18,1.08,6.39,2,9.59,3a105.21,105.21,0,0,1,13,4.94,29.13,29.13,0,0,1,7.28,4.56,27.41,27.41,0,0,1,9.47,18.78,86,86,0,0,1,0,16.28,36,36,0,0,1-.82,4.71c-2.34,9.9-8.39,16.69-17.61,20.72a43.6,43.6,0,0,1-11.52,3.13,61.61,61.61,0,0,1-18.14-.05,41.09,41.09,0,0,1-14-4.67c-8.25-4.64-13.37-11.68-15.86-20.73,0-.15-.05-.32-.08-.47a1.79,1.79,0,0,1,.8-1.61q1.51-.71,3.06-1.38,6.58-2.9,13.16-5.77a1.47,1.47,0,0,1,2,.73c.19.44.29.92.5,1.35.54,1.16,1.06,2.33,1.68,3.44a19.09,19.09,0,0,0,11.62,9.38,24,24,0,0,0,5.18.89,26.12,26.12,0,0,0,12.2-1.86,13.24,13.24,0,0,0,8.25-11.95c.15-2.23,0-4.48,0-6.71a12.84,12.84,0,0,0-5.51-10.65A19.67,19.67,0,0,0,1049,478c-3.92-1.36-7.87-2.65-11.8-4s-7.88-2.62-11.79-4a42.2,42.2,0,0,1-4.83-2.1c-9.6-4.86-15-12.65-16.08-23.36a80.2,80.2,0,0,1,0-14.37,31,31,0,0,1,2.28-9.28A28.65,28.65,0,0,1,1022.55,405a42.52,42.52,0,0,1,12-3.22c7.35-.88,14.67-.86,21.83,1.44a30.51,30.51,0,0,1,18.28,15.25A36.25,36.25,0,0,1,1078.14,427.44Z"/><path class="cls-4" d="M938.93,191.5a26,26,0,0,0,1.42-4.71q9.64-41.31,19.34-82.62c.29-1.23.71-2.43,1.09-3.69a14.11,14.11,0,0,1,2-.28c5.6,0,11.19,0,16.79,0,.32,0,.63.06,1,.08a1.09,1.09,0,0,1,.89,1.4c-1.26,4.95-2.51,9.91-3.8,14.86q-8.49,32.46-17,64.92c-3.68,14.07-7.27,28.16-11,42.21-1.14,4.28-.27,4.3-5.31,4.27-4,0-8,0-12,0a12,12,0,0,1-1.9-.13,1.56,1.56,0,0,1-1.38-1.14q-1.79-6.72-3.55-13.44-14.35-55-28.7-109.93c-.24-.92-.68-1.82-.14-2.77a3.12,3.12,0,0,1,.9-.28q9.1,0,18.22,0a1.52,1.52,0,0,1,1.7,1.34c.26.92.52,1.85.74,2.78q6.32,27.08,12.62,54.16l6.75,28.94A11.81,11.81,0,0,0,938.93,191.5Z"/><path class="cls-4" d="M1379.73,173.48q0-24.71,0-49.4a37.47,37.47,0,0,0-.24-3.81,1,1,0,0,0-.63-.63,13.28,13.28,0,0,0-2.36-.22c-6.07,0-12.15,0-18.22,0-1.44,0-2.88,0-4.31,0-2.81,0-3-.17-3-3q0-6.72,0-13.43a8,8,0,0,1,.22-1.89,1,1,0,0,1,.62-.65,28.51,28.51,0,0,1,3.33-.23h69c1,0,1.91,0,2.87.09a1.45,1.45,0,0,1,1.3,1.17,3.85,3.85,0,0,1,.08.47q0,7.91,0,15.82a1.46,1.46,0,0,1-1.41,1.59c-1.44.05-2.87.08-4.31.08-6.55,0-13.1,0-19.66,0a13.38,13.38,0,0,0-2.36.23,1.08,1.08,0,0,0-.63.64,4.72,4.72,0,0,0-.22,1.41c0,1.44,0,2.88,0,4.32q0,48.2,0,96.4c0,6.1.61,5.47-5.25,5.52-3.52,0-7,0-10.55,0-1,0-1.91,0-2.87-.09a1.44,1.44,0,0,1-1.37-1.61c0-1.44,0-2.88,0-4.31Q1379.73,197.69,1379.73,173.48Z"/><path class="cls-4" d="M1135.46,476.17q0,24,0,47.95c0,1.6-.07,3.19-.12,4.79a1.37,1.37,0,0,1-1.24,1.2h-17.24a1.37,1.37,0,0,1-1.26-1.17c-.06-1.76-.13-3.51-.13-5.27q0-48,0-95.9c0-1.59-.08-3.19-.15-4.78a1.42,1.42,0,0,0-1.28-1.2c-1.28-.05-2.55-.09-3.83-.09h-19.65c-.8,0-1.6,0-2.39-.08a1.37,1.37,0,0,1-1.28-1.15c0-1.44-.11-2.87-.12-4.31,0-3.52,0-7,0-10.55,0-.63.08-1.27.14-1.9a1.46,1.46,0,0,1,1.32-1.16c1,0,1.92-.07,2.87-.07h68.54c1,0,1.92,0,2.87.06a1.56,1.56,0,0,1,1.51,1.52q0,8.15,0,16.3a1.32,1.32,0,0,1-1.18,1.24c-1.44.05-2.87.1-4.31.1h-19.17c-.8,0-1.59,0-2.39.08a1.46,1.46,0,0,0-1.31,1.18c-.08,1.43-.15,2.87-.16,4.3Q1135.47,451.71,1135.46,476.17Z"/><path class="cls-4" d="M1055.68,315.41V256c0-4.73-.21-4.54,4.34-4.53s9.26,0,13.9,0c1.24,0,1.81.53,1.84,1.64,0,1.76,0,3.51,0,5.27q0,47.94,0,95.87c0,1.59.09,3.19.2,4.78a1,1,0,0,0,.63.65,8,8,0,0,0,1.89.22c2.72,0,5.43,0,8.15,0h33.06a34.66,34.66,0,0,1,3.82.14c.35,0,.71.53.94.89a1.91,1.91,0,0,1,.12.94c0,5.11,0,10.23,0,15.34,0,1.48-.48,1.88-2.07,1.91-1.28,0-2.56,0-3.83,0q-23.48,0-47,.07c-4.31,0-8.63,0-12.94-.08-.64,0-1.27-.07-1.91-.12a1.39,1.39,0,0,1-1.15-1.3c0-1.6-.08-3.19-.08-4.79Z"/><path class="cls-4" d="M1160.59,305.88q0,24,0,47.95c0,1.59.07,3.19.13,4.78a1.35,1.35,0,0,0,1.24,1.21c.8,0,1.6.07,2.39.07h12.46q14.15,0,28.28,0a30.65,30.65,0,0,1,3.32.2c.25,0,.53.36.66.61a2.08,2.08,0,0,1,.17.93q0,7.91,0,15.82a1.92,1.92,0,0,1-.22.92,1.18,1.18,0,0,1-.71.57c-1.27.1-2.54.17-3.82.17l-49.85.08c-3.83,0-7.67-.05-11.5-.08-.32,0-.64,0-1,0-1.15-.06-1.62-.56-1.66-1.85,0-1.12,0-2.24,0-3.36V256.4c0-1.12,0-2.24,0-3.36a1.49,1.49,0,0,1,1.39-1.58c.32,0,.64-.05,1-.05h15.34c.32,0,.64,0,1,.05.53,0,1.3.7,1.31,1.18,0,1.44.1,2.87.1,4.31Q1160.6,281.44,1160.59,305.88Z"/><path class="cls-4" d="M1013.2,315.4v-58c0-1.44,0-2.87,0-4.31,0-1.13.56-1.65,1.83-1.65q8.38,0,16.76,0a1.84,1.84,0,0,1,.91.2,1.17,1.17,0,0,1,.58.71c.09,1.43.14,2.87.14,4.3q0,58.46,0,116.91c0,1.44-.06,2.87-.11,4.3a1.3,1.3,0,0,1-1.26,1.16q-8.62,0-17.24,0a1.4,1.4,0,0,1-1.55-1.42c0-1.6-.08-3.19-.08-4.79Q1013.2,344.17,1013.2,315.4Z"/><path class="cls-3" d="M528.54,300.49a30.42,30.42,0,0,1,7.13.35c1.27.15,2.52.39,3.79.51,5.08.47,10.16,1,15.2,1.79a32.53,32.53,0,0,0,3.82.26,2,2,0,0,0,2.16-2.45c-.52-4.44-1.2-8.85-1.68-13.29-.49-4.6-1.48-9.14-1.53-13.78,0-.39.71-.83,1-.63.54.33,1.09.67,1.61,1L576.2,285.5c2,1.37,3.92,2.75,5.91,4.1a3.38,3.38,0,0,0,1.32.48,2,2,0,0,0,1.74-.6,3.9,3.9,0,0,0,.77-1.21q4.63-10.26,9.24-20.54c.59-1.31,1.19-2.62,1.88-3.88.19-.34.73-.48,1.19-.76,2,3.41,3.41,7,5,10.45,2.16,4.63,4.22,9.31,6.33,14a18.31,18.31,0,0,0,.89,1.7A2.2,2.2,0,0,0,613,290a13.54,13.54,0,0,0,2.07-1.16q8.05-5.62,16.08-11.3c1.57-1.1,3.13-2.22,4.72-3.29.76-.51,1.54-1.54,2.48-.91.61.41.18,1.47.07,2.26-.83,6.17-1.61,12.34-2.41,18.52-.29,2.22-.61,4.43-.87,6.64a2.89,2.89,0,0,0,.17,1.4,2.18,2.18,0,0,0,.92,1,2.85,2.85,0,0,0,1.39.25,32.76,32.76,0,0,0,4.77-.32c2.05-.38,4.12-.48,6.17-.79,4.42-.68,8.9-.76,13.31-1.53a13.53,13.53,0,0,1,5.23-.18.87.87,0,0,1,.39.72,8.57,8.57,0,0,1-1,1.58q-7.86,9.68-15.74,19.33c-1.88,2.31-1.64,3.67,1,4.77s5.34,2.13,8,3.19L676.65,337a4,4,0,0,1,1.23.7c.16.14.2.74.1.8a17.9,17.9,0,0,1-2.53,1.32c-6.83,2.69-13.68,5.35-20.52,8q-2,.78-4,1.65a2.19,2.19,0,0,0-.82,3.56c.58.76,1.21,1.48,1.82,2.23q7.54,9.3,15.09,18.62a4.52,4.52,0,0,1,.61,1.2.44.44,0,0,1-.18.4,2.43,2.43,0,0,1-.92.14,57.29,57.29,0,0,1-7.61-.82,20.55,20.55,0,0,0-3.33-.35c-4.62-.29-9.19-1-13.77-1.65a42.12,42.12,0,0,0-4.77-.3,1.88,1.88,0,0,0-1.87,1.8c.06,1.28.11,2.56.28,3.82.59,4.59,1.22,9.18,1.85,13.76.46,3.31.95,6.62,1.39,9.94a1,1,0,0,1-.31.82,1,1,0,0,1-.89,0,17.6,17.6,0,0,1-2-1.24l-19.24-13.48c-.65-.46-1.3-.93-2-1.36-2-1.33-3.24-1.07-4.27,1-.71,1.43-1.35,2.89-2,4.35-2.72,6-5.42,11.92-8.15,17.88-.4.87-.89,1.69-1.34,2.53a.81.81,0,0,1-1.21,0c-.73-1.42-1.49-2.82-2.15-4.27-2.87-6.24-5.71-12.49-8.57-18.74-.4-.87-.83-1.73-1.29-2.57a2.12,2.12,0,0,0-2.52-.81,37.3,37.3,0,0,0-3.24,2q-9.82,6.87-19.63,13.76a7.51,7.51,0,0,1-1.66.87c-.16.06-.63-.23-.68-.42a13.09,13.09,0,0,1,.18-4.75c.57-4.75,1.17-9.5,1.87-14.24a68.54,68.54,0,0,0,1-9,1.88,1.88,0,0,0-1.54-1.6,7.61,7.61,0,0,0-.95-.08c-.8,0-1.6,0-2.39.13-3.64.42-7.28.89-10.92,1.3-4.92.55-9.83,1.07-14.76,1.58a3.17,3.17,0,0,1-1.4-.18c-.19-.07-.43-.61-.34-.74a32.7,32.7,0,0,1,2-2.7q6.94-8.55,13.93-17.09c.4-.5.84-1,1.23-1.47,1.4-1.8,1.08-3.29-1-4.18-2.79-1.19-5.63-2.27-8.45-3.39L519.05,339l-.88-.37c-.35-.16-.53-.44-.37-.78a1.39,1.39,0,0,1,.55-.68c1.17-.52,2.36-1,3.54-1.46q10.46-4.15,20.92-8.31a28,28,0,0,0,2.61-1.21,2.25,2.25,0,0,0,.61-2.6,24,24,0,0,0-1.65-2.34Q537,312.11,529.57,303a10,10,0,0,1-1.1-1.56C528.35,301.24,528.5,300.87,528.54,300.49Z"/><path class="cls-3" d="M588.45,143.22c.56.25,1.1.33,1.37.65,1.67,1.94,3.25,3.95,4.9,5.9.72.85,1.52,1.63,2.31,2.42a1.58,1.58,0,0,0,1.79,0,14.89,14.89,0,0,0,1.74-1.62c1.43-1.71,2.8-3.49,4.22-5.22.5-.62,1.08-1.17,1.64-1.75a.85.85,0,0,1,1.21.24,16.77,16.77,0,0,1,.69,1.78c.69,2.46,1.33,4.93,2,7.39a7.9,7.9,0,0,0,.55,1.31,2.2,2.2,0,0,0,2.5.88q1.08-.51,2.13-1.08c2.39-1.29,4.76-2.62,7.16-3.88a1.79,1.79,0,0,1,1.36-.16c.66.32.43,1.07.43,1.67a2.58,2.58,0,0,1,0,.48c-.45,2.35-.92,4.69-1.34,7a9.35,9.35,0,0,0-.05,1.91,2,2,0,0,0,1.94,1.74c2.85-.37,5.68-.79,8.53-1.14,1.09-.13,2.19-.15,3.4-.22,0,.65.09,1.2-.12,1.56-1,1.8-2.15,3.55-3.24,5.32-.5.82-1,1.61-1.52,2.44-1.2,2-.68,3.29,1.62,3.84,3.1.75,6.21,1.47,9.31,2.24.25.06.47.36.65.59s0,.86-.43,1.22-1,.76-1.54,1.13l-5.5,3.85c-2,1.4-2.81,3,0,4.78,1.34.87,2.63,1.81,4,2.68a7.06,7.06,0,0,0,1.28.53,12.89,12.89,0,0,0,4.33-2.09,83.79,83.79,0,0,0,26.43-26c.69-1.07,1.37-2.15,2.11-3.19.15-.21.55-.25.84-.36a2.58,2.58,0,0,1,.19.88,71.43,71.43,0,0,1-33.5,50.74,81.36,81.36,0,0,1-26.48,10.77A56.87,56.87,0,0,1,604.87,224c-2.39.07-4.76.4-7.15.58-4.18.31-8.3-.41-12.38-1a79.75,79.75,0,0,1-18.85-5.27,77.56,77.56,0,0,1-28.39-19.92,70.92,70.92,0,0,1-16.72-33,28.53,28.53,0,0,1-.39-3.33c-.08-.76.11-1.12.46-1.12.6,0,.79.47,1,.84.46.65.85,1.35,1.28,2A80.6,80.6,0,0,0,549,189c6.43,4.06,5,3.86,11.15-.6a8.54,8.54,0,0,0,.73-.62,2.15,2.15,0,0,0-.08-3c-1-.8-2-1.53-3.08-2.28-1.8-1.32-3.6-2.63-5.4-4-.3-.22-.13-1.12.23-1.22,2-.54,4-1.06,6-1.59,1.54-.41,3.09-.79,4.62-1.25a2.08,2.08,0,0,0,1.1-2.8c-.68-1.26-1.45-2.47-2.19-3.7-1.07-1.77-2.16-3.54-3.23-5.31-.21-.34.27-1.07.65-1l9,1.17a21.07,21.07,0,0,0,2.37.21,2,2,0,0,0,1.86-1.84,37.34,37.34,0,0,0-.28-3.81c-.3-2.21-.69-4.41-1-6.63a1,1,0,0,1,.42-.75,1.07,1.07,0,0,1,.89-.05c2.54,1.35,5,2.76,7.58,4.11.84.45,1.74.8,2.62,1.18a1.7,1.7,0,0,0,1.67-.67,7.84,7.84,0,0,0,.86-1.68c.65-2.14,1.21-4.3,1.85-6.44C587.64,145.39,588.05,144.36,588.45,143.22Z"/><path class="cls-2" d="M723.67,428.18a18.27,18.27,0,0,1-1.85,8.1,33.3,33.3,0,0,0-2.61,7.68,12.4,12.4,0,0,0,3,10.66,50.34,50.34,0,0,0,4.1,4,16.32,16.32,0,0,1,3.35,4.64,15.19,15.19,0,0,1,1.72,7.38c0,1.75-.47,3.05-2.2,3.85a57.23,57.23,0,0,0-5,2.81c-5.07,3-8.73,7.43-11.74,12.41a80.92,80.92,0,0,0-5.52,11.16,38.17,38.17,0,0,0-2.78,12.57c-.21,4-.49,8-.77,11.95-.1,1.37-.92,1.86-2.31,1.45l-.46-.13c-.15,0-.29-.12-.45-.17-9.34-3.28-18.83-6.1-28.4-8.62-9-2.38-17.34-6.4-25.43-11A58.24,58.24,0,0,1,633,496.88c-4.57-4.69-9.26-9.28-13.77-14-2-2.08-3.67-4.42-5.44-6.68a3.68,3.68,0,0,1-.74-1.72,1.39,1.39,0,0,1,.56-1.18,12.21,12.21,0,0,1,2.74-.82A77.89,77.89,0,0,0,630.53,468c9.5-3.78,18.72-8.19,27.79-12.89,7.09-3.67,14.19-7.33,21.16-11.2,7.26-4,14.38-8.3,21.55-12.48,4.55-2.66,9.07-5.37,13.63-8,1.52-.88,3.12-1.6,4.7-2.37a1.69,1.69,0,0,1,1.75.44A8,8,0,0,1,723.67,428.18Z"/></g></g></svg>